<svg width="800" height="100" version="1.1" viewBox="0 0 800 100" xmlns="http://www.w3.org/2000/svg"><g><rect y="-1.4211e-14" width="800" height="100" rx="0" ry="40" fill="#f8d800" style="paint-order:fill markers stroke"/><path d="m684 10.002c-2.2159 0-4.0003 1.7844-4.0003 4.0004a75.996 75.996 0 0 1 75.996 75.996c2.2159 0 3.9996-1.7837 3.9996-3.9996v-25.162a85.33 85.33 0 0 0-50.837-50.837zm46.519 0a94.664 94.664 0 0 1 29.479 29.48v-25.48c0-2.2159-1.7837-4.0004-3.9996-4.0004zm-50.519 13.333v10a56.665 56.665 0 0 1 56.665 56.665h9.9995a66.665 66.665 0 0 0-66.665-66.665zm0 19.999v42.667c0 2.2159 1.7844 3.9996 4.0003 3.9996h42.663a46.664 46.664 0 0 0-46.664-46.664zm16.196 14.963a3.3332 3.3332 0 0 1 3.3334 3.3333 3.3332 3.3332 0 0 1-2.0801 3.0874l1.0886 5.3313-1.008 0.20532-1.0817-5.3003a3.3332 3.3332 0 0 1-0.25217 0.0092 3.3332 3.3332 0 0 1-3.3333-3.3327 3.3332 3.3332 0 0 1 3.3333-3.3333zm11.207 3.2817a2.676 2.676 0 0 1 2.676 2.676 2.676 2.676 0 0 1-2.676 2.676 2.676 2.676 0 0 1-0.99836-0.1936l-3.7531 4.7549-0.80681-0.63664 3.6952-4.6815a2.676 2.676 0 0 1-0.81303-1.9188 2.676 2.676 0 0 1 2.676-2.676zm-16.961 7.087a2.4212 2.4212 0 0 1 2.4211 2.4211 2.4212 2.4212 0 0 1-0.0814 0.61735l1.9974 0.87845-0.2756 0.84607-2.1008-0.92392a2.4212 2.4212 0 0 1-1.9609 1.0032 2.4212 2.4212 0 0 1-2.4211-2.4211 2.4212 2.4212 0 0 1 2.4211-2.4211zm8.8262 2.264a4.1298 4.1298 0 0 1 4.1298 4.1298 4.1298 4.1298 0 0 1-4.1298 4.1298 4.1298 4.1298 0 0 1-4.1298-4.1298 4.1298 4.1298 0 0 1 4.1298-4.1298zm4.2586 6.5826 3.866 2.8573a2.4797 2.4797 0 0 1 1.6818-0.65798 2.4797 2.4797 0 0 1 2.4797 2.4797 2.4797 2.4797 0 0 1-2.4797 2.4797 2.4797 2.4797 0 0 1-2.4797-2.4797 2.4797 2.4797 0 0 1 0.20394-0.98111l-3.8832-2.871zm-8.5133 0.1247 0.62904 0.81369-3.9852 3.0846a3.2384 3.2384 0 0 1 0.26457 1.2822 3.2384 3.2384 0 0 1-3.2383 3.2383 3.2384 3.2384 0 0 1-3.2383-3.2383 3.2384 3.2384 0 0 1 3.2383-3.2383 3.2384 3.2384 0 0 1 2.4184 1.0852z" fill="#fff" stroke-width=".35276" style="paint-order:fill markers stroke"/><path d="m44.002 10c-2.216 0-4.0004 1.7844-4.0004 4.0004a75.999 75.999 0 0 1 75.999 75.999c2.216 0 3.9997-1.7837 3.9997-3.9997v-25.162a85.332 85.332 0 0 0-50.837-50.837zm46.518 0a94.666 94.666 0 0 1 29.48 29.481v-25.48c0-2.216-1.7837-4.0004-3.9997-4.0004zm-50.519 13.333v10a56.666 56.666 0 0 1 56.666 56.666h9.9996a66.666 66.666 0 0 0-66.666-66.666zm0 20v42.666c0 2.216 1.7844 3.9997 4.0004 3.9997h42.666a46.666 46.666 0 0 0-46.666-46.666z" fill="#fff" stroke-width="1.3333" style="paint-order:fill markers stroke"/><text transform="matrix(1.2538 0 0 1.2357 13.918 107.95)" fill="#ffffff" font-family="'PrimaSans BT'" font-size="40px" font-weight="bold" style="line-height:1.25;shape-inside:url(#rect7782);white-space:pre" xml:space="preserve"/></g></svg>
