<?xml version="1.0" encoding="UTF-8" standalone="no"?>
<!-- Created with Inkscape (http://www.inkscape.org/) -->

<svg
   version="1.1"
   id="svg2"
   width="800"
   height="100"
   viewBox="0 0 800 100"
   sodipodi:docname="jMQTT.svg"
   inkscape:version="1.1 (c68e22c387, 2021-05-23)"
   xmlns:inkscape="http://www.inkscape.org/namespaces/inkscape"
   xmlns:sodipodi="http://sodipodi.sourceforge.net/DTD/sodipodi-0.dtd"
   xmlns="http://www.w3.org/2000/svg"
   xmlns:svg="http://www.w3.org/2000/svg">
  <defs
     id="defs6">
    <rect
       x="238.28198"
       y="-71.708683"
       width="313.72549"
       height="53.781513"
       id="rect7782" />
    <linearGradient
       id="a"
       x1="-10.98"
       x2="61.617"
       y1="16.912"
       y2="90.174"
       gradientTransform="translate(15.343 -12.747)"
       gradientUnits="userSpaceOnUse">
      <stop
         stop-color="#feefb4"
         offset="0"
         id="stop923" />
      <stop
         stop-color="#f9dc1f"
         offset=".5"
         id="stop925" />
      <stop
         stop-color="#fec400"
         offset="1"
         id="stop927" />
    </linearGradient>
    <filter
       id="b"
       x="-0.039999533"
       y="-0.1399993"
       width="1.1799979"
       height="1.1799991"
       color-interpolation-filters="sRGB">
      <feFlood
         flood-color="rgb(0,0,0)"
         flood-opacity=".49804"
         result="flood"
         id="feFlood930" />
      <feComposite
         in="flood"
         in2="SourceGraphic"
         operator="in"
         result="composite1"
         id="feComposite932" />
      <feGaussianBlur
         in="composite1"
         result="blur"
         stdDeviation="1"
         id="feGaussianBlur934" />
      <feOffset
         dx="6"
         dy="-6"
         result="offset"
         id="feOffset936" />
      <feComposite
         in="offset"
         in2="offset"
         operator="atop"
         result="composite2"
         id="feComposite938" />
    </filter>
    <filter
       id="b-0"
       x="-0.039999533"
       y="-0.1399993"
       width="1.1799979"
       height="1.1799991"
       color-interpolation-filters="sRGB">
      <feFlood
         flood-color="rgb(0,0,0)"
         flood-opacity=".49804"
         result="flood"
         id="feFlood1008" />
      <feComposite
         in="flood"
         in2="SourceGraphic"
         operator="in"
         result="composite1"
         id="feComposite1010" />
      <feGaussianBlur
         in="composite1"
         result="blur"
         stdDeviation="1"
         id="feGaussianBlur1012" />
      <feOffset
         dx="6"
         dy="-6"
         result="offset"
         id="feOffset1014" />
      <feComposite
         in="offset"
         in2="offset"
         operator="atop"
         result="composite2"
         id="feComposite1016" />
    </filter>
  </defs>
  <sodipodi:namedview
     id="namedview4"
     pagecolor="#505050"
     bordercolor="#ffffff"
     borderopacity="1"
     inkscape:pageshadow="0"
     inkscape:pageopacity="0"
     inkscape:pagecheckerboard="1"
     showgrid="false"
     inkscape:zoom="0.9466392"
     inkscape:cx="363.91901"
     inkscape:cy="202.2946"
     inkscape:window-width="1920"
     inkscape:window-height="1017"
     inkscape:window-x="-8"
     inkscape:window-y="-7"
     inkscape:window-maximized="1"
     inkscape:current-layer="layer1"
     showborder="true" />
  <g
     inkscape:groupmode="layer"
     id="layer1"
     inkscape:label="banner"
     style="display:inline">
    <rect
       x="0"
       y="-1.4210855e-14"
       width="800"
       height="100"
       fill="url(#a)"
       style="fill:#f8d800;fill-opacity:1;stroke:none;stroke-width:3.46193;paint-order:fill markers stroke"
       id="rect1021-1"
       ry="40"
       rx="40" />
    <path
       d="m 684.00176,10.002117 c -2.21592,0 -4.00034,1.784386 -4.00034,4.000355 a 75.996104,75.996104 0 0 1 75.99611,75.996102 c 2.2159,0 3.99964,-1.783689 3.99964,-3.999647 V 60.836922 A 85.330256,85.330256 0 0 0 709.16024,10 Z m 46.5191,0 A 94.664411,94.664411 0 0 1 760,39.481966 V 14.002117 c 0,-2.215923 -1.7837,-4.000356 -3.99965,-4.000356 z m -50.51944,13.332746 v 10.000178 a 56.664598,56.664598 0 0 1 56.66459,56.66459 h 9.99946 A 66.665477,66.665477 0 0 0 680,23.334154 Z m 0,19.999292 v 42.66689 c 0,2.215923 1.78439,3.999645 4.00034,3.999645 h 42.66338 A 46.663716,46.663716 0 0 0 680.00142,43.33697 Z m 16.19613,14.962868 a 3.3332032,3.3332032 0 0 1 3.33335,3.333345 3.3332032,3.3332032 0 0 1 -2.08008,3.087395 l 1.08859,5.331327 -1.00799,0.205322 -1.08172,-5.300285 a 3.3332032,3.3332032 0 0 1 -0.25217,0.0092 3.3332032,3.3332032 0 0 1 -3.33334,-3.332672 3.3332032,3.3332032 0 0 1 3.33334,-3.333345 z m 11.20734,3.281661 a 2.6760026,2.6760026 0 0 1 2.67604,2.676042 2.6760026,2.6760026 0 0 1 -2.67604,2.67603 2.6760026,2.6760026 0 0 1 -0.99836,-0.193604 l -3.75307,4.75492 -0.80681,-0.63664 3.69522,-4.681541 a 2.6760026,2.6760026 0 0 1 -0.81303,-1.918822 2.6760026,2.6760026 0 0 1 2.67605,-2.676042 z m -16.96093,7.087039 a 2.4211655,2.4211655 0 0 1 2.42112,2.42113 2.4211655,2.4211655 0 0 1 -0.0814,0.617348 l 1.9974,0.878451 -0.2756,0.84607 -2.10075,-0.923924 a 2.4211655,2.4211655 0 0 1 -1.96088,1.003184 2.4211655,2.4211655 0 0 1 -2.42113,-2.421129 2.4211655,2.4211655 0 0 1 2.42113,-2.42113 z m 8.82617,2.264049 a 4.1298167,4.1298167 0 0 1 4.12981,4.129814 4.1298167,4.1298167 0 0 1 -4.12981,4.129814 4.1298167,4.1298167 0 0 1 -4.12982,-4.129814 4.1298167,4.1298167 0 0 1 4.12982,-4.129814 z m 4.25857,6.582592 3.86596,2.857255 a 2.4796538,2.4796538 0 0 1 1.68184,-0.65798 2.4796538,2.4796538 0 0 1 2.47969,2.479691 2.4796538,2.4796538 0 0 1 -2.47969,2.479681 2.4796538,2.4796538 0 0 1 -2.47969,-2.479681 2.4796538,2.4796538 0 0 1 0.20394,-0.981112 l -3.88323,-2.871042 z m -8.51326,0.124699 0.62904,0.813688 -3.98518,3.084613 a 3.2383801,3.2383801 0 0 1 0.26457,1.282228 3.2383801,3.2383801 0 0 1 -3.23827,3.238273 3.2383801,3.2383801 0 0 1 -3.23827,-3.238273 3.2383801,3.2383801 0 0 1 3.23827,-3.238273 3.2383801,3.2383801 0 0 1 2.41838,1.085169 z"
       fill="#ffffff"
       style="display:inline;stroke-width:0.352765;paint-order:fill markers stroke"
       id="path1025-2" />
    <path
       d="M 44.001554,10 C 41.785579,10 40.0012,11.784379 40.0012,14.000352 a 75.999116,75.999116 0 0 1 75.99911,75.999119 c 2.21598,0 3.99969,-1.783713 3.99969,-3.999688 V 60.837409 A 85.332343,85.332343 0 0 0 69.163261,10.000668 Z m 46.518124,0 A 94.665567,94.665567 0 0 1 119.99934,39.480991 V 14.001286 c 0,-2.215972 -1.78372,-4.000354 -3.99969,-4.000354 z M 40.000266,23.333045 v 10.000283 a 56.666007,56.666007 0 0 1 56.666007,56.666009 h 9.999617 A 66.665892,66.665892 0 0 0 40,23.333445 Z m 0,19.999768 v 42.666171 c 0,2.215974 1.78438,3.999687 4.000354,3.999687 H 86.66679 A 46.666126,46.666126 0 0 0 40.000667,43.332545 Z"
       fill="#ffffff"
       style="display:inline;stroke-width:1.33332;paint-order:fill markers stroke"
       id="path947-4" />
    <text
       xml:space="preserve"
       id="text7780"
       style="font-style:normal;font-variant:normal;font-weight:bold;font-stretch:normal;font-size:40px;line-height:1.25;font-family:'PrimaSans BT';-inkscape-font-specification:'PrimaSans BT Bold';white-space:pre;shape-inside:url(#rect7782);display:inline;fill:#ffffff;fill-opacity:1;stroke:none"
       transform="matrix(1.2538369,0,0,1.2356577,13.918214,107.95323)"><tspan
         x="238.28125"
         y="-36.318359"
         id="tspan893">jMQTT</tspan></text>
  </g>
</svg>
