<?xml version="1.0" encoding="UTF-8" standalone="no"?>
<!-- Created with Inkscape (http://www.inkscape.org/) -->

<svg
   xmlns:dc="http://purl.org/dc/elements/1.1/"
   xmlns:cc="http://creativecommons.org/ns#"
   xmlns:rdf="http://www.w3.org/1999/02/22-rdf-syntax-ns#"
   xmlns:svg="http://www.w3.org/2000/svg"
   xmlns="http://www.w3.org/2000/svg"
   xmlns:sodipodi="http://sodipodi.sourceforge.net/DTD/sodipodi-0.dtd"
   xmlns:inkscape="http://www.inkscape.org/namespaces/inkscape"
   width="309"
   height="309"
   viewBox="0 0 81.756249 81.756252"
   version="1.1"
   id="svg999"
   inkscape:version="0.92.3 (2405546, 2018-03-11)"
   sodipodi:docname="node_boiteauxlettres.svg">
  <defs
     id="defs993" />
  <sodipodi:namedview
     id="base"
     pagecolor="#ffffff"
     bordercolor="#666666"
     borderopacity="1.0"
     inkscape:pageopacity="0.0"
     inkscape:pageshadow="2"
     inkscape:zoom="0.5"
     inkscape:cx="343.79017"
     inkscape:cy="538.29399"
     inkscape:document-units="mm"
     inkscape:current-layer="layer1"
     showgrid="false"
     units="px"
     inkscape:window-width="1853"
     inkscape:window-height="1025"
     inkscape:window-x="67"
     inkscape:window-y="27"
     inkscape:window-maximized="1" />
  <metadata
     id="metadata996">
    <rdf:RDF>
      <cc:Work
         rdf:about="">
        <dc:format>image/svg+xml</dc:format>
        <dc:type
           rdf:resource="http://purl.org/dc/dcmitype/StillImage" />
        <dc:title></dc:title>
      </cc:Work>
    </rdf:RDF>
  </metadata>
  <g
     inkscape:label="Calque 1"
     inkscape:groupmode="layer"
     id="layer1"
     transform="translate(0,-215.24373)">
    <path
       style="fill:#f8d800;fill-opacity:1;stroke-width:0.39520365"
       d="M 2.7907951,287.60704 C 2.0502131,287.20985 1.1193201,286.27896 0.72214211,285.53838 0.04700711,284.27951 1.130823e-7,282.729 1.130823e-7,261.71882 c 0,-24.35167 -0.005100003082,-24.2902 2.1508469869177,-25.70287 0.493428,-0.32331 5.679975,-2.72071 11.5256589,-5.32758 5.845686,-2.60685 11.606647,-5.19648 12.80214,-5.7547 l 2.173618,-1.01497 24.50879,-0.004 c 22.98602,-0.003 24.59245,0.0411 25.85531,0.71828 0.74057,0.39719 1.67444,1.33086 2.07524,2.07483 0.68787,1.27685 0.72282,2.63764 0.62334,24.27449 l -0.10545,22.92181 -0.88105,1.23517 c -0.71649,1.00446 -2.65369,2.02166 -10.37124,5.44581 -5.2196,2.31583 -11.1236,5.00563 -13.11999,5.97728 l -3.62981,1.76676 H 28.872387 c -23.2009269,0 -24.8185949,-0.0448 -26.0815919,-0.72214 z M 54.933304,284.01787 V 261.65293 239.288 c 0,-1.3658 -0.68182,-1.9401 -1.94008,-1.9401 H 28.652264 4.3113121 c -1.564696,-0.033 -1.94009,0.44585 -1.94009,1.9401 v 22.36493 22.36494 c 0,1.02227 0.867967,1.94008 1.94009,1.94008 h 24.3409519 24.34096 c 1.17097,0 1.94008,-0.84185 1.94008,-1.94008 z m -35.126981,-9.29851 -1.732272,-0.46487 2.977507,-1.29822 c 2.993877,-1.30535 5.329851,-3.19022 4.871947,-3.93113 -0.135445,-0.21917 -0.875453,-0.60614 -1.644449,-0.85993 -2.77464,-0.9157 -1.332907,-1.37014 4.708234,-1.48403 6.456874,-0.12174 7.52896,0.13458 7.134561,1.70602 -0.232775,0.92746 -0.160178,0.9722 1.577256,0.9722 2.404181,0 2.321409,0.61659 -0.154758,1.15287 -1.08681,0.23537 -2.865228,0.62052 -3.952036,0.85589 -1.652087,0.3578 -1.976019,0.57234 -1.976019,1.30869 0,0.48442 -0.362612,1.26996 -0.805805,1.74568 -0.73887,0.79308 -1.157414,0.86063 -5.038847,0.8133 -2.328171,-0.0284 -5.012565,-0.2608 -5.965319,-0.51647 z M 9.1140541,253.22432 c -1.552143,-0.83243 -2.790796,-2.87988 -2.790796,-4.61311 0,-1.73322 1.238653,-3.78069 2.790796,-4.61311 1.2469779,-0.66876 2.6620249,-0.72215 19.1430079,-0.72215 19.894129,0 19.701338,-0.0254 21.211659,2.7908 1.398793,2.6082 0.478813,5.79135 -2.068648,7.15757 -1.246981,0.66876 -2.662031,0.72213 -19.143011,0.72213 -16.480983,0 -17.89603,-0.0533 -19.1430079,-0.72213 z"
       id="path1627"
       inkscape:connector-curvature="0"
       sodipodi:nodetypes="ccscccccccccccccscccccccccccccccccsccscsccsccccscsccsc" />
  </g>
</svg>
