<?xml version="1.0" encoding="UTF-8" standalone="no"?>
<!-- Created with Inkscape (http://www.inkscape.org/) -->

<svg
   xmlns:dc="http://purl.org/dc/elements/1.1/"
   xmlns:cc="http://creativecommons.org/ns#"
   xmlns:rdf="http://www.w3.org/1999/02/22-rdf-syntax-ns#"
   xmlns:svg="http://www.w3.org/2000/svg"
   xmlns="http://www.w3.org/2000/svg"
   xmlns:sodipodi="http://sodipodi.sourceforge.net/DTD/sodipodi-0.dtd"
   xmlns:inkscape="http://www.inkscape.org/namespaces/inkscape"
   width="309"
   height="309"
   viewBox="0 0 81.756248 81.756252"
   version="1.1"
   id="svg8"
   sodipodi:docname="node_custom.svg"
   inkscape:version="0.92.3 (2405546, 2018-03-11)">
  <defs
     id="defs2">
    <inkscape:perspective
       sodipodi:type="inkscape:persp3d"
       inkscape:vp_x="0 : 148.5 : 1"
       inkscape:vp_y="0 : 1000 : 0"
       inkscape:vp_z="210 : 148.5 : 1"
       inkscape:persp3d-origin="105 : 99 : 1"
       id="perspective932" />
  </defs>
  <sodipodi:namedview
     id="base"
     pagecolor="#ffffff"
     bordercolor="#666666"
     borderopacity="1.0"
     inkscape:pageopacity="0.0"
     inkscape:pageshadow="2"
     inkscape:zoom="0.5"
     inkscape:cx="481.96324"
     inkscape:cy="631.27708"
     inkscape:document-units="mm"
     inkscape:current-layer="layer1"
     showgrid="false"
     inkscape:window-width="2493"
     inkscape:window-height="1385"
     inkscape:window-x="67"
     inkscape:window-y="27"
     inkscape:window-maximized="1"
     units="px" />
  <metadata
     id="metadata5">
    <rdf:RDF>
      <cc:Work
         rdf:about="">
        <dc:format>image/svg+xml</dc:format>
        <dc:type
           rdf:resource="http://purl.org/dc/dcmitype/StillImage" />
        <dc:title></dc:title>
      </cc:Work>
    </rdf:RDF>
  </metadata>
  <g
     inkscape:groupmode="layer"
     id="layer3"
     inkscape:label="Calque 2"
     style="display:inline"
     transform="translate(0,-215.24373)" />
  <g
     inkscape:label="Calque 1"
     inkscape:groupmode="layer"
     id="layer1"
     style="display:inline"
     transform="translate(0,-215.24373)">
    <g
       id="g2007"
       transform="matrix(1.4425681,0,0,1.4425681,-40.190478,83.222374)">
      <g
         transform="matrix(0.02159881,0,0,0.02159881,137.89644,99.442394)"
         id="g1944"
         style="display:inline">
        <g
           transform="translate(-3460.5977,-281.74778)"
           id="g1965">
          <path
             inkscape:connector-curvature="0"
             d="m 52.36,12.9 c -21.47,7.67 -33.92,20.7 -40.25,42.36 -4.02,13.99 -2.3,28.37 5.18,43.51 6.32,13.22 15.14,21.27 30.09,28.17 9.01,4.22 11.12,4.22 105.99,5.37 93.34,1.15 108.68,2.11 149.5,8.63 209.68,33.35 395.41,169.63 492.39,361.1 35.07,69.19 56.92,139.34 67.47,217.73 3.64,26.64 4.41,42.93 5.37,128.22 l 1.15,97.75 6.52,12.08 c 11.31,20.89 29.9,31.82 53.86,32.01 24.73,0 44.85,-12.65 55.39,-35.27 L 990,943.83 V 849.91 C 990,750.44 988.85,732.23 980.23,678.37 929.44,362.89 691.19,106.24 379.54,31.69 307.28,14.44 274.7,11.18 158.16,10.22 68.65,9.45 61.75,9.65 52.36,12.9 Z"
             id="path1934"
             style="fill:#f8d800;fill-opacity:1;stroke-width:0.1" />
          <path
             inkscape:connector-curvature="0"
             d="m 52.36,319.76 c -21.27,7.28 -33.92,20.51 -40.25,42.17 -4.02,13.99 -2.3,28.37 5.18,43.51 6.51,13.22 15.14,21.27 30.09,28.17 8.62,3.83 12.84,4.22 68.62,5.37 64.21,1.34 85.29,3.64 122.67,13.22 152.95,39.48 272.93,160.43 310.31,312.8 9.2,37.57 10.93,54.62 12.46,119.41 l 1.15,61.33 6.52,12.08 c 11.31,20.89 29.9,31.82 53.86,32.01 24.73,0 44.85,-12.65 55.39,-35.27 4.79,-10.54 4.98,-11.69 5.56,-56.73 0.96,-67.85 -3.64,-113.47 -16.86,-165.79 C 622,553.21 487.83,407.36 312.46,346.6 248.83,324.37 192.67,316.12 108.33,316.12 c -39.1,0.19 -47.53,0.58 -55.97,3.64 z"
             id="path1936"
             style="fill:#f8d800;fill-opacity:1;stroke-width:0.1" />
          <path
             inkscape:connector-curvature="0"
             d="m 56.39,624.51 c -9.01,2.3 -25.49,11.88 -30.67,18.02 -10.73,12.65 -14.95,24.34 -14.95,40.63 -0.19,13.61 0.57,16.87 6.13,28.18 11.12,22.62 27.22,31.82 60.95,34.31 11.88,0.96 27.22,2.88 34.12,4.41 68.04,15.91 122.48,70.34 138.19,138.19 1.72,6.9 3.83,22.81 4.79,35.46 1.53,20.32 2.3,24.34 7.86,34.5 18.98,35.65 68.04,42.93 96.6,14.38 9.39,-9.39 16.48,-25.11 17.63,-39.1 0.57,-6.13 0,-21.46 -1.34,-33.92 C 362.48,769.61 271.25,664 144.94,632.37 112.93,624.32 72.49,620.68 56.39,624.51 Z"
             id="path1938"
             style="fill:#f8d800;fill-opacity:1;stroke-width:0.1" />
        </g>
      </g>
      <path
         sodipodi:nodetypes="ccccccccccccccccccccccccccccccc"
         inkscape:connector-curvature="0"
         id="path1165"
         d="m 59.54323,109.66563 -10.712631,7.09947 0.55612,0.50443 10.010286,-6.63125 0.492187,0.49206 -4.508333,3.02396 1.681641,1.68164 4.676302,-3.20508 0.708594,0.69127 -4.69349,3.08607 1.827865,1.76615 4.56901,-3.08294 0.583984,0.58398 -4.516015,3.10195 1.724349,1.73073 4.580339,-3.15846 4.02539,3.8457 0.628516,-0.45351 -4.577735,-4.37852 -4.613281,3.20117 -0.609375,-0.66015 4.578385,-3.22266 -1.65052,-1.52019 -4.681771,3.13543 -0.695313,-0.74805 4.691537,-3.05104 -1.794402,-1.73269 -4.664713,3.08646 -0.583984,-0.58398 4.500651,-3.07656 z"
         style="color:#000000;font-style:normal;font-variant:normal;font-weight:normal;font-stretch:normal;font-size:medium;line-height:normal;font-family:sans-serif;font-variant-ligatures:normal;font-variant-position:normal;font-variant-caps:normal;font-variant-numeric:normal;font-variant-alternates:normal;font-feature-settings:normal;text-indent:0;text-align:start;text-decoration:none;text-decoration-line:none;text-decoration-style:solid;text-decoration-color:#000000;letter-spacing:normal;word-spacing:normal;text-transform:none;writing-mode:lr-tb;direction:ltr;text-orientation:mixed;dominant-baseline:auto;baseline-shift:baseline;text-anchor:start;white-space:normal;shape-padding:0;clip-rule:nonzero;display:inline;overflow:visible;visibility:visible;opacity:1;isolation:auto;mix-blend-mode:normal;color-interpolation:sRGB;color-interpolation-filters:linearRGB;solid-color:#000000;solid-opacity:1;vector-effect:none;fill:#f8d800;fill-opacity:1;fill-rule:evenodd;stroke:none;stroke-width:0.76499999;stroke-linecap:butt;stroke-linejoin:miter;stroke-miterlimit:4;stroke-dasharray:none;stroke-dashoffset:0;stroke-opacity:1;color-rendering:auto;image-rendering:auto;shape-rendering:auto;text-rendering:auto;enable-background:accumulate" />
      <path
         sodipodi:nodetypes="ccccc"
         inkscape:connector-curvature="0"
         id="path1167"
         d="m 52.822266,114.65625 -0.539063,0.54492 7.347656,7.27539 0.636329,-0.44375 z"
         style="color:#000000;font-style:normal;font-variant:normal;font-weight:normal;font-stretch:normal;font-size:medium;line-height:normal;font-family:sans-serif;font-variant-ligatures:normal;font-variant-position:normal;font-variant-caps:normal;font-variant-numeric:normal;font-variant-alternates:normal;font-feature-settings:normal;text-indent:0;text-align:start;text-decoration:none;text-decoration-line:none;text-decoration-style:solid;text-decoration-color:#000000;letter-spacing:normal;word-spacing:normal;text-transform:none;writing-mode:lr-tb;direction:ltr;text-orientation:mixed;dominant-baseline:auto;baseline-shift:baseline;text-anchor:start;white-space:normal;shape-padding:0;clip-rule:nonzero;display:inline;overflow:visible;visibility:visible;opacity:1;isolation:auto;mix-blend-mode:normal;color-interpolation:sRGB;color-interpolation-filters:linearRGB;solid-color:#000000;solid-opacity:1;vector-effect:none;fill:#f8d800;fill-opacity:1;fill-rule:evenodd;stroke:none;stroke-width:0.76499999;stroke-linecap:butt;stroke-linejoin:miter;stroke-miterlimit:4;stroke-dasharray:none;stroke-dashoffset:0;stroke-opacity:1;color-rendering:auto;image-rendering:auto;shape-rendering:auto;text-rendering:auto;enable-background:accumulate" />
      <path
         sodipodi:nodetypes="ccccccccccc"
         inkscape:connector-curvature="0"
         d="m 28.310415,127.60055 30.261716,-20.17448 14.915796,13.89529 -30.521508,21.16667 -0.0095,1.27094 m 30.530961,-22.43761 -0.0473,1.22843 -30.483661,21.20918 -14.613484,-14.9678 -0.03307,-1.19062 14.656001,14.88748"
         style="fill:none;fill-rule:evenodd;stroke:#f8d800;stroke-width:0.89999998;stroke-linecap:butt;stroke-linejoin:round;stroke-miterlimit:4;stroke-dasharray:none;stroke-opacity:1"
         id="path1206" />
      <path
         transform="scale(0.26458333)"
         inkscape:connector-curvature="0"
         id="path1322"
         d="m 163.03903,540.43509 v -1.49878 l 56.83433,-39.41789 c 31.25889,-21.67983 56.89689,-39.43376 56.97333,-39.45316 0.0973,-0.0247 0.12593,0.34991 0.0954,1.25 -0.024,0.7069 -0.0618,1.34352 -0.0841,1.4147 -0.0381,0.12168 -113.43024,79.07276 -113.69545,79.16225 -0.0768,0.0259 -0.12348,-0.5254 -0.12348,-1.45712 z"
         style="opacity:1;fill:#f8d800;fill-opacity:1;stroke:#f8d800;stroke-width:0.18897638;stroke-linecap:round;stroke-linejoin:round;stroke-miterlimit:4;stroke-dasharray:none;stroke-opacity:1" />
      <path
         transform="scale(0.26458333)"
         inkscape:connector-curvature="0"
         id="path1324"
         d="m 134.64909,513.9646 -26.79756,-27.44843 -0.0359,-1.11407 c -0.0204,-0.63127 0.0146,-1.11406 0.0806,-1.11406 0.0641,0 12.17403,12.24587 26.91095,27.21305 l 26.79438,27.21305 0.0353,1.34945 c 0.0195,0.74496 -0.0152,1.34945 -0.0774,1.34945 -0.062,0 -12.17168,-12.3518 -26.91034,-27.44844 z"
         style="opacity:1;fill:#f8d800;fill-opacity:1;stroke:#f8d800;stroke-width:0.18897638;stroke-linecap:round;stroke-linejoin:round;stroke-miterlimit:4;stroke-dasharray:none;stroke-opacity:1" />
      <path
         d="m 45.243751,135.28998 a 0.77721351,0.64492184 0 0 1 -0.745581,0.64439 0.77721351,0.64492184 0 0 1 -0.806271,-0.59194 0.77721351,0.64492184 0 0 1 0.67995,-0.69257 0.77721351,0.64492184 0 0 1 0.861619,0.53556 l -0.766931,0.10456 z"
         sodipodi:end="6.1203392"
         sodipodi:start="0"
         sodipodi:ry="0.64492184"
         sodipodi:rx="0.77721351"
         sodipodi:cy="135.28998"
         sodipodi:cx="44.466537"
         sodipodi:type="arc"
         id="path829"
         style="opacity:1;fill:#f8d800;fill-opacity:1;stroke:#f8d800;stroke-width:0.40000001;stroke-linecap:round;stroke-linejoin:round;stroke-miterlimit:4;stroke-dasharray:none;stroke-opacity:1" />
      <path
         d="m 41.886245,137.29187 a 0.77721351,0.6449219 0 0 1 -0.756099,0.64468 0.77721351,0.6449219 0 0 1 -0.797181,-0.60965 0.77721351,0.6449219 0 0 1 0.712786,-0.67781 0.77721351,0.6449219 0 0 1 0.835909,0.57283 l -0.772628,0.0699 z"
         sodipodi:end="6.1745044"
         sodipodi:start="0"
         sodipodi:ry="0.6449219"
         sodipodi:rx="0.77721351"
         sodipodi:cy="137.29187"
         sodipodi:cx="41.109032"
         sodipodi:type="arc"
         id="path829-8"
         style="display:inline;opacity:1;fill:#f8d800;fill-opacity:1;stroke:#f8d800;stroke-width:0.40000001;stroke-linecap:round;stroke-linejoin:round;stroke-miterlimit:4;stroke-dasharray:none;stroke-opacity:1" />
      <path
         d="m 42.613849,132.86008 a 0.77721351,0.6449219 0 0 1 -0.762321,0.6448 0.77721351,0.6449219 0 0 1 -0.791535,-0.62009 0.77721351,0.6449219 0 0 1 0.731988,-0.66857 0.77721351,0.6449219 0 0 1 0.819586,0.59447 l -0.774931,0.0494 z"
         sodipodi:end="6.2065363"
         sodipodi:start="0"
         sodipodi:ry="0.6449219"
         sodipodi:rx="0.77721351"
         sodipodi:cy="132.86008"
         sodipodi:cx="41.836636"
         sodipodi:type="arc"
         id="path829-9"
         style="display:inline;opacity:1;fill:#f8d800;fill-opacity:1;stroke:#f8d800;stroke-width:0.40000001;stroke-linecap:round;stroke-linejoin:round;stroke-miterlimit:4;stroke-dasharray:none;stroke-opacity:1" />
      <path
         d="m 39.273483,134.94368 a 0.77721351,0.6449219 0 0 1 -0.763472,0.64482 0.77721351,0.6449219 0 0 1 -0.790469,-0.62202 0.77721351,0.6449219 0 0 1 0.73552,-0.66682 0.77721351,0.6449219 0 0 1 0.816478,0.59845 l -0.775271,0.0456 z"
         sodipodi:end="6.2124598"
         sodipodi:start="0"
         sodipodi:ry="0.6449219"
         sodipodi:rx="0.77721351"
         sodipodi:cy="134.94368"
         sodipodi:cx="38.496269"
         sodipodi:type="arc"
         id="path829-6"
         style="display:inline;opacity:1;fill:#f8d800;fill-opacity:1;stroke:#f8d800;stroke-width:0.40000001;stroke-linecap:round;stroke-linejoin:round;stroke-miterlimit:4;stroke-dasharray:none;stroke-opacity:1" />
      <path
         d="m 39.902488,130.47787 a 0.77721351,0.6449219 0 0 1 -0.763472,0.64483 0.77721351,0.6449219 0 0 1 -0.790469,-0.62202 0.77721351,0.6449219 0 0 1 0.73552,-0.66682 0.77721351,0.6449219 0 0 1 0.816478,0.59844 l -0.77527,0.0456 z"
         sodipodi:end="6.2124598"
         sodipodi:start="0"
         sodipodi:ry="0.6449219"
         sodipodi:rx="0.77721351"
         sodipodi:cy="130.47787"
         sodipodi:cx="39.125275"
         sodipodi:type="arc"
         id="path829-6-4"
         style="display:inline;opacity:1;fill:#f8d800;fill-opacity:1;stroke:#f8d800;stroke-width:0.40000001;stroke-linecap:round;stroke-linejoin:round;stroke-miterlimit:4;stroke-dasharray:none;stroke-opacity:1" />
      <path
         d="m 37.256656,127.66667 a 0.77721351,0.6449219 0 0 1 -0.763472,0.64482 0.77721351,0.6449219 0 0 1 -0.790469,-0.62202 0.77721351,0.6449219 0 0 1 0.73552,-0.66681 0.77721351,0.6449219 0 0 1 0.816478,0.59844 l -0.77527,0.0456 z"
         sodipodi:end="6.2124598"
         sodipodi:start="0"
         sodipodi:ry="0.6449219"
         sodipodi:rx="0.77721351"
         sodipodi:cy="127.66667"
         sodipodi:cx="36.479443"
         sodipodi:type="arc"
         id="path829-6-3"
         style="display:inline;opacity:1;fill:#f8d800;fill-opacity:1;stroke:#f8d800;stroke-width:0.40000001;stroke-linecap:round;stroke-linejoin:round;stroke-miterlimit:4;stroke-dasharray:none;stroke-opacity:1" />
      <path
         d="m 36.661342,132.56146 a 0.77721351,0.6449219 0 0 1 -0.763472,0.64482 0.77721351,0.6449219 0 0 1 -0.790469,-0.62202 0.77721351,0.6449219 0 0 1 0.73552,-0.66681 0.77721351,0.6449219 0 0 1 0.816478,0.59844 l -0.77527,0.0456 z"
         sodipodi:end="6.2124598"
         sodipodi:start="0"
         sodipodi:ry="0.6449219"
         sodipodi:rx="0.77721351"
         sodipodi:cy="132.56146"
         sodipodi:cx="35.884129"
         sodipodi:type="arc"
         id="path829-6-33"
         style="display:inline;opacity:1;fill:#f8d800;fill-opacity:1;stroke:#f8d800;stroke-width:0.40000001;stroke-linecap:round;stroke-linejoin:round;stroke-miterlimit:4;stroke-dasharray:none;stroke-opacity:1" />
      <path
         d="m 34.1478,129.91562 a 0.77721351,0.6449219 0 0 1 -0.763472,0.64482 0.77721351,0.6449219 0 0 1 -0.790469,-0.62202 0.77721351,0.6449219 0 0 1 0.73552,-0.66682 0.77721351,0.6449219 0 0 1 0.816478,0.59844 l -0.775271,0.0456 z"
         sodipodi:end="6.2124598"
         sodipodi:start="0"
         sodipodi:ry="0.6449219"
         sodipodi:rx="0.77721351"
         sodipodi:cy="129.91562"
         sodipodi:cx="33.370586"
         sodipodi:type="arc"
         id="path829-6-8"
         style="display:inline;opacity:1;fill:#f8d800;fill-opacity:1;stroke:#f8d800;stroke-width:0.40000001;stroke-linecap:round;stroke-linejoin:round;stroke-miterlimit:4;stroke-dasharray:none;stroke-opacity:1" />
      <path
         sodipodi:nodetypes="cccccc"
         inkscape:connector-curvature="0"
         id="path897"
         d="m 32.477604,137.98542 c 0,0 0.330729,0.59531 0.79375,0.56224 0.463021,-0.0331 0.760677,-0.59532 0.760677,-0.59532 v -3.73723 l -1.521354,-1.55444 z"
         style="fill:#f8d800;fill-opacity:1;fill-rule:evenodd;stroke:none;stroke-width:0.26458332px;stroke-linecap:butt;stroke-linejoin:miter;stroke-opacity:1" />
      <path
         inkscape:transform-center-y="-2.2820313"
         inkscape:transform-center-x="2.1497396"
         sodipodi:nodetypes="cccccc"
         inkscape:connector-curvature="0"
         id="path897-6"
         d="m 34.865236,140.4844 c 0,0 0.33073,0.59531 0.793751,0.56224 0.46302,-0.0331 0.760676,-0.59532 0.760676,-0.59532 v -3.73723 l -1.521354,-1.55444 z"
         style="display:inline;fill:#f8d800;fill-opacity:1;fill-rule:evenodd;stroke:none;stroke-width:0.26458332px;stroke-linecap:butt;stroke-linejoin:miter;stroke-opacity:1" />
      <path
         sodipodi:nodetypes="cccccc"
         inkscape:connector-curvature="0"
         id="path897-0"
         d="m 37.488151,143.01185 c 0,0 0.330729,0.59531 0.79375,0.56224 0.463021,-0.0331 0.760677,-0.59532 0.760677,-0.59532 v -3.73723 l -1.521354,-1.55444 z"
         style="display:inline;fill:#f8d800;fill-opacity:1;fill-rule:evenodd;stroke:none;stroke-width:0.26458332px;stroke-linecap:butt;stroke-linejoin:miter;stroke-opacity:1" />
      <path
         sodipodi:nodetypes="cccccc"
         inkscape:connector-curvature="0"
         id="path897-4"
         d="m 40.078172,145.57748 c 0,0 0.330729,0.59531 0.79375,0.56224 0.463021,-0.0331 0.760677,-0.59532 0.760677,-0.59532 v -3.73723 l -1.521354,-1.55444 z"
         style="display:inline;fill:#f8d800;fill-opacity:1;fill-rule:evenodd;stroke:none;stroke-width:0.26458332px;stroke-linecap:butt;stroke-linejoin:miter;stroke-opacity:1" />
      <path
         sodipodi:nodetypes="cccccc"
         inkscape:connector-curvature="0"
         id="path897-8"
         d="m 43.93737,143.14413 c 0,0 0.330729,0.59531 0.79375,0.56224 0.463021,-0.0331 0.760677,-0.59532 0.760677,-0.59532 v -2.41431 l -1.5875,0.99217 z"
         style="display:inline;fill:#f8d800;fill-opacity:1;fill-rule:evenodd;stroke:none;stroke-width:0.26458332px;stroke-linecap:butt;stroke-linejoin:miter;stroke-opacity:1" />
      <path
         sodipodi:nodetypes="ccccc"
         inkscape:connector-curvature="0"
         id="path948"
         d="m 40.977343,123.00339 5.027084,4.66328 5.78776,-3.83646 -5.060156,-4.69636 z"
         style="fill:none;fill-rule:evenodd;stroke:#f8d800;stroke-width:0.065;stroke-linecap:butt;stroke-linejoin:miter;stroke-miterlimit:4;stroke-dasharray:none;stroke-opacity:1" />
      <path
         inkscape:connector-curvature="0"
         d="m 40.977343,123.00339 v 0.9095 l 4.977474,4.74596 5.78776,-3.96875 0.04961,-0.85989"
         style="fill:none;fill-rule:evenodd;stroke:#f8d800;stroke-width:0.065;stroke-linecap:butt;stroke-linejoin:miter;stroke-miterlimit:4;stroke-dasharray:none;stroke-opacity:1"
         id="path950" />
      <path
         transform="scale(0.26458333)"
         inkscape:connector-curvature="0"
         id="path974"
         d="m 164.36032,477.19164 -9.34644,-8.91172 v -1.50099 c 0,-0.95714 0.0223,-1.49345 0.0615,-1.48016 0.0338,0.0115 4.21181,3.87395 9.28438,8.58333 5.07258,4.70937 9.28941,8.61545 9.37074,8.68016 l 0.14787,0.11766 9.45837,-6.26914 c 5.2021,-3.44803 10.0702,-6.67664 10.81799,-7.17471 0.74779,-0.49806 1.37677,-0.88841 1.39774,-0.86745 0.021,0.021 0.003,0.6659 -0.0404,1.43319 l -0.0785,1.39506 -10.34499,7.09261 c -5.68974,3.90094 -10.57829,7.2549 -10.86344,7.45325 l -0.51845,0.36063 z"
         style="opacity:1;fill:#f8d800;fill-opacity:1;stroke:none;stroke-width:0.01535433;stroke-linecap:round;stroke-linejoin:round;stroke-miterlimit:4;stroke-dasharray:none;stroke-opacity:1" />
      <path
         transform="scale(0.26458333)"
         inkscape:connector-curvature="0"
         id="path976"
         d="m 164.23263,477.40923 -9.4375,-8.99785 -0.0312,-1.7775 -0.0312,-1.77749 10.90038,-7.33089 c 5.99521,-4.032 10.93156,-7.33872 10.96967,-7.34827 0.0566,-0.0142 18.43333,16.97461 19.07239,17.63193 l 0.19245,0.19794 -0.0987,1.63874 c -0.077,1.27814 -0.11932,1.65867 -0.19244,1.72929 -0.0744,0.0718 -21.15893,14.54521 -21.75,14.93018 l -0.15625,0.10177 z m 9.46875,8.67126 c 0,-0.0112 -0.0773,-0.0885 -0.17188,-0.17187 l -0.17187,-0.15152 0.15152,0.17187 c 0.14162,0.16065 0.19223,0.20054 0.19223,0.15152 z m -0.8125,-0.74707 c 0,-0.01 -0.18985,-0.19943 -0.42188,-0.42188 l -0.42187,-0.40444 0.40444,0.42187 c 0.37567,0.39186 0.43931,0.45045 0.43931,0.40445 z m -1.375,-1.3125 c 0,-0.01 -0.18985,-0.19943 -0.42188,-0.42188 l -0.42187,-0.40444 0.40444,0.42187 c 0.37567,0.39186 0.43931,0.45045 0.43931,0.40445 z m -1.4375,-1.37533 c 0,-0.01 -0.16172,-0.17149 -0.35938,-0.35938 l -0.35937,-0.34161 0.34161,0.35937 c 0.31737,0.33388 0.37714,0.38801 0.37714,0.34162 z m 3.625,-0.1276 c 0,-0.0112 -0.0773,-0.0885 -0.17188,-0.17187 l -0.17187,-0.15152 0.15152,0.17187 c 0.14162,0.16065 0.19223,0.20054 0.19223,0.15152 z m 10.23872,-6.80213 c 5.45464,-3.61519 10.30225,-6.8297 10.77246,-7.14336 l 0.85492,-0.57029 -9.44867,-8.76805 c -5.19678,-4.82243 -9.47205,-8.77289 -9.50061,-8.7788 -0.0694,-0.0144 -21.54037,14.41586 -21.52365,14.46567 0.007,0.0214 4.23183,3.95209 9.38808,8.73482 5.50212,5.10355 9.40907,8.68291 9.45747,8.66448 0.0454,-0.0173 4.54537,-2.98928 10,-6.60447 z m -10.98872,6.116 c 0,-0.0104 -0.10547,-0.11591 -0.23438,-0.23437 l -0.23437,-0.21539 0.21538,0.23437 c 0.20048,0.21816 0.25337,0.26312 0.25337,0.21539 z m -4.125,-0.37344 c 0,-0.01 -0.18985,-0.19943 -0.42188,-0.42188 l -0.42187,-0.40444 0.40444,0.42187 c 0.37567,0.39186 0.43931,0.45045 0.43931,0.40445 z m 3.3125,-0.37614 c 0,-0.0102 -0.11953,-0.12974 -0.26563,-0.26562 l -0.26562,-0.24706 0.24706,0.26562 c 0.22976,0.24703 0.28419,0.29435 0.28419,0.24706 z m -1.0625,-1.01268 c -0.15182,-0.15469 -0.29009,-0.28125 -0.30728,-0.28125 -0.0172,0 0.093,0.12656 0.24478,0.28125 0.15181,0.15469 0.29009,0.28125 0.30727,0.28125 0.0172,0 -0.093,-0.12656 -0.24477,-0.28125 z m -3.5625,0.13882 c 0,-0.01 -0.18985,-0.19943 -0.42188,-0.42188 l -0.42187,-0.40444 0.40444,0.42187 c 0.37567,0.39186 0.43931,0.45045 0.43931,0.40445 z m 3,-0.62554 c 0,-0.01 -0.14766,-0.15755 -0.32813,-0.32813 l -0.32812,-0.31015 0.31015,0.32812 c 0.2882,0.3049 0.3461,0.35679 0.3461,0.31016 z m -4.375,-0.68696 c 0,-0.01 -0.18985,-0.19943 -0.42188,-0.42188 l -0.42187,-0.40444 0.40444,0.42187 c 0.37567,0.39186 0.43931,0.45045 0.43931,0.40445 z m 3.5,-0.12554 c 0,-0.01 -0.14766,-0.15755 -0.32813,-0.32813 l -0.32812,-0.31015 0.31015,0.32812 c 0.2882,0.3049 0.3461,0.35679 0.3461,0.31016 z m -0.875,-0.8125 c 0,-0.01 -0.14766,-0.15755 -0.32813,-0.32813 l -0.32812,-0.31015 0.31015,0.32812 c 0.2882,0.3049 0.3461,0.35679 0.3461,0.31016 z m -3.9375,-0.31196 c 0,-0.01 -0.18985,-0.19943 -0.42188,-0.42188 l -0.42187,-0.40444 0.40444,0.42187 c 0.37567,0.39186 0.43931,0.45045 0.43931,0.40445 z m 3.125,-0.43804 c 0,-0.01 -0.14766,-0.15755 -0.32813,-0.32813 l -0.32812,-0.31015 0.31015,0.32812 c 0.2882,0.3049 0.3461,0.35679 0.3461,0.31016 z m -0.875,-0.8125 c 0,-0.01 -0.14766,-0.15755 -0.32813,-0.32813 l -0.32812,-0.31015 0.31015,0.32812 c 0.2882,0.3049 0.3461,0.35679 0.3461,0.31016 z m -3.625,-0.062 c 0,-0.01 -0.18985,-0.19943 -0.42188,-0.42188 l -0.42187,-0.40444 0.40444,0.42187 c 0.37567,0.39186 0.43931,0.45045 0.43931,0.40445 z m 2.75,-0.75054 c 0,-0.01 -0.14766,-0.15755 -0.32813,-0.32813 l -0.32812,-0.31015 0.31015,0.32812 c 0.2882,0.3049 0.3461,0.35679 0.3461,0.31016 z m -4.0625,-0.49946 c 0,-0.01 -0.18985,-0.19943 -0.42188,-0.42188 l -0.42187,-0.40444 0.40444,0.42187 c 0.37567,0.39186 0.43931,0.45045 0.43931,0.40445 z m 3.1875,-0.31304 c 0,-0.01 -0.14766,-0.15755 -0.32813,-0.32813 l -0.32812,-0.31015 0.31015,0.32812 c 0.2882,0.3049 0.3461,0.35679 0.3461,0.31016 z m -0.875,-0.8125 c 0,-0.01 -0.14766,-0.15755 -0.32813,-0.32813 l -0.32812,-0.31015 0.31015,0.32812 c 0.2882,0.3049 0.3461,0.35679 0.3461,0.31016 z m -3.6875,-0.18696 c 0,-0.01 -0.18985,-0.19943 -0.42188,-0.42188 l -0.42187,-0.40444 0.40444,0.42187 c 0.37567,0.39186 0.43931,0.45045 0.43931,0.40445 z m 2.875,-0.56283 c 0,-0.01 -0.16172,-0.17149 -0.35938,-0.35938 l -0.35937,-0.34161 0.34161,0.35937 c 0.31737,0.33388 0.37714,0.38801 0.37714,0.34162 z m -4.1875,-0.68717 c 0,-0.01 -0.18985,-0.19943 -0.42188,-0.42188 l -0.42187,-0.40444 0.40444,0.42187 c 0.37567,0.39186 0.43931,0.45045 0.43931,0.40445 z m 3.3125,-0.12554 c 0,-0.01 -0.14766,-0.15755 -0.32813,-0.32813 l -0.32812,-0.31015 0.31015,0.32812 c 0.2882,0.3049 0.3461,0.35679 0.3461,0.31016 z m -0.875,-0.8125 c 0,-0.01 -0.14766,-0.15755 -0.32813,-0.32813 l -0.32812,-0.31015 0.31015,0.32812 c 0.2882,0.3049 0.3461,0.35679 0.3461,0.31016 z m -3.8125,-0.37446 c 0,-0.01 -0.18985,-0.19943 -0.42188,-0.42188 l -0.42187,-0.40444 0.40444,0.42187 c 0.37567,0.39186 0.43931,0.45045 0.43931,0.40445 z m 3,-0.37533 c 0,-0.01 -0.16172,-0.17149 -0.35938,-0.35938 l -0.35937,-0.34161 0.34161,0.35937 c 0.31737,0.33388 0.37714,0.38801 0.37714,0.34162 z m 34.41911,-0.56037 c -0.0149,-0.0773 -0.0271,-0.0141 -0.0271,0.14063 0,0.15469 0.0122,0.21797 0.0271,0.14062 0.0149,-0.0773 0.0149,-0.2039 0,-0.28125 z m -35.29411,-0.25213 c 0,-0.01 -0.16172,-0.17149 -0.35938,-0.35938 l -0.35937,-0.34161 0.34161,0.35937 c 0.31737,0.33388 0.37714,0.38801 0.37714,0.34162 z m -3.4375,-0.0622 c 0,-0.01 -0.18985,-0.19943 -0.42188,-0.42188 l -0.42187,-0.40444 0.40444,0.42187 c 0.37567,0.39186 0.43931,0.45045 0.43931,0.40445 z m 38.79576,-1.0607 c -0.0132,-0.14609 -0.0239,-0.0266 -0.0239,0.26563 0,0.29219 0.0108,0.41172 0.0239,0.26562 0.0132,-0.14609 0.0132,-0.38515 0,-0.53125 z m -36.17076,0.37305 c 0,-0.01 -0.17578,-0.18545 -0.39063,-0.39063 l -0.39062,-0.37304 0.37304,0.39062 c 0.34653,0.36286 0.40821,0.41923 0.40821,0.37305 z m -4,-0.62698 c 0,-0.0108 -0.0914,-0.10216 -0.20313,-0.20312 l -0.20312,-0.18357 0.18357,0.20312 c 0.17111,0.18935 0.22268,0.23186 0.22268,0.18357 z m 40.16667,-0.13301 c 0.077,0.10534 0.0833,0.10124 0.0833,-0.0542 0,-0.0925 -0.0178,-0.1682 -0.0395,-0.1682 -0.0598,0 -0.4605,0.25539 -0.4605,0.29354 0,0.0183 0.075,-0.0158 0.16667,-0.0759 0.15925,-0.10435 0.17037,-0.10413 0.25,0.005 z m -37.04167,-0.0525 c 0,-0.01 -0.17578,-0.18545 -0.39063,-0.39063 l -0.39062,-0.37304 0.37304,0.39062 c 0.34653,0.36286 0.40821,0.41923 0.40821,0.37305 z m -0.8125,-0.75 c 0,-0.01 -0.17578,-0.18545 -0.39063,-0.39063 l -0.39062,-0.37304 0.37304,0.39062 c 0.34653,0.36286 0.40821,0.41923 0.40821,0.37305 z m -1.5625,-1.48658 c -0.42969,-0.41182 -0.8586,-0.80627 -0.95313,-0.87656 l -0.17187,-0.12779 0.009,0.23863 c 0.005,0.14476 0.0192,0.18331 0.0356,0.098 0.0149,-0.0773 0.0525,-0.14062 0.0834,-0.14062 0.031,0 0.42982,0.34994 0.88628,0.77764 0.45645,0.4277 0.84397,0.77805 0.86116,0.77855 0.0172,5e-4 -0.32031,-0.33603 -0.75,-0.74785 z"
         style="opacity:1;fill:#f8d800;fill-opacity:1;stroke:none;stroke-width:0.01535433;stroke-linecap:round;stroke-linejoin:round;stroke-miterlimit:4;stroke-dasharray:none;stroke-opacity:1" />
      <path
         transform="scale(0.26458333)"
         inkscape:connector-curvature="0"
         id="path978"
         d="m 164.22785,477.41469 -9.43272,-8.99291 -0.0312,-1.78659 -0.0312,-1.78659 7.46875,-5.02216 c 4.10781,-2.76219 9.02544,-6.06831 10.92807,-7.34693 1.90263,-1.27863 3.4917,-2.31179 3.53125,-2.29592 0.0693,0.0278 3.17907,2.90352 14.12367,13.06057 l 5.11424,4.74624 -0.0344,0.2896 c -0.0189,0.15928 -0.068,0.90083 -0.10905,1.64789 -0.0685,1.24575 -0.0855,1.36792 -0.20487,1.47461 -0.0716,0.064 -3.65987,2.53608 -7.97393,5.49355 -4.31406,2.95747 -9.1375,6.26439 -10.71875,7.3487 -1.58125,1.08431 -2.94747,2.01453 -3.03603,2.06716 l -0.16104,0.0957 z m 13.98974,2.08216 c 13.37516,-8.8566 17.26504,-11.44811 17.26504,-11.50228 0,-0.0333 -3.55866,-3.36288 -7.90814,-7.39903 -9.83998,-9.13111 -10.87063,-10.08349 -10.93959,-10.10876 -0.0533,-0.0195 -4.37916,2.86252 -12.68352,8.45013 -7.35888,4.95143 -8.78128,5.91657 -8.79982,5.97091 -0.0171,0.0502 3.27895,3.12832 11.98732,11.19471 1.87344,1.73533 4.03906,3.73389 4.8125,4.44125 0.77344,0.70736 1.51875,1.38938 1.65625,1.5156 0.14989,0.13759 0.29453,0.21903 0.36121,0.20335 0.0612,-0.0144 1.97311,-1.25902 4.24875,-2.76588 z m -7.07871,0.6429 c 0,-0.013 -0.0492,-0.0622 -0.10938,-0.10937 -0.0991,-0.0777 -0.10134,-0.0755 -0.0236,0.0236 0.0816,0.10411 0.13297,0.13722 0.13297,0.0858 z m 24.47843,-11.8313 c -0.0179,-0.0179 -0.064,-0.0132 -0.10231,0.0105 -0.05,0.0309 -0.0468,0.0707 0.0115,0.14099 0.0731,0.0882 0.0833,0.0872 0.10231,-0.0105 0.0116,-0.0596 0.006,-0.12305 -0.0115,-0.14099 z m -38.97843,-1.60216 c 0,-0.0108 -0.0914,-0.10216 -0.20313,-0.20312 l -0.20312,-0.18357 0.18357,0.20312 c 0.17111,0.18935 0.22268,0.23186 0.22268,0.18357 z m -0.84768,-0.79879 c -0.10097,-0.10633 -0.31717,-0.30583 -0.48045,-0.44332 l -0.29687,-0.24997 9.5e-4,0.17769 c 6.9e-4,0.12686 0.0167,0.15281 0.056,0.0907 0.0655,-0.10344 0.27665,0.0292 0.62714,0.39404 0.11847,0.12331 0.2292,0.22419 0.24607,0.22419 0.0169,0 -0.0519,-0.087 -0.15288,-0.19335 z"
         style="opacity:1;fill:#f8d800;fill-opacity:1;stroke:none;stroke-width:0.01535433;stroke-linecap:round;stroke-linejoin:round;stroke-miterlimit:4;stroke-dasharray:none;stroke-opacity:1" />
      <path
         transform="scale(0.26458333)"
         inkscape:connector-curvature="0"
         id="path980"
         d="m 164.21051,477.40697 -9.44663,-9.00637 v -1.4849 c 0,-0.8167 -0.0174,-1.61154 -0.0386,-1.76631 l -0.0386,-0.28142 2.46045,-1.65307 c 1.35325,-0.90919 6.27956,-4.2203 10.94735,-7.35802 4.6678,-3.13773 8.52198,-5.6915 8.56485,-5.67505 0.0691,0.0265 11.28226,10.39728 17.0632,15.78134 l 2.17745,2.02797 -0.0362,0.41423 c -0.0199,0.22783 -0.0681,0.96267 -0.1071,1.63298 -0.039,0.67031 -0.0997,1.25479 -0.1349,1.29883 -0.072,0.0901 -0.38538,0.30706 -7.0142,4.85665 -11.57571,7.94481 -14.89853,10.21952 -14.92835,10.21952 -0.0122,0 -4.27313,-4.05287 -9.46877,-9.00638 z m 11.44809,3.76797 c 2.07849,-1.36209 13.7524,-9.09938 17.22705,-11.41784 1.39097,-0.92813 2.53762,-1.7166 2.54811,-1.75217 0.0223,-0.0755 -0.5591,-0.62254 -8.17086,-7.68835 -8.44563,-7.83987 -10.50282,-9.74199 -10.59055,-9.79222 -0.0959,-0.0549 -2.33353,1.43121 -15.62722,10.37859 -5.66082,3.81004 -5.85458,3.94414 -5.83152,4.03615 0.0235,0.0937 1.17578,1.18006 6.20652,5.85143 8.64821,8.03045 12.4191,11.49782 12.50427,11.49782 0.0193,0 0.79973,-0.50104 1.7342,-1.11341 z m 19.95097,-12.82095 c -0.023,-0.0372 -0.071,-0.0496 -0.10668,-0.0276 -0.042,0.026 -0.0356,0.0582 0.0181,0.0914 0.1003,0.062 0.14595,0.0291 0.0885,-0.0638 z m -39.78319,-2.3977 c 0,-0.0108 -0.0914,-0.10216 -0.20313,-0.20312 l -0.20312,-0.18357 0.18357,0.20312 c 0.17111,0.18935 0.22268,0.23186 0.22268,0.18357 z m -0.5625,-0.5154 c 0,-0.004 -0.0563,-0.0591 -0.125,-0.12129 -0.12092,-0.10943 -0.125,-0.10916 -0.125,0.008 0,0.0796 0.0429,0.12129 0.125,0.12129 0.0687,0 0.125,-0.004 0.125,-0.008 z"
         style="opacity:1;fill:#f8d800;fill-opacity:1;stroke:none;stroke-width:0.01535433;stroke-linecap:round;stroke-linejoin:round;stroke-miterlimit:4;stroke-dasharray:none;stroke-opacity:1" />
      <path
         transform="scale(0.26458333)"
         inkscape:connector-curvature="0"
         id="path982"
         d="m 172.81757,485.61621 c -0.45922,-0.43843 -4.70528,-4.48593 -9.43569,-8.99446 l -8.60074,-8.19732 -0.0326,-1.77117 c -0.0235,-1.27554 -0.0128,-1.79087 0.0383,-1.84161 0.0632,-0.0629 8.59296,-5.80283 18.26858,-12.29352 1.93063,-1.29513 3.53611,-2.35478 3.56773,-2.35478 0.0316,0 0.28013,0.20539 0.55225,0.45641 2.4341,2.24542 10.71787,9.92377 14.20563,13.16744 2.38473,2.21782 4.37628,4.06488 4.42568,4.10457 0.078,0.0627 0.0763,0.28835 -0.0135,1.71875 -0.096,1.52977 -0.11291,1.65612 -0.23818,1.78105 -0.14481,0.14441 -0.80158,0.59722 -12.47858,8.60327 -9.85982,6.76015 -9.3598,6.41851 -9.39422,6.41851 -0.0163,0 -0.40537,-0.35871 -0.86459,-0.79714 z m 3.60256,-4.953 c 3.35018,-2.20417 13.63742,-9.02521 16.52082,-10.95429 l 2.52083,-1.68649 -0.27083,-0.28061 c -0.3846,-0.39848 -4.7326,-4.45603 -11.27169,-10.51872 -7.12627,-6.60709 -7.21091,-6.68475 -7.28575,-6.68475 -0.10562,0 -1.29772,0.77974 -5.68213,3.71663 -10.27431,6.88222 -15.75,10.58727 -15.75,10.65703 0,0.0264 0.29233,0.32956 0.64962,0.67369 1.34707,1.29746 15.37459,14.29449 17.30799,16.03651 0.67115,0.60471 0.75135,0.65911 0.875,0.59353 0.0749,-0.0397 1.14864,-0.73835 2.38614,-1.55253 z m -21.21875,-15.28387 c 0,-0.007 -0.0422,-0.0482 -0.0937,-0.091 -0.076,-0.0631 -0.0937,-0.0606 -0.0937,0.0132 0,0.05 0.0422,0.091 0.0937,0.091 0.0516,0 0.0937,-0.006 0.0937,-0.0132 z"
         style="opacity:1;fill:#f8d800;fill-opacity:1;stroke:none;stroke-width:0.01535433;stroke-linecap:round;stroke-linejoin:round;stroke-miterlimit:4;stroke-dasharray:none;stroke-opacity:1" />
      <path
         transform="scale(0.26458333)"
         inkscape:connector-curvature="0"
         id="path984"
         d="m 172.96722,485.76804 c -0.36965,-0.35492 -4.31428,-4.11376 -8.76584,-8.35298 -4.45156,-4.23922 -8.39156,-7.9985 -8.75555,-8.35396 l -0.6618,-0.6463 -0.041,-1.77889 -0.041,-1.7789 1.23407,-0.83747 c 5.6507,-3.83473 20.61904,-13.85619 20.696,-13.85619 0.0314,0 0.46067,0.37255 0.95386,0.82788 1.82977,1.68932 17.54382,16.24776 18.20148,16.86293 0.11425,0.10687 0.11449,0.15208 0.01,1.75632 -0.0592,0.90564 -0.12109,1.66834 -0.13744,1.69488 -0.0698,0.11333 -1.51708,1.11243 -14.92688,10.30447 -6.66098,4.56591 -7.01018,4.80352 -7.05946,4.80352 -0.0186,0 -0.3363,-0.29039 -0.70595,-0.64531 z m 2.18898,-4.28264 c 1.40638,-0.91433 9.79606,-6.46957 15.81572,-10.4724 4.46077,-2.96623 4.48856,-2.98601 4.375,-3.11381 -0.33238,-0.37405 -17.83144,-16.64169 -18.50519,-17.20296 l -0.20339,-0.16944 -0.29661,0.17204 c -0.53841,0.3123 -9.83314,6.5289 -17.26535,11.54761 -3.07769,2.07824 -3.71531,2.51855 -3.8067,2.62866 -0.0837,0.10087 0.59815,0.74952 8.08986,7.69583 8.58245,7.95767 10.44068,9.65492 10.57062,9.65492 0.0479,0 0.59963,-0.3332 1.22604,-0.74045 z"
         style="opacity:1;fill:#f8d800;fill-opacity:1;stroke:none;stroke-width:0.01535433;stroke-linecap:round;stroke-linejoin:round;stroke-miterlimit:4;stroke-dasharray:none;stroke-opacity:1" />
      <path
         transform="scale(0.26458333)"
         inkscape:connector-curvature="0"
         id="path986"
         d="m 171.71884,484.58522 c -10.79908,-10.28663 -15.6026,-14.86726 -16.21308,-15.46079 l -0.72688,-0.70667 -0.0231,-1.7971 -0.0231,-1.7971 1.75,-1.17995 c 3.71425,-2.50436 15.6721,-10.53347 17.83915,-11.97812 2.13758,-1.425 2.28514,-1.51246 2.41558,-1.4318 0.0764,0.0472 2.56707,2.33591 5.53481,5.08591 2.96774,2.75 7.16823,6.64185 9.33442,8.64857 2.1662,2.00671 4.02003,3.72702 4.11963,3.82292 l 0.1811,0.17436 -0.10788,1.67707 c -0.0593,0.92239 -0.12677,1.69461 -0.14985,1.71605 -0.0984,0.0914 -3.72795,2.58759 -14.04196,9.65727 -7.67538,5.26105 -7.87585,5.39751 -7.92902,5.39751 -0.0223,0 -0.90421,-0.82266 -1.95977,-1.82813 z m 2.9648,-2.80536 c 1.65627,-1.05374 19.39501,-12.82108 20.22086,-13.4139 0.26641,-0.19124 0.48438,-0.36816 0.48438,-0.39317 0,-0.025 -0.63985,-0.64661 -1.42188,-1.38133 -3.05567,-2.87083 -15.81276,-14.71228 -16.84846,-15.63917 l -0.48027,-0.4298 -0.57782,0.36246 c -1.34773,0.84541 -18.78474,12.5524 -20.40595,13.70029 -0.21484,0.15212 -0.39062,0.29786 -0.39062,0.32386 0,0.12574 2.95918,2.90443 12.15691,11.41538 5.77983,5.34826 6.42947,5.92956 6.56744,5.87662 0.0462,-0.0177 0.35909,-0.20727 0.69541,-0.42124 z"
         style="opacity:1;fill:#f8d800;fill-opacity:1;stroke:none;stroke-width:0.01535433;stroke-linecap:round;stroke-linejoin:round;stroke-miterlimit:4;stroke-dasharray:none;stroke-opacity:1" />
      <path
         transform="scale(0.26458333)"
         inkscape:connector-curvature="0"
         id="path988"
         d="m 172.43724,485.27616 c -0.66254,-0.63219 -4.50907,-4.29822 -8.54786,-8.14674 -4.03879,-3.84853 -7.74001,-7.37701 -8.22495,-7.84107 l -0.88169,-0.84375 -0.0468,-1.77343 c -0.0442,-1.67759 -0.0405,-1.77931 0.0687,-1.88223 0.0635,-0.0598 1.7889,-1.23315 3.83421,-2.60737 2.04531,-1.37422 5.47656,-3.67955 7.625,-5.12295 2.14844,-1.4434 5.35246,-3.58892 7.12004,-4.76782 3.02541,-2.01781 3.22195,-2.13841 3.35299,-2.05733 0.0765,0.0474 1.20353,1.0705 2.5044,2.27363 2.14699,1.98568 11.27512,10.4447 15.10069,13.99379 l 1.54688,1.43508 -0.002,0.31682 c -9.7e-4,0.17424 -0.0425,0.87931 -0.0924,1.56681 -0.0498,0.6875 -0.0912,1.30979 -0.092,1.38288 -0.002,0.15617 0.0238,0.13837 -9.93887,6.97121 -9.97306,6.83998 -11.93617,8.18057 -12.03466,8.21837 -0.0542,0.0208 -0.54422,-0.40241 -1.29198,-1.1159 z m 1.93448,-3.30893 c 0.6081,-0.3722 3.82384,-2.49301 11.86091,-7.82237 7.56287,-5.01492 8.87607,-5.89864 9.04599,-6.08754 0.10511,-0.11685 0.0536,-0.17212 -1.65625,-1.77743 -3.02527,-2.84027 -15.1145,-14.06112 -16.68569,-15.48715 l -0.29595,-0.26861 -0.32905,0.20801 c -1.73194,1.09482 -19.96706,13.34386 -20.89601,14.03643 l -0.18304,0.13647 0.25,0.26073 c 0.39286,0.40973 2.91058,2.7773 6.28125,5.90665 8.70971,8.08617 12.05508,11.15343 12.16468,11.15343 0.0113,0 0.21076,-0.11638 0.44316,-0.25862 z"
         style="opacity:1;fill:#f8d800;fill-opacity:1;stroke:none;stroke-width:0.01535433;stroke-linecap:round;stroke-linejoin:round;stroke-miterlimit:4;stroke-dasharray:none;stroke-opacity:1" />
      <path
         transform="scale(0.26458333)"
         inkscape:connector-curvature="0"
         id="path990"
         d="m 173.13888,481.52859 c -1.80991,-1.59631 -14.61367,-13.46081 -16.78125,-15.55022 -1.12955,-1.08881 -1.0999,-1.04685 -0.86991,-1.23118 0.75626,-0.60611 20.97082,-14.14634 21.11945,-14.14634 0.10956,0 2.35251,2.05819 10.65671,9.77887 7.00688,6.51451 8.00012,7.45658 7.99954,7.58731 -2.5e-4,0.0569 -0.23007,0.26594 -0.51563,0.46913 -0.57027,0.40576 -6.96184,4.66113 -13.51516,8.99809 -6.47991,4.28838 -7.1604,4.7294 -7.29619,4.72868 -0.0434,-2.5e-4 -0.40225,-0.28569 -0.79756,-0.63434 z"
         style="opacity:1;fill:#f8d800;fill-opacity:1;stroke:#f8d800;stroke-width:0.01535433;stroke-linecap:round;stroke-linejoin:round;stroke-miterlimit:4;stroke-dasharray:none;stroke-opacity:1" />
      <path
         inkscape:connector-curvature="0"
         id="path996"
         d="m 53.310883,133.06649 c -0.138474,-0.13388 -3.1299,-3.03479 -3.349656,-3.24829 l -0.180822,-0.17569 -0.0075,-0.1797 c -0.0041,-0.0989 -0.0081,-0.25743 -0.009,-0.35243 -0.0014,-0.15049 0.0012,-0.17513 0.01952,-0.19134 0.03233,-0.0285 2.81155,-1.93044 3.78862,-2.59265 0.387409,-0.26255 0.409167,-0.2755 0.435451,-0.25905 0.01522,0.009 0.154051,0.13589 0.308522,0.28078 0.309638,0.29048 2.797376,2.63623 3.156321,2.97617 l 0.225792,0.21384 v 0.0591 c 0,0.0325 -0.0084,0.18191 -0.01855,0.33203 -0.01841,0.27105 -0.01877,0.27313 -0.05036,0.29746 -0.06549,0.0504 -0.46946,0.33418 -1.601867,1.12498 -2.048177,1.43032 -2.59496,1.81 -2.606612,1.81 -0.0062,0 -0.0557,-0.0429 -0.109851,-0.0952 z m 0.160442,-0.73048 c 0,-0.003 -0.0094,-0.0117 -0.02107,-0.0214 -0.01909,-0.0153 -0.01952,-0.0148 -0.0045,0.004 0.01573,0.0205 0.02562,0.027 0.02562,0.0168 z m -0.04817,-0.0362 c 0,-0.003 -0.0149,-0.0174 -0.03312,-0.0337 l -0.03311,-0.0297 0.0292,0.0337 c 0.02729,0.0315 0.03704,0.0394 0.03704,0.0297 z m -0.08429,-0.0733 c 0,-0.003 -0.01761,-0.0199 -0.03913,-0.0398 l -0.03913,-0.036 0.03537,0.0398 c 0.03297,0.0372 0.04291,0.0455 0.04291,0.036 z m -0.108374,-0.098 c 0,-0.003 -0.02032,-0.0228 -0.04515,-0.046 l -0.04515,-0.0422 0.0415,0.046 c 0.03862,0.0428 0.04882,0.0516 0.04882,0.0422 z m -0.144506,-0.1348 c 0,-0.003 -0.02032,-0.0228 -0.04515,-0.046 l -0.04515,-0.0422 0.0415,0.046 c 0.03862,0.0428 0.04882,0.0516 0.04882,0.0422 z m -0.132464,-0.12246 c 0,-0.003 -0.02304,-0.0254 -0.05118,-0.0521 l -0.05118,-0.0485 0.04761,0.0521 c 0.04427,0.0485 0.05475,0.0577 0.05475,0.0485 z m -0.156548,-0.14714 c 0,-0.003 -0.02032,-0.0227 -0.04515,-0.0459 l -0.04515,-0.0422 0.0415,0.046 c 0.03862,0.0428 0.04882,0.0516 0.04882,0.0422 z m -0.156555,-0.14706 c 0,-0.003 -0.02032,-0.0228 -0.04515,-0.046 l -0.04515,-0.0422 0.0415,0.046 c 0.03862,0.0428 0.04882,0.0516 0.04882,0.0422 z m -0.144505,-0.13472 c 0,-0.003 -0.02304,-0.0254 -0.05118,-0.0521 l -0.05118,-0.0485 0.04761,0.0521 c 0.04427,0.0485 0.05475,0.0578 0.05475,0.0485 z m -0.168591,-0.15939 c 0,-0.003 -0.02032,-0.0228 -0.04515,-0.046 l -0.04515,-0.0422 0.0415,0.046 c 0.03862,0.0428 0.04882,0.0516 0.04882,0.0422 z m -0.144505,-0.13472 c 0,-0.003 -0.02304,-0.0254 -0.05118,-0.0521 l -0.05118,-0.0485 0.04761,0.0521 c 0.04426,0.0485 0.05475,0.0578 0.05475,0.0485 z m -0.180632,-0.17175 c 0,-0.003 -0.01761,-0.0201 -0.03913,-0.0398 l -0.03913,-0.036 0.03537,0.0398 c 0.03297,0.0371 0.04291,0.0455 0.04291,0.036 z M 51.833594,130.817 c 0,-0.003 -0.01489,-0.0174 -0.03312,-0.0337 l -0.03311,-0.0297 0.0292,0.0337 c 0.02729,0.0315 0.03704,0.0394 0.03704,0.0297 z m -0.156547,-0.14691 c 0,-0.003 -0.01761,-0.02 -0.03913,-0.0398 l -0.03913,-0.036 0.03537,0.0398 c 0.03297,0.0371 0.04291,0.0455 0.04291,0.036 z m -0.156548,-0.14685 c 0,-0.003 -0.02304,-0.0254 -0.05118,-0.0521 l -0.05118,-0.0485 0.04761,0.0521 c 0.04427,0.0485 0.05475,0.0577 0.05475,0.0485 z m -0.168592,-0.15932 c 0,-0.003 -0.02303,-0.0254 -0.05118,-0.0521 l -0.05118,-0.0485 0.0476,0.0521 c 0.04427,0.0485 0.05475,0.0577 0.05475,0.0485 z m -0.168588,-0.1593 c 0,-0.003 -0.02304,-0.0254 -0.05118,-0.0521 l -0.05118,-0.0485 0.04761,0.0521 c 0.04427,0.0485 0.05475,0.0577 0.05475,0.0485 z m -0.168592,-0.15931 c 0,-0.003 -0.02302,-0.0254 -0.05117,-0.0521 l -0.05118,-0.0485 0.04761,0.0521 c 0.04427,0.0485 0.05475,0.0577 0.05475,0.0485 z m -0.16859,-0.15932 c 0,-0.003 -0.02304,-0.0254 -0.05118,-0.0521 l -0.05118,-0.0485 0.0476,0.0521 c 0.04427,0.0485 0.05475,0.0577 0.05475,0.0485 z m -0.228801,-0.22306 c -0.02925,-0.0303 -0.05589,-0.0552 -0.05921,-0.0552 -0.0033,0 0.01792,0.0249 0.04716,0.0552 0.02925,0.0303 0.05589,0.0551 0.05921,0.0551 0.0033,0 -0.01792,-0.0249 -0.04716,-0.0551 z m 6.968788,-0.11144 c 0.002,-0.006 -0.05998,-0.0746 -0.137827,-0.15214 l -0.141544,-0.14077 0.137302,0.14299 0.1373,0.14298 -0.04096,0.04 -0.04096,0.04 0.04149,-0.031 c 0.02282,-0.017 0.04317,-0.036 0.0452,-0.0422 z m -7.14942,-0.0601 c -0.02925,-0.0303 -0.05589,-0.0551 -0.05921,-0.0551 -0.0033,0 0.01792,0.0247 0.04716,0.0551 0.02925,0.0303 0.05589,0.0551 0.05921,0.0551 0.0033,0 -0.01792,-0.0248 -0.04716,-0.0551 z m -0.132468,-0.11985 c 0,-0.003 -0.03658,-0.0391 -0.08129,-0.0827 l -0.08128,-0.0793 0.07793,0.0827 c 0.07239,0.0768 0.08464,0.0884 0.08464,0.0793 z m 6.936279,-0.17166 c 0,-0.003 -0.02845,-0.0308 -0.06322,-0.0643 l -0.06322,-0.0608 0.05976,0.0643 c 0.05553,0.0599 0.06668,0.07 0.06668,0.0609 z m -7.252668,-0.14074 c -0.05118,-0.0523 -0.09304,-0.10198 -0.09304,-0.11027 0,-0.008 -0.0053,-0.015 -0.0121,-0.015 -0.0066,0 -0.0121,0.004 -0.0121,0.009 0,0.0104 0.194613,0.21164 0.204167,0.21164 0.0033,0 -0.03587,-0.0429 -0.08703,-0.0952 z m 7.047952,-0.0555 c 0,-0.003 -0.02032,-0.0227 -0.04515,-0.0459 l -0.04515,-0.0422 0.0415,0.046 c 0.03862,0.0428 0.04882,0.0516 0.04882,0.0422 z m -0.192674,-0.18393 c 0,-0.003 -0.01761,-0.02 -0.03913,-0.0398 l -0.03913,-0.036 0.03537,0.0398 c 0.03297,0.0371 0.04291,0.0455 0.04291,0.036 z m -0.180633,-0.17156 c 0,-0.003 -0.01761,-0.02 -0.03913,-0.0398 l -0.03913,-0.036 0.03537,0.0398 c 0.03297,0.0371 0.04291,0.0455 0.04291,0.036 z m -0.16859,-0.15932 c 0,-0.003 -0.01761,-0.02 -0.03913,-0.0398 l -0.03913,-0.036 0.03537,0.0399 c 0.03297,0.0371 0.04291,0.0455 0.04291,0.036 z m -0.16859,-0.15931 c 0,-0.003 -0.01761,-0.0199 -0.03913,-0.0398 l -0.03913,-0.036 0.03537,0.0398 c 0.03297,0.0371 0.04291,0.0455 0.04291,0.036 z M 56.14468,128.1578 c 0,-0.003 -0.0149,-0.0174 -0.03312,-0.0337 l -0.03311,-0.0297 0.0292,0.0337 c 0.02729,0.0315 0.03704,0.0394 0.03704,0.0297 z m -0.16859,-0.1593 c 0,-0.003 -0.01489,-0.0174 -0.03312,-0.0337 l -0.03311,-0.0297 0.0292,0.0337 c 0.02729,0.0315 0.03704,0.0394 0.03704,0.0297 z m -0.16859,-0.15915 c 0,-0.003 -0.01761,-0.0201 -0.03913,-0.0398 l -0.03913,-0.036 0.03537,0.0398 c 0.03297,0.0371 0.04291,0.0455 0.04291,0.036 z m -0.16859,-0.15931 c 0,-0.003 -0.01761,-0.0201 -0.03913,-0.0398 l -0.03913,-0.036 0.03537,0.0398 c 0.03297,0.0371 0.04291,0.0455 0.04291,0.036 z m -0.16859,-0.15932 c 0,-0.003 -0.01761,-0.02 -0.03913,-0.0398 l -0.03913,-0.036 0.03537,0.0398 c 0.03297,0.0372 0.04291,0.0455 0.04291,0.036 z m -0.16859,-0.15946 c 0,-0.003 -0.0149,-0.0174 -0.03312,-0.0337 l -0.03311,-0.0297 0.0292,0.0337 c 0.02729,0.0315 0.03704,0.0394 0.03704,0.0297 z m -0.168591,-0.15955 c 0,-0.003 -0.01222,-0.0148 -0.0271,-0.0276 l -0.0271,-0.0233 0.02293,0.0276 c 0.02156,0.0259 0.03125,0.0332 0.03125,0.0233 z m -1.986956,-0.50459 c 0,-0.004 -0.130055,0.0823 -0.289011,0.1902 -0.158957,0.10794 -0.289012,0.19909 -0.289012,0.20244 0,0.004 0.130055,-0.0822 0.289012,-0.19018 0.158956,-0.10794 0.289011,-0.19909 0.289011,-0.20246 z m 1.818366,0.34551 c 0,-0.003 -0.0149,-0.0174 -0.03312,-0.0337 l -0.03311,-0.0297 0.0292,0.0337 c 0.02729,0.0315 0.03704,0.0394 0.03704,0.0297 z m -0.156548,-0.14689 c 0,-0.003 -0.01761,-0.0199 -0.03913,-0.0399 l -0.03913,-0.036 0.03537,0.0398 c 0.03297,0.0371 0.04291,0.0455 0.04291,0.036 z m -0.156548,-0.14706 c 0,-0.003 -0.01761,-0.02 -0.03913,-0.0398 l -0.03913,-0.036 0.03537,0.0398 c 0.03297,0.0372 0.04291,0.0455 0.04291,0.036 z m -0.156545,-0.14702 c 0,-0.003 -0.01761,-0.02 -0.03913,-0.0398 l -0.03913,-0.036 0.03537,0.0398 c 0.03297,0.0371 0.04291,0.0455 0.04291,0.036 z m -0.89112,-0.20829 c 0.14506,-0.0978 0.22121,-0.15403 0.16859,-0.1244 -0.03545,0.02 -0.343426,0.22966 -0.355242,0.24191 -0.01937,0.0201 0.01159,5.8e-4 0.186652,-0.11753 z m 0.746613,0.0736 c 0,-0.003 -0.02032,-0.0227 -0.04515,-0.0459 l -0.04515,-0.0422 0.0415,0.046 c 0.03862,0.0428 0.04882,0.0516 0.04882,0.0422 z m -0.180632,-0.17396 c -0.02925,-0.0303 -0.05589,-0.0552 -0.05921,-0.0552 -0.0033,0 0.01792,0.0249 0.04716,0.0552 0.02925,0.0303 0.05589,0.0551 0.05921,0.0551 0.0033,0 -0.01792,-0.0249 -0.04716,-0.0551 z m -0.123373,-0.11299 c -0.04728,-0.0481 -0.05938,-0.0549 -0.0721,-0.0411 -0.0085,0.009 -0.0093,0.0134 -0.0015,0.009 0.0075,-0.004 0.03732,0.014 0.06623,0.0406 0.07219,0.0663 0.07637,0.0617 0.0075,-0.009 z m -0.111456,-0.009 0.02408,-0.02 -0.02408,0.0117 c -0.01324,0.006 -0.03493,0.021 -0.04817,0.032 l -0.02408,0.02 0.02408,-0.0117 c 0.01324,-0.006 0.03491,-0.021 0.04817,-0.032 z"
         style="opacity:1;fill:#f8d800;fill-opacity:1;stroke:none;stroke-width:0.00298437;stroke-linecap:round;stroke-linejoin:round;stroke-miterlimit:4;stroke-dasharray:none;stroke-opacity:1" />
    </g>
  </g>
</svg>
