<svg width="309" height="348" version="1.1" viewBox="0 0 81.756 92.075" xmlns="http://www.w3.org/2000/svg" xmlns:xlink="http://www.w3.org/1999/xlink"><defs><linearGradient id="a" x1="-10.98" x2="61.617" y1="16.912" y2="90.174" gradientTransform="translate(15.343 -12.747)" gradientUnits="userSpaceOnUse"><stop stop-color="#feefb4" offset="0"/><stop stop-color="#f9dc1f" offset=".5"/><stop stop-color="#fec400" offset="1"/></linearGradient><filter id="b" x="-.04" y="-.14" width="1.18" height="1.18" color-interpolation-filters="sRGB"><feFlood flood-color="rgb(0,0,0)" flood-opacity=".49804" result="flood"/><feComposite in="flood" in2="SourceGraphic" operator="in" result="composite1"/><feGaussianBlur in="composite1" result="blur" stdDeviation="1"/><feOffset dx="6" dy="-6" result="offset"/><feComposite in="offset" in2="offset" operator="atop" result="composite2"/></filter></defs><g><rect x=".071958" y="1.7764e-15" width="81.684" height="81.718" rx="17" ry="17" fill="url(#a)" style="paint-order:fill markers stroke"/><path transform="matrix(.99068 0 0 1.0566 -2.1403 3.6805)" d="m14 11c-1.662 0-3.0003 1.3383-3.0003 3.0003a57 57 0 0 1 57 57c1.662 0 2.9998-1.3378 2.9998-2.9998v-18.872a64 64 0 0 0-38.128-38.128zm34.889 0a71 71 0 0 1 22.11 22.111v-19.11c0-1.662-1.3378-3.0003-2.9998-3.0003zm-37.89 9.9999v7.5003a42.5 42.5 0 0 1 42.5 42.5h7.4998a50 50 0 0 0-50-50zm0 15v32c0 1.662 1.3383 2.9998 3.0003 2.9998h32a35 35 0 0 0-35-35z" fill="#fff" filter="url(#b)" opacity=".7" style="paint-order:fill markers stroke"/><path d="m14 11c-1.662 0-3.0003 1.3383-3.0003 3.0003a57 57 0 0 1 57 57c1.662 0 2.9998-1.3378 2.9998-2.9998v-18.872a64 64 0 0 0-38.128-38.128zm34.889 0a71 71 0 0 1 22.11 22.111v-19.11c0-1.662-1.3378-3.0003-2.9998-3.0003zm-37.89 9.9999v7.5003a42.5 42.5 0 0 1 42.5 42.5h7.4998a50 50 0 0 0-50-50zm0 15v32c0 1.662 1.3383 2.9998 3.0003 2.9998h32a35 35 0 0 0-35-35z" fill="#fff" style="paint-order:fill markers stroke"/></g></svg>
