<?xml version="1.0" encoding="UTF-8" standalone="no"?>
<!-- Svg Vector Icons : http://www.onlinewebfonts.com/icon -->

<svg
   xmlns:dc="http://purl.org/dc/elements/1.1/"
   xmlns:cc="http://creativecommons.org/ns#"
   xmlns:rdf="http://www.w3.org/1999/02/22-rdf-syntax-ns#"
   xmlns:svg="http://www.w3.org/2000/svg"
   xmlns="http://www.w3.org/2000/svg"
   xmlns:sodipodi="http://sodipodi.sourceforge.net/DTD/sodipodi-0.dtd"
   xmlns:inkscape="http://www.inkscape.org/namespaces/inkscape"
   version="1.1"
   x="0px"
   y="0px"
   viewBox="0 0 309 309"
   enable-background="new 0 0 1000 1000"
   xml:space="preserve"
   id="svg18"
   sodipodi:docname="node_barometre.svg"
   width="309"
   height="309"
   inkscape:version="0.92.3 (2405546, 2018-03-11)"><defs
   id="defs22" /><sodipodi:namedview
   pagecolor="#ffffff"
   bordercolor="#666666"
   borderopacity="1"
   objecttolerance="10"
   gridtolerance="10"
   guidetolerance="10"
   inkscape:pageopacity="0"
   inkscape:pageshadow="2"
   inkscape:window-width="1853"
   inkscape:window-height="1025"
   id="namedview20"
   showgrid="false"
   inkscape:zoom="1"
   inkscape:cx="303.01934"
   inkscape:cy="290.17872"
   inkscape:window-x="67"
   inkscape:window-y="27"
   inkscape:window-maximized="1"
   inkscape:current-layer="svg18" />
<metadata
   id="metadata2"> Svg Vector Icons : http://www.onlinewebfonts.com/icon <rdf:RDF><cc:Work
     rdf:about=""><dc:format>image/svg+xml</dc:format><dc:type
       rdf:resource="http://purl.org/dc/dcmitype/StillImage" /><dc:title></dc:title></cc:Work></rdf:RDF></metadata>
<g
   id="g16"
   transform="matrix(0.31530612,0,0,0.31530612,-3.1530612,-3.1530612)"
   style="fill:#f8d800;fill-opacity:1"><path
     d="M 500,10 C 229.4,10 10,229.4 10,500 10,770.6 229.4,990 500,990 770.6,990 990,770.6 990,500 990,229.4 770.6,10 500,10 Z m 0,914.7 C 265.4,924.7 75.3,734.6 75.3,500 75.3,265.4 265.4,75.3 500,75.3 734.6,75.3 924.7,265.4 924.7,500 924.7,734.6 734.6,924.7 500,924.7 Z"
     id="path4"
     inkscape:connector-curvature="0"
     style="fill:#f8d800;fill-opacity:1" /><path
     d="m 760.1,356.1 c 29.5,-29.5 26.7,-80 -2.8,-109.4 L 746.7,236 c -29.5,-29.4 -80,-32.2 -109.4,-2.8 L 383.8,495.7 c -43.2,-4.4 -87.9,9.5 -121.1,42.7 -58.5,58.5 -58.5,153.3 0,211.8 58.5,58.5 153.3,58.5 211.8,0 37.8,-37.8 50.7,-90.8 39.6,-139.3 z M 476.4,612.7 c 11.1,38.1 1.7,80.9 -28.4,110.9 -43.8,43.9 -114.9,43.9 -158.8,0 -43.8,-43.8 -43.8,-114.9 0,-158.8 24.9,-24.9 58.6,-35.6 91,-32.2 0,0 22.1,-1.5 26.8,-16.1 L 655.3,262.6 c 18.6,-18.6 50.5,-16.9 69.1,1.7 l 6.7,6.7 c 18.6,18.6 20.3,50.5 1.7,69.1 l -4.8,4.9 -46.5,-46.5 -16.6,16.6 46.7,46.7 -30.2,30.9 -30.1,-28.8 -16.3,16.5 30.2,29 -46.2,47.4 1.9,1.9 -16.6,16.6 -1.7,-1.7 -30,30.7 1.5,1.3 -16.6,18.2 -2.1,-2 -68.9,70.4 c -12.5,7.7 -10.1,20.5 -10.1,20.5 z"
     id="path6"
     inkscape:connector-curvature="0"
     style="fill:#f8d800;fill-opacity:1" /><path
     d="m 537.4,472.2 18,16.9 30.7,-31.4 -26.4,-25.4 16.6,-16.6 26.2,25.2 L 621,422 c 11,-11 10,-29.9 -1,-40.9 l -4,-4 c -11,-11 -29.9,-12.1 -41,-1 L 395.6,559.5 c -30.8,-9.8 -65.7,-2.8 -90.2,21.6 -34.9,34.9 -34.9,91.5 0,126.4 34.9,34.9 91.5,34.9 126.4,0 29,-29 33.5,-72.7 14.4,-106.7 l 92.5,-94.6 -17.9,-17.4 z M 315.9,677.3 c 0,10.1 -24,-45.5 14.5,-78.9 38.5,-33.5 67.5,-2.8 67.5,-2.8 0,0 -73.7,1.3 -82,81.7 z"
     id="path8"
     inkscape:connector-curvature="0"
     style="fill:#f8d800;fill-opacity:1" /><path
     d="m 643.3,611.2 c -13.3,0 -23.6,5.9 -30.8,17.7 h -0.3 v -60.8 h -16.7 v 139.6 h 16.7 v -53.5 c 0,-8.4 2.4,-15.4 7.2,-20.9 4.8,-5.5 10.8,-8.3 18,-8.3 14.1,0 21.2,9.5 21.2,28.5 v 54.2 h 16.6 v -58.1 c -0.1,-25.5 -10.7,-38.4 -31.9,-38.4 z"
     id="path10"
     inkscape:connector-curvature="0"
     style="fill:#f8d800;fill-opacity:1" /><path
     d="m 758.4,586 c -7.9,-6.9 -19,-10.3 -33.2,-10.3 h -37.5 v 132.1 h 17 v -49.4 h 17.1 c 13.8,0.5 25.3,-3.3 34.5,-11.4 9.2,-8 13.8,-18.6 13.8,-31.5 0.1,-12.8 -3.8,-22.6 -11.7,-29.5 z m -14.2,50.4 c -5.4,4.7 -13.3,7 -23.7,7 h -15.8 v -52.7 h 17.4 c 20.1,0 30.2,8.5 30.2,25.5 0,8.7 -2.7,15.5 -8.1,20.2 z"
     id="path12"
     inkscape:connector-curvature="0"
     style="fill:#f8d800;fill-opacity:1" /><path
     d="m 809.7,611.2 c -12.3,0 -23.1,2.9 -32.5,8.8 v 16.1 c 9.3,-7.6 19.6,-11.4 30.9,-11.4 12.8,0 19.1,7.7 19.1,23.1 l -28,3.9 c -20.9,2.9 -31.3,13.2 -31.3,30.8 0,8.4 2.7,15.1 8.1,20 5.4,4.9 12.7,7.4 21.8,7.4 12.7,0 22.4,-5.6 28.9,-16.8 h 0.4 v 14.6 h 16.6 V 647 c 0.1,-23.8 -11.3,-35.8 -34,-35.8 z m 17.5,58.3 c 0,7.7 -2.3,14.2 -7.1,19.3 -4.7,5.1 -10.7,7.7 -18,7.7 -5.2,0 -9.4,-1.4 -12.6,-4.3 -3.2,-2.8 -4.8,-6.5 -4.8,-11 0,-5.1 1.5,-9.1 4.4,-11.9 2.9,-2.9 8.3,-4.8 16,-5.8 l 22.1,-3 z"
     id="path14"
     inkscape:connector-curvature="0"
     style="fill:#f8d800;fill-opacity:1" /></g>
</svg>