<svg width="309" height="309" version="1.1" viewBox="0 0 81.756 81.756" xmlns="http://www.w3.org/2000/svg"><g transform="translate(0 -215.24)"><g transform="matrix(1.23 0 0 1.23 -1.7009e-6 -67.621)"><g transform="matrix(.012831 0 0 .012831 96.992 236.1)"><g transform="translate(-3460.6 -281.75)" fill="#f8d800" stroke-width=".1"><path d="m52.36 12.9c-21.47 7.67-33.92 20.7-40.25 42.36-4.02 13.99-2.3 28.37 5.18 43.51 6.32 13.22 15.14 21.27 30.09 28.17 9.01 4.22 11.12 4.22 105.99 5.37 93.34 1.15 108.68 2.11 149.5 8.63 209.68 33.35 395.41 169.63 492.39 361.1 35.07 69.19 56.92 139.34 67.47 217.73 3.64 26.64 4.41 42.93 5.37 128.22l1.15 97.75 6.52 12.08c11.31 20.89 29.9 31.82 53.86 32.01 24.73 0 44.85-12.65 55.39-35.27l4.98-10.73v-93.92c0-99.47-1.15-117.68-9.77-171.54-50.79-315.48-289.04-572.13-600.69-646.68-72.26-17.25-104.84-20.51-221.38-21.47-89.51-0.77-96.41-0.57-105.8 2.68z"/><path d="m52.36 319.76c-21.27 7.28-33.92 20.51-40.25 42.17-4.02 13.99-2.3 28.37 5.18 43.51 6.51 13.22 15.14 21.27 30.09 28.17 8.62 3.83 12.84 4.22 68.62 5.37 64.21 1.34 85.29 3.64 122.67 13.22 152.95 39.48 272.93 160.43 310.31 312.8 9.2 37.57 10.93 54.62 12.46 119.41l1.15 61.33 6.52 12.08c11.31 20.89 29.9 31.82 53.86 32.01 24.73 0 44.85-12.65 55.39-35.27 4.79-10.54 4.98-11.69 5.56-56.73 0.96-67.85-3.64-113.47-16.86-165.79-45.06-178.83-179.23-324.68-354.6-385.44-63.63-22.23-119.79-30.48-204.13-30.48-39.1 0.19-47.53 0.58-55.97 3.64z"/><path d="m56.39 624.51c-9.01 2.3-25.49 11.88-30.67 18.02-10.73 12.65-14.95 24.34-14.95 40.63-0.19 13.61 0.57 16.87 6.13 28.18 11.12 22.62 27.22 31.82 60.95 34.31 11.88 0.96 27.22 2.88 34.12 4.41 68.04 15.91 122.48 70.34 138.19 138.19 1.72 6.9 3.83 22.81 4.79 35.46 1.53 20.32 2.3 24.34 7.86 34.5 18.98 35.65 68.04 42.93 96.6 14.38 9.39-9.39 16.48-25.11 17.63-39.1 0.57-6.13 0-21.46-1.34-33.92-13.22-129.96-104.45-235.57-230.76-267.2-32.01-8.05-72.45-11.69-88.55-7.86z"/></g></g><path d="m45.705 241.42-15.454 10.241 0.80224 0.72768 14.441-9.566 0.71001 0.70983-6.5036 4.3623 2.4259 2.4259 6.7459-4.6236 1.0222 0.9972-6.7707 4.4519 2.6368 2.5478 6.5911-4.4474 0.84244 0.84243-6.5147 4.4748 2.4875 2.4967 6.6075-4.5563 5.8069 5.5477 0.90668-0.65422-6.6037-6.3163-6.655 4.6179-0.87906-0.95232 6.6046-4.6489-2.381-2.193-6.7538 4.5231-1.003-1.0791 6.7679-4.4013-2.5885-2.4995-6.7292 4.4524-0.84244-0.84243 6.4925-4.4382z" color="#000000" color-rendering="auto" dominant-baseline="auto" fill="#f8d800" fill-rule="evenodd" image-rendering="auto" shape-rendering="auto" solid-color="#000000" style="font-feature-settings:normal;font-variant-alternates:normal;font-variant-caps:normal;font-variant-ligatures:normal;font-variant-numeric:normal;font-variant-position:normal;isolation:auto;mix-blend-mode:normal;shape-padding:0;text-decoration-color:#000000;text-decoration-line:none;text-decoration-style:solid;text-indent:0;text-orientation:mixed;text-transform:none;white-space:normal"/><path d="m36.009 248.62-0.77764 0.78609 10.599 10.495 0.91795-0.64014z" color="#000000" color-rendering="auto" dominant-baseline="auto" fill="#f8d800" fill-rule="evenodd" image-rendering="auto" shape-rendering="auto" solid-color="#000000" style="font-feature-settings:normal;font-variant-alternates:normal;font-variant-caps:normal;font-variant-ligatures:normal;font-variant-numeric:normal;font-variant-position:normal;isolation:auto;mix-blend-mode:normal;shape-padding:0;text-decoration-color:#000000;text-decoration-line:none;text-decoration-style:solid;text-indent:0;text-orientation:mixed;text-transform:none;white-space:normal"/><path d="m0.64922 267.29 43.655-29.103 21.517 20.045-44.029 30.534-0.0137 1.8334m44.043-32.368-0.06823 1.7721-43.975 30.596-21.081-21.592-0.047706-1.7176 21.142 21.476" fill="none" stroke="#f8d800" stroke-linejoin="round" stroke-width="1.2983"/><g fill="#f8d800"><g stroke="#f8d800" stroke-linecap="round" stroke-linejoin="round"><path d="m22.038 289.5v-0.57205l21.692-15.045c11.931-8.2748 21.716-15.051 21.746-15.058 0.03714-9e-3 0.04807 0.13355 0.03641 0.4771-0.0092 0.26981-0.02359 0.51279-0.0321 0.53996-0.01454 0.0464-43.294 30.18-43.395 30.215-0.02931 0.01-0.04713-0.20054-0.04713-0.55616z" stroke-width=".072128"/><g stroke-width=".57703"><path d="m25.077 278.39a1.1212 0.93034 0 0 1-1.0756 0.92957 1.1212 0.93034 0 0 1-1.1631-0.8539 1.1212 0.93034 0 0 1 0.98087-0.99908 1.1212 0.93034 0 0 1 1.2429 0.77258l-1.1064 0.15083z"/><path d="m20.233 281.28a1.1212 0.93034 0 0 1-1.0907 0.93 1.1212 0.93034 0 0 1-1.15-0.87947 1.1212 0.93034 0 0 1 1.0282-0.97779 1.1212 0.93034 0 0 1 1.2059 0.82635l-1.1146 0.10091z"/><path d="m21.283 274.88a1.1212 0.93034 0 0 1-1.0997 0.93017 1.1212 0.93034 0 0 1-1.1418-0.89452 1.1212 0.93034 0 0 1 1.0559-0.96446 1.1212 0.93034 0 0 1 1.1823 0.85757l-1.1179 0.0712z"/><path d="m16.464 277.89a1.1212 0.93034 0 0 1-1.1014 0.9302 1.1212 0.93034 0 0 1-1.1403-0.89731 1.1212 0.93034 0 0 1 1.061-0.96193 1.1212 0.93034 0 0 1 1.1778 0.86329l-1.1184 0.0657z"/><path d="m17.372 271.45a1.1212 0.93034 0 0 1-1.1014 0.9302 1.1212 0.93034 0 0 1-1.1403-0.89731 1.1212 0.93034 0 0 1 1.061-0.96193 1.1212 0.93034 0 0 1 1.1778 0.86329l-1.1184 0.0657z"/><path d="m13.555 267.39a1.1212 0.93034 0 0 1-1.1014 0.9302 1.1212 0.93034 0 0 1-1.1403-0.89731 1.1212 0.93034 0 0 1 1.061-0.96193 1.1212 0.93034 0 0 1 1.1778 0.86329l-1.1184 0.0657z"/><path d="m12.696 274.45a1.1212 0.93034 0 0 1-1.1014 0.9302 1.1212 0.93034 0 0 1-1.1403-0.8973 1.1212 0.93034 0 0 1 1.061-0.96193 1.1212 0.93034 0 0 1 1.1778 0.86329l-1.1184 0.0657z"/><path d="m9.07 270.63a1.1212 0.93034 0 0 1-1.1014 0.9302 1.1212 0.93034 0 0 1-1.1403-0.89731 1.1212 0.93034 0 0 1 1.061-0.96192 1.1212 0.93034 0 0 1 1.1778 0.86329l-1.1184 0.0657z"/></g></g><g fill-rule="evenodd"><path d="m6.6607 282.28s0.4771 0.85877 1.145 0.81107c0.66794-0.0478 1.0973-0.85879 1.0973-0.85879v-5.3912l-2.1947-2.2424z"/><path d="m10.105 285.88s0.4771 0.85877 1.145 0.81107c0.66794-0.0478 1.0973-0.85879 1.0973-0.85879v-5.3912l-2.1947-2.2424z"/><path d="m13.889 289.53s0.4771 0.85877 1.145 0.81107c0.66794-0.0478 1.0973-0.85879 1.0973-0.85879v-5.3912l-2.1947-2.2424z"/><path d="m17.625 293.23s0.4771 0.85878 1.145 0.81107c0.66794-0.0477 1.0973-0.85879 1.0973-0.85879v-5.3912l-2.1947-2.2424z"/><path d="m23.192 289.72s0.4771 0.85877 1.145 0.81107c0.66794-0.0478 1.0973-0.85879 1.0973-0.85879v-3.4828l-2.2901 1.4313z"/></g></g><path d="m18.922 260.66v1.312l7.1803 6.8464 8.3492-5.7252 0.07157-1.2404" fill="none" stroke="#f8d800" stroke-width=".093767"/><g fill="#f8d800"><path d="m22.494 265.44-3.6021-3.4343-0.01191-0.67843-0.01191-0.67844 4.1605-2.798c2.2882-1.5389 4.1724-2.801 4.1869-2.8047 0.0216-5e-3 7.0356 6.4789 7.2795 6.7298l0.07345 0.0756-0.03767 0.62547c-0.02939 0.48784-0.04554 0.63308-0.07345 0.66003-0.0284 0.0274-8.0759 5.5516-8.3015 5.6986l-0.05964 0.0388zm3.614 3.3096c0-4e-3 -0.0295-0.0338-0.0656-0.0656l-0.0656-0.0578 0.05783 0.0656c0.05405 0.0613 0.07337 0.0765 0.07337 0.0578zm-0.31012-0.28514c0-4e-3 -0.07246-0.0761-0.16102-0.16103l-0.16102-0.15436 0.15437 0.16102c0.14339 0.14956 0.16768 0.17192 0.16768 0.15437zm-0.52481-0.50096c0-4e-3 -0.07246-0.0761-0.16102-0.16102l-0.16102-0.15437 0.15437 0.16102c0.14339 0.14957 0.16768 0.17193 0.16768 0.15437zm-0.54866-0.52493c0-4e-3 -0.06173-0.0655-0.13717-0.13717l-0.13716-0.13039 0.13039 0.13717c0.12113 0.12743 0.14395 0.14809 0.14395 0.13039zm1.3836-0.0487c0-4e-3 -0.0295-0.0338-0.0656-0.0656l-0.0656-0.0578 0.05783 0.0656c0.05405 0.0613 0.07337 0.0765 0.07337 0.0578zm3.9079-2.5962c2.0819-1.3798 3.9322-2.6068 4.1116-2.7265l0.3263-0.21767-3.6064-3.3466c-1.9835-1.8406-3.6153-3.3484-3.6262-3.3507-0.02649-5e-3 -8.2215 5.5022-8.2151 5.5212 0.0027 8e-3 1.6152 1.5084 3.5832 3.3339 2.1 1.9479 3.5912 3.3141 3.6097 3.307 0.01733-7e-3 1.7349-1.1409 3.8168-2.5208zm-4.1942 2.3344c0-4e-3 -0.04026-0.0442-0.08946-0.0894l-0.08945-0.0822 0.08221 0.0894c0.07652 0.0833 0.09671 0.10043 0.09671 0.0822zm-1.5744-0.14253c0-4e-3 -0.07246-0.0761-0.16102-0.16102l-0.16102-0.15437 0.15437 0.16102c0.14338 0.14956 0.16768 0.17193 0.16768 0.15437zm1.2643-0.14357c0-4e-3 -0.04562-0.0495-0.10138-0.10138l-0.10138-0.0943 0.0943 0.10139c0.0877 0.0943 0.10847 0.11234 0.10847 0.0943zm-0.40553-0.38652c-0.05795-0.059-0.11072-0.10734-0.11728-0.10734-0.0066 0 0.0355 0.0483 0.09343 0.10734 0.05794 0.0591 0.11072 0.10735 0.11728 0.10735 0.0066 0-0.0355-0.0483-0.09342-0.10735zm-1.3597 0.053c0-4e-3 -0.07246-0.0761-0.16102-0.16102l-0.16102-0.15437 0.15437 0.16102c0.14339 0.14956 0.16768 0.17193 0.16768 0.15437zm1.145-0.23876c0-4e-3 -0.05636-0.0601-0.12524-0.12524l-0.12524-0.11837 0.11838 0.12523c0.11 0.11638 0.1321 0.13618 0.1321 0.11838zm-1.6698-0.2622c0-4e-3 -0.07246-0.0761-0.16102-0.16102l-0.16102-0.15436 0.15437 0.16101c0.14339 0.14957 0.16768 0.17193 0.16768 0.15437zm1.3359-0.0479c0-4e-3 -0.05636-0.0601-0.12524-0.12524l-0.12524-0.11838 0.11838 0.12524c0.11 0.11637 0.1321 0.13618 0.1321 0.11838zm-0.33397-0.31012c0-4e-3 -0.05636-0.0601-0.12524-0.12524l-0.12524-0.11837 0.11838 0.12523c0.11 0.11638 0.1321 0.13618 0.1321 0.11838zm-1.5029-0.11906c0-4e-3 -0.07246-0.0761-0.16102-0.16103l-0.16102-0.15436 0.15437 0.16102c0.14338 0.14956 0.16768 0.17192 0.16768 0.15437zm1.1927-0.1672c0-4e-3 -0.05636-0.0601-0.12524-0.12524l-0.12524-0.11837 0.11838 0.12523c0.11 0.11638 0.1321 0.13618 0.1321 0.11838zm-0.33397-0.31011c0-4e-3 -0.05636-0.0601-0.12524-0.12524l-0.12524-0.11838 0.11838 0.12524c0.11 0.11637 0.1321 0.13618 0.1321 0.11838zm-1.3836-0.0237c0-4e-3 -0.07246-0.0761-0.16102-0.16103l-0.16102-0.15436 0.15437 0.16102c0.14339 0.14956 0.16768 0.17192 0.16768 0.15437zm1.0496-0.28647c0-4e-3 -0.05636-0.0601-0.12524-0.12524l-0.12524-0.11838 0.11838 0.12524c0.11 0.11637 0.1321 0.13618 0.1321 0.11838zm-1.5506-0.19063c0-4e-3 -0.07246-0.0761-0.16102-0.16103l-0.16102-0.15436 0.15437 0.16102c0.14339 0.14956 0.16768 0.17192 0.16768 0.15437zm1.2166-0.11948c0-4e-3 -0.05636-0.0601-0.12524-0.12524l-0.12524-0.11838 0.11838 0.12523c0.11 0.11638 0.1321 0.13618 0.1321 0.11839zm-0.33397-0.31012c0-4e-3 -0.05636-0.0601-0.12524-0.12524l-0.12524-0.11838 0.11838 0.12524c0.11 0.11637 0.1321 0.13618 0.1321 0.11838zm-1.4074-0.0714c0-4e-3 -0.07246-0.0761-0.16102-0.16102l-0.16102-0.15437 0.15437 0.16102c0.14338 0.14957 0.16768 0.17193 0.16768 0.15437zm1.0973-0.21482c0-4e-3 -0.06173-0.0654-0.13717-0.13717l-0.13716-0.13038 0.13038 0.13716c0.12113 0.12744 0.14395 0.1481 0.14395 0.13039zm-1.5983-0.26228c0-4e-3 -0.07246-0.0761-0.16102-0.16102l-0.16102-0.15437 0.15437 0.16102c0.14338 0.14957 0.16768 0.17193 0.16768 0.15437zm1.2643-0.0479c0-4e-3 -0.05636-0.0601-0.12524-0.12524l-0.12524-0.11838 0.11838 0.12524c0.11 0.11637 0.1321 0.13617 0.1321 0.11838zm-0.33397-0.31012c0-4e-3 -0.05636-0.0601-0.12524-0.12524l-0.12524-0.11838 0.11838 0.12524c0.11 0.11637 0.1321 0.13618 0.1321 0.11838zm-1.4552-0.14292c0-4e-3 -0.07246-0.0761-0.16102-0.16102l-0.16102-0.15437 0.15437 0.16102c0.14339 0.14956 0.16768 0.17193 0.16768 0.15437zm1.145-0.14326c0-4e-3 -0.06173-0.0654-0.13717-0.13716l-0.13716-0.13039 0.13039 0.13716c0.12113 0.12744 0.14395 0.1481 0.14395 0.13039zm13.137-0.21388c-0.0057-0.0295-0.01034-5e-3 -0.01034 0.0537 0 0.059 0.0047 0.0832 0.01034 0.0537 0.0057-0.0295 0.0057-0.0778 0-0.10735zm-13.471-0.09619c0-4e-3 -0.06173-0.0655-0.13717-0.13717l-0.13716-0.13039 0.13038 0.13717c0.12113 0.12743 0.14395 0.14809 0.14395 0.13039zm-1.312-0.0237c0-4e-3 -0.07246-0.0761-0.16102-0.16102l-0.16102-0.15437 0.15437 0.16102c0.14339 0.14956 0.16768 0.17193 0.16768 0.15437zm14.808-0.40485c-5e-3 -0.0558-0.0091-0.0102-0.0091 0.10139 0 0.11152 0.0041 0.15714 0.0091 0.10138 5e-3 -0.0558 5e-3 -0.14701 0-0.20277zm-13.806 0.14239c0-4e-3 -0.06709-0.0708-0.1491-0.1491l-0.14909-0.14238 0.14238 0.14909c0.13226 0.1385 0.1558 0.16001 0.1558 0.14239zm-1.5267-0.23931c0-4e-3 -0.03488-0.039-0.07753-0.0775l-0.07753-0.0701 0.07006 0.0775c0.06531 0.0723 0.08499 0.0885 0.08499 0.0701zm15.331-0.0508c0.02939 0.0402 0.03179 0.0386 0.03179-0.0207 0-0.0353-0.0068-0.0642-0.01508-0.0642-0.02282 0-0.17576 0.0975-0.17576 0.11204 0 7e-3 0.02863-6e-3 0.06361-0.029 0.06078-0.0398 0.06503-0.0397 0.09542 2e-3zm-14.138-0.02c0-4e-3 -0.06709-0.0708-0.1491-0.1491l-0.14909-0.14238 0.14238 0.14909c0.13226 0.1385 0.15581 0.16001 0.15581 0.14239zm-0.31012-0.2863c0-4e-3 -0.06709-0.0708-0.1491-0.1491l-0.14909-0.14238 0.14238 0.14909c0.13226 0.1385 0.1558 0.16001 0.1558 0.14239zm-0.59637-0.5674c-0.164-0.15718-0.32771-0.30774-0.36379-0.33457l-0.0656-0.0488 0.0034 0.0911c0.0019 0.0553 0.0073 0.07 0.01359 0.0374 0.0057-0.0295 0.02004-0.0537 0.03183-0.0537 0.01183 0 0.16405 0.13357 0.33827 0.29681 0.17422 0.16325 0.32213 0.29697 0.32869 0.29716 0.0066 1.9e-4 -0.12226-0.12826-0.28626-0.28544z"/><path d="m25.893 267.01c-0.69081-0.60928-5.5777-5.1377-6.4051-5.9352-0.43113-0.41558-0.41981-0.39956-0.33203-0.46991 0.28865-0.23134 8.0041-5.3994 8.0609-5.3994 0.04182 0 0.8979 0.78557 4.0674 3.7324 2.6744 2.4865 3.0535 2.846 3.0533 2.8959-9.6e-5 0.0217-0.08781 0.10151-0.19681 0.17906-0.21766 0.15487-2.6572 1.7791-5.1585 3.4344-2.4732 1.6368-2.733 1.8051-2.7848 1.8048-0.01656-1e-4 -0.15353-0.10905-0.30441-0.24212z" stroke="#f8d800" stroke-linecap="round" stroke-linejoin="round" stroke-width=".0058604"/><path d="m36.714 275.18c-0.19976-0.19313-4.5151-4.3779-4.8321-4.6859l-0.26085-0.25345-0.01082-0.25923c-0.0059-0.14267-0.01168-0.37136-0.01298-0.5084-2e-3 -0.21709 0.0017-0.25264 0.02816-0.27602 0.04664-0.0411 4.0559-2.7848 5.4653-3.7401 0.55886-0.37874 0.59025-0.39742 0.62817-0.37369 0.02196 0.013 0.22223 0.19603 0.44506 0.40504 0.44667 0.41904 4.0354 3.8029 4.5532 4.2933l0.32572 0.30848v0.0853c0 0.0469-0.01212 0.26242-0.02676 0.47898-0.02656 0.39101-0.02708 0.39401-0.07265 0.42911-0.09447 0.0727-0.67723 0.48207-2.3108 1.6229-2.9546 2.0633-3.7434 2.611-3.7602 2.611-0.0089 0-0.08035-0.0619-0.15847-0.13733zm0.23145-1.0538c0-4e-3 -0.01356-0.0169-0.03039-0.0309-0.02754-0.0221-0.02816-0.0213-0.0065 6e-3 0.02269 0.0296 0.03696 0.0389 0.03696 0.0242zm-0.06949-0.0522c0-4e-3 -0.02149-0.0251-0.04778-0.0486l-0.04776-0.0428 0.04212 0.0486c0.03937 0.0454 0.05343 0.0568 0.05343 0.0428zm-0.12159-0.10574c0-4e-3 -0.0254-0.0287-0.05645-0.0574l-0.05645-0.0519 0.05102 0.0574c0.04756 0.0537 0.0619 0.0656 0.0619 0.0519zm-0.15634-0.14137c0-4e-3 -0.02931-0.0329-0.06513-0.0664l-0.06513-0.0609 0.05987 0.0664c0.05571 0.0617 0.07043 0.0744 0.07043 0.0609zm-0.20846-0.19446c0-4e-3 -0.02931-0.0329-0.06513-0.0664l-0.06513-0.0609 0.05987 0.0664c0.05571 0.0617 0.07043 0.0744 0.07043 0.0609zm-0.19109-0.17666c0-4e-3 -0.03324-0.0366-0.07383-0.0752l-0.07383-0.07 0.06868 0.0752c0.06386 0.07 0.07898 0.0832 0.07898 0.07zm-0.22583-0.21226c0-4e-3 -0.02931-0.0327-0.06513-0.0662l-0.06513-0.0609 0.05987 0.0664c0.05571 0.0617 0.07043 0.0744 0.07043 0.0609zm-0.22584-0.21214c0-4e-3 -0.02931-0.0329-0.06513-0.0664l-0.06513-0.0609 0.05987 0.0664c0.05571 0.0617 0.07043 0.0744 0.07043 0.0609zm-0.20846-0.19434c0-4e-3 -0.03324-0.0366-0.07383-0.0752l-0.07383-0.07 0.06868 0.0752c0.06386 0.07 0.07898 0.0834 0.07898 0.07zm-0.2432-0.22993c0-4e-3 -0.02931-0.0329-0.06513-0.0664l-0.06513-0.0609 0.05987 0.0664c0.05571 0.0617 0.07043 0.0744 0.07043 0.0609zm-0.20846-0.19435c0-4e-3 -0.03324-0.0366-0.07383-0.0752l-0.07383-0.07 0.06868 0.0752c0.06385 0.07 0.07898 0.0834 0.07898 0.07zm-0.26057-0.24776c0-4e-3 -0.0254-0.029-0.05645-0.0574l-0.05645-0.0519 0.05102 0.0574c0.04756 0.0535 0.0619 0.0656 0.0619 0.0519zm-0.2432-0.23004c0-4e-3 -0.02148-0.0251-0.04778-0.0486l-0.04776-0.0428 0.04212 0.0486c0.03937 0.0454 0.05343 0.0568 0.05343 0.0429zm-0.22583-0.21193c0-4e-3 -0.0254-0.0288-0.05645-0.0574l-0.05645-0.0519 0.05102 0.0574c0.04756 0.0535 0.0619 0.0656 0.0619 0.0519zm-0.22583-0.21184c0-4e-3 -0.03324-0.0366-0.07383-0.0752l-0.07383-0.07 0.06868 0.0752c0.06386 0.07 0.07898 0.0832 0.07898 0.07zm-0.2432-0.22983c0-4e-3 -0.03322-0.0366-0.07383-0.0752l-0.07383-0.07 0.06867 0.0752c0.06386 0.07 0.07898 0.0832 0.07898 0.07zm-0.2432-0.2298c0-4e-3 -0.03324-0.0366-0.07383-0.0752l-0.07383-0.07 0.06868 0.0752c0.06386 0.07 0.07898 0.0832 0.07898 0.07zm-0.2432-0.22982c0-4e-3 -0.03321-0.0366-0.07382-0.0752l-0.07383-0.07 0.06868 0.0752c0.06386 0.07 0.07898 0.0832 0.07898 0.07zm-0.2432-0.22983c0-4e-3 -0.03324-0.0366-0.07383-0.0752l-0.07383-0.07 0.06867 0.0752c0.06386 0.07 0.07898 0.0832 0.07898 0.07zm-0.33006-0.32178c-0.04219-0.0437-0.08063-0.0796-0.08541-0.0796-0.0048 0 0.02585 0.0359 0.06803 0.0796 0.04219 0.0437 0.08062 0.0795 0.08541 0.0795 0.0048 0-0.02585-0.0359-0.06803-0.0795zm10.053-0.16076c0.0029-9e-3 -0.08653-0.10761-0.19882-0.21947l-0.20419-0.20307 0.39613 0.41253-0.11818 0.1154 0.05985-0.0447c0.03292-0.0245 0.06228-0.0519 0.0652-0.0609zm-10.314-0.0867c-0.04219-0.0437-0.08062-0.0795-0.08541-0.0795-0.0048 0 0.02585 0.0356 0.06803 0.0795 0.04219 0.0437 0.08062 0.0795 0.08541 0.0795 0.0048 0-0.02585-0.0358-0.06803-0.0795zm-0.19109-0.17289c0-4e-3 -0.05277-0.0564-0.11727-0.1193l-0.11725-0.1144 0.11242 0.11931c0.10443 0.11078 0.1221 0.12752 0.1221 0.11439zm10.006-0.24765c0-4e-3 -0.04104-0.0444-0.0912-0.0928l-0.0912-0.0877 0.08621 0.0928c0.0801 0.0864 0.09619 0.10098 0.09619 0.0879zm-10.462-0.20303c-0.07383-0.0754-0.13422-0.14711-0.13422-0.15907 0-0.0115-0.0076-0.0216-0.01746-0.0216-0.0095 0-0.01745 6e-3 -0.01745 0.013 0 0.015 0.28074 0.30531 0.29452 0.30531 0.0048 0-0.05175-0.0619-0.12555-0.13733zm10.167-0.0801c0-4e-3 -0.02931-0.0328-0.06513-0.0662l-0.06513-0.0609 0.05987 0.0664c0.05571 0.0617 0.07043 0.0744 0.07043 0.0609zm-0.27794-0.26533c0-4e-3 -0.0254-0.0289-0.05645-0.0574l-0.05645-0.0519 0.05102 0.0574c0.04756 0.0535 0.0619 0.0656 0.0619 0.0519zm-0.26058-0.24749c0-4e-3 -0.0254-0.0288-0.05645-0.0574l-0.05645-0.0519 0.05102 0.0574c0.04756 0.0535 0.0619 0.0656 0.0619 0.0519zm-0.2432-0.22983c0-4e-3 -0.0254-0.0288-0.05645-0.0574l-0.05645-0.0519 0.05102 0.0576c0.04756 0.0535 0.0619 0.0656 0.0619 0.0519zm-0.2432-0.22981c0-4e-3 -0.0254-0.0287-0.05645-0.0574l-0.05645-0.0519 0.05102 0.0574c0.04756 0.0535 0.0619 0.0656 0.0619 0.0519zm-0.26057-0.24772c0-4e-3 -0.02149-0.0251-0.04778-0.0486l-0.04776-0.0428 0.04212 0.0486c0.03937 0.0454 0.05343 0.0568 0.05343 0.0428zm-0.2432-0.2298c0-4e-3 -0.02148-0.0251-0.04778-0.0486l-0.04776-0.0428 0.04212 0.0486c0.03937 0.0454 0.05343 0.0568 0.05343 0.0428zm-0.2432-0.22959c0-4e-3 -0.0254-0.029-0.05645-0.0574l-0.05645-0.0519 0.05102 0.0574c0.04756 0.0535 0.0619 0.0656 0.0619 0.0519zm-0.2432-0.22981c0-4e-3 -0.0254-0.029-0.05645-0.0574l-0.05645-0.0519 0.05102 0.0574c0.04756 0.0535 0.0619 0.0656 0.0619 0.0519zm-0.2432-0.22983c0-4e-3 -0.0254-0.0289-0.05645-0.0574l-0.05645-0.0519 0.05102 0.0574c0.04756 0.0537 0.0619 0.0656 0.0619 0.0519zm-0.2432-0.23004c0-4e-3 -0.02149-0.0251-0.04778-0.0486l-0.04776-0.0428 0.04212 0.0486c0.03937 0.0454 0.05343 0.0568 0.05343 0.0428zm-0.2432-0.23012c0-4e-3 -0.01763-0.0213-0.03909-0.0398l-0.03909-0.0336 0.03308 0.0398c0.0311 0.0374 0.04508 0.0479 0.04508 0.0336zm-2.8663-0.7279c0-6e-3 -0.18761 0.11872-0.41692 0.27437-0.22931 0.15571-0.41692 0.28721-0.41692 0.29204 0 6e-3 0.18761-0.11858 0.41692-0.27435 0.2293-0.15571 0.41692-0.2872 0.41692-0.29206zm2.6231 0.49842c0-4e-3 -0.02149-0.0251-0.04778-0.0486l-0.04776-0.0428 0.04212 0.0486c0.03937 0.0454 0.05343 0.0568 0.05343 0.0428zm-0.22583-0.2119c0-4e-3 -0.0254-0.0287-0.05645-0.0576l-0.05645-0.0519 0.05102 0.0574c0.04756 0.0535 0.0619 0.0656 0.0619 0.0519zm-0.22583-0.21214c0-4e-3 -0.0254-0.0289-0.05645-0.0574l-0.05645-0.0519 0.05102 0.0574c0.04756 0.0537 0.0619 0.0656 0.0619 0.0519zm-0.22583-0.21209c0-4e-3 -0.0254-0.0288-0.05645-0.0574l-0.05645-0.0519 0.05102 0.0574c0.04756 0.0535 0.0619 0.0656 0.0619 0.0519zm-1.2855-0.30047c0.20926-0.14109 0.31911-0.2222 0.2432-0.17946-0.05114 0.0288-0.49542 0.3313-0.51246 0.34897-0.02794 0.029 0.01672 8.4e-4 0.26926-0.16954zm1.077 0.10617c0-4e-3 -0.02931-0.0327-0.06513-0.0662l-0.06513-0.0609 0.05987 0.0664c0.05571 0.0617 0.07043 0.0744 0.07043 0.0609zm-0.26057-0.25095c-0.04219-0.0437-0.08062-0.0796-0.08541-0.0796-0.0048 0 0.02585 0.0359 0.06803 0.0796 0.04219 0.0437 0.08062 0.0795 0.08541 0.0795 0.0048 0-0.02585-0.0359-0.06803-0.0795zm-0.17797-0.16299c-0.0682-0.0694-0.08566-0.0792-0.10401-0.0593-0.01226 0.013-0.01342 0.0193-0.0022 0.013 0.01082-6e-3 0.05384 0.0202 0.09554 0.0586 0.10414 0.0956 0.11017 0.089 0.01082-0.013zm-0.16078-0.013 0.03474-0.0289-0.03474 0.0169c-0.0191 9e-3 -0.05039 0.0303-0.06949 0.0462l-0.03474 0.0289 0.03474-0.0169c0.0191-9e-3 0.05036-0.0303 0.06949-0.0462z"/></g></g></g></svg>
