<?xml version="1.0" encoding="UTF-8" standalone="no"?>
<svg
   xmlns:dc="http://purl.org/dc/elements/1.1/"
   xmlns:cc="http://creativecommons.org/ns#"
   xmlns:rdf="http://www.w3.org/1999/02/22-rdf-syntax-ns#"
   xmlns:svg="http://www.w3.org/2000/svg"
   xmlns="http://www.w3.org/2000/svg"
   xmlns:sodipodi="http://sodipodi.sourceforge.net/DTD/sodipodi-0.dtd"
   xmlns:inkscape="http://www.inkscape.org/namespaces/inkscape"
   version="1.1"
   width="24"
   height="24"
   viewBox="0 0 24 24"
   id="svg3445"
   sodipodi:docname="molecule-co.svg"
   inkscape:version="1.0.1 (0767f8302a, 2020-10-17)">
  <metadata
     id="metadata3451">
    <rdf:RDF>
      <cc:Work
         rdf:about="">
        <dc:format>image/svg+xml</dc:format>
        <dc:type
           rdf:resource="http://purl.org/dc/dcmitype/StillImage" />
      </cc:Work>
    </rdf:RDF>
  </metadata>
  <defs
     id="defs3449" />
  <sodipodi:namedview
     pagecolor="#ffffff"
     bordercolor="#666666"
     borderopacity="1"
     objecttolerance="10"
     gridtolerance="10"
     guidetolerance="10"
     inkscape:pageopacity="0"
     inkscape:pageshadow="2"
     inkscape:window-width="3768"
     inkscape:window-height="2089"
     id="namedview3447"
     showgrid="false"
     inkscape:zoom="42"
     inkscape:cx="6.8571429"
     inkscape:cy="12"
     inkscape:window-x="1920"
     inkscape:window-y="34"
     inkscape:window-maximized="1"
     inkscape:current-layer="svg3445" />
  <path
     d="M8 7C6.9 7 6 7.9 6 9V15C6 16.11 6.9 17 8 17H11V15H8V9H11V7H8M14 7C12.9 7 12 7.9 12 9V15C12 16.11 12.9 17 14 17H16C17.11 17 18 16.11 18 15V9C18 7.9 17.11 7 16 7H14M14 9H16V15H14V9"
     id="path3443"
     style="fill:#f6d000;fill-opacity:1" />
</svg>
