<?xml version="1.0" encoding="UTF-8" standalone="no"?>
<!-- Created with Inkscape (http://www.inkscape.org/) -->

<svg
   xmlns:dc="http://purl.org/dc/elements/1.1/"
   xmlns:cc="http://creativecommons.org/ns#"
   xmlns:rdf="http://www.w3.org/1999/02/22-rdf-syntax-ns#"
   xmlns:svg="http://www.w3.org/2000/svg"
   xmlns="http://www.w3.org/2000/svg"
   xmlns:sodipodi="http://sodipodi.sourceforge.net/DTD/sodipodi-0.dtd"
   xmlns:inkscape="http://www.inkscape.org/namespaces/inkscape"
   width="309"
   height="309"
   viewBox="0 0 81.756248 81.756252"
   version="1.1"
   id="svg8"
   sodipodi:docname="node_custom.svg"
   inkscape:version="0.92.3 (2405546, 2018-03-11)">
  <defs
     id="defs2">
    <inkscape:perspective
       sodipodi:type="inkscape:persp3d"
       inkscape:vp_x="0 : 148.5 : 1"
       inkscape:vp_y="0 : 1000 : 0"
       inkscape:vp_z="210 : 148.5 : 1"
       inkscape:persp3d-origin="105 : 99 : 1"
       id="perspective932" />
  </defs>
  <sodipodi:namedview
     id="base"
     pagecolor="#ffffff"
     bordercolor="#666666"
     borderopacity="1.0"
     inkscape:pageopacity="0.0"
     inkscape:pageshadow="2"
     inkscape:zoom="1.4142136"
     inkscape:cx="163.02981"
     inkscape:cy="322.77385"
     inkscape:document-units="mm"
     inkscape:current-layer="layer1"
     showgrid="false"
     inkscape:window-width="2493"
     inkscape:window-height="1385"
     inkscape:window-x="67"
     inkscape:window-y="27"
     inkscape:window-maximized="1"
     units="px" />
  <metadata
     id="metadata5">
    <rdf:RDF>
      <cc:Work
         rdf:about="">
        <dc:format>image/svg+xml</dc:format>
        <dc:type
           rdf:resource="http://purl.org/dc/dcmitype/StillImage" />
        <dc:title />
      </cc:Work>
    </rdf:RDF>
  </metadata>
  <g
     inkscape:groupmode="layer"
     id="layer3"
     inkscape:label="Calque 2"
     style="display:inline"
     transform="translate(0,-215.24373)" />
  <g
     inkscape:label="Calque 1"
     inkscape:groupmode="layer"
     id="layer1"
     style="display:inline"
     transform="translate(0,-215.24373)">
    <g
       id="g920"
       transform="matrix(1.2299727,0,0,1.2299727,-1.7008877e-6,-67.621355)">
      <g
         transform="matrix(0.01283071,0,0,0.01283071,96.991983,236.10314)"
         id="g1944"
         style="display:inline">
        <g
           transform="translate(-3460.5977,-281.74778)"
           id="g1965">
          <path
             inkscape:connector-curvature="0"
             d="m 52.36,12.9 c -21.47,7.67 -33.92,20.7 -40.25,42.36 -4.02,13.99 -2.3,28.37 5.18,43.51 6.32,13.22 15.14,21.27 30.09,28.17 9.01,4.22 11.12,4.22 105.99,5.37 93.34,1.15 108.68,2.11 149.5,8.63 209.68,33.35 395.41,169.63 492.39,361.1 35.07,69.19 56.92,139.34 67.47,217.73 3.64,26.64 4.41,42.93 5.37,128.22 l 1.15,97.75 6.52,12.08 c 11.31,20.89 29.9,31.82 53.86,32.01 24.73,0 44.85,-12.65 55.39,-35.27 L 990,943.83 V 849.91 C 990,750.44 988.85,732.23 980.23,678.37 929.44,362.89 691.19,106.24 379.54,31.69 307.28,14.44 274.7,11.18 158.16,10.22 68.65,9.45 61.75,9.65 52.36,12.9 Z"
             id="path1934"
             style="fill:#f8d800;fill-opacity:1;stroke-width:0.1" />
          <path
             inkscape:connector-curvature="0"
             d="m 52.36,319.76 c -21.27,7.28 -33.92,20.51 -40.25,42.17 -4.02,13.99 -2.3,28.37 5.18,43.51 6.51,13.22 15.14,21.27 30.09,28.17 8.62,3.83 12.84,4.22 68.62,5.37 64.21,1.34 85.29,3.64 122.67,13.22 152.95,39.48 272.93,160.43 310.31,312.8 9.2,37.57 10.93,54.62 12.46,119.41 l 1.15,61.33 6.52,12.08 c 11.31,20.89 29.9,31.82 53.86,32.01 24.73,0 44.85,-12.65 55.39,-35.27 4.79,-10.54 4.98,-11.69 5.56,-56.73 0.96,-67.85 -3.64,-113.47 -16.86,-165.79 C 622,553.21 487.83,407.36 312.46,346.6 248.83,324.37 192.67,316.12 108.33,316.12 c -39.1,0.19 -47.53,0.58 -55.97,3.64 z"
             id="path1936"
             style="fill:#f8d800;fill-opacity:1;stroke-width:0.1" />
          <path
             inkscape:connector-curvature="0"
             d="m 56.39,624.51 c -9.01,2.3 -25.49,11.88 -30.67,18.02 -10.73,12.65 -14.95,24.34 -14.95,40.63 -0.19,13.61 0.57,16.87 6.13,28.18 11.12,22.62 27.22,31.82 60.95,34.31 11.88,0.96 27.22,2.88 34.12,4.41 68.04,15.91 122.48,70.34 138.19,138.19 1.72,6.9 3.83,22.81 4.79,35.46 1.53,20.32 2.3,24.34 7.86,34.5 18.98,35.65 68.04,42.93 96.6,14.38 9.39,-9.39 16.48,-25.11 17.63,-39.1 0.57,-6.13 0,-21.46 -1.34,-33.92 C 362.48,769.61 271.25,664 144.94,632.37 112.93,624.32 72.49,620.68 56.39,624.51 Z"
             id="path1938"
             style="fill:#f8d800;fill-opacity:1;stroke-width:0.1" />
        </g>
      </g>
      <path
         sodipodi:nodetypes="ccccccccccccccccccccccccccccccc"
         inkscape:connector-curvature="0"
         id="path1165"
         d="m 45.704686,241.42251 -15.4537,10.24147 0.802241,0.72768 14.44052,-9.56603 0.710013,0.70983 -6.503577,4.36227 2.425881,2.42588 6.745884,-4.62355 1.022195,0.9972 -6.770679,4.45187 2.63682,2.54779 6.591108,-4.44735 0.842437,0.84243 -6.514659,4.47478 2.487491,2.49669 6.607451,-4.55629 5.806899,5.54768 0.906677,-0.65422 -6.603695,-6.31631 -6.654972,4.61791 -0.879065,-0.95232 6.604633,-4.6489 -2.380988,-2.19298 -6.753773,4.52307 -1.003037,-1.07911 6.767862,-4.40133 -2.588547,-2.49953 -6.729166,4.45243 -0.842437,-0.84243 6.492496,-4.43815 z"
         style="color:#000000;font-style:normal;font-variant:normal;font-weight:normal;font-stretch:normal;font-size:medium;line-height:normal;font-family:sans-serif;font-variant-ligatures:normal;font-variant-position:normal;font-variant-caps:normal;font-variant-numeric:normal;font-variant-alternates:normal;font-feature-settings:normal;text-indent:0;text-align:start;text-decoration:none;text-decoration-line:none;text-decoration-style:solid;text-decoration-color:#000000;letter-spacing:normal;word-spacing:normal;text-transform:none;writing-mode:lr-tb;direction:ltr;text-orientation:mixed;dominant-baseline:auto;baseline-shift:baseline;text-anchor:start;white-space:normal;shape-padding:0;clip-rule:nonzero;display:inline;overflow:visible;visibility:visible;opacity:1;isolation:auto;mix-blend-mode:normal;color-interpolation:sRGB;color-interpolation-filters:linearRGB;solid-color:#000000;solid-opacity:1;vector-effect:none;fill:#f8d800;fill-opacity:1;fill-rule:evenodd;stroke:none;stroke-width:1.10356462;stroke-linecap:butt;stroke-linejoin:miter;stroke-miterlimit:4;stroke-dasharray:none;stroke-dashoffset:0;stroke-opacity:1;color-rendering:auto;image-rendering:auto;shape-rendering:auto;text-rendering:auto;enable-background:accumulate" />
      <path
         sodipodi:nodetypes="ccccc"
         inkscape:connector-curvature="0"
         id="path1167"
         d="m 36.009238,248.62182 -0.777635,0.78609 10.599494,10.49524 0.917948,-0.64014 z"
         style="color:#000000;font-style:normal;font-variant:normal;font-weight:normal;font-stretch:normal;font-size:medium;line-height:normal;font-family:sans-serif;font-variant-ligatures:normal;font-variant-position:normal;font-variant-caps:normal;font-variant-numeric:normal;font-variant-alternates:normal;font-feature-settings:normal;text-indent:0;text-align:start;text-decoration:none;text-decoration-line:none;text-decoration-style:solid;text-decoration-color:#000000;letter-spacing:normal;word-spacing:normal;text-transform:none;writing-mode:lr-tb;direction:ltr;text-orientation:mixed;dominant-baseline:auto;baseline-shift:baseline;text-anchor:start;white-space:normal;shape-padding:0;clip-rule:nonzero;display:inline;overflow:visible;visibility:visible;opacity:1;isolation:auto;mix-blend-mode:normal;color-interpolation:sRGB;color-interpolation-filters:linearRGB;solid-color:#000000;solid-opacity:1;vector-effect:none;fill:#f8d800;fill-opacity:1;fill-rule:evenodd;stroke:none;stroke-width:1.10356462;stroke-linecap:butt;stroke-linejoin:miter;stroke-miterlimit:4;stroke-dasharray:none;stroke-dashoffset:0;stroke-opacity:1;color-rendering:auto;image-rendering:auto;shape-rendering:auto;text-rendering:auto;enable-background:accumulate" />
      <path
         sodipodi:nodetypes="ccccccccccc"
         inkscape:connector-curvature="0"
         d="M 0.64922358,267.29486 44.30381,238.1918 l 21.517051,20.0449 -44.029354,30.53436 -0.0137,1.83342 m 44.04299,-32.36778 -0.06823,1.77209 -43.974757,30.59569 -21.08094582,-21.59207 -0.0477057,-1.71755 21.14227952,21.4762"
         style="fill:none;fill-rule:evenodd;stroke:#f8d800;stroke-width:1.29831123;stroke-linecap:butt;stroke-linejoin:round;stroke-miterlimit:4;stroke-dasharray:none;stroke-opacity:1"
         id="path1206" />
      <path
         inkscape:connector-curvature="0"
         id="path1322"
         d="m 22.038173,289.49535 v -0.57205 l 21.692497,-15.045 c 11.930876,-8.27475 21.716374,-15.05106 21.74555,-15.05846 0.03714,-0.009 0.04807,0.13355 0.03641,0.4771 -0.0092,0.26981 -0.02359,0.51279 -0.0321,0.53996 -0.01454,0.0464 -43.293994,30.18045 -43.395219,30.21461 -0.02931,0.01 -0.04713,-0.20054 -0.04713,-0.55616 z"
         style="opacity:1;fill:#f8d800;fill-opacity:1;stroke:#f8d800;stroke-width:0.0721284;stroke-linecap:round;stroke-linejoin:round;stroke-miterlimit:4;stroke-dasharray:none;stroke-opacity:1" />
      <path
         inkscape:connector-curvature="0"
         id="path1324"
         d="m 11.202315,279.39211 -10.22807819,-10.4765 -0.0137023,-0.42522 c -0.007786,-0.24094 0.005573,-0.42521 0.0307634,-0.42521 0.0244656,0 4.64657729,4.67399 10.27135709,10.38666 l 10.226865,10.38666 0.01347,0.51506 c 0.0074,0.28433 -0.0058,0.51506 -0.02954,0.51506 -0.02366,0 -4.64568,-4.71443 -10.271124,-10.47651 z"
         style="opacity:1;fill:#f8d800;fill-opacity:1;stroke:#f8d800;stroke-width:0.0721284;stroke-linecap:round;stroke-linejoin:round;stroke-miterlimit:4;stroke-dasharray:none;stroke-opacity:1" />
      <path
         d="m 25.076714,278.38739 a 1.1211834,0.93034369 0 0 1 -1.075551,0.92957 1.1211834,0.93034369 0 0 1 -1.163102,-0.8539 1.1211834,0.93034369 0 0 1 0.980874,-0.99908 1.1211834,0.93034369 0 0 1 1.242945,0.77258 l -1.10635,0.15083 z"
         sodipodi:end="6.1203392"
         sodipodi:start="0"
         sodipodi:ry="0.93034369"
         sodipodi:rx="1.1211834"
         sodipodi:cy="278.38739"
         sodipodi:cx="23.95553"
         sodipodi:type="arc"
         id="path829"
         style="opacity:1;fill:#f8d800;fill-opacity:1;stroke:#f8d800;stroke-width:0.57702726;stroke-linecap:round;stroke-linejoin:round;stroke-miterlimit:4;stroke-dasharray:none;stroke-opacity:1" />
      <path
         d="m 20.233284,281.27524 a 1.1211834,0.93034375 0 0 1 -1.090724,0.93 1.1211834,0.93034375 0 0 1 -1.149988,-0.87947 1.1211834,0.93034375 0 0 1 1.028241,-0.97779 1.1211834,0.93034375 0 0 1 1.205856,0.82635 l -1.114568,0.10091 z"
         sodipodi:end="6.1745044"
         sodipodi:start="0"
         sodipodi:ry="0.93034375"
         sodipodi:rx="1.1211834"
         sodipodi:cy="281.27524"
         sodipodi:cx="19.112101"
         sodipodi:type="arc"
         id="path829-8"
         style="display:inline;opacity:1;fill:#f8d800;fill-opacity:1;stroke:#f8d800;stroke-width:0.57702726;stroke-linecap:round;stroke-linejoin:round;stroke-miterlimit:4;stroke-dasharray:none;stroke-opacity:1" />
      <path
         d="m 21.282902,274.88208 a 1.1211834,0.93034375 0 0 1 -1.099701,0.93017 1.1211834,0.93034375 0 0 1 -1.141843,-0.89452 1.1211834,0.93034375 0 0 1 1.055943,-0.96446 1.1211834,0.93034375 0 0 1 1.182309,0.85757 l -1.117892,0.0712 z"
         sodipodi:end="6.2065363"
         sodipodi:start="0"
         sodipodi:ry="0.93034375"
         sodipodi:rx="1.1211834"
         sodipodi:cy="274.88208"
         sodipodi:cx="20.161718"
         sodipodi:type="arc"
         id="path829-9"
         style="display:inline;opacity:1;fill:#f8d800;fill-opacity:1;stroke:#f8d800;stroke-width:0.57702726;stroke-linecap:round;stroke-linejoin:round;stroke-miterlimit:4;stroke-dasharray:none;stroke-opacity:1" />
      <path
         d="m 16.464195,277.88782 a 1.1211834,0.93034375 0 0 1 -1.10136,0.9302 1.1211834,0.93034375 0 0 1 -1.140306,-0.89731 1.1211834,0.93034375 0 0 1 1.061039,-0.96193 1.1211834,0.93034375 0 0 1 1.177824,0.86329 l -1.11838,0.0657 z"
         sodipodi:end="6.2124598"
         sodipodi:start="0"
         sodipodi:ry="0.93034375"
         sodipodi:rx="1.1211834"
         sodipodi:cy="277.88782"
         sodipodi:cx="15.343012"
         sodipodi:type="arc"
         id="path829-6"
         style="display:inline;opacity:1;fill:#f8d800;fill-opacity:1;stroke:#f8d800;stroke-width:0.57702726;stroke-linecap:round;stroke-linejoin:round;stroke-miterlimit:4;stroke-dasharray:none;stroke-opacity:1" />
      <path
         d="m 17.371578,271.44559 a 1.1211834,0.93034375 0 0 1 -1.10136,0.9302 1.1211834,0.93034375 0 0 1 -1.140306,-0.89731 1.1211834,0.93034375 0 0 1 1.061039,-0.96193 1.1211834,0.93034375 0 0 1 1.177824,0.86329 l -1.11838,0.0657 z"
         sodipodi:end="6.2124598"
         sodipodi:start="0"
         sodipodi:ry="0.93034375"
         sodipodi:rx="1.1211834"
         sodipodi:cy="271.44559"
         sodipodi:cx="16.250395"
         sodipodi:type="arc"
         id="path829-6-4"
         style="display:inline;opacity:1;fill:#f8d800;fill-opacity:1;stroke:#f8d800;stroke-width:0.57702726;stroke-linecap:round;stroke-linejoin:round;stroke-miterlimit:4;stroke-dasharray:none;stroke-opacity:1" />
      <path
         d="m 13.554786,267.39023 a 1.1211834,0.93034375 0 0 1 -1.101361,0.9302 1.1211834,0.93034375 0 0 1 -1.140305,-0.89731 1.1211834,0.93034375 0 0 1 1.061038,-0.96193 1.1211834,0.93034375 0 0 1 1.177825,0.86329 l -1.118381,0.0657 z"
         sodipodi:end="6.2124598"
         sodipodi:start="0"
         sodipodi:ry="0.93034375"
         sodipodi:rx="1.1211834"
         sodipodi:cy="267.39023"
         sodipodi:cx="12.433602"
         sodipodi:type="arc"
         id="path829-6-3"
         style="display:inline;opacity:1;fill:#f8d800;fill-opacity:1;stroke:#f8d800;stroke-width:0.57702726;stroke-linecap:round;stroke-linejoin:round;stroke-miterlimit:4;stroke-dasharray:none;stroke-opacity:1" />
      <path
         d="m 12.696005,274.45132 a 1.1211834,0.93034375 0 0 1 -1.10136,0.9302 1.1211834,0.93034375 0 0 1 -1.140306,-0.8973 1.1211834,0.93034375 0 0 1 1.061038,-0.96193 1.1211834,0.93034375 0 0 1 1.177825,0.86329 l -1.118381,0.0657 z"
         sodipodi:end="6.2124598"
         sodipodi:start="0"
         sodipodi:ry="0.93034375"
         sodipodi:rx="1.1211834"
         sodipodi:cy="274.45132"
         sodipodi:cx="11.574821"
         sodipodi:type="arc"
         id="path829-6-33"
         style="display:inline;opacity:1;fill:#f8d800;fill-opacity:1;stroke:#f8d800;stroke-width:0.57702726;stroke-linecap:round;stroke-linejoin:round;stroke-miterlimit:4;stroke-dasharray:none;stroke-opacity:1" />
      <path
         d="m 9.0700488,270.63449 a 1.1211834,0.93034375 0 0 1 -1.1013604,0.9302 1.1211834,0.93034375 0 0 1 -1.1403054,-0.89731 1.1211834,0.93034375 0 0 1 1.0610381,-0.96192 1.1211834,0.93034375 0 0 1 1.1778247,0.86329 l -1.1183804,0.0657 z"
         sodipodi:end="6.2124598"
         sodipodi:start="0"
         sodipodi:ry="0.93034375"
         sodipodi:rx="1.1211834"
         sodipodi:cy="270.63449"
         sodipodi:cx="7.9488654"
         sodipodi:type="arc"
         id="path829-6-8"
         style="display:inline;opacity:1;fill:#f8d800;fill-opacity:1;stroke:#f8d800;stroke-width:0.57702726;stroke-linecap:round;stroke-linejoin:round;stroke-miterlimit:4;stroke-dasharray:none;stroke-opacity:1" />
      <path
         sodipodi:nodetypes="cccccc"
         inkscape:connector-curvature="0"
         id="path897"
         d="m 6.6606775,282.27574 c 0,0 0.4770991,0.85877 1.1450384,0.81107 0.6679393,-0.0478 1.0973284,-0.85879 1.0973284,-0.85879 v -5.39121 l -2.1946568,-2.24239 z"
         style="fill:#f8d800;fill-opacity:1;fill-rule:evenodd;stroke:none;stroke-width:0.38167945px;stroke-linecap:butt;stroke-linejoin:miter;stroke-opacity:1" />
      <path
         inkscape:transform-center-y="-2.2820313"
         inkscape:transform-center-x="2.1497396"
         sodipodi:nodetypes="cccccc"
         inkscape:connector-curvature="0"
         id="path897-6"
         d="m 10.104999,285.88069 c 0,0 0.477101,0.85877 1.14504,0.81107 0.667938,-0.0478 1.097327,-0.85879 1.097327,-0.85879 v -5.39121 l -2.194657,-2.24239 z"
         style="display:inline;fill:#f8d800;fill-opacity:1;fill-rule:evenodd;stroke:none;stroke-width:0.38167945px;stroke-linecap:butt;stroke-linejoin:miter;stroke-opacity:1" />
      <path
         sodipodi:nodetypes="cccccc"
         inkscape:connector-curvature="0"
         id="path897-0"
         d="m 13.888733,289.52671 c 0,0 0.477099,0.85877 1.145038,0.81107 0.66794,-0.0478 1.097329,-0.85879 1.097329,-0.85879 v -5.39121 l -2.194657,-2.24239 z"
         style="display:inline;fill:#f8d800;fill-opacity:1;fill-rule:evenodd;stroke:none;stroke-width:0.38167945px;stroke-linecap:butt;stroke-linejoin:miter;stroke-opacity:1" />
      <path
         sodipodi:nodetypes="cccccc"
         inkscape:connector-curvature="0"
         id="path897-4"
         d="m 17.625014,293.2278 c 0,0 0.4771,0.85878 1.145039,0.81107 0.667939,-0.0477 1.097328,-0.85879 1.097328,-0.85879 v -5.39121 l -2.194657,-2.24238 z"
         style="display:inline;fill:#f8d800;fill-opacity:1;fill-rule:evenodd;stroke:none;stroke-width:0.38167945px;stroke-linecap:butt;stroke-linejoin:miter;stroke-opacity:1" />
      <path
         sodipodi:nodetypes="cccccc"
         inkscape:connector-curvature="0"
         id="path897-8"
         d="m 23.19217,289.71753 c 0,0 0.477099,0.85877 1.145039,0.81107 0.667939,-0.0478 1.097328,-0.85879 1.097328,-0.85879 V 286.187 l -2.290077,1.43128 z"
         style="display:inline;fill:#f8d800;fill-opacity:1;fill-rule:evenodd;stroke:none;stroke-width:0.38167945px;stroke-linecap:butt;stroke-linejoin:miter;stroke-opacity:1" />
      <path
         sodipodi:nodetypes="ccccc"
         inkscape:connector-curvature="0"
         id="path948"
         d="m 18.92213,260.66314 7.251911,6.7271 8.349238,-5.53436 -7.29962,-6.77481 z"
         style="fill:none;fill-rule:evenodd;stroke:#f8d800;stroke-width:0.09376692;stroke-linecap:butt;stroke-linejoin:miter;stroke-miterlimit:4;stroke-dasharray:none;stroke-opacity:1" />
      <path
         inkscape:connector-curvature="0"
         d="m 18.92213,260.66314 v 1.31202 l 7.180345,6.84637 8.349238,-5.7252 0.07157,-1.24045"
         style="fill:none;fill-rule:evenodd;stroke:#f8d800;stroke-width:0.09376692;stroke-linecap:butt;stroke-linejoin:miter;stroke-miterlimit:4;stroke-dasharray:none;stroke-opacity:1"
         id="path950" />
      <path
         inkscape:connector-curvature="0"
         id="path974"
         d="m 22.542482,265.35663 -3.567344,-3.40142 v -0.5729 c 0,-0.36532 0.0085,-0.57002 0.02347,-0.56495 0.0129,0.004 1.607561,1.47861 3.543657,3.27608 1.9361,1.79747 3.545577,3.28834 3.576619,3.31304 l 0.05644,0.0449 3.610066,-2.3928 c 1.985535,-1.31604 3.843588,-2.54834 4.129004,-2.73844 0.285417,-0.1901 0.525485,-0.33909 0.533489,-0.33109 0.008,0.008 0.0011,0.25416 -0.01542,0.54702 l -0.02996,0.53247 -3.94847,2.7071 c -2.171657,1.48891 -4.037516,2.76905 -4.146352,2.84475 l -0.197882,0.13765 z"
         style="opacity:1;fill:#f8d800;fill-opacity:1;stroke:none;stroke-width:0.00586043;stroke-linecap:round;stroke-linejoin:round;stroke-miterlimit:4;stroke-dasharray:none;stroke-opacity:1" />
      <path
         inkscape:connector-curvature="0"
         id="path976"
         d="m 22.493745,265.43968 -3.6021,-3.4343 -0.01191,-0.67843 -0.01191,-0.67844 4.160452,-2.79805 c 2.288248,-1.53893 4.172352,-2.80103 4.186897,-2.80468 0.0216,-0.005 7.035624,6.47886 7.27954,6.72975 l 0.07345,0.0756 -0.03767,0.62547 c -0.02939,0.48784 -0.04554,0.63308 -0.07345,0.66003 -0.0284,0.0274 -8.075929,5.55161 -8.301528,5.69855 l -0.05964,0.0388 z m 3.614028,3.30964 c 0,-0.004 -0.0295,-0.0338 -0.0656,-0.0656 l -0.0656,-0.0578 0.05783,0.0656 c 0.05405,0.0613 0.07337,0.0765 0.07337,0.0578 z m -0.310115,-0.28514 c 0,-0.004 -0.07246,-0.0761 -0.161023,-0.16103 l -0.161019,-0.15436 0.154366,0.16102 c 0.143386,0.14956 0.167676,0.17192 0.167676,0.15437 z m -0.524809,-0.50096 c 0,-0.004 -0.07246,-0.0761 -0.161023,-0.16102 l -0.161019,-0.15437 0.154366,0.16102 c 0.143386,0.14957 0.167676,0.17193 0.167676,0.15437 z m -0.548664,-0.52493 c 0,-0.004 -0.06173,-0.0655 -0.137168,-0.13717 l -0.137165,-0.13039 0.130386,0.13717 c 0.121134,0.12743 0.143947,0.14809 0.143947,0.13039 z m 1.383588,-0.0487 c 0,-0.004 -0.0295,-0.0338 -0.0656,-0.0656 l -0.0656,-0.0578 0.05783,0.0656 c 0.05405,0.0613 0.07337,0.0765 0.07337,0.0578 z m 3.907909,-2.59623 c 2.081924,-1.37984 3.932157,-2.60675 4.111627,-2.72647 l 0.326305,-0.21767 -3.606363,-3.34659 c -1.983504,-1.84062 -3.615287,-3.34843 -3.626188,-3.35068 -0.02649,-0.005 -8.221517,5.50223 -8.215135,5.52125 0.0027,0.008 1.615202,1.50843 3.583237,3.3339 2.100046,1.94792 3.591249,3.31409 3.609722,3.30705 0.01733,-0.007 1.734875,-1.14094 3.816795,-2.52079 z m -4.194169,2.33435 c 0,-0.004 -0.04026,-0.0442 -0.08946,-0.0894 l -0.08945,-0.0822 0.08221,0.0894 c 0.07652,0.0833 0.09671,0.10043 0.09671,0.0822 z m -1.574428,-0.14253 c 0,-0.004 -0.07246,-0.0761 -0.161023,-0.16102 l -0.161019,-0.15437 0.154367,0.16102 c 0.143385,0.14956 0.167675,0.17193 0.167675,0.15437 z m 1.264313,-0.14357 c 0,-0.004 -0.04562,-0.0495 -0.101385,-0.10138 l -0.101382,-0.0943 0.0943,0.10139 c 0.0877,0.0943 0.108469,0.11234 0.108469,0.0943 z m -0.405534,-0.38652 c -0.05795,-0.059 -0.110721,-0.10734 -0.117282,-0.10734 -0.0066,0 0.0355,0.0483 0.09343,0.10734 0.05794,0.0591 0.110721,0.10735 0.117279,0.10735 0.0066,0 -0.0355,-0.0483 -0.09342,-0.10735 z m -1.359733,0.053 c 0,-0.004 -0.07246,-0.0761 -0.161023,-0.16102 l -0.161019,-0.15437 0.154366,0.16102 c 0.143386,0.14956 0.167676,0.17193 0.167676,0.15437 z m 1.145038,-0.23876 c 0,-0.004 -0.05636,-0.0601 -0.12524,-0.12524 l -0.125237,-0.11837 0.118378,0.12523 c 0.11,0.11638 0.132099,0.13618 0.132099,0.11838 z m -1.669847,-0.2622 c 0,-0.004 -0.07246,-0.0761 -0.161023,-0.16102 l -0.161019,-0.15436 0.154366,0.16101 c 0.143386,0.14957 0.167676,0.17193 0.167676,0.15437 z m 1.335878,-0.0479 c 0,-0.004 -0.05636,-0.0601 -0.125241,-0.12524 l -0.125236,-0.11838 0.118378,0.12524 c 0.11,0.11637 0.132099,0.13618 0.132099,0.11838 z m -0.33397,-0.31012 c 0,-0.004 -0.05636,-0.0601 -0.12524,-0.12524 l -0.125237,-0.11837 0.118378,0.12523 c 0.11,0.11638 0.132099,0.13618 0.132099,0.11838 z m -1.502863,-0.11906 c 0,-0.004 -0.07246,-0.0761 -0.161023,-0.16103 l -0.161019,-0.15436 0.154367,0.16102 c 0.143385,0.14956 0.167675,0.17192 0.167675,0.15437 z m 1.192749,-0.1672 c 0,-0.004 -0.05636,-0.0601 -0.125241,-0.12524 l -0.125236,-0.11837 0.118377,0.12523 c 0.11,0.11638 0.1321,0.13618 0.1321,0.11838 z m -0.33397,-0.31011 c 0,-0.004 -0.05636,-0.0601 -0.12524,-0.12524 l -0.125237,-0.11838 0.118378,0.12524 c 0.11,0.11637 0.132099,0.13618 0.132099,0.11838 z m -1.383588,-0.0237 c 0,-0.004 -0.07246,-0.0761 -0.161023,-0.16103 l -0.161019,-0.15436 0.154366,0.16102 c 0.143386,0.14956 0.167676,0.17192 0.167676,0.15437 z m 1.049619,-0.28647 c 0,-0.004 -0.05636,-0.0601 -0.125241,-0.12524 l -0.125237,-0.11838 0.118378,0.12524 c 0.11,0.11637 0.1321,0.13618 0.1321,0.11838 z m -1.550573,-0.19063 c 0,-0.004 -0.07246,-0.0761 -0.161023,-0.16103 l -0.161019,-0.15436 0.154366,0.16102 c 0.143386,0.14956 0.167676,0.17192 0.167676,0.15437 z m 1.216603,-0.11948 c 0,-0.004 -0.05636,-0.0601 -0.12524,-0.12524 l -0.125237,-0.11838 0.118378,0.12523 c 0.11,0.11638 0.132099,0.13618 0.132099,0.11839 z m -0.333969,-0.31012 c 0,-0.004 -0.05636,-0.0601 -0.125241,-0.12524 l -0.125237,-0.11838 0.118378,0.12524 c 0.11,0.11637 0.1321,0.13618 0.1321,0.11838 z m -1.407443,-0.0714 c 0,-0.004 -0.07246,-0.0761 -0.161023,-0.16102 l -0.16102,-0.15437 0.154367,0.16102 c 0.143385,0.14957 0.167676,0.17193 0.167676,0.15437 z m 1.097328,-0.21482 c 0,-0.004 -0.06173,-0.0654 -0.137168,-0.13717 l -0.137164,-0.13038 0.130385,0.13716 c 0.121134,0.12744 0.143947,0.1481 0.143947,0.13039 z m -1.598283,-0.26228 c 0,-0.004 -0.07246,-0.0761 -0.161023,-0.16102 l -0.161019,-0.15437 0.154367,0.16102 c 0.143385,0.14957 0.167675,0.17193 0.167675,0.15437 z m 1.264313,-0.0479 c 0,-0.004 -0.05636,-0.0601 -0.12524,-0.12524 l -0.125237,-0.11838 0.118378,0.12524 c 0.11,0.11637 0.132099,0.13617 0.132099,0.11838 z m -0.333969,-0.31012 c 0,-0.004 -0.05636,-0.0601 -0.125241,-0.12524 l -0.125236,-0.11838 0.118378,0.12524 c 0.11,0.11637 0.132099,0.13618 0.132099,0.11838 z m -1.455153,-0.14292 c 0,-0.004 -0.07246,-0.0761 -0.161023,-0.16102 l -0.161019,-0.15437 0.154366,0.16102 c 0.143386,0.14956 0.167676,0.17193 0.167676,0.15437 z m 1.145038,-0.14326 c 0,-0.004 -0.06173,-0.0654 -0.137168,-0.13716 l -0.137164,-0.13039 0.130386,0.13716 c 0.121133,0.12744 0.143946,0.1481 0.143946,0.13039 z m 13.137068,-0.21388 c -0.0057,-0.0295 -0.01034,-0.005 -0.01034,0.0537 0,0.059 0.0047,0.0832 0.01034,0.0537 0.0057,-0.0295 0.0057,-0.0778 0,-0.10735 z M 20.9551,262.61957 c 0,-0.004 -0.06173,-0.0655 -0.137168,-0.13717 l -0.137164,-0.13039 0.130385,0.13717 c 0.121134,0.12743 0.143947,0.14809 0.143947,0.13039 z m -1.312023,-0.0237 c 0,-0.004 -0.07246,-0.0761 -0.161023,-0.16102 l -0.161019,-0.15437 0.154366,0.16102 c 0.143386,0.14956 0.167676,0.17193 0.167676,0.15437 z m 14.807545,-0.40485 c -0.005,-0.0558 -0.0091,-0.0102 -0.0091,0.10139 0,0.11152 0.0041,0.15714 0.0091,0.10138 0.005,-0.0558 0.005,-0.14701 0,-0.20277 z m -13.805637,0.14239 c 0,-0.004 -0.06709,-0.0708 -0.149095,-0.1491 l -0.149092,-0.14238 0.142382,0.14909 c 0.132263,0.1385 0.155805,0.16001 0.155805,0.14239 z m -1.526718,-0.23931 c 0,-0.004 -0.03488,-0.039 -0.07753,-0.0775 l -0.07753,-0.0701 0.07006,0.0775 c 0.06531,0.0723 0.08499,0.0885 0.08499,0.0701 z m 15.330794,-0.0508 c 0.02939,0.0402 0.03179,0.0386 0.03179,-0.0207 0,-0.0353 -0.0068,-0.0642 -0.01508,-0.0642 -0.02282,0 -0.175763,0.0975 -0.175763,0.11204 0,0.007 0.02863,-0.006 0.06361,-0.029 0.06078,-0.0398 0.06503,-0.0397 0.09542,0.002 z m -14.138045,-0.02 c 0,-0.004 -0.06709,-0.0708 -0.149096,-0.1491 l -0.149091,-0.14238 0.142381,0.14909 c 0.132264,0.1385 0.155806,0.16001 0.155806,0.14239 z m -0.310115,-0.2863 c 0,-0.004 -0.06709,-0.0708 -0.149095,-0.1491 l -0.149092,-0.14238 0.142382,0.14909 c 0.132263,0.1385 0.155805,0.16001 0.155805,0.14239 z m -0.596374,-0.5674 c -0.164004,-0.15718 -0.32771,-0.30774 -0.36379,-0.33457 l -0.0656,-0.0488 0.0034,0.0911 c 0.0019,0.0553 0.0073,0.07 0.01359,0.0374 0.0057,-0.0295 0.02004,-0.0537 0.03183,-0.0537 0.01183,0 0.164053,0.13357 0.338274,0.29681 0.174218,0.16325 0.322126,0.29697 0.328688,0.29716 0.0066,1.9e-4 -0.122256,-0.12826 -0.28626,-0.28544 z"
         style="opacity:1;fill:#f8d800;fill-opacity:1;stroke:none;stroke-width:0.00586043;stroke-linecap:round;stroke-linejoin:round;stroke-miterlimit:4;stroke-dasharray:none;stroke-opacity:1" />
      <path
         inkscape:connector-curvature="0"
         id="path978"
         d="m 22.491921,265.44176 -3.600276,-3.43241 -0.01191,-0.6819 -0.01191,-0.68191 2.850669,-1.91685 c 1.567867,-1.05428 3.444825,-2.31615 4.17102,-2.80418 0.726195,-0.48802 1.33271,-0.88236 1.347806,-0.8763 0.02645,0.0106 1.213385,1.10821 5.390714,4.98495 l 1.952001,1.81154 -0.01313,0.11054 c -0.0072,0.0608 -0.02595,0.34382 -0.04162,0.62896 -0.02614,0.47548 -0.03263,0.52211 -0.0782,0.56283 -0.02733,0.0244 -1.396897,0.96797 -3.043485,2.09678 -1.646588,1.1288 -3.487596,2.39098 -4.091127,2.80484 -0.603531,0.41386 -1.124989,0.76891 -1.15879,0.789 l -0.06147,0.0365 z m 5.339596,0.79472 c 5.105024,-3.38038 6.589712,-4.36951 6.589712,-4.39019 0,-0.0127 -1.358268,-1.28354 -3.018375,-2.82405 -3.755718,-3.48516 -4.149096,-3.84867 -4.175417,-3.85831 -0.02034,-0.007 -1.671435,1.09256 -4.841039,3.22524 -2.808734,1.88986 -3.351634,2.25823 -3.358711,2.27897 -0.0065,0.0192 1.251508,1.19402 4.575314,4.2728 0.715054,0.66234 1.541626,1.42514 1.836833,1.69513 0.295206,0.26998 0.579675,0.5303 0.632156,0.57847 0.05721,0.0525 0.112416,0.0836 0.137867,0.0776 0.02336,-0.006 0.753095,-0.48054 1.62166,-1.05568 z m -2.701798,0.24538 c 0,-0.005 -0.01878,-0.0237 -0.04175,-0.0417 -0.03782,-0.0297 -0.03868,-0.0288 -0.009,0.009 0.03114,0.0397 0.05075,0.0524 0.05075,0.0328 z m 9.342914,-4.51577 c -0.0068,-0.007 -0.02443,-0.005 -0.03905,0.004 -0.01908,0.0118 -0.01786,0.027 0.0044,0.0538 0.0279,0.0337 0.03179,0.0333 0.03905,-0.004 0.0044,-0.0227 0.0023,-0.047 -0.0044,-0.0538 z m -14.877266,-0.61151 c 0,-0.004 -0.03489,-0.039 -0.07753,-0.0775 l -0.07753,-0.0701 0.07006,0.0775 c 0.06531,0.0723 0.08499,0.0885 0.08499,0.0701 z m -0.323542,-0.30488 c -0.03854,-0.0406 -0.121058,-0.11673 -0.183378,-0.1692 l -0.113309,-0.0954 3.62e-4,0.0678 c 2.64e-4,0.0484 0.0064,0.0583 0.02137,0.0346 0.025,-0.0395 0.105592,0.0111 0.239367,0.15039 0.04522,0.0471 0.08748,0.0856 0.09392,0.0856 0.0065,0 -0.01981,-0.0332 -0.05835,-0.0738 z"
         style="opacity:1;fill:#f8d800;fill-opacity:1;stroke:none;stroke-width:0.00586043;stroke-linecap:round;stroke-linejoin:round;stroke-miterlimit:4;stroke-dasharray:none;stroke-opacity:1" />
      <path
         inkscape:connector-curvature="0"
         id="path980"
         d="m 22.485302,265.43881 -3.605584,-3.43754 v -0.56676 c 0,-0.31172 -0.0066,-0.61509 -0.01473,-0.67416 l -0.01473,-0.10742 0.939103,-0.63094 c 0.516508,-0.34702 2.396779,-1.6108 4.178379,-2.8084 1.781603,-1.19761 3.252665,-2.17233 3.269027,-2.16605 0.02637,0.0101 4.306207,3.96842 6.512674,6.02341 l 0.831088,0.77403 -0.01382,0.15811 c -0.0076,0.087 -0.02599,0.36743 -0.04088,0.62327 -0.01489,0.25585 -0.03805,0.47893 -0.05149,0.49574 -0.02748,0.0344 -0.147091,0.1172 -2.677176,1.85368 -4.418211,3.03237 -5.686463,3.90058 -5.697845,3.90058 -0.0047,0 -1.630966,-1.54689 -3.614035,-3.43755 z m 4.369501,1.43816 c 0.793317,-0.51988 5.249009,-3.47305 6.575212,-4.35796 0.530904,-0.35424 0.968557,-0.65519 0.972561,-0.66876 0.0085,-0.0288 -0.213397,-0.23761 -3.11865,-2.93449 -3.223523,-2.99232 -4.00871,-3.71832 -4.042195,-3.73749 -0.0366,-0.0209 -0.890661,0.54627 -5.964589,3.9613 -2.160619,1.45421 -2.234573,1.50539 -2.225772,1.54051 0.009,0.0358 0.448771,0.45041 2.368902,2.23337 3.300844,3.06506 4.740115,4.38849 4.772623,4.38849 0.0074,0 0.30524,-0.19124 0.661908,-0.42497 z m 7.614876,-4.89349 c -0.0088,-0.0142 -0.0271,-0.0189 -0.04072,-0.0105 -0.01603,0.01 -0.01359,0.0222 0.0069,0.0349 0.03828,0.0237 0.05571,0.0111 0.03378,-0.0244 z m -15.184427,-0.91516 c 0,-0.004 -0.03488,-0.039 -0.07753,-0.0775 l -0.07753,-0.0701 0.07006,0.0775 c 0.06531,0.0723 0.08499,0.0885 0.08499,0.0701 z m -0.214695,-0.19671 c 0,-0.002 -0.02149,-0.0226 -0.04771,-0.0463 -0.04615,-0.0418 -0.04771,-0.0417 -0.04771,0.003 0,0.0304 0.01637,0.0463 0.04771,0.0463 0.02622,0 0.04771,-0.002 0.04771,-0.003 z"
         style="opacity:1;fill:#f8d800;fill-opacity:1;stroke:none;stroke-width:0.00586043;stroke-linecap:round;stroke-linejoin:round;stroke-miterlimit:4;stroke-dasharray:none;stroke-opacity:1" />
      <path
         inkscape:connector-curvature="0"
         id="path982"
         d="m 25.770441,268.57211 c -0.175275,-0.16734 -1.795909,-1.71219 -3.60141,-3.433 l -3.282726,-3.12875 -0.01244,-0.67602 c -0.009,-0.48684 -0.0049,-0.68354 0.01462,-0.7029 0.02412,-0.024 3.279756,-2.21482 6.972742,-4.69219 0.736882,-0.49432 1.349661,-0.89877 1.361729,-0.89877 0.01206,0 0.10692,0.0784 0.210783,0.17421 0.929046,0.85703 4.090791,3.78769 5.421997,5.02574 0.910203,0.84649 1.670336,1.55148 1.689191,1.56663 0.02977,0.0239 0.02912,0.11005 -0.0052,0.65601 -0.03664,0.58388 -0.0431,0.63211 -0.09091,0.67979 -0.05527,0.0551 -0.305946,0.22795 -4.762818,3.28369 -3.76329,2.58021 -3.572443,2.44981 -3.585581,2.44981 -0.0062,0 -0.154721,-0.13691 -0.329996,-0.30425 z m 1.375023,-1.89046 c 1.278695,-0.84128 5.205123,-3.44473 6.305658,-4.18102 l 0.962149,-0.6437 -0.103371,-0.10711 c -0.146794,-0.15209 -1.806336,-1.70077 -4.302172,-4.01478 -2.719951,-2.52179 -2.752257,-2.55143 -2.780822,-2.55143 -0.04031,0 -0.495313,0.29761 -2.168752,1.41856 -3.921493,2.62681 -6.011452,4.04095 -6.011452,4.06757 0,0.0101 0.111577,0.12579 0.247947,0.25714 0.514149,0.49521 5.868165,5.45591 6.606105,6.1208 0.256164,0.23081 0.286774,0.25157 0.333969,0.22654 0.02859,-0.0152 0.438412,-0.28181 0.910741,-0.59257 z m -8.098762,-5.83354 c 0,-0.003 -0.01611,-0.0184 -0.03576,-0.0347 -0.02901,-0.0241 -0.03576,-0.0231 -0.03576,0.005 0,0.0191 0.01611,0.0347 0.03576,0.0347 0.01969,0 0.03576,-0.002 0.03576,-0.005 z"
         style="opacity:1;fill:#f8d800;fill-opacity:1;stroke:none;stroke-width:0.00586043;stroke-linecap:round;stroke-linejoin:round;stroke-miterlimit:4;stroke-dasharray:none;stroke-opacity:1" />
      <path
         inkscape:connector-curvature="0"
         id="path984"
         d="m 25.827559,268.63006 c -0.141088,-0.13546 -1.646672,-1.57014 -3.345741,-3.18816 -1.699069,-1.61802 -3.202886,-3.05286 -3.341814,-3.18853 l -0.252595,-0.24668 -0.01565,-0.67897 -0.01565,-0.67897 0.471019,-0.31964 c 2.156756,-1.46364 7.869864,-5.28863 7.899238,-5.28863 0.01198,0 0.175829,0.1422 0.364069,0.31599 0.698386,0.64478 6.696116,6.20143 6.947131,6.43623 0.04361,0.0408 0.0437,0.058 0.0038,0.67035 -0.02259,0.34567 -0.04622,0.63677 -0.05246,0.6469 -0.02664,0.0433 -0.579038,0.4246 -5.697284,3.93301 -2.542359,1.74271 -2.675641,1.8334 -2.69445,1.8334 -0.0071,0 -0.128359,-0.11083 -0.269447,-0.2463 z m 0.835489,-1.63459 c 0.536786,-0.34898 3.738955,-2.46931 6.036535,-3.9971 1.702585,-1.13215 1.713191,-1.1397 1.669848,-1.18848 -0.126863,-0.14277 -6.805895,-6.35179 -7.063051,-6.56602 l -0.07763,-0.0647 -0.11321,0.0657 c -0.2055,0.1192 -3.753108,2.49195 -6.58983,4.40749 -1.174691,0.79322 -1.418057,0.96128 -1.452939,1.00331 -0.03195,0.0385 0.228302,0.28607 3.087734,2.93734 3.275745,3.03728 3.984993,3.68508 4.034588,3.68508 0.01828,0 0.228867,-0.12717 0.467955,-0.28261 z"
         style="opacity:1;fill:#f8d800;fill-opacity:1;stroke:none;stroke-width:0.00586043;stroke-linecap:round;stroke-linejoin:round;stroke-miterlimit:4;stroke-dasharray:none;stroke-opacity:1" />
      <path
         inkscape:connector-curvature="0"
         id="path986"
         d="m 25.351078,268.1786 c -4.121787,-3.92619 -5.955192,-5.67452 -6.1882,-5.90106 l -0.277435,-0.26972 -0.0088,-0.68592 -0.0088,-0.68592 0.667939,-0.45036 c 1.417653,-0.95586 5.981719,-4.02041 6.808838,-4.5718 0.81587,-0.54389 0.872191,-0.57728 0.921977,-0.54649 0.02916,0.018 0.979798,0.89157 2.112523,1.94119 1.132726,1.04962 2.735967,2.53506 3.562757,3.30098 0.826794,0.76592 1.534363,1.42253 1.572378,1.45913 l 0.06912,0.0666 -0.04118,0.6401 c -0.02263,0.35206 -0.04839,0.6468 -0.0572,0.65498 -0.03756,0.0349 -1.422882,0.98763 -5.359528,3.68598 -2.929535,2.00804 -3.00605,2.06012 -3.026344,2.06012 -0.0085,0 -0.345118,-0.31399 -0.748004,-0.69776 z m 1.131603,-1.07074 c 0.632164,-0.4022 7.402677,-4.89355 7.717887,-5.11981 0.101683,-0.073 0.184878,-0.14052 0.184878,-0.15007 0,-0.01 -0.244217,-0.2468 -0.542702,-0.52722 -1.166287,-1.09574 -6.035406,-5.61538 -6.430712,-5.96915 l -0.183309,-0.16405 -0.220542,0.13834 c -0.514401,0.32268 -7.169749,4.791 -7.788532,5.22912 -0.082,0.0581 -0.149092,0.11369 -0.149092,0.12361 0,0.048 1.129459,1.10856 4.640043,4.35702 2.206043,2.04132 2.453997,2.26319 2.506657,2.24298 0.01763,-0.007 0.137058,-0.0791 0.265424,-0.16077 z"
         style="opacity:1;fill:#f8d800;fill-opacity:1;stroke:none;stroke-width:0.00586043;stroke-linecap:round;stroke-linejoin:round;stroke-miterlimit:4;stroke-dasharray:none;stroke-opacity:1" />
      <path
         inkscape:connector-curvature="0"
         id="path988"
         d="m 25.625276,268.44232 c -0.252878,-0.24129 -1.721019,-1.64054 -3.262542,-3.10944 -1.541524,-1.46891 -2.954203,-2.81566 -3.139295,-2.99278 l -0.336523,-0.32204 -0.01786,-0.67688 c -0.01687,-0.6403 -0.01546,-0.67913 0.02622,-0.71841 0.02424,-0.0228 0.682786,-0.47067 1.463439,-0.99518 0.780653,-0.52451 2.090291,-1.40441 2.910306,-1.95532 0.820016,-0.55092 2.042924,-1.36982 2.717573,-1.81978 1.154737,-0.77016 1.229752,-0.81619 1.279768,-0.78524 0.0292,0.0181 0.459362,0.40858 0.955878,0.86779 0.819462,0.7579 4.303482,3.98653 5.763623,5.34115 l 0.590412,0.54774 -7.63e-4,0.12092 c -3.7e-4,0.0665 -0.01622,0.33562 -0.03527,0.59802 -0.01901,0.2624 -0.03481,0.49992 -0.03512,0.52782 -7.63e-4,0.0596 0.0091,0.0528 -3.793462,2.66076 -3.806512,2.61068 -4.555791,3.12236 -4.593383,3.13679 -0.02069,0.008 -0.207717,-0.15359 -0.493122,-0.42592 z m 0.738352,-1.26295 c 0.232099,-0.14206 1.459481,-0.95153 4.527066,-2.98564 2.886592,-1.91409 3.387813,-2.25139 3.452668,-2.32349 0.04012,-0.0446 0.02046,-0.0657 -0.632156,-0.6784 -1.154684,-1.08408 -5.768895,-5.36685 -6.368586,-5.91113 l -0.112958,-0.10252 -0.125591,0.0794 c -0.661046,0.41787 -7.621017,5.09308 -7.975578,5.35742 l -0.06986,0.0521 0.09542,0.0995 c 0.149946,0.15638 1.110908,1.06004 2.397424,2.25445 3.324317,3.08632 4.601177,4.25703 4.643009,4.25703 0.0043,0 0.08044,-0.0444 0.169145,-0.0987 z"
         style="opacity:1;fill:#f8d800;fill-opacity:1;stroke:none;stroke-width:0.00586043;stroke-linecap:round;stroke-linejoin:round;stroke-miterlimit:4;stroke-dasharray:none;stroke-opacity:1" />
      <path
         inkscape:connector-curvature="0"
         id="path990"
         d="m 25.893078,267.01195 c -0.690806,-0.60928 -5.577738,-5.13771 -6.405059,-5.9352 -0.431126,-0.41558 -0.419809,-0.39956 -0.332026,-0.46991 0.288648,-0.23134 8.004131,-5.39937 8.06086,-5.39937 0.04182,0 0.897905,0.78557 4.067447,3.73239 2.674383,2.48646 3.053482,2.84603 3.053261,2.89592 -9.6e-5,0.0217 -0.08781,0.10151 -0.196806,0.17906 -0.21766,0.15487 -2.657191,1.77906 -5.158459,3.43439 -2.473248,1.63678 -2.732978,1.80511 -2.784806,1.80484 -0.01656,-1e-4 -0.15353,-0.10905 -0.304412,-0.24212 z"
         style="opacity:1;fill:#f8d800;fill-opacity:1;stroke:#f8d800;stroke-width:0.00586043;stroke-linecap:round;stroke-linejoin:round;stroke-miterlimit:4;stroke-dasharray:none;stroke-opacity:1" />
      <path
         inkscape:connector-curvature="0"
         id="path996"
         d="m 36.714101,275.17985 c -0.199758,-0.19313 -4.515094,-4.37789 -4.832107,-4.68588 l -0.260848,-0.25345 -0.01082,-0.25923 c -0.0059,-0.14267 -0.01168,-0.37136 -0.01298,-0.5084 -0.002,-0.21709 0.0017,-0.25264 0.02816,-0.27602 0.04664,-0.0411 4.055852,-2.78479 5.465342,-3.74008 0.558864,-0.37874 0.590251,-0.39742 0.628168,-0.37369 0.02196,0.013 0.222229,0.19603 0.445064,0.40504 0.446674,0.41904 4.035405,3.80294 4.553208,4.29333 l 0.32572,0.30848 v 0.0853 c 0,0.0469 -0.01212,0.26242 -0.02676,0.47898 -0.02656,0.39101 -0.02708,0.39401 -0.07265,0.42911 -0.09447,0.0727 -0.677228,0.48207 -2.310802,1.62286 -2.954635,2.06333 -3.743407,2.61104 -3.760216,2.61104 -0.0089,0 -0.08035,-0.0619 -0.158467,-0.13733 z m 0.231449,-1.05377 c 0,-0.004 -0.01356,-0.0169 -0.03039,-0.0309 -0.02754,-0.0221 -0.02816,-0.0213 -0.0065,0.006 0.02269,0.0296 0.03696,0.0389 0.03696,0.0242 z m -0.06949,-0.0522 c 0,-0.004 -0.02149,-0.0251 -0.04778,-0.0486 l -0.04776,-0.0428 0.04212,0.0486 c 0.03937,0.0454 0.05343,0.0568 0.05343,0.0428 z m -0.121594,-0.10574 c 0,-0.004 -0.0254,-0.0287 -0.05645,-0.0574 l -0.05645,-0.0519 0.05102,0.0574 c 0.04756,0.0537 0.0619,0.0656 0.0619,0.0519 z m -0.156337,-0.14137 c 0,-0.004 -0.02931,-0.0329 -0.06513,-0.0664 l -0.06513,-0.0609 0.05987,0.0664 c 0.05571,0.0617 0.07043,0.0744 0.07043,0.0609 z m -0.208459,-0.19446 c 0,-0.004 -0.02931,-0.0329 -0.06513,-0.0664 l -0.06513,-0.0609 0.05987,0.0664 c 0.05571,0.0617 0.07043,0.0744 0.07043,0.0609 z m -0.191089,-0.17666 c 0,-0.004 -0.03324,-0.0366 -0.07383,-0.0752 l -0.07383,-0.07 0.06868,0.0752 c 0.06386,0.07 0.07898,0.0832 0.07898,0.07 z m -0.225831,-0.21226 c 0,-0.004 -0.02931,-0.0327 -0.06513,-0.0662 l -0.06513,-0.0609 0.05987,0.0664 c 0.05571,0.0617 0.07043,0.0744 0.07043,0.0609 z m -0.225841,-0.21214 c 0,-0.004 -0.02931,-0.0329 -0.06513,-0.0664 l -0.06513,-0.0609 0.05987,0.0664 c 0.05571,0.0617 0.07043,0.0744 0.07043,0.0609 z m -0.208459,-0.19434 c 0,-0.004 -0.03324,-0.0366 -0.07383,-0.0752 l -0.07383,-0.07 0.06868,0.0752 c 0.06386,0.07 0.07898,0.0834 0.07898,0.07 z m -0.243204,-0.22993 c 0,-0.004 -0.02931,-0.0329 -0.06513,-0.0664 l -0.06513,-0.0609 0.05987,0.0664 c 0.05571,0.0617 0.07043,0.0744 0.07043,0.0609 z m -0.208458,-0.19435 c 0,-0.004 -0.03324,-0.0366 -0.07383,-0.0752 l -0.07383,-0.07 0.06868,0.0752 c 0.06385,0.07 0.07898,0.0834 0.07898,0.07 z m -0.260574,-0.24776 c 0,-0.004 -0.0254,-0.029 -0.05645,-0.0574 l -0.05645,-0.0519 0.05102,0.0574 c 0.04756,0.0535 0.0619,0.0656 0.0619,0.0519 z m -0.243204,-0.23004 c 0,-0.004 -0.02148,-0.0251 -0.04778,-0.0486 l -0.04776,-0.0428 0.04212,0.0486 c 0.03937,0.0454 0.05343,0.0568 0.05343,0.0429 z m -0.225829,-0.21193 c 0,-0.004 -0.0254,-0.0288 -0.05645,-0.0574 l -0.05645,-0.0519 0.05102,0.0574 c 0.04756,0.0535 0.0619,0.0656 0.0619,0.0519 z m -0.225832,-0.21184 c 0,-0.004 -0.03324,-0.0366 -0.07383,-0.0752 l -0.07383,-0.07 0.06868,0.0752 c 0.06386,0.07 0.07898,0.0832 0.07898,0.07 z m -0.243205,-0.22983 c 0,-0.004 -0.03322,-0.0366 -0.07383,-0.0752 l -0.07383,-0.07 0.06867,0.0752 c 0.06386,0.07 0.07898,0.0832 0.07898,0.07 z m -0.2432,-0.2298 c 0,-0.004 -0.03324,-0.0366 -0.07383,-0.0752 l -0.07383,-0.07 0.06868,0.0752 c 0.06386,0.07 0.07898,0.0832 0.07898,0.07 z m -0.243205,-0.22982 c 0,-0.004 -0.03321,-0.0366 -0.07382,-0.0752 l -0.07383,-0.07 0.06868,0.0752 c 0.06386,0.07 0.07898,0.0832 0.07898,0.07 z m -0.243203,-0.22983 c 0,-0.004 -0.03324,-0.0366 -0.07383,-0.0752 l -0.07383,-0.07 0.06867,0.0752 c 0.06386,0.07 0.07898,0.0832 0.07898,0.07 z M 32.828475,270.27 c -0.04219,-0.0437 -0.08063,-0.0796 -0.08541,-0.0796 -0.0048,0 0.02585,0.0359 0.06803,0.0796 0.04219,0.0437 0.08062,0.0795 0.08541,0.0795 0.0048,0 -0.02585,-0.0359 -0.06803,-0.0795 z m 10.052951,-0.16076 c 0.0029,-0.009 -0.08653,-0.10761 -0.198824,-0.21947 l -0.204187,-0.20307 0.198067,0.20627 0.198065,0.20626 -0.05909,0.0577 -0.05909,0.0577 0.05985,-0.0447 c 0.03292,-0.0245 0.06228,-0.0519 0.0652,-0.0609 z m -10.313525,-0.0867 c -0.04219,-0.0437 -0.08062,-0.0795 -0.08541,-0.0795 -0.0048,0 0.02585,0.0356 0.06803,0.0795 0.04219,0.0437 0.08062,0.0795 0.08541,0.0795 0.0048,0 -0.02585,-0.0358 -0.06803,-0.0795 z m -0.191094,-0.17289 c 0,-0.004 -0.05277,-0.0564 -0.117266,-0.1193 l -0.117252,-0.1144 0.112419,0.11931 c 0.104428,0.11078 0.122099,0.12752 0.122099,0.11439 z M 42.382863,269.602 c 0,-0.004 -0.04104,-0.0444 -0.0912,-0.0928 l -0.0912,-0.0877 0.08621,0.0928 c 0.0801,0.0864 0.09619,0.10098 0.09619,0.0879 z m -10.462468,-0.20303 c -0.07383,-0.0754 -0.134216,-0.14711 -0.134216,-0.15907 0,-0.0115 -0.0076,-0.0216 -0.01746,-0.0216 -0.0095,0 -0.01745,0.006 -0.01745,0.013 0,0.015 0.280742,0.30531 0.294525,0.30531 0.0048,0 -0.05175,-0.0619 -0.125547,-0.13733 z m 10.167151,-0.0801 c 0,-0.004 -0.02931,-0.0328 -0.06513,-0.0662 l -0.06513,-0.0609 0.05987,0.0664 c 0.05571,0.0617 0.07043,0.0744 0.07043,0.0609 z m -0.277945,-0.26533 c 0,-0.004 -0.0254,-0.0289 -0.05645,-0.0574 l -0.05645,-0.0519 0.05102,0.0574 c 0.04756,0.0535 0.0619,0.0656 0.0619,0.0519 z m -0.260576,-0.24749 c 0,-0.004 -0.0254,-0.0288 -0.05645,-0.0574 l -0.05645,-0.0519 0.05102,0.0574 c 0.04756,0.0535 0.0619,0.0656 0.0619,0.0519 z m -0.243202,-0.22983 c 0,-0.004 -0.0254,-0.0288 -0.05645,-0.0574 l -0.05645,-0.0519 0.05102,0.0576 c 0.04756,0.0535 0.0619,0.0656 0.0619,0.0519 z m -0.243203,-0.22981 c 0,-0.004 -0.0254,-0.0287 -0.05645,-0.0574 l -0.05645,-0.0519 0.05102,0.0574 c 0.04756,0.0535 0.0619,0.0656 0.0619,0.0519 z m -0.260574,-0.24772 c 0,-0.004 -0.02149,-0.0251 -0.04778,-0.0486 l -0.04776,-0.0428 0.04212,0.0486 c 0.03937,0.0454 0.05343,0.0568 0.05343,0.0428 z m -0.243202,-0.2298 c 0,-0.004 -0.02148,-0.0251 -0.04778,-0.0486 l -0.04776,-0.0428 0.04212,0.0486 c 0.03937,0.0454 0.05343,0.0568 0.05343,0.0428 z m -0.243203,-0.22959 c 0,-0.004 -0.0254,-0.029 -0.05645,-0.0574 l -0.05645,-0.0519 0.05102,0.0574 c 0.04756,0.0535 0.0619,0.0656 0.0619,0.0519 z m -0.243202,-0.22981 c 0,-0.004 -0.0254,-0.029 -0.05645,-0.0574 l -0.05645,-0.0519 0.05102,0.0574 c 0.04756,0.0535 0.0619,0.0656 0.0619,0.0519 z m -0.243203,-0.22983 c 0,-0.004 -0.0254,-0.0289 -0.05645,-0.0574 l -0.05645,-0.0519 0.05102,0.0574 c 0.04756,0.0537 0.0619,0.0656 0.0619,0.0519 z m -0.243202,-0.23004 c 0,-0.004 -0.02149,-0.0251 -0.04778,-0.0486 l -0.04776,-0.0428 0.04212,0.0486 c 0.03937,0.0454 0.05343,0.0568 0.05343,0.0428 z M 39.34283,266.7195 c 0,-0.004 -0.01763,-0.0213 -0.03909,-0.0398 l -0.03909,-0.0336 0.03308,0.0398 c 0.0311,0.0374 0.04508,0.0479 0.04508,0.0336 z m -2.86632,-0.7279 c 0,-0.006 -0.187613,0.11872 -0.416918,0.27437 -0.229306,0.15571 -0.416919,0.28721 -0.416919,0.29204 0,0.006 0.187613,-0.11858 0.416919,-0.27435 0.229305,-0.15571 0.416918,-0.2872 0.416918,-0.29206 z m 2.623117,0.49842 c 0,-0.004 -0.02149,-0.0251 -0.04778,-0.0486 l -0.04776,-0.0428 0.04212,0.0486 c 0.03937,0.0454 0.05343,0.0568 0.05343,0.0428 z m -0.225831,-0.2119 c 0,-0.004 -0.0254,-0.0287 -0.05645,-0.0576 l -0.05645,-0.0519 0.05102,0.0574 c 0.04756,0.0535 0.0619,0.0656 0.0619,0.0519 z m -0.225831,-0.21214 c 0,-0.004 -0.0254,-0.0289 -0.05645,-0.0574 l -0.05645,-0.0519 0.05102,0.0574 c 0.04756,0.0537 0.0619,0.0656 0.0619,0.0519 z m -0.225827,-0.21209 c 0,-0.004 -0.0254,-0.0288 -0.05645,-0.0574 l -0.05645,-0.0519 0.05102,0.0574 c 0.04756,0.0535 0.0619,0.0656 0.0619,0.0519 z m -1.285501,-0.30047 c 0.209259,-0.14109 0.31911,-0.2222 0.243202,-0.17946 -0.05114,0.0288 -0.495415,0.3313 -0.512461,0.34897 -0.02794,0.029 0.01672,8.4e-4 0.269259,-0.16954 z m 1.07704,0.10617 c 0,-0.004 -0.02931,-0.0327 -0.06513,-0.0662 l -0.06513,-0.0609 0.05987,0.0664 c 0.05571,0.0617 0.07043,0.0744 0.07043,0.0609 z m -0.260574,-0.25095 c -0.04219,-0.0437 -0.08062,-0.0796 -0.08541,-0.0796 -0.0048,0 0.02585,0.0359 0.06803,0.0796 0.04219,0.0437 0.08062,0.0795 0.08541,0.0795 0.0048,0 -0.02585,-0.0359 -0.06803,-0.0795 z m -0.177974,-0.16299 c -0.0682,-0.0694 -0.08566,-0.0792 -0.104009,-0.0593 -0.01226,0.013 -0.01342,0.0193 -0.0022,0.013 0.01082,-0.006 0.05384,0.0202 0.09554,0.0586 0.104139,0.0956 0.110169,0.089 0.01082,-0.013 z m -0.160783,-0.013 0.03474,-0.0289 -0.03474,0.0169 c -0.0191,0.009 -0.05039,0.0303 -0.06949,0.0462 l -0.03474,0.0289 0.03474,-0.0169 c 0.0191,-0.009 0.05036,-0.0303 0.06949,-0.0462 z"
         style="opacity:1;fill:#f8d800;fill-opacity:1;stroke:none;stroke-width:0.00430516;stroke-linecap:round;stroke-linejoin:round;stroke-miterlimit:4;stroke-dasharray:none;stroke-opacity:1" />
    </g>
  </g>
</svg>
