<?xml version="1.0" encoding="UTF-8" standalone="no"?>
<!-- Svg Vector Icons : http://www.onlinewebfonts.com/icon -->

<svg
   xmlns:dc="http://purl.org/dc/elements/1.1/"
   xmlns:cc="http://creativecommons.org/ns#"
   xmlns:rdf="http://www.w3.org/1999/02/22-rdf-syntax-ns#"
   xmlns:svg="http://www.w3.org/2000/svg"
   xmlns="http://www.w3.org/2000/svg"
   xmlns:sodipodi="http://sodipodi.sourceforge.net/DTD/sodipodi-0.dtd"
   xmlns:inkscape="http://www.inkscape.org/namespaces/inkscape"
   version="1.1"
   x="0px"
   y="0px"
   viewBox="0 0 309 309"
   enable-background="new 0 0 1000 1000"
   xml:space="preserve"
   id="svg12"
   sodipodi:docname="node_contact.svg"
   width="309"
   height="309"
   inkscape:version="0.92.3 (2405546, 2018-03-11)"><defs
   id="defs16"><clipPath
     clipPathUnits="userSpaceOnUse"
     id="clipPath826"><g
       inkscape:label="Clip"
       id="use828"
       style="fill:#f8d800;fill-opacity:1"><path
         d="m 2125.8,4954.6 -61.3,-63.3 4.1,-4161.7 c 6.1,-3912.5 8.2,-4165.8 40.8,-4227 20.4,-34.7 44.9,-69.4 55.1,-75.6 40.8,-26.5 4220.9,-1217 4269.9,-1217 69.4,0 185.8,77.6 218.5,142.9 18.4,36.7 26.5,185.8 26.5,514.6 v 463.5 l 602.4,6.1 c 459.5,4.1 606.5,12.2 626.9,32.7 22.5,22.5 26.5,794.4 26.5,4139.2 0,3665.4 -4.1,4116.7 -30.6,4145.3 -26.5,24.5 -312.4,47 -1654,122.5 -892.4,51 -2105.4,118.4 -2695.5,153.1 -590.1,32.7 -1137.4,67.4 -1219.1,73.5 -144.8,12.4 -148.9,12.4 -210.2,-48.8 z m 2477,-1168.1 1668.3,-498.3 V -467 -4222.3 l -44.9,8.2 c -26.5,4.1 -876,255.3 -1888.9,557.5 l -1844,549.3 V 654.1 4415.5 l 220.5,-65.3 c 120.6,-36.8 970.1,-290 1889,-563.7 z"
         id="path6650"
         inkscape:connector-curvature="0"
         style="fill:#f8d800;fill-opacity:1" /></g></clipPath></defs><sodipodi:namedview
   pagecolor="#ffffff"
   bordercolor="#666666"
   borderopacity="1"
   objecttolerance="10"
   gridtolerance="10"
   guidetolerance="10"
   inkscape:pageopacity="0"
   inkscape:pageshadow="2"
   inkscape:window-width="1853"
   inkscape:window-height="1025"
   id="namedview14"
   showgrid="false"
   inkscape:zoom="1"
   inkscape:cx="308.44157"
   inkscape:cy="217.22504"
   inkscape:window-x="67"
   inkscape:window-y="27"
   inkscape:window-maximized="1"
   inkscape:current-layer="svg12" />
<metadata
   id="metadata2"> Svg Vector Icons : http://www.onlinewebfonts.com/icon <rdf:RDF><cc:Work
     rdf:about=""><dc:format>image/svg+xml</dc:format><dc:type
       rdf:resource="http://purl.org/dc/dcmitype/StillImage" /><dc:title /></cc:Work></rdf:RDF></metadata>

<g
   id="g6674"
   transform="matrix(0.97168945,0,0,0.97168945,1.704427,8.7479611)"><g
     style="fill:#f8d800;fill-opacity:1"
     id="g12"
     transform="matrix(0.00395228,0,0,-0.00395228,218.66777,10.84373)"><path
       style="fill:#f8d800;fill-opacity:1"
       inkscape:connector-curvature="0"
       id="path4-1"
       d="m 523.6,4991 c -214.7,-76.7 -339.2,-207 -402.5,-423.6 -40.2,-139.9 -23,-283.7 51.8,-435.1 63.2,-132.2 151.4,-212.7 300.9,-281.7 90.1,-42.2 111.2,-42.2 1059.9,-53.7 933.4,-11.5 1086.8,-21.1 1495,-86.3 2096.8,-333.5 3954.1,-1696.3 4923.9,-3611 350.7,-691.9 569.2,-1393.4 674.7,-2177.3 36.4,-266.4 44.1,-429.3 53.7,-1282.2 l 11.5,-977.5 65.2,-120.8 c 113.1,-208.9 299,-318.2 538.6,-320.1 247.3,0 448.5,126.5 553.9,352.7 l 49.8,107.3 v 939.2 c 0,994.7 -11.5,1176.8 -97.7,1715.4 -507.9,3154.8 -2890.4,5721.3 -6006.9,6466.8 -722.6,172.5 -1048.4,205.1 -2213.8,214.7 -895.1,7.7 -964.1,5.7 -1058,-26.8 z" /><path
       style="fill:#f8d800;fill-opacity:1"
       inkscape:connector-curvature="0"
       id="path6-8"
       d="M 523.6,1922.4 C 310.9,1849.6 184.4,1717.3 121.1,1500.7 80.9,1360.8 98.1,1217 172.9,1065.6 238,933.4 324.3,852.9 473.8,783.9 560,745.6 602.2,741.7 1160,730.2 1802.1,716.8 2012.9,693.8 2386.7,598 3916.2,203.2 5116,-1006.3 5489.8,-2530 c 92,-375.7 109.3,-546.2 124.6,-1194.1 l 11.5,-613.3 65.2,-120.8 c 113.1,-208.9 299,-318.2 538.6,-320.1 247.3,0 448.5,126.5 553.9,352.7 47.9,105.4 49.8,116.9 55.6,567.3 9.6,678.5 -36.4,1134.7 -168.6,1657.9 C 6220,-412.1 4878.3,1046.4 3124.6,1654 2488.3,1876.3 1926.7,1958.8 1083.3,1958.8 692.3,1956.9 608,1953 523.6,1922.4 Z" /><path
       style="fill:#f8d800;fill-opacity:1"
       inkscape:connector-curvature="0"
       id="path8"
       d="m 563.9,-1125.1 c -90.1,-23 -254.9,-118.8 -306.7,-180.2 -107.3,-126.5 -149.5,-243.4 -149.5,-406.3 -1.9,-136.1 5.7,-168.7 61.3,-281.8 111.2,-226.2 272.2,-318.2 609.5,-343.1 118.8,-9.6 272.2,-28.8 341.2,-44.1 680.4,-159.1 1224.8,-703.4 1381.9,-1381.9 17.2,-69 38.3,-228.1 47.9,-354.6 15.3,-203.2 23,-243.4 78.6,-345 189.8,-356.5 680.4,-429.3 966,-143.8 93.9,93.9 164.8,251.1 176.3,391 5.7,61.3 0,214.6 -13.4,339.2 -132.2,1299.6 -1044.5,2355.7 -2307.6,2672 -320.1,80.5 -724.5,116.9 -885.5,78.6 z" /></g><path
     id="rect926"
     d="m 60.204649,25.399024 v 15.741387 222.385689 2.12244 h 0.230628 c 0.796548,3.63581 3.627748,5.78997 6.845893,6.80947 l 114.79006,36.36576 c 3.80229,1.20457 7.07478,-3.98367 7.07478,-8.93191 V 265.64854 H 222.9593 V 25.399024 Z m 136.066421,3.292894 h 21.75149 v 5.326894 H 196.27107 Z M 71.187905,39.578064 176.45648,75.305712 175.49931,293.44479 71.187905,259.6315 Z"
     style="opacity:1;fill:#f8d800;fill-opacity:1;stroke:none;stroke-width:3.8118751;stroke-linecap:round;stroke-linejoin:bevel;stroke-miterlimit:4;stroke-dasharray:none;stroke-opacity:1"
     inkscape:connector-curvature="0" /><path
     d="m 164.03071,181.83727 c -0.38489,0.12881 -0.9944,0.67392 -1.37925,1.15461 -0.67393,0.86556 -0.70534,1.05878 -0.60952,10.32864 l 0.0958,8.33203 0.89854,1.86936 c 1.57246,1.34784 3.97751,0.86557 4.87608,-0.99437 0.38486,-0.86557 0.48068,-2.56684 0.48068,-9.68771 0,-8.01943 -0.0314,-8.66193 -0.64093,-9.65473 -0.89856,-1.44522 -2.2448,-1.95734 -3.72143,-1.34783 z"
     id="path6-3-6"
     inkscape:connector-curvature="0"
     style="fill:#f8d800;fill-opacity:1;stroke-width:0.01570896"
     sodipodi:nodetypes="ccccccscc" /></g></svg>