<?xml version="1.0" encoding="UTF-8" standalone="no"?>
<svg
   xmlns:dc="http://purl.org/dc/elements/1.1/"
   xmlns:cc="http://creativecommons.org/ns#"
   xmlns:rdf="http://www.w3.org/1999/02/22-rdf-syntax-ns#"
   xmlns:svg="http://www.w3.org/2000/svg"
   xmlns="http://www.w3.org/2000/svg"
   xmlns:sodipodi="http://sodipodi.sourceforge.net/DTD/sodipodi-0.dtd"
   xmlns:inkscape="http://www.inkscape.org/namespaces/inkscape"
   version="1.1"
   width="24"
   height="24"
   viewBox="0 0 24 24"
   id="svg78"
   sodipodi:docname="home-flood.svg"
   inkscape:version="1.0.1 (0767f8302a, 2020-10-17)">
  <metadata
     id="metadata84">
    <rdf:RDF>
      <cc:Work
         rdf:about="">
        <dc:format>image/svg+xml</dc:format>
        <dc:type
           rdf:resource="http://purl.org/dc/dcmitype/StillImage" />
      </cc:Work>
    </rdf:RDF>
  </metadata>
  <defs
     id="defs82" />
  <sodipodi:namedview
     pagecolor="#ffffff"
     bordercolor="#666666"
     borderopacity="1"
     objecttolerance="10"
     gridtolerance="10"
     guidetolerance="10"
     inkscape:pageopacity="0"
     inkscape:pageshadow="2"
     inkscape:window-width="3768"
     inkscape:window-height="2089"
     id="namedview80"
     showgrid="false"
     inkscape:zoom="78.375"
     inkscape:cx="9.2440191"
     inkscape:cy="11.961722"
     inkscape:window-x="1920"
     inkscape:window-y="34"
     inkscape:window-maximized="1"
     inkscape:current-layer="svg78" />
  <path
     d="M5,11H2L12,2L22,11H19V15.92C17.95,15.75 16.93,15.32 16,14.67C15.37,15.11 14.7,15.43 14,15.65V13H10V15.65C9.3,15.43 8.63,15.11 8,14.67C7.07,15.32 6.05,15.75 5,15.92M20,18C18.61,18 17.22,17.53 16,16.67C13.56,18.38 10.44,18.38 8,16.67C6.78,17.53 5.39,18 4,18H2V22H22V18"
     id="path76"
     style="fill:#f6d000;fill-opacity:1" />
</svg>
