<?xml version="1.0" encoding="UTF-8" standalone="no"?>
<!-- Created with Inkscape (http://www.inkscape.org/) -->

<svg
   width="309"
   height="348"
   viewBox="0 0 81.756248 92.075003"
   version="1.1"
   id="svg5"
   inkscape:version="1.1 (c68e22c387, 2021-05-23)"
   sodipodi:docname="node_switch.svg"
   inkscape:export-filename="C:\Users\jfridisch\ownCloud\Git\jmqtt-crash-doc-logs\nouveau logo jmqtt\logo_eq.png"
   inkscape:export-xdpi="96"
   inkscape:export-ydpi="96"
   xmlns:inkscape="http://www.inkscape.org/namespaces/inkscape"
   xmlns:sodipodi="http://sodipodi.sourceforge.net/DTD/sodipodi-0.dtd"
   xmlns="http://www.w3.org/2000/svg"
   xmlns:svg="http://www.w3.org/2000/svg">
  <sodipodi:namedview
     id="namedview7"
     pagecolor="#505050"
     bordercolor="#ffffff"
     borderopacity="1"
     inkscape:pageshadow="0"
     inkscape:pageopacity="0"
     inkscape:pagecheckerboard="1"
     inkscape:document-units="px"
     showgrid="false"
     units="mm"
     inkscape:zoom="1.4142136"
     inkscape:cx="-43.133513"
     inkscape:cy="150.96729"
     inkscape:window-width="1920"
     inkscape:window-height="1017"
     inkscape:window-x="1912"
     inkscape:window-y="-8"
     inkscape:window-maximized="1"
     inkscape:current-layer="svg5" />
  <defs
     id="defs5035" />
  <path
     style="fill:#f8d800;fill-opacity:1;stroke-width:0.209819"
     d="m 59.544118,91.463786 c -0.397199,-0.241232 -0.949485,-1.021879 -1.573639,-2.224309 l -0.961657,-1.852635 -1.411209,-0.480187 c -3.234991,-1.100754 -6.905687,-3.738499 -11.225654,-8.066695 -2.565301,-2.570187 -6.274253,-6.810455 -6.742236,-7.708078 -0.367039,-0.704004 -0.285259,-2.300173 0.162854,-3.178547 0.457235,-0.896255 2.209552,-1.923346 3.281416,-1.923346 1.147731,0 3.106689,0.635683 4.902516,1.590867 0.97164,0.516806 1.84027,0.86598 1.930286,0.775939 0.09002,-0.09004 -1.625542,-4.077547 -3.812351,-8.861125 -3.85807,-8.439409 -3.976018,-8.73776 -3.976018,-10.057502 0,-2.63268 1.363816,-4.214876 3.784026,-4.389938 0.962008,-0.06959 1.433455,0.01049 2.1749,0.369419 1.374234,0.665255 2.130122,1.654523 3.526672,4.61552 1.742302,3.694076 2.518616,5.256073 2.612273,5.256073 0.04433,0 0.472962,-0.259651 0.952511,-0.577001 0.744806,-0.492889 1.088245,-0.577001 2.355961,-0.577001 1.369131,0 1.572772,0.06064 2.629738,0.783105 1.059688,0.724323 1.17781,0.759294 1.573639,0.465892 0.235375,-0.174466 0.778137,-0.486387 1.206138,-0.693159 1.041554,-0.503184 2.934137,-0.29336 4.236101,0.469643 1.168412,0.684735 1.400012,0.683149 2.457747,-0.01683 2.153037,-1.424811 5.579792,-0.453959 6.276784,1.778309 0.13394,0.428974 0.558247,1.252044 0.942902,1.829045 0.941607,1.412452 2.320444,5.50975 2.854758,8.483072 0.593895,3.304877 0.48291,6.948398 -0.28275,9.282338 l -0.527964,1.609379 0.701604,1.613484 c 1.59209,3.661334 1.813275,3.413866 -6.544504,7.322162 -7.445398,3.481644 -10.265605,4.736533 -10.641083,4.734886 -0.138479,-6.3e-4 -0.52717,-0.168361 -0.863761,-0.372783 z m 7.702201,-5.210548 c 7.503417,-3.497795 8.541265,-4.017566 8.541265,-4.277603 0,-0.112387 -0.338693,-1.022536 -0.75265,-2.022552 -0.81504,-1.968927 -0.814957,-1.9833 0.02395,-4.166531 0.550518,-1.432698 0.561804,-1.553664 0.460023,-4.930736 -0.07273,-2.412949 -0.212572,-3.811692 -0.461511,-4.616009 -1.078683,-3.485204 -2.676458,-7.935921 -3.012934,-8.392743 -0.212498,-0.2885 -0.766159,-0.658809 -1.230359,-0.822908 -0.774315,-0.273729 -0.902669,-0.26413 -1.554632,0.116275 -1.074143,0.626737 -1.234058,1.68704 -0.522635,3.465315 0.300502,0.751138 0.546368,1.49249 0.546368,1.64745 0,0.501055 -0.678562,1.049151 -1.298887,1.049151 -0.522786,0 -0.660544,-0.134571 -1.020253,-0.996638 -1.273529,-3.052101 -1.850077,-4.164563 -2.553622,-4.927262 -0.710379,-0.770105 -0.851194,-0.83565 -1.551273,-0.722042 -1.848227,0.299925 -2.224035,1.732193 -1.129434,4.304468 0.773099,1.816758 0.797694,2.431386 0.115182,2.878585 -0.955646,0.626163 -1.275706,0.283899 -3.052319,-3.264106 -0.91538,-1.828067 -1.877444,-3.473034 -2.137924,-3.65548 -0.260477,-0.182446 -0.831647,-0.331719 -1.269266,-0.331719 -0.672516,0 -0.860027,0.105547 -1.211442,0.68191 -0.228673,0.375051 -0.416122,0.895091 -0.416552,1.155643 -4.2e-4,0.260555 0.480102,1.535203 1.067854,2.832551 1.769291,3.905374 1.905581,4.309936 1.628961,4.835424 -0.535027,1.016372 -1.42774,1.057324 -2.04189,0.09367 -0.239023,-0.375051 -2.299536,-4.637572 -4.578915,-9.472268 -3.92231,-8.319457 -4.066838,-8.574838 -4.858687,-9.088839 -1.07879,-0.521925 -2.754108,0.346326 -2.548311,1.801578 0.0214,0.226678 2.323868,5.496199 5.164151,11.707804 2.840283,6.211606 5.346263,11.75569 5.568845,12.320188 l 0.404694,1.026359 -0.464863,0.494826 c -0.255677,0.272153 -0.632306,0.494825 -0.836954,0.494825 -0.204647,0 -1.250001,-0.819614 -2.323007,-1.821363 -4.399324,-4.107176 -9.10393,-6.20486 -10.031001,-4.472611 -0.335602,0.627077 0.08278,1.260441 2.92157,4.422766 5.294503,5.897918 10.062246,9.73149 13.612412,10.945255 1.004001,0.343257 2.003604,0.778876 2.221339,0.968038 0.217735,0.189164 0.671233,0.954015 1.007769,1.699669 0.656801,1.455253 0.948449,1.896453 1.253614,1.896453 0.106132,0 2.950726,-1.285556 6.321319,-2.856793 z M 27.73913,61.625784 c -2.968759,-0.243071 -4.796344,-1.524922 -5.508358,-3.863511 -0.374546,-1.230188 -0.378787,-34.047983 -0.0046,-35.269637 0.351973,-1.148998 1.36039,-2.309125 2.650163,-3.048866 l 1.079294,-0.619021 13.491263,-0.002 c 11.90531,-0.0017 13.566855,0.03712 14.134295,0.330556 0.98056,0.507067 2.466041,1.962436 2.97045,2.910232 0.447561,0.840982 0.452343,0.980159 0.525366,15.293745 l 0.0737,14.445039 -0.490598,-0.15705 c -0.587355,-0.188022 -2.683294,-0.190966 -3.270505,-0.0046 -0.365712,0.116072 -0.60331,-0.247875 -1.90194,-2.913341 -1.147057,-2.354357 -1.725605,-3.287567 -2.547985,-4.109947 -2.663523,-2.663523 -6.143643,-2.965185 -8.872702,-0.769098 -1.687236,1.357725 -2.33312,2.817687 -2.432341,5.498083 0.05234,2.569687 1.209453,4.796289 2.146628,7.139532 1.12388,2.810067 2.224808,5.103771 2.225051,5.190321 5.42e-4,0.193271 -11.800129,0.151525 -14.267222,-0.05047 z M 41.946285,42.250151 c 2.39738,-0.621873 5.150997,-2.879731 6.17142,-5.060327 1.033667,-2.208894 1.262755,-4.338838 0.701549,-6.522636 -1.38194,-5.377486 -6.502257,-8.481735 -11.739966,-7.117486 -3.338253,0.869505 -6.238518,3.866771 -7.019451,7.254221 -0.949017,4.116546 1.195041,8.720781 4.972572,10.678298 1.956176,1.01369 4.764115,1.325571 6.913876,0.76793 z m -4.707707,-3.411455 c -1.299089,-0.478376 -2.850971,-1.968459 -3.41458,-3.278604 -1.37593,-3.198434 -0.243469,-6.586329 2.757138,-8.248312 1.000397,-0.554103 1.32103,-0.622574 2.907835,-0.62096 1.335829,0.0013 1.967775,0.100075 2.517822,0.393311 1.322027,0.704785 2.414142,1.7402 3.043566,2.885553 0.546636,0.994702 0.618971,1.332795 0.622376,2.908971 0.0031,1.452494 -0.08381,1.947857 -0.468512,2.669354 -1.22161,2.291065 -3.020568,3.45392 -5.497395,3.553539 -1.053966,0.04239 -1.877475,-0.04531 -2.46825,-0.262852 z m 7.702459,-24.370584 c -2.018589,-1.555175 -2.785423,-1.811867 -5.452066,-1.825034 -2.299784,-0.01136 -2.476857,0.01947 -3.776735,0.657414 -0.750101,0.368132 -1.610868,0.830841 -1.912815,1.028243 -0.545893,0.356885 -0.553599,0.353848 -1.363821,-0.537409 -1.218411,-1.340272 -1.26863,-1.483348 -0.688134,-1.960517 0.27652,-0.227299 1.352529,-0.825966 2.391131,-1.330371 3.382842,-1.6429039 7.128828,-1.6769528 10.443665,-0.09493 1.236264,0.590015 3.50927,2.358032 3.50927,2.729625 0,0.0827 -0.497144,0.579559 -1.104764,1.10414 l -1.104762,0.953783 z M 51.553539,9.1274624 C 49.659049,7.2642313 46.45342,5.497914 43.752285,4.8289322 42.73207,4.5762586 41.388326,4.4717283 39.069333,4.4646433 c -3.14732,-0.00962 -3.316461,0.012352 -5.245464,0.6812604 -2.220044,0.769831 -3.939009,1.6725588 -5.665102,2.9750722 L 27.004765,8.9917882 25.919274,7.7858732 24.833783,6.579958 25.604546,5.9569095 c 2.632924,-2.1283309 5.555473,-3.5847066 8.784369,-4.3774603 2.175496,-0.5341245 6.708508,-0.63897991 8.771881,-0.2029067 4.16527,0.880288 8.230133,2.9766343 11.17521,5.7633189 l 0.684279,0.6474789 -1.096749,1.1105453 C 53.320322,9.5086855 52.729142,9.9959339 52.609799,9.9806598 52.490456,9.9653856 52.01514,9.5814468 51.553539,9.1274624 Z"
     id="path9969"
     sodipodi:nodetypes="sscsssssssssssssssssssssssscsscssssssssssssssssssssssssssssccsscssssssssssscscsccssscsssssscsscssssssssssscssccscsssssssssscsssssscccsssscss" />
</svg>
