<?xml version="1.0" encoding="UTF-8" standalone="no"?>
<!-- Created with Inkscape (http://www.inkscape.org/) -->

<svg
   width="309"
   height="348"
   viewBox="0 0 81.756248 92.075003"
   version="1.1"
   id="svg5"
   inkscape:version="1.1 (c68e22c387, 2021-05-23)"
   sodipodi:docname="node_molecule-co3.svg"
   inkscape:export-filename="C:\Users\jfridisch\ownCloud\Git\jmqtt-crash-doc-logs\nouveau logo jmqtt\logo_eq.png"
   inkscape:export-xdpi="96"
   inkscape:export-ydpi="96"
   xmlns:inkscape="http://www.inkscape.org/namespaces/inkscape"
   xmlns:sodipodi="http://sodipodi.sourceforge.net/DTD/sodipodi-0.dtd"
   xmlns="http://www.w3.org/2000/svg"
   xmlns:svg="http://www.w3.org/2000/svg">
  <path
     id="path13399"
     style="fill:#f8d800;fill-opacity:1;stroke-width:1.29307"
     d="M 113.12305 33.605469 L 104.7168 33.992188 C 84.753189 34.911985 62.756905 44.518429 47.070312 59.167969 C 27.825749 77.140276 17.332121 98.11319 14.730469 123.79688 L 13.845703 132.52539 L 19.716797 132.52539 L 25.585938 132.52539 L 26.445312 124.44336 C 29.387136 96.785125 43.173612 74.383386 66.861328 58.771484 C 77.909908 51.489684 88.160256 47.786561 103.02539 45.707031 L 113.89844 44.1875 L 113.50977 38.896484 L 113.12305 33.605469 z M 113.76953 64.912109 L 105.36133 65.697266 C 75.878228 68.450425 49.683506 94.743798 46.917969 124.35938 L 46.15625 132.52539 L 52.162109 132.52539 C 58.134262 132.52539 58.166016 132.50084 58.166016 128.11523 C 58.166016 116.56208 67.749866 97.626891 77.507812 89.898438 C 84.96456 83.992604 97.908372 78.384747 106.26367 77.439453 L 113.76953 76.589844 L 113.76953 70.75 L 113.76953 64.912109 z M 113.12305 96.966797 L 108.59766 97.398438 C 98.581852 98.355006 86.881755 106.44739 82.074219 115.74414 C 79.777426 120.18563 77.486735 130.06373 78.408203 131.55469 C 78.784822 132.16399 81.490807 132.48696 84.419922 132.27148 C 89.460534 131.90064 89.799767 131.61328 90.773438 126.89648 C 92.666074 117.7279 99.350808 111.36152 109.24414 109.30469 C 112.85383 108.55424 113.12305 108.09762 113.12305 102.73242 L 113.12305 96.966797 z M 191.62109 105.39453 C 162.7391 105.34057 137.19026 115.8979 116.60547 136.39453 C 104.5483 148.40008 97.025376 160.96104 91.041016 179.07617 C 87.732723 189.09057 87.403552 191.79044 87.335938 209.46289 C 87.250581 231.77521 89.234528 240.37421 98.664062 258.55859 C 114.04857 288.22685 143.62964 308.88279 177.37891 313.52344 C 209.00496 317.87213 243.58656 305.67755 265.7793 282.34961 C 286.02463 261.06877 295.12519 238.48502 295.1543 209.46289 C 295.17658 186.75083 289.53223 168.67235 276.56055 149.9082 C 257.36699 122.1437 225.52581 105.45788 191.62109 105.39453 z M 191.82031 117.11914 C 205.19139 117.24579 218.56571 120.21584 230.74609 126.08984 C 285.40707 152.45018 300.99561 222.05586 262.61328 268.37891 C 249.69854 283.96545 230.34149 296.21195 212.86719 299.84766 C 178.7112 306.95418 149.10128 298.62474 126.05273 275.42773 C 107.77101 257.02825 99.71358 238.99369 98.589844 213.95703 C 98.035323 201.60258 98.380212 197.24131 100.60156 188.45703 C 106.8747 163.65014 121.17176 144.04396 142.79492 130.59961 C 157.44124 121.49316 174.62892 116.9563 191.82031 117.11914 z M 220.20898 172.35352 C 219.96884 172.35122 219.72157 172.35157 219.4668 172.35547 C 218.5261 172.36983 217.47774 172.42505 216.2793 172.51172 C 201.60453 173.5732 192.96741 184.87681 191.89062 204.42773 C 190.82121 223.84434 196.24861 236.94713 207.55469 242.24023 C 218.93534 247.56826 233.09418 242.22814 238.99805 230.38281 C 248.53545 211.24764 243.76324 183.62484 229.47266 175.25 C 225.87052 173.139 223.81118 172.38788 220.20898 172.35352 z M 173.79102 172.42969 C 161.48411 172.48046 153.16826 178.38381 147.48633 191.01562 C 143.10874 200.7477 143.29866 218.06146 147.89062 228.00781 C 151.50111 235.82826 157.18391 241.04259 164.48047 243.23047 C 169.37039 244.69671 181.48972 244.06324 185.05664 242.1543 C 186.653 241.29991 187.11583 239.76482 186.74219 236.56445 L 186.22656 232.15234 L 176.86914 232.75195 C 167.88121 233.32877 167.3324 233.19676 162.98633 229.38086 C 157.56802 224.62353 155.42969 218.26236 155.42969 206.91016 C 155.42969 188.4709 166.65125 179.41343 183.74023 184.06055 C 186.12188 184.70822 188.51565 176.38871 186.52148 174.39453 C 185.75182 173.62488 181.15383 172.77206 176.30469 172.49805 C 175.44834 172.44966 174.61148 172.4263 173.79102 172.42969 z M 217.27539 182.39453 C 220.36524 182.38735 223.53222 183.8994 226.34375 187.10156 C 228.51218 189.57126 230.89656 193.79016 231.64258 196.47656 C 234.75616 207.68842 231.9977 224.72726 226.18555 230.1875 C 222.7001 233.4619 216.73406 234.76522 212.80664 233.10938 C 203.82791 229.32391 199.44577 211.00998 203.91602 195.95703 C 206.50198 187.24915 211.76741 182.40717 217.27539 182.39453 z "
     transform="scale(0.26458333)" />
  <sodipodi:namedview
     id="namedview7"
     pagecolor="#505050"
     bordercolor="#ffffff"
     borderopacity="1"
     inkscape:pageshadow="0"
     inkscape:pageopacity="0"
     inkscape:pagecheckerboard="1"
     inkscape:document-units="px"
     showgrid="false"
     units="mm"
     inkscape:zoom="1.4142136"
     inkscape:cx="126.57211"
     inkscape:cy="150.96729"
     inkscape:window-width="1920"
     inkscape:window-height="1017"
     inkscape:window-x="1912"
     inkscape:window-y="-8"
     inkscape:window-maximized="1"
     inkscape:current-layer="svg5" />
  <defs
     id="defs5035" />
</svg>
