<?xml version="1.0" encoding="UTF-8" standalone="no"?>
<!-- Created with Inkscape (http://www.inkscape.org/) -->

<svg
   width="302"
   height="357"
   viewBox="0 0 79.904165 94.456253"
   version="1.1"
   id="svg5"
   inkscape:version="1.1 (c68e22c387, 2021-05-23)"
   sodipodi:docname="node_smoke-detector.svg"
   xmlns:inkscape="http://www.inkscape.org/namespaces/inkscape"
   xmlns:sodipodi="http://sodipodi.sourceforge.net/DTD/sodipodi-0.dtd"
   xmlns="http://www.w3.org/2000/svg"
   xmlns:svg="http://www.w3.org/2000/svg">
  <sodipodi:namedview
     id="namedview7"
     pagecolor="#505050"
     bordercolor="#ffffff"
     borderopacity="1"
     inkscape:pageshadow="0"
     inkscape:pageopacity="0"
     inkscape:pagecheckerboard="1"
     inkscape:document-units="mm"
     showgrid="false"
     units="px"
     inkscape:zoom="1.4823793"
     inkscape:cx="218.23025"
     inkscape:cy="158.86622"
     inkscape:window-width="1920"
     inkscape:window-height="1017"
     inkscape:window-x="-8"
     inkscape:window-y="-8"
     inkscape:window-maximized="1"
     inkscape:current-layer="layer1" />
  <defs
     id="defs2" />
  <g
     inkscape:label="Calque 1"
     inkscape:groupmode="layer"
     id="layer1">
    <path
       style="fill:#f8d800;fill-opacity:1;stroke-width:0.278527"
       d="m 31.76801,75.011243 c -1.08045,-1.860834 -1.140773,-2.832956 -0.332806,-5.363253 0.859228,-2.690832 0.902695,-4.148678 0.160013,-5.366788 -0.305807,-0.501569 -0.556014,-1.100857 -0.556014,-1.331745 0,-0.668728 0.803587,-0.795389 1.441453,-0.227204 1.462132,1.302409 1.781567,3.994728 0.774454,6.527387 -0.815757,2.051439 -0.820211,3.787863 -0.01306,5.09385 0.704106,1.139267 0.614607,1.851495 -0.232663,1.851495 -0.358331,0 -0.796853,-0.418164 -1.241368,-1.183742 z m 15.494704,0.835583 c -1.412933,-1.770658 -1.553556,-3.604684 -0.524562,-6.841299 0.792052,-2.491322 0.76758,-3.112344 -0.191613,-4.862232 -0.538165,-0.981795 -0.545237,-1.080085 -0.10911,-1.516212 0.43613,-0.436129 0.511282,-0.424161 1.159323,0.184644 0.909549,0.854476 1.646148,3.084726 1.407316,4.261023 -0.101136,0.498121 -0.424484,1.568397 -0.718551,2.378391 -0.710022,1.955733 -0.691909,3.777651 0.04948,4.977242 0.321276,0.519838 0.513218,1.129986 0.426532,1.35588 -0.192315,0.501168 -1.117988,0.539806 -1.498813,0.06256 z m -8.034997,-5.384388 c -0.92794,-1.583412 -0.971632,-3.440681 -0.136451,-5.800316 0.747961,-2.113205 0.746766,-3.754071 -0.0037,-5.025951 -0.656172,-1.112149 -0.544187,-1.824001 0.286955,-1.824001 0.365724,0 0.81508,0.445402 1.321959,1.310324 0.948188,1.617964 0.984581,3.440116 0.112269,5.62127 -0.787501,1.969089 -0.7986,3.521078 -0.03587,5.016149 0.676404,1.325861 0.596144,1.978632 -0.24328,1.978632 -0.363617,0 -0.811105,-0.43862 -1.301904,-1.276107 z M 7.5551847,64.427198 C 5.5697841,61.980562 4.3087972,58.437414 4.3087972,55.305422 c 0,-4.637861 2.6292446,-9.558345 6.4006478,-11.978445 1.142619,-0.733218 1.472172,-0.833739 1.811124,-0.552434 0.697525,0.578894 0.478064,0.974776 -1.169371,2.109408 -1.8515649,1.275222 -3.6941463,3.650875 -4.5779837,5.902427 -0.4939768,1.258393 -0.6297426,2.181625 -0.6440692,4.379781 -0.021751,3.33735 0.4542847,4.94076 2.2421867,7.552259 0.6716897,0.981102 1.221254,1.957202 1.221254,2.169111 0,0.315276 -0.5523209,0.723411 -0.978979,0.723411 -0.05381,0 -0.5301,-0.532684 -1.0584221,-1.183742 z m 63.0775943,0.836474 c -0.475229,-0.475229 -0.430456,-0.601845 0.900056,-2.545254 1.787901,-2.611499 2.263938,-4.214909 2.242185,-7.552259 -0.01432,-2.198156 -0.15009,-3.121388 -0.644067,-4.379781 -0.883837,-2.251552 -2.726419,-4.627205 -4.577984,-5.902427 -1.647434,-1.134632 -1.866897,-1.530514 -1.169372,-2.109408 0.961605,-0.79806 4.80981,2.625626 6.486005,5.770491 2.617566,4.911055 2.217973,10.47716 -1.099896,15.320934 -0.955024,1.394245 -1.671658,1.862973 -2.136927,1.397704 z M 10.767165,62.059714 C 8.0811903,58.646446 7.6115865,54.654342 9.4290581,50.684462 10.501934,48.34099 13.675432,45.525648 14.770484,45.945857 c 0.666515,0.255766 0.446679,1.239564 -0.373299,1.670566 -1.233015,0.648108 -3.056817,2.703658 -3.733051,4.207406 -0.46988,1.044876 -0.626268,1.914277 -0.626268,3.481593 0,2.350087 0.571749,3.953648 2.077934,5.827893 0.943352,1.173877 0.949693,1.970878 0.01568,1.970878 -0.298315,0 -0.912257,-0.470016 -1.364315,-1.044479 z m 56.387772,0.858793 c -0.366949,-0.366949 -0.171598,-0.925088 0.652164,-1.863299 2.087808,-2.377884 2.728221,-6.357301 1.471076,-9.141044 -0.672962,-1.490167 -2.607004,-3.70223 -3.756748,-4.296786 -0.833644,-0.431093 -1.061419,-1.413009 -0.387747,-1.671521 1.095053,-0.420209 4.268551,2.395133 5.341428,4.738605 1.81747,3.96988 1.347867,7.961984 -1.338108,11.375252 -0.762276,0.968683 -1.536655,1.304205 -1.982065,0.858793 z m -53.222383,-3.24127 c -1.60464,-2.10379 -2.012672,-4.874292 -1.033565,-7.017826 0.735344,-1.609869 2.918184,-3.540012 3.878215,-3.429253 1.117225,0.128897 0.955979,0.96975 -0.356952,1.861405 -1.684013,1.143668 -2.371226,2.341784 -2.371226,4.134095 0,1.701101 0.258551,2.339592 1.462903,3.612632 0.955016,1.009482 0.87549,1.759155 -0.186613,1.759155 -0.454456,0 -0.931077,-0.314906 -1.392762,-0.920208 z m 49.794311,0.500389 c -0.09647,-0.251399 0.239414,-0.86314 0.837256,-1.52488 1.174345,-1.299859 1.40655,-2.046979 1.224633,-3.940231 -0.153837,-1.601012 -0.775554,-2.571037 -2.327777,-3.631862 -2.168231,-1.481824 -0.93104,-2.530422 1.308792,-1.109286 3.193006,2.025909 3.700269,7.200919 0.973161,9.928027 -0.780253,0.780253 -1.770955,0.916979 -2.016065,0.278232 z M 33.744416,55.99121 C 31.595553,55.563851 28.98668,54.451012 28.017935,53.548532 27.167673,52.756428 25.982544,50.390017 25.177391,47.876668 l -0.639889,-1.997471 -2.250068,-1.1258 c -2.751642,-1.376761 -4.6571,-2.983339 -5.428644,-4.577137 -0.532355,-1.099697 -0.581544,-1.689544 -0.581544,-6.973544 0,-5.126989 0.05932,-5.888518 0.53069,-6.812474 1.320995,-2.589364 5.33456,-5.130049 10.384529,-6.57366 7.286737,-2.083026 18.181822,-2.135773 25.571883,-0.123802 4.904432,1.335249 9.238072,4.085635 10.680043,6.77819 0.558768,1.043372 0.600321,1.516202 0.600321,6.83078 v 5.709814 l -0.763987,1.29962 c -1.052009,1.789578 -2.707003,3.135888 -5.535767,4.503269 l -2.400373,1.160298 -0.628848,1.949693 c -0.878718,2.72438 -2.051152,4.95282 -3.046397,5.790263 -1.093416,0.920049 -3.51607,1.829079 -6.146707,2.306375 -2.645902,0.480067 -9.298988,0.463194 -11.778217,-0.02987 z m 11.998856,-1.674126 c 3.049664,-0.612654 5.058087,-1.662984 5.832753,-3.05031 0.342157,-0.612761 0.624166,-1.19268 0.626687,-1.288708 0.0083,-0.317034 -2.705235,-1.347519 -5.060104,-1.921595 -3.290636,-0.802198 -9.032775,-1.008389 -12.639665,-0.453869 -3.184001,0.489507 -6.514798,1.496442 -6.720148,2.031577 -0.07601,0.198069 0.155578,0.897107 0.51463,1.553415 0.774652,1.415984 2.722862,2.516125 5.535462,3.125844 2.517791,0.545809 9.201418,0.547856 11.910385,0.0036 z m 7.453081,-6.940749 c 0.221967,-0.531247 0.403578,-1.078057 0.403578,-1.215137 0,-0.429715 -3.473979,-1.9821 -5.722576,-2.557195 -6.561075,-1.678039 -15.657961,-1.05341 -20.479162,1.406182 -1.235572,0.630342 -1.200545,0.544179 -0.785008,1.931118 l 0.308949,1.031181 1.744617,-0.633263 c 3.897246,-1.414624 10.097741,-2.056569 14.747039,-1.526782 3.167763,0.360969 6.736433,1.212603 8.204498,1.957937 0.553738,0.281132 1.044526,0.52481 1.090642,0.541505 0.04611,0.01668 0.265453,-0.404302 0.487423,-0.935546 z m 1.344775,-4.390295 c 0.16266,-0.68425 0.03379,-0.857263 -1.285421,-1.725757 -5.852604,-3.85301 -18.877864,-4.24777 -25.82821,-0.782782 l -2.098107,1.04598 0.06629,1.084976 c 0.03646,0.596739 0.12786,1.146544 0.203108,1.221791 0.07525,0.07525 0.881595,-0.197423 1.791883,-0.605936 3.79205,-1.70177 9.605555,-2.514964 15.068156,-2.107735 4.139359,0.308586 8.66062,1.459381 10.723309,2.729405 0.900476,0.554434 1.044408,0.463359 1.358988,-0.859942 z m 6.138699,-2.104844 c 2.339511,-2.339513 2.256788,-4.676473 -0.247243,-6.984608 -6.325084,-5.830259 -25.11236,-7.312175 -35.878842,-2.830078 -6.999468,2.913886 -8.726332,7.354826 -4.15347,10.681391 1.422945,1.035134 3.109484,1.961413 3.273196,1.797703 0.05651,-0.05651 -0.208696,-1.22512 -0.58934,-2.596918 -0.804059,-2.897744 -0.733519,-3.213747 1.038432,-4.651924 7.133762,-5.790006 24.511562,-5.800253 31.636279,-0.01866 1.827497,1.482984 1.870945,1.674308 1.057942,4.658572 -0.390556,1.433603 -0.710103,2.690977 -0.710103,2.794166 0,0.442583 3.398793,-1.675293 4.573149,-2.849649 z m -5.047255,-2.460683 c -0.17996,-0.488221 -2.420371,-2.00826 -4.079687,-2.767919 -4.722484,-2.162025 -13.883569,-2.64746 -20.09589,-1.064856 -3.728314,0.949796 -7.505067,3.332094 -7.190361,4.535532 0.237721,0.909047 0.453617,0.913108 2.069958,0.03893 7.143289,-3.863361 21.148337,-3.558414 27.682534,0.602762 l 1.112706,0.708605 0.307968,-0.870265 c 0.169381,-0.478645 0.256128,-1.0109 0.192772,-1.182789 z M 19.291079,32.21629 c 4.176054,-3.477931 11.524013,-5.371579 20.800268,-5.360454 9.347717,0.01121 17.020044,1.983906 20.859225,5.363288 0.67646,0.595444 1.304698,1.082626 1.396083,1.082626 0.09139,0 0.163404,-1.096702 0.160039,-2.437116 C 62.499313,27.927435 62.016235,26.677613 60.284906,25.1165 58.85948,23.831216 55.393247,22.161943 52.485821,21.360606 44.578133,19.18111 33.793957,19.345744 26.4435,21.758173 c -4.553986,1.494624 -7.854355,3.877506 -8.465724,6.112291 -0.314202,1.148529 -0.431668,5.431286 -0.148967,5.431286 0.08741,0 0.745431,-0.488457 1.46227,-1.08546 z"
       id="path854" />
  </g>
</svg>
