<?xml version="1.0" encoding="UTF-8" standalone="no"?>
<!-- Created with Inkscape (http://www.inkscape.org/) -->

<svg
   width="309"
   height="348"
   viewBox="0 0 81.756248 92.075003"
   version="1.1"
   id="svg5"
   inkscape:version="1.1 (c68e22c387, 2021-05-23)"
   sodipodi:docname="node_ups.svg"
   inkscape:export-filename="C:\Users\jfridisch\ownCloud\Git\jmqtt-crash-doc-logs\nouveau logo jmqtt\logo_eq.png"
   inkscape:export-xdpi="96"
   inkscape:export-ydpi="96"
   xmlns:inkscape="http://www.inkscape.org/namespaces/inkscape"
   xmlns:sodipodi="http://sodipodi.sourceforge.net/DTD/sodipodi-0.dtd"
   xmlns="http://www.w3.org/2000/svg"
   xmlns:svg="http://www.w3.org/2000/svg">
  <sodipodi:namedview
     id="namedview7"
     pagecolor="#505050"
     bordercolor="#ffffff"
     borderopacity="1"
     inkscape:pageshadow="0"
     inkscape:pageopacity="0"
     inkscape:pagecheckerboard="1"
     inkscape:document-units="px"
     showgrid="false"
     units="mm"
     inkscape:zoom="2.8284272"
     inkscape:cx="153.26539"
     inkscape:cy="179.78189"
     inkscape:window-width="1920"
     inkscape:window-height="1017"
     inkscape:window-x="1912"
     inkscape:window-y="-8"
     inkscape:window-maximized="1"
     inkscape:current-layer="svg5" />
  <defs
     id="defs5035" />
  <path
     style="fill:#f8d800;fill-opacity:1;stroke-width:0.0657317"
     d="M 3.1153048,70.593707 C 2.698404,70.407621 2.4251222,69.976027 2.4251222,69.503705 c 0,-0.482271 0.2177692,-0.825606 0.671131,-1.058104 0.1998815,-0.102501 0.3866386,-0.125066 1.0352738,-0.125066 0.4352692,0 0.7913986,-0.01015 0.7913986,-0.02258 0,-0.01241 -0.066554,-0.197287 -0.1478963,-0.410823 L 4.6271331,67.498889 4.6089368,51.033108 C 4.5885816,32.613628 4.5504391,34.110988 5.0662462,33.080437 5.4216001,32.370461 6.016264,31.771393 6.7380424,31.396258 7.6133495,30.941329 7.7755627,30.921293 10.592281,30.920189 l 2.481371,-9.71e-4 V 26.34054 l 0.19919,-0.300723 c 0.26559,-0.400968 0.547706,-0.510596 1.313968,-0.510596 h 0.590255 l 0.0048,-1.035273 c 0.0027,-0.5694 7.89e-4,-1.247072 -0.0041,-1.505936 -0.01537,-0.810445 0.168197,-1.219243 0.660223,-1.470256 0.246594,-0.125804 0.408479,-0.129629 5.484998,-0.129629 5.00324,0 5.241518,0.0054 5.47478,0.124468 0.617185,0.314999 0.671131,0.510883 0.671131,2.436955 v 1.579671 h 0.627069 c 0.867149,0 1.199572,0.172932 1.436932,0.747509 0.08919,0.215895 0.105144,0.587489 0.105144,2.448504 v 2.193984 h 6.277374 6.277374 v -2.270361 c 0,-2.535772 0.0065,-2.576608 0.469981,-2.922441 0.196804,-0.146868 0.294851,-0.16668 0.922758,-0.186469 l 0.702559,-0.02215 0.02049,-1.659012 0.02049,-1.659011 0.180836,-0.273067 c 0.09946,-0.150186 0.29794,-0.332809 0.44107,-0.405827 0.254629,-0.129903 0.372898,-0.132762 5.49114,-0.132762 5.003239,0 5.241518,0.0054 5.474779,0.124468 0.278969,0.14238 0.413327,0.280137 0.564607,0.578883 0.0896,0.176953 0.106524,0.466655 0.106524,1.824054 v 1.613689 h 0.620172 c 0.84132,0 1.134634,0.130149 1.407322,0.624452 0.113665,0.206041 0.119549,0.359518 0.135469,3.533076 l 0.0062,1.232469 h 2.454423 c 2.238091,0 2.499663,0.01157 2.967703,0.131275 0.683274,0.174752 1.270481,0.513984 1.806273,1.04349 0.506844,0.500894 0.8506,1.078476 1.061264,1.78316 0.142092,0.475287 0.148324,0.608039 0.173493,3.697406 l 0.02611,3.204418 h 2.818462 2.818462 l 0.01949,-2.382772 0.01949,-2.382773 0.197195,-0.274561 c 0.376682,-0.524469 0.309018,-0.511752 2.840424,-0.533851 2.405739,-0.02099 2.630278,10e-4 2.976244,0.292154 0.394758,0.332168 0.394975,0.334162 0.394975,3.671378 0,3.336132 -6.58e-4,3.339316 -0.394029,3.67058 -0.317635,0.267272 -0.590362,0.305428 -2.185939,0.305819 l -1.495396,3.66e-4 v 3.313671 3.313672 l 0.271367,0.04585 c 0.439488,0.07425 1.492194,0.645226 1.990579,1.079663 0.561966,0.489861 0.950256,0.995747 1.289201,1.679642 0.48884,0.986332 0.491351,1.008715 0.491351,4.376248 v 2.995881 l -0.184161,0.241472 c -0.248149,0.325379 -0.518668,0.452283 -1.044278,0.48989 l -0.440705,0.03153 -0.01994,1.985574 -0.01994,1.985574 -0.188098,0.271275 c -0.213818,0.308365 -0.629598,0.539537 -0.966525,0.537382 -0.333154,-0.0022 -0.741217,-0.213575 -0.956422,-0.495584 l -0.189563,-0.248412 -0.01912,-2.026485 -0.01913,-2.026487 H 74.10632 72.96226 l -0.01998,1.993346 -0.01999,1.993346 -0.185107,0.279557 c -0.310996,0.469669 -0.891222,0.64723 -1.408589,0.431059 -0.325958,-0.136193 -0.472545,-0.27634 -0.616156,-0.589079 -0.108254,-0.23575 -0.120881,-0.460757 -0.122175,-2.176933 l -0.0014,-1.914008 -0.484844,-0.03111 c -0.577328,-0.03705 -0.866042,-0.188491 -1.077868,-0.565386 -0.142428,-0.253425 -0.144504,-0.296812 -0.147258,-3.076204 -0.0033,-3.324824 0.03164,-3.604165 0.57878,-4.626773 0.643204,-1.202156 1.91755,-2.253396 3.119572,-2.573409 l 0.312226,-0.08312 v -3.305827 -3.305816 l -2.284176,-0.0047 c -2.472017,-0.0051 -3.323544,0.0032 -3.352906,0.03262 -0.01035,0.01035 -0.02568,5.428675 -0.03409,12.04074 l -0.0153,12.021936 -0.138596,0.427256 c -0.07623,0.23499 -0.159688,0.476685 -0.185461,0.537099 -0.04222,0.09895 0.04106,0.111988 0.839689,0.131463 0.880062,0.02146 0.888409,0.02312 1.138913,0.225784 0.345078,0.279181 0.496766,0.561597 0.502407,0.935393 0.0066,0.437103 -0.227715,0.83543 -0.610556,1.037969 L 68.45461,70.686878 35.883555,70.68429 C 8.8173575,70.682162 3.2791717,70.666853 3.1153048,70.593707 Z M 63.698508,68.228503 c 0.377769,-0.134918 0.751321,-0.471001 0.936468,-0.842549 0.143578,-0.288128 0.169495,-0.428609 0.169495,-0.918811 v -0.578679 c -10.370797,0 -20.741595,0 -31.112392,0 L 33.42267,65.73058 c -0.575792,-0.337436 -0.752444,-1.139518 -0.367889,-1.670382 0.222791,-0.307554 0.490094,-0.467684 0.842779,-0.504869 0.1337,-0.0141 7.142449,-0.02733 15.575001,-0.02942 l 15.33191,-0.0038 V 62.207443 60.89281 H 51.754625 c -11.240704,0 -13.07917,-0.01317 -13.261364,-0.09503 -0.472047,-0.212078 -0.704504,-0.57112 -0.704504,-1.08814 0,-0.501054 0.214912,-0.8301 0.703352,-1.076885 0.191649,-0.09683 1.371418,-0.106285 13.261363,-0.106285 h 13.050999 l 0.009,-5.948716 c 0.005,-3.271794 0.009,-6.037454 0.009,-6.14591 0,-0.108457 -0.004,-0.892307 -0.009,-1.741889 l -0.009,-1.544695 h -0.558718 -0.55872 l -0.0014,1.166737 c -0.0017,1.335029 -0.06219,1.566739 -0.49568,1.897416 l -0.248507,0.189564 -5.331199,0.01756 -5.3312,0.01756 -0.306807,-0.194572 c -0.568916,-0.360795 -0.541513,-0.159219 -0.563603,-4.145965 -0.01416,-2.555437 0.0018,-3.593301 0.05815,-3.797103 0.100358,-0.362565 0.453385,-0.705987 0.820839,-0.798513 0.369236,-0.09298 10.212444,-0.09905 10.545535,-0.0065 0.30485,0.08469 0.703092,0.479384 0.786424,0.779407 0.03672,0.132193 0.06693,0.750594 0.06713,1.374223 l 3.7e-4,1.133868 h 0.55872 0.558718 l -6.57e-4,-3.072955 c 0,-1.945387 -0.02572,-3.164244 -0.06946,-3.321743 -0.09394,-0.33826 -0.674598,-0.913453 -1.02947,-1.019776 -0.212443,-0.06365 -6.182822,-0.08078 -27.852388,-0.07993 -23.928092,9.4e-4 -27.6121601,0.0137 -27.8098014,0.09627 -0.3608648,0.15078 -0.6799059,0.42631 -0.872014,0.75309 l -0.1772158,0.301939 -0.017125,12.0445 -0.017125,12.0445 c 6.6756432,0.01151 13.3512862,0.02301 20.0269292,0.03452 l 0.246963,0.188375 c 0.357756,0.272885 0.498161,0.538587 0.498451,0.943265 3.3e-4,0.445662 -0.155908,0.7617 -0.488009,0.987214 l -0.267659,0.181753 c -6.671763,0.01137 -13.343527,0.02275 -20.0152903,0.03412 0,0.876006 0,1.752013 0,2.628019 l 1.5282613,-1.31e-4 c 5.763599,0.0082 10.236593,0.01951 16.207991,0.03297 l 0.278207,0.197195 c 0.355156,0.251736 0.521869,0.564538 0.521869,0.979174 0,0.418077 -0.225225,0.811838 -0.577657,1.009915 l -0.261888,0.147214 c -5.898943,0 -11.797885,0 -17.6968279,0 v 0.514144 c 0,0.293075 0.04403,0.643364 0.1024005,0.814674 0.1295098,0.38009 0.6009788,0.864796 0.9673749,0.994534 0.244815,0.08669 3.5451275,0.09862 27.8521565,0.100648 22.596092,0.0019 27.618041,-0.01327 27.815969,-0.08396 z M 28.2248,65.921189 c -0.511015,-0.18069 -0.890182,-0.809869 -0.785576,-1.303561 0.02426,-0.114469 0.199765,-0.503919 0.390022,-0.865444 0.190258,-0.361523 0.517082,-0.982688 0.726276,-1.380365 0.209193,-0.397676 0.671443,-1.261807 1.027222,-1.92029 0.355779,-0.658483 0.646872,-1.211988 0.646872,-1.230011 0,-0.01802 0.17351,-0.351852 0.385578,-0.741842 0.212068,-0.38999 0.541079,-1.004866 0.731135,-1.366389 0.190057,-0.361525 0.457436,-0.864372 0.594177,-1.117439 0.266661,-0.493513 0.655449,-1.238463 0.655449,-1.255895 0,-0.0058 -0.598978,-0.03196 -1.331066,-0.05803 -2.177334,-0.07755 -2.56977,-0.119251 -2.844072,-0.302191 -0.130826,-0.08725 -0.295003,-0.268383 -0.364838,-0.402514 -0.167374,-0.321478 -0.168879,-0.869766 -0.0031,-1.141569 0.102481,-0.16806 0.736467,-0.926741 2.714686,-3.248639 0.107805,-0.126533 0.319273,-0.376534 0.469931,-0.555556 1.103345,-1.311076 1.73926,-2.061324 2.311604,-2.727207 0.144609,-0.168243 0.632667,-0.744735 1.084572,-1.281092 0.451905,-0.536357 1.368862,-1.616525 2.037682,-2.400374 0.668819,-0.783848 1.497039,-1.759919 1.840487,-2.169046 0.343448,-0.409126 0.840616,-0.994371 1.104818,-1.300545 0.264203,-0.306172 0.766068,-0.901239 1.115254,-1.322369 0.349187,-0.421131 0.667511,-0.795273 0.707388,-0.831425 0.03988,-0.03615 0.262704,-0.296732 0.495172,-0.579067 0.232469,-0.282334 0.511408,-0.568248 0.619865,-0.635364 0.628904,-0.389183 1.453827,-0.120256 1.713026,0.55845 0.156759,0.410469 0.102046,0.685963 -0.315874,1.59053 -0.196799,0.425961 -0.765861,1.661852 -1.264582,2.746425 -0.49872,1.084572 -1.450741,3.151781 -2.115602,4.593798 -0.664858,1.442016 -1.200566,2.629915 -1.190461,2.639775 0.02094,0.02044 2.968907,0.161265 3.567884,0.170445 0.615456,0.0094 1.032419,0.233071 1.263675,0.677769 0.122845,0.236229 0.126809,0.817338 0.0071,1.042868 -0.04819,0.0908 -0.888088,1.018035 -1.86644,2.060519 -0.97835,1.042484 -2.011218,2.146851 -2.295263,2.454145 -0.284045,0.307296 -0.770274,0.825427 -1.080509,1.151403 -0.310235,0.325974 -1.17029,1.242931 -1.911234,2.03768 -0.740945,0.794751 -1.600726,1.711213 -1.910628,2.036586 -0.3099,0.325371 -1.211829,1.286697 -2.004285,2.136278 -0.792456,0.849582 -1.635701,1.751749 -1.873878,2.004816 -0.238177,0.253067 -0.750256,0.800283 -1.137953,1.216036 -0.698841,0.749409 -1.202524,1.120896 -1.511176,1.114553 -0.07721,-0.0016 -0.258707,-0.04472 -0.403317,-0.09585 z m 6.673096,-9.563817 c 0.555756,-0.596515 1.219106,-1.30575 1.474109,-1.576079 1.293013,-1.37072 1.584981,-1.681444 2.372215,-2.52461 0.468686,-0.501986 1.048836,-1.123151 1.289219,-1.380365 0.240384,-0.257213 0.425841,-0.486073 0.412127,-0.508573 -0.01372,-0.02251 -0.299129,-0.04634 -0.634256,-0.05297 -0.335127,-0.0066 -1.0678,-0.03469 -1.628163,-0.06234 -0.919543,-0.04539 -1.042998,-0.06585 -1.266714,-0.209955 -0.328281,-0.211461 -0.603962,-0.754133 -0.557716,-1.097852 0.01813,-0.134742 0.372989,-0.984466 0.788576,-1.888277 0.415589,-0.903809 0.82232,-1.791187 0.903845,-1.971949 0.08153,-0.180762 0.20541,-0.446976 0.275297,-0.591585 l 0.127069,-0.262926 -0.217343,0.231276 c -0.119538,0.127203 -0.354638,0.393416 -0.522444,0.591586 -1.642308,1.939474 -1.994148,2.354255 -2.117739,2.496587 -0.07848,0.09038 -0.391701,0.460121 -0.696045,0.821645 -0.304344,0.361525 -0.969427,1.145574 -1.477963,1.742334 -0.508537,0.596759 -1.140544,1.343635 -1.40446,1.659724 l -0.479849,0.574708 0.381252,0.0028 c 0.209687,0.0016 0.945835,0.02808 1.635882,0.05894 1.070342,0.04787 1.294011,0.0762 1.522726,0.192887 0.393241,0.200617 0.565265,0.479781 0.596337,0.967746 0.02544,0.399525 0.01764,0.421607 -0.465259,1.31743 -0.629558,1.167889 -1.393997,2.62975 -1.35293,2.587252 0.01747,-0.01808 0.48647,-0.520924 1.042227,-1.117439 z m 42.065547,-0.01643 c -0.0013,-1.91474 -0.007,-2.004516 -0.155161,-2.424009 -0.627368,-1.777254 -2.724676,-2.48971 -4.292092,-1.458024 -0.687199,0.45232 -1.155228,1.189379 -1.273164,2.004998 -0.06876,0.475519 -0.08486,3.755496 -0.01876,3.821597 0.0241,0.0241 1.325584,0.04382 2.892193,0.04382 h 2.84837 l -0.0013,-1.988382 z M 61.320693,43.605429 v -0.460121 l -1.396798,-3.95e-4 c -1.496102,-3.94e-4 -1.772484,-0.04088 -2.0873,-0.305781 -0.281544,-0.236877 -0.39407,-0.486979 -0.39407,-0.875841 0,-0.44268 0.129593,-0.731654 0.431433,-0.962031 l 0.248187,-0.189426 1.599274,-0.0197 1.599274,-0.0197 V 40.28271 39.792988 h -3.779571 -3.77957 v 2.13628 2.136279 h 3.77957 3.779571 z m 15.644136,-4.436887 v -1.610425 h -0.854512 -0.854511 v 1.610425 1.610425 h 0.854511 0.854512 z m -49.693138,-9.7603 v -1.510977 l -2.284176,-0.01729 c -1.256296,-0.0095 -3.918428,-0.0094 -5.915849,2.63e-4 l -3.631674,0.01753 v 1.510739 1.510738 h 5.915849 5.91585 v -1.510976 z m 29.053396,-4.4e-5 v -1.51102 l -5.01204,-0.01724 c -2.756622,-0.0095 -5.403964,-0.009 -5.882983,0.0011 l -0.870945,0.01835 v 1.50992 1.509921 h 5.882984 5.882984 v -1.51107 z M 25.102546,24.641844 v -0.887377 h -3.77957 -3.779572 v 0.887377 0.887377 h 3.779572 3.77957 z m 29.119128,0 v -0.887377 h -3.779571 -3.779571 v 0.887377 0.887377 h 3.779571 3.779571 z"
     id="path2547"
     sodipodi:nodetypes="sssssscssssccsscccsscscssscccscscccssscsscssccssssscccccsscscscccsssscsscccscscccccccsssccssssscccssscssssscccscssccsssscccsssssccscccccscccsscssssccccsssccccccssscccccsscccssssccsssssssssscsscsssssssssssssssscssssssssssssssssssccssssscssssssccsssssssccsssscccccccssccccccccccccccccccccccccccccccccccccccccccccccccccccccccccccc" />
</svg>
