<?xml version="1.0" encoding="UTF-8" standalone="no"?>
<!-- Created with Inkscape (http://www.inkscape.org/) -->

<svg
   width="309"
   height="348"
   viewBox="0 0 81.756248 92.075003"
   version="1.1"
   id="svg5"
   inkscape:version="1.1 (c68e22c387, 2021-05-23)"
   sodipodi:docname="node_battery.svg"
   inkscape:export-filename="C:\Users\jfridisch\ownCloud\Git\jmqtt-crash-doc-logs\nouveau logo jmqtt\logo_eq.png"
   inkscape:export-xdpi="96"
   inkscape:export-ydpi="96"
   xmlns:inkscape="http://www.inkscape.org/namespaces/inkscape"
   xmlns:sodipodi="http://sodipodi.sourceforge.net/DTD/sodipodi-0.dtd"
   xmlns="http://www.w3.org/2000/svg"
   xmlns:svg="http://www.w3.org/2000/svg">
  <sodipodi:namedview
     id="namedview7"
     pagecolor="#505050"
     bordercolor="#ffffff"
     borderopacity="1"
     inkscape:pageshadow="0"
     inkscape:pageopacity="0"
     inkscape:pagecheckerboard="1"
     inkscape:document-units="px"
     showgrid="false"
     units="px"
     inkscape:zoom="1"
     inkscape:cx="80.499998"
     inkscape:cy="213.49999"
     inkscape:window-width="1920"
     inkscape:window-height="1017"
     inkscape:window-x="1912"
     inkscape:window-y="-8"
     inkscape:window-maximized="1"
     inkscape:current-layer="svg5" />
  <defs
     id="defs5035" />
  <path
     style="fill:#f8d800;fill-opacity:1;stroke-width:0.0928707"
     d="M 3.7298506,53.694411 V 33.123558 H 40.878112 78.026377 V 53.694411 74.265262 H 40.878112 3.7298506 Z M 34.25808,66.516066 c 2.645331,-2.51268 10.52377,-10.114224 11.341275,-10.942678 l 0.77424,-0.784606 -2.492347,-1.419014 c -2.758359,-1.570467 -3.746101,-2.180777 -3.746101,-2.31466 0,-0.09294 2.335678,-2.693694 5.753757,-6.406751 2.207682,-2.398203 2.604603,-2.844186 2.604603,-2.926538 0,-0.03059 -2.493601,-0.04484 -5.541334,-0.03168 l -5.541333,0.02394 -0.825186,1.578801 c -1.530811,2.928853 -4.584172,9.001874 -4.972808,9.890727 -0.300387,0.687019 -0.3609,0.906415 -0.273432,0.991369 0.06178,0.06 1.157122,0.59781 2.434094,1.195126 1.276971,0.597314 2.582965,1.208149 2.902207,1.357407 0.319244,0.149261 0.580442,0.310626 0.580442,0.358592 0,0.191564 -0.8519,2.203608 -2.712364,6.406148 -1.074099,2.426247 -1.974728,4.448124 -2.0014,4.493058 -0.156076,0.262956 0.33264,-0.155564 1.715687,-1.469257 z M 3.7298506,27.092368 v -3.523681 l 6.8956454,-0.02862 c 8.039486,-0.03337 7.622812,0.01277 7.573905,-0.838568 -0.02689,-0.467955 -0.04468,-0.498305 -0.391431,-0.667582 -0.314319,-0.153445 -0.642804,-0.183318 -2.437855,-0.221709 l -2.074587,-0.04437 5.56e-4,-1.449963 c 6.5e-4,-1.714405 0.0689,-2.036139 0.485664,-2.288171 0.295285,-0.17857 0.528951,-0.184048 8.929813,-0.209359 8.157205,-0.02458 8.63652,-0.01701 8.809003,0.139086 0.443064,0.400968 0.473305,0.586074 0.516997,3.164453 l 0.04138,2.441711 11.140963,-0.02708 11.140962,-0.02707 0.177509,-0.219248 c 0.305767,-0.377662 0.148994,-1.194713 -0.260191,-1.356042 -0.09128,-0.03599 -1.164041,-0.08931 -2.383917,-0.118489 l -2.217959,-0.05306 0.04437,-1.613219 0.04437,-1.613221 0.279967,-0.345916 0.279966,-0.345917 8.162385,-0.02762 c 4.489312,-0.01519 8.422105,-0.0016 8.73954,0.03026 0.364129,0.03651 0.689771,0.133749 0.882271,0.263445 l 0.305117,0.205567 0.02467,2.619948 0.02466,2.619947 h 4.781392 4.781393 v 3.529085 3.529085 H 40.878152 3.7298896 v -3.523682 z"
     id="path855" />
</svg>
