<?xml version="1.0" encoding="UTF-8" standalone="no"?>
<svg
   xmlns:dc="http://purl.org/dc/elements/1.1/"
   xmlns:cc="http://creativecommons.org/ns#"
   xmlns:rdf="http://www.w3.org/1999/02/22-rdf-syntax-ns#"
   xmlns:svg="http://www.w3.org/2000/svg"
   xmlns="http://www.w3.org/2000/svg"
   xmlns:sodipodi="http://sodipodi.sourceforge.net/DTD/sodipodi-0.dtd"
   xmlns:inkscape="http://www.inkscape.org/namespaces/inkscape"
   version="1.1"
   width="24"
   height="24"
   viewBox="0 0 24 24"
   id="svg1574"
   sodipodi:docname="remote.svg"
   inkscape:version="1.0.1 (0767f8302a, 2020-10-17)">
  <metadata
     id="metadata1580">
    <rdf:RDF>
      <cc:Work
         rdf:about="">
        <dc:format>image/svg+xml</dc:format>
        <dc:type
           rdf:resource="http://purl.org/dc/dcmitype/StillImage" />
      </cc:Work>
    </rdf:RDF>
  </metadata>
  <defs
     id="defs1578" />
  <sodipodi:namedview
     pagecolor="#ffffff"
     bordercolor="#666666"
     borderopacity="1"
     objecttolerance="10"
     gridtolerance="10"
     guidetolerance="10"
     inkscape:pageopacity="0"
     inkscape:pageshadow="2"
     inkscape:window-width="3768"
     inkscape:window-height="2089"
     id="namedview1576"
     showgrid="false"
     inkscape:zoom="42"
     inkscape:cx="6.8571429"
     inkscape:cy="12"
     inkscape:window-x="1920"
     inkscape:window-y="34"
     inkscape:window-maximized="1"
     inkscape:current-layer="svg1574" />
  <path
     d="M12,0C8.96,0 6.21,1.23 4.22,3.22L5.63,4.63C7.26,3 9.5,2 12,2C14.5,2 16.74,3 18.36,4.64L19.77,3.23C17.79,1.23 15.04,0 12,0M7.05,6.05L8.46,7.46C9.37,6.56 10.62,6 12,6C13.38,6 14.63,6.56 15.54,7.46L16.95,6.05C15.68,4.78 13.93,4 12,4C10.07,4 8.32,4.78 7.05,6.05M12,15A2,2 0 0,1 10,13A2,2 0 0,1 12,11A2,2 0 0,1 14,13A2,2 0 0,1 12,15M15,9H9A1,1 0 0,0 8,10V22A1,1 0 0,0 9,23H15A1,1 0 0,0 16,22V10A1,1 0 0,0 15,9Z"
     id="path1572"
     style="fill:#f6d000;fill-opacity:1" />
</svg>
