<?xml version="1.0" encoding="UTF-8" standalone="no"?>
<!-- Created with Inkscape (http://www.inkscape.org/) -->

<svg
   width="309"
   height="348"
   viewBox="0 0 81.756248 92.075003"
   version="1.1"
   id="svg5"
   inkscape:version="1.1 (c68e22c387, 2021-05-23)"
   sodipodi:docname="node_air-quality.svg"
   inkscape:export-filename="C:\Users\jfridisch\ownCloud\Git\jmqtt-crash-doc-logs\nouveau logo jmqtt\logo_eq.png"
   inkscape:export-xdpi="96"
   inkscape:export-ydpi="96"
   xmlns:inkscape="http://www.inkscape.org/namespaces/inkscape"
   xmlns:sodipodi="http://sodipodi.sourceforge.net/DTD/sodipodi-0.dtd"
   xmlns="http://www.w3.org/2000/svg"
   xmlns:svg="http://www.w3.org/2000/svg">
  <sodipodi:namedview
     id="namedview7"
     pagecolor="#505050"
     bordercolor="#ffffff"
     borderopacity="1"
     inkscape:pageshadow="0"
     inkscape:pageopacity="0"
     inkscape:pagecheckerboard="1"
     inkscape:document-units="px"
     showgrid="false"
     units="mm"
     inkscape:zoom="1"
     inkscape:cx="-56.499998"
     inkscape:cy="157.5"
     inkscape:window-width="1920"
     inkscape:window-height="1017"
     inkscape:window-x="1912"
     inkscape:window-y="-8"
     inkscape:window-maximized="1"
     inkscape:current-layer="svg5" />
  <defs
     id="defs5035" />
  <path
     style="fill:#f8d800;stroke-width:0.112339;fill-opacity:1"
     d="m 42.080067,87.479195 c -0.421944,-0.164873 -0.829831,-0.555154 -1.021672,-0.977574 -0.197997,-0.435979 -0.20925,-0.915361 -0.211587,-9.013603 l -0.0024,-8.553132 0.3651,-0.54402 c 0.265523,-0.395642 0.492294,-0.590754 0.831447,-0.715373 l 0.466344,-0.171352 -0.275914,-0.336457 C 41.029454,65.702065 41.092694,63.623087 42.37704,62.37825 l 0.374751,-0.363223 -1.271705,-0.256392 c -4.218426,-0.850487 -8.034321,-3.145734 -10.870789,-6.538738 -1.624656,-1.943426 -2.653303,-3.832212 -3.453852,-6.341904 -0.69802,-2.188272 -0.858971,-3.276568 -0.858724,-5.80641 2.26e-4,-2.421211 0.09481,-3.13675 0.688896,-5.212449 0.210428,-0.735218 0.351419,-1.434993 0.313313,-1.555055 -0.0381,-0.120063 -0.633108,-0.787503 -1.322225,-1.483202 -1.04859,-1.058604 -1.398539,-1.336321 -2.145649,-1.702768 -0.88755,-0.435329 -0.900535,-0.437859 -2.246776,-0.437856 -0.744735,2e-6 -1.642428,0.06629 -1.994871,0.14732 l -0.640806,0.147317 0.385284,0.536288 c 1.750416,2.436449 2.013429,5.917786 0.662876,8.774033 -1.175012,2.484998 -3.364593,4.238953 -6.282195,5.032324 -0.936161,0.254566 -3.320735,0.246188 -4.3812119,-0.01539 -2.9806464,-0.735219 -5.637922,-3.16844 -6.6443825,-6.084148 -0.2854078,-0.82682 -0.3106379,-1.037993 -0.3154213,-2.63996 -0.00453,-1.521631 0.027979,-1.846907 0.2578579,-2.578952 0.5397787,-1.718926 1.7697619,-3.599057 2.8726567,-4.391096 0.2834125,-0.203533 0.5152958,-0.389241 0.5152958,-0.412686 0,-0.02344 -0.460676,-0.481022 -1.0237247,-1.016836 -1.1300173,-1.075357 -1.7140403,-1.863856 -2.3099817,-3.118738 -0.4805481,-1.0119 -0.5277866,-1.565703 -0.15902,-1.864312 0.5774212,-0.467567 1.0392231,-0.160545 1.4577956,0.969189 0.4882628,1.317831 1.8325838,2.955576 3.1316278,3.815163 l 0.4198762,0.277835 0.954879,-0.328079 c 2.8918121,-0.993577 5.9322161,-0.56326 8.5153131,1.205197 l 0.732772,0.501675 1.582674,-0.292692 c 1.781996,-0.329554 2.601355,-0.359078 3.660941,-0.131916 1.533977,0.328866 2.525491,0.934486 4.068549,2.48508 l 1.066119,1.071326 0.402622,-0.763124 c 0.563974,-1.06894 1.443181,-2.308403 2.494929,-3.517232 2.690219,-3.092004 6.439984,-5.25974 10.533765,-6.08956 1.093358,-0.221626 1.599236,-0.255539 3.789427,-0.254034 2.217765,0.0015 2.679107,0.03392 3.763348,0.264336 3.349704,0.71184 6.417976,2.279583 9.064133,4.631347 l 0.79697,0.708306 0.749022,-0.785475 c 0.411961,-0.43201 0.912394,-1.07102 1.112072,-1.420022 0.799796,-1.397896 1.217423,-3.278509 1.094568,-4.928942 -0.109627,-1.472727 -0.139843,-1.452568 2.236955,-1.492337 2.167739,-0.03627 3.126889,-0.229944 4.493223,-0.907282 4.428098,-2.195151 5.693581,-8.219805 3.075131,-14.6399475 -0.275332,-0.6750836 0.224207,-1.1756471 0.983147,-0.9851651 0.314841,0.079019 0.667276,0.7936448 1.114488,2.2598257 0.906638,2.9723962 1.018478,5.9771879 0.322914,8.6755909 -0.878058,3.406375 -3.336399,5.912129 -6.628963,6.756806 -0.95552,0.245131 -2.555985,0.454576 -3.485022,0.456067 l -0.574108,8.98e-4 -0.06322,1.263812 c -0.07403,1.480051 -0.344576,2.529282 -0.975998,3.785118 -0.453855,0.902671 -1.542924,2.353317 -2.150667,2.864699 l -0.34336,0.288919 0.444449,0.532699 c 1.140949,1.367503 2.288149,3.517326 2.946023,5.520772 1.768446,5.385518 1.144405,11.221069 -1.70429,15.937227 -2.717539,4.499026 -7.408123,7.795162 -12.575989,8.837315 l -1.221004,0.246229 0.374736,0.363207 c 0.690866,0.669614 0.914826,1.278702 0.914475,2.487033 -3.38e-4,1.143206 -0.145728,1.577633 -0.780477,2.331988 l -0.286001,0.339894 0.301865,0.07577 c 0.487842,0.122442 0.897733,0.47784 1.148466,0.995787 0.23118,0.477574 0.234319,0.597531 0.234319,8.95087 0,8.353339 -0.0031,8.473296 -0.234319,8.950847 -0.128875,0.266222 -0.394275,0.598135 -0.589779,0.737585 -0.346662,0.247273 -0.433301,0.254084 -3.500943,0.275288 -1.730017,0.01195 -3.221314,-0.0079 -3.313993,-0.0441 z m 5.931487,-1.51668 c 0.102428,-0.102428 0.134806,-2.136758 0.134806,-8.469556 0,-7.49657 -0.01787,-8.341606 -0.177696,-8.402938 -0.355366,-0.136366 -5.274284,-0.07587 -5.416773,0.06662 -0.195099,0.195099 -0.195099,16.610777 0,16.805875 0.09707,0.09707 0.861264,0.134808 2.729831,0.134808 1.868568,0 2.632763,-0.03774 2.729832,-0.134809 z M 46.618107,66.619334 c 0.705581,-0.413498 1.142326,-1.276503 1.028876,-2.033047 -0.162396,-1.082934 -1.197787,-1.897646 -2.377107,-1.87046 -1.062882,0.0245 -1.802972,0.465944 -2.191112,1.306932 -0.370765,0.803338 -0.246034,1.509596 0.384343,2.176238 0.82577,0.873277 2.093838,1.04222 3.155,0.420337 z m 2.146116,-6.337053 c 6.208373,-1.34919 11.126975,-5.702934 13.095964,-11.592006 0.703344,-2.103644 0.926376,-3.698068 0.856674,-6.124216 -0.06323,-2.200801 -0.245542,-3.279843 -0.868125,-5.138129 -1.270197,-3.791284 -3.804699,-6.980594 -7.328187,-9.221479 -4.997501,-3.178334 -11.698977,-3.491371 -17.064225,-0.797099 -0.926337,0.46518 -2.458341,1.445412 -3.183799,2.037113 -0.633435,0.516642 -2.095856,1.997186 -2.695946,2.729354 -1.789796,2.183723 -3.072294,5.089947 -3.593662,8.143464 -0.246739,1.445082 -0.251116,3.995869 -0.0094,5.504599 0.737501,4.604181 3.403074,8.909594 7.141593,11.535055 2.201452,1.546021 4.892006,2.650519 7.470527,3.066726 1.437299,0.231999 4.811625,0.153694 6.178632,-0.143382 z M 43.596641,57.824338 C 37.855088,57.103784 33.043528,53.187424 31.248585,47.773661 c -0.593658,-1.79054 -0.77918,-3.16075 -0.710568,-5.247999 0.04872,-1.481969 0.111388,-1.959264 0.400347,-3.048919 0.767025,-2.892426 1.97381,-4.987185 4.023098,-6.983362 2.112486,-2.057737 4.542753,-3.336059 7.567961,-3.980755 1.436005,-0.306024 4.281814,-0.275016 5.785445,0.06304 4.488902,1.009213 8.2394,3.916364 10.222842,7.924102 1.017513,2.05599 1.515288,4.219232 1.516106,6.588739 0.0015,4.48105 -1.89177,8.502626 -5.393337,11.455939 -1.842119,1.553691 -4.679744,2.815523 -7.178731,3.192232 -0.97781,0.1474 -3.038594,0.193899 -3.885107,0.08767 z m 4.268872,-1.711525 c 1.954239,-0.409364 4.021906,-1.353165 5.560769,-2.538252 0.937117,-0.72168 2.232363,-2.132972 2.956461,-3.221343 2.445074,-3.675118 2.83356,-8.587933 1.005918,-12.720883 -0.421086,-0.952224 -0.85652,-1.659847 -1.667655,-2.710098 -0.906297,-1.173467 -1.80741,-1.998811 -3.179874,-2.912496 -2.162568,-1.43968 -4.107096,-2.061524 -6.753886,-2.159837 -2.632875,-0.09779 -4.696452,0.384423 -6.873194,1.606142 -3.904955,2.191693 -6.28641,5.762638 -6.848904,10.269791 -0.338462,2.712035 0.466625,6.09008 2.023418,8.489997 1.964593,3.028576 5.017431,5.131129 8.553196,5.890763 1.343363,0.288613 3.861335,0.291608 5.223751,0.0062 z m -3.161195,-2.273397 c -0.875511,-0.100692 -1.663475,-0.499183 -2.254131,-1.139971 -0.815667,-0.884893 -0.998461,-1.427649 -1.149478,-3.413069 -0.156815,-2.061641 -0.713836,-3.177272 -1.75852,-3.522048 -0.539503,-0.178053 -1.939748,-0.09065 -2.762301,0.172414 -0.598861,0.191528 -0.65577,0.192519 -0.925011,0.01611 -0.664443,-0.43536 -0.430932,-1.171892 0.463579,-1.462205 3.776642,-1.225703 6.274863,0.507579 6.505095,4.513279 0.117419,2.042889 0.55424,2.897661 1.646594,3.222056 0.31433,0.09335 0.756708,0.16972 0.983063,0.16972 0.704353,0 1.073701,0.72874 0.622205,1.227637 -0.243905,0.269513 -0.523437,0.313566 -1.371095,0.21608 z m 5.905558,-6.420756 c -1.122618,-0.318291 -1.97765,-1.048724 -2.590083,-2.212641 -0.374279,-0.711312 -0.385723,-2.381693 -0.02172,-3.169888 0.322881,-0.699145 1.194072,-1.617571 1.849364,-1.949632 1.961864,-0.994152 4.41945,-0.141406 5.365345,1.861696 0.250292,0.530041 0.291763,0.769558 0.291763,1.685082 0,1.00064 -0.02382,1.111147 -0.38185,1.771395 -0.454072,0.837362 -1.057128,1.411904 -1.874985,1.786331 -0.729937,0.334176 -1.90458,0.435553 -2.637837,0.227657 z m 2.200825,-1.720803 c 0.245889,-0.127051 0.597201,-0.443525 0.780691,-0.703277 0.45252,-0.640599 0.538192,-1.76671 0.186806,-2.455482 -0.399148,-0.782396 -1.335606,-1.378582 -2.16237,-1.376647 -1.46861,0.0034 -2.653529,1.485272 -2.334489,2.919465 0.15881,0.713908 0.517114,1.200932 1.167965,1.587559 0.487072,0.289335 0.651544,0.328729 1.23801,0.296523 0.396959,-0.02179 0.860981,-0.132556 1.123387,-0.268141 z M 37.660099,37.024529 c -0.256135,-0.283023 -0.23383,-1.081918 0.04758,-1.704319 0.254203,-0.562226 0.762443,-1.136664 1.30148,-1.470997 1.340576,-0.831479 3.885283,-0.76281 5.027514,0.135669 0.356331,0.280289 0.386373,0.789769 0.0655,1.11065 -0.287226,0.287227 -0.593302,0.2838 -1.207476,-0.01351 -1.019213,-0.493392 -2.688401,-0.357277 -3.384806,0.276017 -0.310426,0.282296 -0.575301,0.850002 -0.575301,1.233051 0,0.570039 -0.880015,0.869326 -1.274483,0.433444 z m -24.184088,8.746725 c 2.570743,-0.657486 4.668462,-2.597572 5.530548,-5.114954 0.264279,-0.771725 0.308218,-1.081251 0.310966,-2.190606 0.0028,-1.11178 -0.03821,-1.410872 -0.293771,-2.145262 -0.431962,-1.241268 -1.025442,-2.186594 -1.932696,-3.078489 -2.490569,-2.448409 -6.09479,-2.9882 -9.2027182,-1.378257 -1.3435867,0.695994 -2.6927698,2.058804 -3.3107479,3.344185 -0.6556795,1.363798 -0.8446786,2.268045 -0.763716,3.653923 0.071544,1.224742 0.2925838,2.009716 0.8720234,3.096855 0.681277,1.278206 2.3060879,2.782835 3.6444046,3.374835 1.5130557,0.669297 3.5596651,0.843411 5.1457071,0.43777 z m 59.827237,1.225112 c -1.26575,-0.186192 -2.334784,-0.762037 -3.268492,-1.760602 -2.150092,-2.299439 -1.603669,-5.907499 1.163587,-7.683242 1.183592,-0.759509 3.167316,-0.996253 4.599601,-0.548933 3.198034,0.998786 4.642669,4.612345 2.978908,7.451337 -0.342371,0.584214 -1.493987,1.679466 -2.080514,1.97869 -0.956246,0.487841 -2.341029,0.717509 -3.39309,0.56275 z m 2.385733,-1.815336 c 0.812217,-0.371845 1.500379,-1.001796 1.85167,-1.695037 0.949723,-1.874188 0.165911,-3.944157 -1.851621,-4.88994 -0.536442,-0.251475 -0.788958,-0.298353 -1.592418,-0.295619 -0.790491,0.0027 -1.064636,0.05414 -1.592419,0.298866 -0.826291,0.383143 -1.58156,1.086532 -1.940854,1.807542 -0.420313,0.843458 -0.407048,2.016238 0.03332,2.945588 0.881542,1.860416 3.20243,2.693822 5.092325,1.8286 z M 26.949416,27.76543 c -0.215921,-0.238575 -0.225867,-0.359965 -0.177192,-2.162522 0.04336,-1.605466 0.0162,-2.080686 -0.170435,-2.982513 -0.418773,-2.023595 -1.090062,-3.305531 -2.439753,-4.659112 -1.073235,-1.07633 -2.032353,-1.613886 -4.210984,-2.360124 -3.246546,-1.112027 -5.299059,-2.53516 -6.762376,-4.688766 -0.866169,-1.2747656 -1.480937,-2.9915251 -1.619728,-4.5231412 -0.07063,-0.779375 -0.05998,-0.8340633 0.216088,-1.1101312 0.364001,-0.3640013 0.682031,-0.368493 1.035893,-0.014629 0.217508,0.2175071 0.275741,0.3916469 0.275741,0.8245712 0,1.5683203 0.909228,3.5804577 2.269599,5.0226572 1.422921,1.508514 2.799601,2.297905 5.656536,3.243469 4.057331,1.34286 6.486314,4.23125 7.185997,8.545123 0.175341,1.081066 0.206315,3.089104 0.0632,4.097003 -0.133401,0.939461 -0.811226,1.33312 -1.322582,0.768117 z m 19.416139,-5.009373 c -0.382559,-0.409531 -1.370259,-2.310561 -1.739839,-3.348676 -0.629517,-1.768252 -0.81763,-4.19265 -0.463213,-5.969878 0.502536,-2.51997 2.194217,-4.2510232 5.140911,-5.260553 1.110399,-0.380421 3.155687,-0.7167492 4.358708,-0.7167492 1.096073,0 1.449241,0.1727121 1.449241,0.7087312 0,0.5779424 -0.199804,0.6677911 -1.820444,0.8186211 -4.104931,0.3820398 -6.623018,1.7080839 -7.390581,3.8919369 -0.707728,2.013616 -0.518095,4.467929 0.532898,6.896954 0.236998,0.547744 0.643577,1.321903 0.903507,1.720353 0.259931,0.398448 0.472601,0.783413 0.472601,0.855475 0,0.07206 -0.104772,0.264219 -0.232831,0.427017 -0.321155,0.408281 -0.816745,0.398773 -1.210958,-0.02323 z"
     id="path869" />
</svg>
