<?xml version="1.0" encoding="UTF-8" standalone="no"?>
<!-- Created with Inkscape (http://www.inkscape.org/) -->

<svg
   width="302"
   height="357"
   viewBox="0 0 79.904165 94.456253"
   version="1.1"
   id="svg2827"
   inkscape:version="1.1 (c68e22c387, 2021-05-23)"
   sodipodi:docname="node_custom.svg"
   xmlns:inkscape="http://www.inkscape.org/namespaces/inkscape"
   xmlns:sodipodi="http://sodipodi.sourceforge.net/DTD/sodipodi-0.dtd"
   xmlns="http://www.w3.org/2000/svg"
   xmlns:svg="http://www.w3.org/2000/svg">
  <sodipodi:namedview
     id="namedview2829"
     pagecolor="#505050"
     bordercolor="#ffffff"
     borderopacity="1"
     inkscape:pageshadow="0"
     inkscape:pageopacity="0"
     inkscape:pagecheckerboard="1"
     inkscape:document-units="mm"
     showgrid="false"
     units="px"
     inkscape:zoom="2.8284271"
     inkscape:cx="144.07301"
     inkscape:cy="187.20652"
     inkscape:window-width="1920"
     inkscape:window-height="1017"
     inkscape:window-x="1912"
     inkscape:window-y="-8"
     inkscape:window-maximized="1"
     inkscape:current-layer="layer1" />
  <defs
     id="defs2824" />
  <g
     inkscape:label="Calque 1"
     inkscape:groupmode="layer"
     id="layer1">
    <path
       style="fill:#f8d800;fill-opacity:1;stroke-width:0.0955946"
       d="m 22.901748,80.722884 -0.43108,-0.391771 v -3.335955 -3.335954 l -0.818325,-0.802633 -0.818325,-0.802633 -6.74e-4,1.991235 c -5.77e-4,1.743071 -0.02181,2.022899 -0.170582,2.245301 -0.575309,0.860066 -1.536482,0.954626 -2.130847,0.209632 -0.195299,-0.244843 -0.201008,-0.348054 -0.201008,-3.634585 v -3.382586 l -0.866462,-0.850327 -0.866461,-0.850326 v 2.140377 2.140377 l -0.338507,0.38991 c -0.600617,0.691825 -1.191836,0.721972 -1.851716,0.09442 l -0.312888,-0.297558 v -3.519715 -3.519714 l -0.673915,-0.659352 -0.673915,-0.659352 v 2.109162 2.109162 l -0.343308,0.374661 c -0.55615,0.606939 -1.119435,0.699183 -1.671851,0.273782 -0.536501,-0.413146 -0.523455,-0.30873 -0.500984,-4.009966 L 10.251693,61.32373 6.6301992,57.66929 C 4.6383775,55.659348 2.947031,53.877401 2.8716516,53.709408 2.6931739,53.311645 2.6805573,51.413549 2.8549401,51.195258 2.9211281,51.112405 14.039893,43.774673 27.563305,34.889186 50.074594,20.098264 52.176428,18.738706 52.448511,18.792358 c 0.16345,0.03223 0.471148,0.22173 0.683773,0.421111 0.212625,0.19938 2.942549,2.707905 6.066497,5.574502 12.612982,11.573917 17.438963,16.019111 17.700189,16.303579 l 0.274452,0.298873 -0.05704,1.186507 c -0.04457,0.927246 -0.09403,1.233021 -0.226315,1.399381 -0.0931,0.117082 -10.393526,7.220725 -22.889827,15.785875 l -22.720549,15.573 -0.02988,0.491548 c -0.06407,1.053816 -1.084633,1.710933 -1.895587,1.220521 l -0.288821,-0.174659 -0.911376,0.607433 c -0.724519,0.482892 -0.961384,0.595486 -1.155282,0.549161 -0.134148,-0.03205 -0.644644,-0.449979 -1.134436,-0.928732 l -0.89053,-0.87046 v 2.027676 2.027676 l -0.420563,0.414652 c -0.361575,0.356494 -0.476655,0.414653 -0.820476,0.414653 -0.33481,0 -0.47009,-0.06378 -0.830992,-0.391771 z M 48.801473,59.613053 c 11.596144,-7.92471 22.283728,-15.224015 23.750185,-16.220676 1.466457,-0.996662 2.668673,-1.835658 2.67159,-1.864436 0.0097,-0.09591 -22.926464,-21.11534 -23.014409,-21.091122 -0.07017,0.01932 -47.4098075,31.1042 -47.5387787,31.215638 -0.067638,0.05844 0.6346279,0.770196 11.6715867,11.829286 l 10.868906,10.890699 0.25351,-0.175412 c 0.139431,-0.09648 9.741266,-6.659266 21.33741,-14.583977 z m -25.437921,8.583568 c -1.021858,-0.498705 -1.046523,-1.722855 -0.04632,-2.298798 0.649661,-0.37409 1.788009,-0.128933 2.186652,0.470923 0.243792,0.366845 0.240838,0.997194 -0.0062,1.331372 -0.25596,0.34619 -0.952207,0.69521 -1.386661,0.695114 -0.187345,-4.1e-5 -0.523691,-0.08942 -0.747435,-0.198611 z m 5.326779,-3.243744 c -0.407463,-0.230318 -0.732073,-0.727812 -0.732073,-1.121967 0,-0.294394 0.328954,-0.799923 0.69399,-1.066509 0.156819,-0.114526 0.463821,-0.206135 0.770189,-0.229826 1.244873,-0.09626 2.124583,1.061437 1.496231,1.96904 -0.460365,0.664961 -1.482253,0.870987 -2.228337,0.449262 z m -9.177662,-0.356706 c -0.748991,-0.16321 -1.218384,-0.74277 -1.148419,-1.417956 0.05744,-0.554346 0.600379,-1.087126 1.211602,-1.188941 0.869529,-0.144841 1.745153,0.375139 1.88699,1.120571 0.173049,0.909464 -0.887629,1.71786 -1.950173,1.486326 z m 5.391317,-3.322218 c -1.110707,-0.242029 -1.530879,-1.386527 -0.786876,-2.143355 0.632996,-0.643908 1.687121,-0.664861 2.314792,-0.04601 0.444413,0.438168 0.540157,0.776808 0.361937,1.280151 -0.2349,0.663422 -1.102439,1.080797 -1.889853,0.909216 z m -9.599505,-0.487756 c -1.196949,-0.26475 -1.566926,-1.482193 -0.682977,-2.247402 0.626382,-0.542243 1.660042,-0.488532 2.255508,0.1172 0.980157,0.997053 -0.09723,2.456519 -1.572531,2.130202 z m 22.758722,-5.570329 0.0038,-1.47814 c 0,0 3.404385,-2.292093 6.871109,-4.616947 L 45.37754,49.5333 c 0.2417,0.226884 5.502634,4.595589 5.502634,4.595589 l 0.01457,1.221611 -6.934481,4.665597 z m -17.662416,2.246149 c -0.667081,-0.244449 -1.002287,-0.66516 -1.0071,-1.263995 -0.0042,-0.52107 0.275519,-0.929232 0.812387,-1.185472 1.038986,-0.495895 2.263235,0.141902 2.264234,1.179599 8.66e-4,0.902381 -1.148226,1.607472 -2.069521,1.269868 z m -9.577999,-1.052789 c -1.3393749,-0.698325 -0.767406,-2.441838 0.801058,-2.441838 0.935372,0 1.556428,0.537244 1.556428,1.346385 0,0.3635 -0.0527,0.499874 -0.28882,0.747324 -0.5662,0.593379 -1.34644,0.724683 -2.068666,0.348129 z M 23.82988,45.700359 C 23.81745,45.196222 23.8185,44.804242 23.8185,44.285275 l 2.555299,-1.684727 c 1.405415,-0.9266 2.802585,-1.841939 3.104821,-2.034087 0.302237,-0.192147 0.592845,-0.385425 0.645795,-0.429506 0.252323,-0.210056 3.038223,-2.021289 3.108991,-2.021289 0.04441,0 0.209421,0.138821 0.366694,0.308492 2.34367,2.163561 4.911919,4.540009 7.14758,6.525779 l 0.697479,0.616984 c -0.02588,0.483841 -0.13903,1.448952 -0.13903,1.448952 l -9.352519,6.282785 c 0,0 -5.837746,-5.393044 -8.123727,-7.598299 z m -7.981079,7.159966 c -0.69705,-0.338734 -0.975724,-1.166738 -0.582863,-1.731822 0.389334,-0.560013 0.694739,-0.720632 1.370228,-0.720632 0.483359,0 0.671237,0.04667 0.955235,0.237302 1.19626,0.802965 0.569426,2.377625 -0.943779,2.370851 -0.265578,-0.0012 -0.625048,-0.07125 -0.798821,-0.155699 z M 51.303939,40.767191 c -1.482257,-1.465213 -4.114905,-4.034242 -5.850328,-5.708953 l -3.155314,-3.044931 -2.384097,1.566722 -2.384095,1.566723 -0.473081,-0.404642 -0.473081,-0.404643 1.246953,-0.801452 c 0.685824,-0.4408 3.586399,-2.331182 6.445722,-4.20085 2.859323,-1.869667 6.200494,-4.050085 7.424825,-4.845375 l 2.226056,-1.445979 1.226194,1.211651 1.226193,1.211651 -3.624126,2.451786 -3.624126,2.451785 0.468201,0.461621 0.468202,0.461622 3.723477,-2.426742 c 2.047912,-1.334707 3.755796,-2.424813 3.795299,-2.422456 0.0395,0.0024 0.712578,0.611034 1.495724,1.352617 l 1.423899,1.348332 -3.758532,2.409106 c -2.067194,1.325009 -3.756845,2.435579 -3.754781,2.467934 0.0021,0.03235 0.233107,0.310328 0.513427,0.617719 l 0.509674,0.558893 3.805327,-2.508366 3.805327,-2.508366 1.268222,1.190109 c 0.697522,0.65456 1.266821,1.215795 1.265109,1.247188 -0.0017,0.03139 -1.650018,1.20495 -3.662904,2.607903 l -3.659793,2.550823 0.514409,0.50718 0.514408,0.507179 3.691151,-2.524395 c 2.030133,-1.388416 3.727698,-2.512382 3.772366,-2.497702 0.12472,0.04099 7.299321,6.825794 7.299321,6.902749 0,0.102222 -0.857812,0.688447 -0.955336,0.652873 -0.04675,-0.01705 -1.524522,-1.386203 -3.283947,-3.042559 l -3.198956,-3.011557 -1.166761,0.7918 c -0.641719,0.43549 -2.312909,1.568148 -3.713755,2.517017 l -2.546994,1.725216 -1.396005,-1.376386 c -0.767803,-0.757011 -1.37624,-1.3922 -1.352083,-1.411529 0.02416,-0.01933 1.625214,-1.095503 3.557904,-2.391498 1.932691,-1.295994 3.555411,-2.392705 3.606045,-2.437136 0.05559,-0.04878 -0.09415,-0.267177 -0.377923,-0.551236 L 61.331372,31.668184 60.74656,32.07574 c -0.321647,0.224156 -1.976954,1.332138 -3.67846,2.462184 l -3.093647,2.054629 -1.455326,-1.383139 c -0.80043,-0.760726 -1.434137,-1.416943 -1.408238,-1.458259 0.0259,-0.04131 1.717152,-1.155657 3.758342,-2.476314 l 3.711256,-2.401194 -0.552551,-0.550529 c -0.547521,-0.545519 -0.554784,-0.549108 -0.797883,-0.394353 -0.134932,0.0859 -1.813631,1.217092 -3.73044,2.513765 -1.916811,1.296674 -3.520345,2.357588 -3.56341,2.357588 -0.04306,0 -0.675017,-0.589459 -1.404337,-1.309908 l -1.326037,-1.309908 3.622462,-2.402996 3.622463,-2.402995 -0.367127,-0.370688 c -0.228447,-0.230665 -0.422635,-0.350261 -0.514077,-0.31661 -0.316091,0.116326 -10.097717,6.552607 -10.094023,6.641837 0.0022,0.05221 2.609383,2.636417 5.793827,5.74269 l 5.789897,5.647771 -0.481367,0.352889 c -0.264753,0.19409 -0.503319,0.354268 -0.53015,0.355952 -0.02683,0.0017 -1.261537,-1.195749 -2.743795,-2.660961 z M 65.583014,26.938776 c -0.172757,-0.182751 -0.26641,-0.415252 -0.312292,-0.775295 -0.08704,-0.683031 -0.250772,-1.045171 -0.68854,-1.522918 -0.434012,-0.473648 -0.922519,-0.735513 -1.606105,-0.860955 -0.746378,-0.136966 -1.003819,-0.267203 -1.13219,-0.572762 -0.135211,-0.32184 -0.07324,-0.639888 0.186,-0.954632 0.163596,-0.198619 0.258649,-0.223527 0.795479,-0.20845 1.636087,0.04595 3.082107,1.022559 3.808173,2.571951 0.286102,0.610526 0.343009,0.840858 0.352413,1.42637 0.0105,0.653665 -0.006,0.712945 -0.258906,0.927996 -0.374083,0.318142 -0.825368,0.305793 -1.144032,-0.0313 z m 4.364014,-0.0095 c -0.271591,-0.286653 -0.28077,-0.329007 -0.326655,-1.507223 -0.07123,-1.828957 -0.505813,-2.906056 -1.653311,-4.097648 -1.211739,-1.258301 -2.491397,-1.80812 -4.435742,-1.90586 -0.635405,-0.03194 -1.249289,-0.109259 -1.364187,-0.171817 -0.114899,-0.06256 -0.259899,-0.266082 -0.322224,-0.452275 -0.185201,-0.553277 0.03987,-0.914979 0.698216,-1.12208 0.0919,-0.02891 0.702386,-0.01516 1.35664,0.03055 2.284218,0.159601 4.016043,0.974507 5.503098,2.589466 1.209954,1.314023 1.813911,2.735565 1.993047,4.691064 0.154649,1.688191 0.01653,2.083926 -0.763332,2.187057 -0.364116,0.04815 -0.435001,0.02321 -0.68555,-0.241234 z m 4.407657,-0.007 -0.281416,-0.27746 V 25.22614 c 0,-1.571697 -0.159024,-2.694473 -0.529849,-3.740937 -0.991545,-2.798132 -3.39666,-5.098685 -6.261403,-5.989187 -1.034606,-0.321606 -2.017446,-0.446103 -3.52176,-0.446103 -0.893032,0 -1.325037,-0.03858 -1.514667,-0.135262 -0.258649,-0.131873 -0.49533,-0.498118 -0.49533,-0.766483 0,-0.258637 0.21645,-0.597248 0.448377,-0.701436 0.347046,-0.155903 3.119371,-0.133189 4.088862,0.0335 2.259764,0.388532 4.307881,1.402389 5.947769,2.944259 1.905403,1.791517 3.12068,4.085284 3.467679,6.545051 0.110785,0.785316 0.14234,3.544699 0.04344,3.798801 -0.07802,0.200471 -0.536997,0.431395 -0.857419,0.431395 -0.151125,0 -0.366103,-0.111641 -0.534285,-0.27746 z"
       id="path2928"
       sodipodi:nodetypes="scccccsscscccccsscccccccssscsssssssscssscsscssscccssssscssscsscsscsccssssssssssssssssssssscccsccccscssssssssccsssscccccccsscscsscccccssscccccccscscscscccssscccssssscsscssssscsscssscssssscccsscscscsssssssssscssscssssssssssccssssssssssssscc" />
  </g>
</svg>
