<?xml version="1.0" encoding="UTF-8" standalone="no"?>
<!-- Created with Inkscape (http://www.inkscape.org/) -->

<svg
   version="1.1"
   id="svg2711"
   width="307"
   height="352"
   viewBox="0 0 307 352"
   sodipodi:docname="node_old-phone.svg"
   inkscape:version="1.1 (c68e22c387, 2021-05-23)"
   xmlns:inkscape="http://www.inkscape.org/namespaces/inkscape"
   xmlns:sodipodi="http://sodipodi.sourceforge.net/DTD/sodipodi-0.dtd"
   xmlns="http://www.w3.org/2000/svg"
   xmlns:svg="http://www.w3.org/2000/svg">
  <defs
     id="defs2715" />
  <sodipodi:namedview
     id="namedview2713"
     pagecolor="#505050"
     bordercolor="#ffffff"
     borderopacity="1"
     inkscape:pageshadow="0"
     inkscape:pageopacity="0"
     inkscape:pagecheckerboard="1"
     showgrid="false"
     inkscape:zoom="2.3636364"
     inkscape:cx="184.25"
     inkscape:cy="154.63461"
     inkscape:window-width="1920"
     inkscape:window-height="1017"
     inkscape:window-x="1912"
     inkscape:window-y="-8"
     inkscape:window-maximized="1"
     inkscape:current-layer="layer1" />
  <g
     inkscape:groupmode="layer"
     id="layer1"
     inkscape:label="all">
    <path
       id="path3040"
       style="fill:#f8d800;fill-opacity:1"
       d="M 151.26391,52.161344 C 106.89836,52.93604 63.011553,70.171209 29.082269,102.9172 c -10.370695,10.00902 -12.633194,16.44502 -8.632813,24.55469 2.743901,5.5625 31.751612,35.28268 34.994141,35.85352 8.220142,1.44715 11.868706,-0.13527 21.980469,-9.5293 4.312941,-4.00681 11.060176,-9.30373 14.992187,-11.77148 3.932012,-2.46774 8.543617,-5.38633 10.249997,-6.48633 4.97444,-3.20671 6.4749,-7.56578 8.76954,-25.5 1.16112,-9.075 2.45228,-16.842209 2.86914,-17.259769 0.41687,-0.41756 5.22982,-1.917208 10.69726,-3.333984 11.98657,-3.106076 31.6737,-4.244875 44.21485,-2.556641 12.44709,1.675571 23.25333,5.067357 24.1582,7.582032 0.4094,1.13775 1.51831,8.368362 2.46484,16.068362 2.4809,20.18203 3.25399,21.77741 13.62305,28.12695 6.3653,3.92862 16.17755,11.72918 22.55859,17.31641 7.83163,7.43927 11.1656,8.84025 18.17188,7.63281 3.19819,-0.55117 6.07949,-3.03231 19.58594,-16.86133 8.71024,-8.91827 16.47274,-17.66376 17.25,-19.43359 1.59172,-3.6244 1.86076,-10.97906 0.52929,-14.4668 -2.16537,-5.67214 -20.704,-22.077753 -36.36328,-32.179687 -30.62858,-19.758771 -65.4251,-29.11426 -99.93164,-28.511719 z m 3.11133,90.882816 c -59.819641,-0.006 -59.942737,0.007 -67.558596,7.32617 -4.244893,4.07953 -11.793944,17.37654 -36.652344,64.5625 l -8.220703,15.60547 -0.324219,25.5 c -0.200597,15.81453 0.07446,26.82938 0.722657,29 1.474609,4.93802 6.744745,10.93203 11.53125,13.11523 3.888935,1.77381 8.42893,1.84644 101.644535,1.6211 l 97.57226,-0.23633 3.94141,-2.60742 c 2.34049,-1.549 5.15195,-4.79712 6.92578,-8 l 2.98633,-5.39258 0.32031,-22.3125 c 0.19785,-13.82354 -0.10338,-24.28651 -0.79101,-27.5 -0.71191,-3.32691 -7.78669,-17.73875 -19.72852,-40.1875 -10.24023,-19.25 -19.69219,-36.71079 -21.0039,-38.80078 -2.62012,-4.17465 -9.74727,-9.17505 -15.26172,-10.70703 -2.10556,-0.58495 -24.78775,-0.98333 -56.10352,-0.98633 z m -1,32.99414 c 7.01363,0 12.06836,5.25682 12.06836,12.55078 0,2.81726 -0.77585,4.42429 -3.40039,7.04883 -2.83107,2.83107 -4.13235,3.40039 -7.77734,3.40039 -4.99847,0 -8.17607,-1.8501 -10.32813,-6.01172 -2.61366,-5.05426 -1.93338,-8.78342 2.38867,-13.10547 2.87546,-2.87546 4.70297,-3.88281 7.04883,-3.88281 z m 34,0 c 7.01363,0 12.06836,5.25682 12.06836,12.55078 0,2.81726 -0.77585,4.42429 -3.40039,7.04883 -2.83107,2.83107 -4.13235,3.40039 -7.77734,3.40039 -4.99847,0 -8.17607,-1.8501 -10.32813,-6.01172 -2.61366,-5.05426 -1.93338,-8.78342 2.38867,-13.10547 2.87546,-2.87546 4.70297,-3.88281 7.04883,-3.88281 z m -67.17187,0.0937 c 8.77341,-0.1496 15.96387,11.38182 7.83984,19.50586 -2.85139,2.85144 -4.12058,3.40039 -7.86523,3.40039 -11.08752,0 -15.59356,-12.52607 -7.16797,-19.92383 2.05466,-1.80402 4.22897,-2.71273 6.33984,-2.93164 0.28585,-0.0296 0.5705,-0.046 0.85352,-0.0508 z m -0.67579,33.9063 c 3.75898,0 8.30569,2.29034 10.35547,5.2168 0.85838,1.22552 1.56055,4.19784 1.56055,6.60547 0,3.64499 -0.56932,4.94627 -3.40039,7.77734 -2.8644,2.8644 -4.11132,3.40039 -7.92188,3.40039 -3.69696,0 -5.07362,-0.55018 -7.53711,-3.01367 -3.65967,-3.65963 -4.52712,-6.11419 -3.70507,-10.4961 0.8209,-4.37578 6.55911,-9.49023 10.64843,-9.49023 z m 33.84766,0 c 7.00904,0 12.06836,5.05725 12.06836,12.06445 0,3.36942 -0.63001,4.76478 -3.40039,7.53516 -2.82723,2.82723 -4.13281,3.39853 -7.75,3.39453 -6.75754,-0.008 -11.84961,-5.18474 -11.84961,-12.04687 0,-4.46619 6.47201,-10.94727 10.93164,-10.94727 z m 34,0 c 7.01363,0 12.06836,5.25682 12.06836,12.55078 0,2.81726 -0.77585,4.42429 -3.40039,7.04883 -2.83107,2.83107 -4.13235,3.40039 -7.77734,3.40039 -4.99847,0 -8.17607,-1.8501 -10.32813,-6.01172 -2.61366,-5.05426 -1.93338,-8.78342 2.38867,-13.10547 2.87546,-2.87546 4.70297,-3.88281 7.04883,-3.88281 z m -67.89648,34 c 7.01485,0 11.96484,4.89098 11.96484,11.82227 0,3.64499 -0.56932,4.94627 -3.40039,7.77734 -2.79182,2.79182 -4.15398,3.40039 -7.61719,3.40039 -3.58942,0 -4.81575,-0.59701 -8.23047,-4.01172 -3.72753,-3.72754 -3.97132,-4.31375 -3.44336,-8.25 0.7213,-5.37764 6.07601,-10.73828 10.72657,-10.73828 z m 33.89648,0 c 7.11716,0 12.06836,4.84988 12.06836,11.82227 0,3.64499 -0.56932,4.94627 -3.40039,7.77734 -2.79182,2.79182 -4.15398,3.40039 -7.61719,3.40039 -3.56595,0 -4.81714,-0.60035 -8.09961,-3.88281 -3.12397,-3.12398 -3.88281,-4.61155 -3.88281,-7.61719 0,-5.02514 6.1547,-11.5 10.93164,-11.5 z m 34,0 c 7.11716,0 12.06836,4.84988 12.06836,11.82227 0,3.64499 -0.56932,4.94627 -3.40039,7.77734 -2.71502,2.71502 -4.17564,3.39137 -7.25,3.35937 -7.29798,-0.0759 -12.34961,-4.99556 -12.34961,-12.02734 0,-4.44995 6.48169,-10.93164 10.93164,-10.93164 z" />
  </g>
</svg>
