<?xml version="1.0" encoding="UTF-8" standalone="no"?>
<!-- Created with Inkscape (http://www.inkscape.org/) -->

<svg
   version="1.1"
   id="svg2"
   width="307"
   height="352"
   viewBox="0 0 307 352"
   sodipodi:docname="node_light.svg"
   inkscape:version="1.1 (c68e22c387, 2021-05-23)"
   xmlns:inkscape="http://www.inkscape.org/namespaces/inkscape"
   xmlns:sodipodi="http://sodipodi.sourceforge.net/DTD/sodipodi-0.dtd"
   xmlns="http://www.w3.org/2000/svg"
   xmlns:svg="http://www.w3.org/2000/svg">
  <defs
     id="defs6" />
  <sodipodi:namedview
     id="namedview4"
     pagecolor="#505050"
     bordercolor="#ffffff"
     borderopacity="1"
     inkscape:pageshadow="0"
     inkscape:pageopacity="0"
     inkscape:pagecheckerboard="1"
     showgrid="false"
     inkscape:zoom="2.3636364"
     inkscape:cx="153.36538"
     inkscape:cy="175.78846"
     inkscape:window-width="1920"
     inkscape:window-height="1017"
     inkscape:window-x="1912"
     inkscape:window-y="-8"
     inkscape:window-maximized="1"
     inkscape:current-layer="g8" />
  <g
     inkscape:groupmode="layer"
     inkscape:label="Image"
     id="g8">
    <path
       style="fill:#f8d800;fill-opacity:1"
       d="m 145.6183,320.13771 c -18.54237,-4.59455 -32.44353,-22.19382 -32.48813,-41.13088 -0.0601,-25.50801 23.80297,-45.98131 48.63631,-41.72754 23.94816,4.10214 40.13502,26.72691 35.409,49.49203 -4.93596,23.77635 -28.55955,39.06489 -51.55718,33.36639 z m 23.65528,-5.50967 c 6.09133,-2.32022 12.01642,-6.61778 16.36413,-11.86916 2.67288,-3.22842 2.68826,-3.32512 0.85133,-5.35099 -1.60735,-1.77267 -1.94114,-4.26485 -2.37074,-17.7007 -0.45703,-14.29366 -0.66158,-15.66847 -2.38017,-15.99739 -1.0341,-0.19792 -2.26471,0.24692 -2.73469,0.98854 -0.46998,0.74161 -0.86141,7.66076 -0.86983,15.37588 -0.018,16.48164 -0.76347,18.47251 -6.91703,18.47251 -6.46294,0 -7.00478,-1.4098 -7.32115,-19.04876 l -0.27713,-15.45124 h -2.5 -2.5 l -0.5,15.22178 c -0.56255,17.12598 -1.36206,19.27822 -7.16147,19.27822 -6.23571,0 -6.83853,-1.58274 -6.83853,-17.95499 0,-15.01536 -0.48523,-17.04501 -4.075,-17.04501 -2.30368,0 -2.925,3.88946 -2.925,18.31055 0,11.00654 -0.19002,12.26281 -2.17431,14.375 -2.64658,2.81714 -7.22802,3.03534 -9.44193,0.44969 -1.30158,-1.52014 -1.57883,-4.3385 -1.5002,-15.25 0.12898,-17.89653 -2.54059,-23.16038 -5.77402,-11.38524 -5.34373,19.46024 8.12045,41.31861 28.62493,46.47101 5.63702,1.41648 16.0437,0.53937 22.42081,-1.8897 z M 131.9183,293.34673 c 0.81968,-0.81968 1.2,-5.66167 1.2,-15.27749 0,-16.89866 0.65752,-18.52251 7.5,-18.52251 6.89616,0 7.5,1.55017 7.5,19.25389 0,12.81968 0.22091,14.89365 1.64461,15.43997 3.42382,1.31385 4.35539,-2.33428 4.35539,-17.05625 0,-15.91666 0.66605,-17.63761 6.82625,-17.63761 6.57209,0 7.17375,1.47385 7.17375,17.5732 0,15.55075 0.32296,17.4268 3,17.4268 2.66477,0 3,-1.88392 3,-16.85928 0,-16.12065 0.76854,-18.14072 6.90172,-18.14072 6.42716,0 7.00277,1.45846 7.32039,18.54792 0.2266,12.19225 0.5427,14.95208 1.71254,14.95208 2.27427,0 4.22013,-8.99826 3.69868,-17.10386 -1.25005,-19.43151 -18.67655,-35.3329 -38.77799,-35.38427 -10.27534,-0.0263 -23.19522,6.32291 -29.38796,14.44202 l -2.7274,3.57579 2.63001,2.43741 c 2.61299,2.42164 2.63001,2.53369 2.63001,17.31849 0,16.27876 0.51213,18.30229 3.8,15.01442 z m 15.84602,-87.25225 -2.64602,-2.45225 v -18.35158 -18.35159 l 3.40183,-3.29718 c 2.84371,-2.75623 3.89312,-3.18928 6.39631,-2.63949 6.35393,1.39556 6.70186,2.65385 6.70186,24.23768 0,19.26937 -0.0259,19.50436 -2.36078,21.39501 -3.31802,2.68677 -8.26172,2.45423 -11.4932,-0.5406 z M 91.583584,183.59521 c -3.076415,-1.247 -4.585055,-3.55633 -4.687973,-7.17607 -0.08323,-2.92722 1.246887,-4.5442 12.814911,-15.57868 7.099278,-6.77184 13.920278,-12.58201 15.157778,-12.91149 5.5463,-1.47669 11.27726,3.80578 9.65934,8.90341 -0.77608,2.44519 -21.242,22.82091 -25.909338,25.79514 -3.284369,2.09295 -4.01177,2.19301 -7.034718,0.96769 z m 117.850576,-0.31014 c -4.18434,-2.37239 -26.33617,-24.97108 -26.97593,-27.52009 -0.51483,-2.05124 -0.0139,-3.12034 2.52469,-5.38859 5.88322,-5.25666 8.59126,-3.89479 25.01569,12.58035 10.46741,10.49972 11.32469,11.64305 10.68695,14.25272 -1.33915,5.47985 -6.95428,8.51196 -11.2514,6.07561 z m -67.4372,-25.7034 c -4.97824,-1.5063 -15.77812,-8.15641 -18.75816,-11.55048 -4.77906,-5.44305 -7.99547,-11.6564 -9.78229,-18.89709 -1.38486,-5.61184 -1.47305,-7.76051 -0.52728,-12.84614 1.62247,-8.72441 5.70932,-16.081639 12.34657,-22.22656 6.97484,-6.457472 14.37957,-10.229157 22.71899,-11.572182 16.6444,-2.680502 35.11452,7.156295 42.79126,22.789722 2.56363,5.22076 2.83225,6.76363 2.83225,16.26779 0,9.25516 -0.31242,11.16629 -2.63517,16.12001 -1.44934,3.09101 -4.27233,7.43217 -6.27332,9.64702 -4.39674,4.86666 -14.26203,10.91469 -19.94301,12.22629 -4.93047,1.13833 -19.05992,1.16415 -22.76984,0.0416 z m 21.62134,-7.53159 c 18.57418,-3.11718 30.20026,-26.44943 21.58955,-43.32782 -4.98901,-9.779259 -15.89494,-17.578096 -25.67757,-18.362038 l -3.91198,-0.313491 -0.26502,30.489669 c -0.14576,16.76931 -0.0355,31.08784 0.24507,31.81895 0.28056,0.7311 1.29982,1.11255 2.26502,0.84765 0.96521,-0.2649 3.55493,-0.78371 5.75493,-1.15292 z M 64.380729,126.01799 c -1.200422,-0.84081 -2.480351,-3.11597 -2.844287,-5.05592 -0.536951,-2.86219 -0.228816,-3.98796 1.634393,-5.97126 2.291763,-2.43947 2.335159,-2.44408 22.999336,-2.44408 22.725069,0 22.580929,-0.0376 23.586839,6.16108 0.40288,2.48266 -0.013,4.04508 -1.62097,6.08923 l -2.1629,2.74969 H 86.268228 c -16.061668,0 -20.108452,-0.28265 -21.887499,-1.52874 z M 199.675,125.32422 c -2.14952,-3.06888 -2.0029,-9.06371 0.27204,-11.1225 1.57414,-1.42458 4.60222,-1.65286 21.75,-1.63968 10.95669,0.008 20.45561,0.35508 21.1087,0.77035 1.8323,1.16509 3.43693,6.2369 2.71975,8.59642 -1.67539,5.51201 -2.12795,5.61792 -24.00547,5.61792 -19.83175,0 -20.32334,-0.05 -21.84502,-2.22251 z M 112.6183,90.648702 C 107.81089,87.619146 87.286222,66.241413 87.077866,64.046731 c -0.506575,-5.335932 2.340363,-8.5 7.648057,-8.5 3.279367,0 4.795859,1.169955 16.666667,12.858167 11.50975,11.332701 13.05904,13.249684 13.05904,16.158264 0,2.351895 -0.78222,3.972938 -2.72243,5.641833 -3.29358,2.833021 -5.17412,2.924604 -9.1109,0.443707 z m 74.857,0.927982 c -2.68198,-1.109261 -5.35074,-4.833125 -5.37676,-7.502459 -0.0128,-1.309275 4.85803,-6.73424 13.75,-15.314393 13.31136,-12.844576 13.89959,-13.277348 17.66979,-13 2.8615,0.210502 4.42734,0.996006 5.88026,2.949846 2.75296,3.7021 1.68297,6.974877 -4.14031,12.663972 C 193.35931,92.768 192.27031,93.559892 187.4753,91.576684 Z M 147.75316,75.474151 145.1183,73.401571 V 54.563044 35.724518 l 3.07673,-2.588893 c 4.03189,-3.392619 7.37495,-3.291058 11.00019,0.334183 l 2.92308,2.923077 v 17.9309 c 0,17.647178 -0.0388,17.972769 -2.45225,20.576923 -3.05673,3.29827 -8.13789,3.542858 -11.91289,0.573443 z"
       id="path845" />
  </g>
</svg>
