<?xml version="1.0" encoding="UTF-8" standalone="no"?>
<!-- Svg Vector Icons : http://www.onlinewebfonts.com/icon -->

<svg
   xmlns:dc="http://purl.org/dc/elements/1.1/"
   xmlns:cc="http://creativecommons.org/ns#"
   xmlns:rdf="http://www.w3.org/1999/02/22-rdf-syntax-ns#"
   xmlns:svg="http://www.w3.org/2000/svg"
   xmlns="http://www.w3.org/2000/svg"
   xmlns:sodipodi="http://sodipodi.sourceforge.net/DTD/sodipodi-0.dtd"
   xmlns:inkscape="http://www.inkscape.org/namespaces/inkscape"
   version="1.1"
   x="0px"
   y="0px"
   viewBox="0 0 309 309"
   enable-background="new 0 0 1000 1000"
   xml:space="preserve"
   id="svg22"
   sodipodi:docname="node_433.svg"
   width="309"
   height="309"
   inkscape:version="0.92.3 (2405546, 2018-03-11)"><defs
   id="defs26" /><sodipodi:namedview
   pagecolor="#ffffff"
   bordercolor="#666666"
   borderopacity="1"
   objecttolerance="10"
   gridtolerance="10"
   guidetolerance="10"
   inkscape:pageopacity="0"
   inkscape:pageshadow="2"
   inkscape:window-width="2493"
   inkscape:window-height="1385"
   id="namedview24"
   showgrid="false"
   inkscape:snap-text-baseline="true"
   inkscape:zoom="1.888"
   inkscape:cx="189.30903"
   inkscape:cy="233.18758"
   inkscape:window-x="67"
   inkscape:window-y="27"
   inkscape:window-maximized="1"
   inkscape:current-layer="svg22" />
<metadata
   id="metadata2"> Svg Vector Icons : http://www.onlinewebfonts.com/icon <rdf:RDF><cc:Work
     rdf:about=""><dc:format>image/svg+xml</dc:format><dc:type
       rdf:resource="http://purl.org/dc/dcmitype/StillImage" /><dc:title></dc:title></cc:Work></rdf:RDF></metadata>
<g
   id="g20"
   transform="matrix(0.31530335,0,0,0.31530335,-3.1525676,14.279653)"
   style="fill:#f8d800;fill-opacity:1"><g
     transform="matrix(0.1,0,0,-0.1,0,511)"
     id="g18"
     style="fill:#f8d800;fill-opacity:1"><path
       d="M 1216.1,4281.1 C 183.9,3195.2 -164.7,1624.9 306.4,188.5 c 84.3,-256.6 247,-610.9 379.2,-825.4 109.2,-176.2 383,-545.8 459.6,-616.7 l 55.5,-53.6 139.8,141.7 139.8,141.7 -124.5,149.4 c -180,220.2 -325.6,444.3 -463.5,718.2 -689.4,1377 -438.6,3029.7 630.1,4167.3 l 162.8,172.4 -137.9,136 c -76.6,76.6 -143.6,137.9 -151.3,137.9 -5.6,-0.1 -86,-80.5 -179.9,-176.3 z"
       id="path4"
       inkscape:connector-curvature="0"
       style="fill:#f8d800;fill-opacity:1" /><path
       d="m 8453.3,4319.4 -137.9,-139.8 157,-162.8 C 9761.3,2666.7 9836,594.5 8650.6,-864.8 l -130.2,-159 139.8,-143.6 141.7,-141.7 84.3,91.9 c 46,49.8 141.7,170.4 212.6,264.3 1179.7,1591.5 1043.7,3805.3 -321.7,5239.7 -88.1,93.8 -166.6,170.4 -174.3,170.4 -7.7,0.1 -74.8,-63.1 -149.5,-137.8 z"
       id="path6"
       inkscape:connector-curvature="0"
       style="fill:#f8d800;fill-opacity:1" /><path
       d="M 2135.4,3469.1 C 1737.1,3055.4 1474.7,2546 1367.4,1984.9 1317.6,1713 1321.4,1178.6 1377,922 1480.4,439.4 1671.9,35.3 1968.8,-330.5 l 91.9,-114.9 137.9,137.9 c 76.6,76.6 139.8,145.5 139.8,151.3 0,7.7 -53.6,86.2 -120.6,174.3 -358.1,476.9 -534.3,1105 -473,1691 59.4,557.3 273.9,1032.2 639.6,1421 l 170.4,180 -145.5,147.5 -145.6,145.6 z"
       id="path8"
       inkscape:connector-curvature="0"
       style="fill:#f8d800;fill-opacity:1" /><path
       d="m 7585.8,3451.9 -141.7,-141.7 153.2,-159 c 442.4,-461.5 666.5,-1030.3 664.5,-1691 C 8259.9,923.9 8099,437.5 7783,18.1 7716,-70 7662.4,-148.5 7662.4,-156.2 c 0,-5.7 63.2,-74.7 139.8,-151.3 l 139.8,-137.9 113,145.5 c 285.4,362 469.2,754.6 568.8,1221.9 55.5,260.5 61.3,792.9 9.6,1064.8 -93.8,503.7 -337.1,997.8 -683.7,1392.3 -214.5,243.2 -197.3,239.4 -363.9,72.8 z"
       id="path10"
       inkscape:connector-curvature="0"
       style="fill:#f8d800;fill-opacity:1" /><path
       d="m 3016.3,2615 c -147.5,-153.2 -222.2,-266.2 -317.9,-469.2 -195.3,-417.5 -195.3,-921.2 3.8,-1357.8 53.6,-120.6 204.9,-352.4 227.9,-352.4 7.7,0 74.7,63.2 151.3,139.8 l 137.9,137.9 -49.8,74.7 c -329.4,482.6 -268.1,1114.6 149.4,1557 l 99.6,103.4 -143.6,143.6 -143.6,143.6 z"
       id="path12"
       inkscape:connector-curvature="0"
       style="fill:#f8d800;fill-opacity:1" /><path
       d="m 6724,2590.1 -141.7,-141.7 95.8,-101.5 c 427.1,-452 482.6,-1062.9 143.6,-1578 l -38.3,-57.5 141.7,-141.7 143.6,-143.7 47.9,57.5 c 139.8,174.3 273.9,488.3 314.1,737.3 82.3,503.7 -103.4,1062.9 -471.1,1421 l -93.8,91.9 z"
       id="path14"
       inkscape:connector-curvature="0"
       style="fill:#f8d800;fill-opacity:1" /><path
       d="m 4791.6,2262.6 c -153.2,-40.2 -281.5,-118.7 -384.9,-231.7 -272,-298.8 -296.8,-723.9 -57.5,-1041.8 88.1,-118.7 243.2,-237.5 348.5,-270 l 78.5,-23 -13.4,-327.5 C 4736,-341.9 4598.1,-4135.7 4598.1,-4183.6 v -53.6 h 402.2 402.2 v 91.9 c 0,49.8 -38.3,1128 -86.2,2397.7 -47.9,1269.7 -86.2,2338.4 -86.2,2376.7 0,61.3 7.6,72.8 53.6,84.3 151.3,36.4 358.1,222.2 446.2,402.2 151.3,306.4 99.6,658.8 -136,915.4 -199,218.2 -513.1,310.1 -802.3,231.6 z m 390.7,-231.7 c 67,-36.4 245.1,-197.3 216.4,-197.3 -5.7,0 -47.9,13.4 -91.9,28.7 -136,47.9 -283.4,38.3 -417.5,-30.6 -65.1,-30.6 -139.8,-86.2 -168.5,-118.7 -120.6,-143.6 -166.6,-352.4 -114.9,-520.9 15.3,-51.7 26.8,-97.7 23,-99.6 -17.2,-19.2 -124.5,97.7 -174.3,189.6 -49.8,88.1 -57.5,120.6 -57.5,254.7 0,128.3 9.6,168.5 51.7,250.9 61.3,116.8 180,224.1 291.1,264.3 111.1,42.1 342.8,30.6 442.4,-21.1 z"
       id="path16"
       inkscape:connector-curvature="0"
       style="fill:#f8d800;fill-opacity:1" /></g></g>
<text
   xml:space="preserve"
   style="font-style:normal;font-weight:normal;font-size:40px;line-height:125%;font-family:sans-serif;letter-spacing:0px;word-spacing:0px;fill:#f8d800;fill-opacity:1;stroke:none;stroke-width:1px;stroke-linecap:butt;stroke-linejoin:miter;stroke-opacity:1;"
   x="74.597656"
   y="28.75"
   id="text835"><tspan
     sodipodi:role="line"
     id="tspan833"
     x="74.597656"
     y="28.75"
     style="font-style:normal;font-variant:normal;font-weight:normal;font-stretch:normal;font-size:40px;font-family:Arial;-inkscape-font-specification:'Arial, Normal';font-variant-ligatures:normal;font-variant-caps:normal;font-variant-numeric:normal;font-feature-settings:normal;text-align:start;writing-mode:lr-tb;text-anchor:start;fill:#f8d800;fill-opacity:1;">433 MHz</tspan></text>
</svg>