<?xml version="1.0" encoding="UTF-8" standalone="no"?>
<svg
   version="1.1"
   width="302"
   height="357"
   viewBox="0 0 302 357"
   id="svg4"
   sodipodi:docname="node_gate.svg"
   inkscape:version="1.1 (c68e22c387, 2021-05-23)"
   xmlns:inkscape="http://www.inkscape.org/namespaces/inkscape"
   xmlns:sodipodi="http://sodipodi.sourceforge.net/DTD/sodipodi-0.dtd"
   xmlns="http://www.w3.org/2000/svg"
   xmlns:svg="http://www.w3.org/2000/svg"
   xmlns:rdf="http://www.w3.org/1999/02/22-rdf-syntax-ns#"
   xmlns:cc="http://creativecommons.org/ns#"
   xmlns:dc="http://purl.org/dc/elements/1.1/">
  <metadata
     id="metadata10">
    <rdf:RDF>
      <cc:Work
         rdf:about="">
        <dc:format>image/svg+xml</dc:format>
        <dc:type
           rdf:resource="http://purl.org/dc/dcmitype/StillImage" />
      </cc:Work>
    </rdf:RDF>
  </metadata>
  <defs
     id="defs8" />
  <sodipodi:namedview
     pagecolor="#ffffff"
     bordercolor="#666666"
     borderopacity="1"
     objecttolerance="10"
     gridtolerance="10"
     guidetolerance="10"
     inkscape:pageopacity="0"
     inkscape:pageshadow="2"
     inkscape:window-width="1920"
     inkscape:window-height="1017"
     id="namedview6"
     showgrid="false"
     inkscape:zoom="1.8561553"
     inkscape:cx="149.50258"
     inkscape:cy="180.74996"
     inkscape:window-x="-8"
     inkscape:window-y="-8"
     inkscape:window-maximized="1"
     inkscape:current-layer="svg4"
     inkscape:pagecheckerboard="1"
     width="302px" />
  <path
     style="fill:#f8d800;fill-opacity:1;stroke-width:1.16252"
     d="m 90.824461,252.59417 c -24.616379,-5.31052 -44.887842,-9.67994 -45.047689,-9.70976 -0.159847,-0.0299 -0.290631,-26.91506 -0.290631,-59.74491 v -59.69066 l 8.428279,-2.50208 c 4.635554,-1.37614 25.009133,-7.65374 45.274623,-13.9502 l 36.846347,-11.448099 0.35432,82.650389 c 0.19489,45.45771 0.0927,82.9655 -0.22692,83.35063 -0.31969,0.38512 -20.72193,-3.64476 -45.338329,-8.95531 z M 129.18766,144.47274 c 0,-31.70666 -0.30791,-40.11353 -1.45314,-39.67527 -0.79924,0.30584 -4.46119,1.50363 -8.13766,2.66172 l -6.6845,2.10563 v 36.28135 36.28136 l 5.52198,1.15084 c 3.03709,0.63298 6.69903,1.2127 8.13766,1.28829 l 2.61566,0.13744 z m -19.76285,1.86815 c 0,-25.36977 -0.36192,-34.87563 -1.32782,-34.87563 -0.7303,0 -4.91538,1.06842 -9.300179,2.37427 l -7.97235,2.37426 v 30.73544 30.73544 l 2.615682,0.6084 c 8.293627,1.92905 12.139027,2.70272 13.950247,2.80668 1.89492,0.1088 2.03442,-2.27449 2.03442,-34.75886 z m -22.087906,0.61774 c 0,-23.15324 -0.316787,-29.50886 -1.453151,-29.154 -0.799233,0.24961 -4.98431,1.58366 -9.30017,2.96459 l -7.847017,2.51081 v 25.31719 25.31717 l 6.103235,1.17331 c 3.35678,0.64532 7.541856,1.24203 9.30017,1.32603 l 3.196933,0.15271 z m -22.087902,1.58292 c 0,-22.1954 -0.180714,-24.46796 -1.893457,-23.81073 -1.041409,0.39963 -4.180216,1.30241 -6.975127,2.00618 l -5.081671,1.27957 v 21.24288 21.24286 l 5.521976,1.15085 c 3.037087,0.63298 6.175894,1.2127 6.975127,1.28829 1.120961,0.10598 1.453152,-5.47175 1.453152,-24.3999 z m 99.976818,29.88622 V 95.425056 l 10.75332,3.355169 c 5.91433,1.845335 26.31657,8.163545 45.33832,14.040455 l 34.58502,10.68528 v 59.63995 59.63995 l -2.61567,0.62572 c -11.25172,2.69163 -84.427,18.01861 -86.02658,18.01876 -1.91854,1.4e-4 -2.03441,-4.72731 -2.03441,-83.00257 z m 16.66267,4.95331 6.58776,-1.323 v -36.24663 -36.24663 l -6.6845,-2.10563 c -3.67647,-1.15809 -7.33842,-2.35588 -8.13764,-2.66172 -1.14524,-0.43826 -1.45316,7.96861 -1.45316,39.67527 0,32.74938 0.28823,40.23136 1.5499,40.23136 0.85244,0 4.51438,-0.59535 8.13764,-1.32302 z m 20.53802,-3.74802 7.55638,-1.4401 0.3095,-30.98395 0.30953,-30.98396 -7.99124,-2.37991 c -4.39518,-1.30893 -8.58876,-2.37988 -9.31905,-2.37988 -0.96591,0 -1.32781,9.50586 -1.32781,34.87563 0,27.16373 0.32132,34.85979 1.45314,34.80395 0.79923,-0.0394 4.85353,-0.71972 9.00955,-1.51178 z m 22.82574,-4.43008 7.3998,-1.36346 v -25.27975 -25.27974 l -7.84702,-2.51081 c -4.31586,-1.38093 -8.50094,-2.71498 -9.30017,-2.96459 -1.13636,-0.35486 -1.45314,6.00076 -1.45314,29.154 0,26.62738 0.19129,29.60781 1.90037,29.60781 1.0452,0 5.23028,-0.61354 9.30016,-1.36346 z m 19.45764,-3.90636 5.37997,-0.80678 v -21.13353 -21.13352 l -4.94071,-1.32489 c -2.71739,-0.7287 -5.85619,-1.67788 -6.97512,-2.10929 -1.89826,-0.73187 -2.03441,0.86619 -2.03441,23.87733 0,20.42263 0.27418,24.55648 1.59515,24.04957 0.87733,-0.33666 4.01613,-0.97515 6.97512,-1.41889 z M 6.5323118,240.21448 C 6.1831017,238.77586 6.042351,211.96521 6.2195327,180.63527 l 0.3221497,-56.96354 15.4034046,-0.32438 15.403406,-0.32437 v 59.90358 59.90359 H 22.257866 c -14.6863989,0 -15.1076341,-0.0701 -15.7255542,-2.61567 z M 265.20264,182.96031 v -59.93733 l 15.32724,0.32437 15.3272,0.32438 -0.20196,59.28858 -0.20197,59.28859 -15.12525,0.32437 -15.12526,0.32436 z"
     id="path932" />
</svg>
