<?xml version="1.0" encoding="UTF-8" standalone="no"?>
<!-- Created with Inkscape (http://www.inkscape.org/) -->

<svg
   width="307"
   height="352"
   viewBox="0 0 81.227081 93.133336"
   version="1.1"
   id="svg5"
   inkscape:version="1.1 (c68e22c387, 2021-05-23)"
   sodipodi:docname="node_theengs.svg"
   xmlns:inkscape="http://www.inkscape.org/namespaces/inkscape"
   xmlns:sodipodi="http://sodipodi.sourceforge.net/DTD/sodipodi-0.dtd"
   xmlns="http://www.w3.org/2000/svg"
   xmlns:svg="http://www.w3.org/2000/svg">
  <sodipodi:namedview
     id="namedview7"
     pagecolor="#505050"
     bordercolor="#ffffff"
     borderopacity="1"
     inkscape:pageshadow="0"
     inkscape:pageopacity="0"
     inkscape:pagecheckerboard="1"
     inkscape:document-units="mm"
     showgrid="false"
     units="px"
     inkscape:zoom="2.9647587"
     inkscape:cx="185.17527"
     inkscape:cy="164.43159"
     inkscape:window-width="1920"
     inkscape:window-height="1017"
     inkscape:window-x="1912"
     inkscape:window-y="-8"
     inkscape:window-maximized="1"
     inkscape:current-layer="layer3" />
  <defs
     id="defs2" />
  <g
     inkscape:groupmode="layer"
     id="layer3"
     inkscape:label="all"
     style="display:inline">
    <path
       id="ellipse1808"
       style="display:inline;fill:#f6d000;fill-opacity:1;stroke-width:3.21379;paint-order:fill markers stroke"
       inkscape:label="theengs"
       d="m 165.38867,39.074219 a 115.13211,117.53285 0 0 0 -58.27929,16.447265 l 7.90429,14.673828 a 98.7985,100.85865 0 0 1 50.375,-14.447265 98.7985,100.85865 0 0 1 85.73047,50.744143 l 14.05664,-8.441409 A 115.13211,117.53285 0 0 0 165.38867,39.074219 Z M 46.884766,72.542969 a 30.323761,30.837722 0 0 0 -30.324219,30.837891 30.323761,30.837722 0 0 0 30.324219,30.83789 30.323761,30.837722 0 0 0 20.71289,-8.32813 l 28.888672,15.9375 a 69.517914,70.696183 0 0 1 6.089842,-17.33984 L 76.472656,110.08594 a 30.323761,30.837722 0 0 0 0.734375,-6.70508 30.323761,30.837722 0 0 0 -30.322265,-30.837891 z m 117.986324,4.185547 a 79.102675,79.983373 0 0 0 -40.28515,11.234375 l 7.54687,14.009769 a 63.480202,64.186962 0 0 1 32.73828,-9.449222 63.480202,64.186962 0 0 1 55.23829,32.589842 l 13.41601,-8.05664 A 79.102675,79.983373 0 0 0 164.87109,76.728516 Z M 46.507812,89.677734 A 14.071735,14.310239 0 0 1 60.580078,103.98828 14.071735,14.310239 0 0 1 46.507812,118.29883 14.071735,14.310239 0 0 1 32.4375,103.98828 14.071735,14.310239 0 0 1 46.507812,89.677734 Z M 269.5,112.16797 a 18.364806,18.364806 0 0 0 -17.98047,14.68359 l -20.64453,9.26367 a 69.517914,70.696183 0 0 1 2.91797,18.56055 l 23.41406,-10.50781 A 18.364806,18.364806 0 0 0 269.5,148.89844 18.364806,18.364806 0 0 0 287.86328,130.5332 18.364806,18.364806 0 0 0 269.5,112.16797 Z m -106.01367,1.13672 a 47.433753,43.847314 0 0 0 -22.35547,5.37109 l 7.70703,14.30664 a 30.016095,27.746595 0 0 1 14.64844,-3.57812 30.016095,27.746595 0 0 1 26.07226,14.05273 l 14.62891,-8.78515 a 47.433753,43.847314 0 0 0 -40.70117,-21.36719 z m -2.02539,32.94922 a 21.076535,21.43376 0 0 0 -21.07617,21.43359 21.076535,21.43376 0 0 0 21.07617,21.43359 21.076535,21.43376 0 0 0 21.07617,-21.43359 21.076535,21.43376 0 0 0 -21.07617,-21.43359 z m -115.42969,5.43554 a 18.364806,18.364806 0 0 0 -18.365234,18.36328 18.364806,18.364806 0 0 0 18.365234,18.36524 18.364806,18.364806 0 0 0 14.75,-7.44531 l 39.24414,1.89257 A 69.517914,70.696183 0 0 1 95.501953,164.5 L 62.957031,162.92969 A 18.364806,18.364806 0 0 0 46.03125,151.68945 Z M 269.5,160.40234 a 18.364806,18.364806 0 0 0 -15.79688,9.07422 l -20.875,-1.16211 a 69.517914,70.696183 0 0 1 -5.70117,17.83594 l 26.33399,1.4668 A 18.364806,18.364806 0 0 0 269.5,197.13086 18.364806,18.364806 0 0 0 287.86328,178.76758 18.364806,18.364806 0 0 0 269.5,160.40234 Z m 0.33594,9.44336 a 8.9205297,8.9205297 0 0 1 8.92187,8.92188 8.9205297,8.9205297 0 0 1 -8.92187,8.91992 8.9205297,8.9205297 0 0 1 -8.91992,-8.91992 8.9205297,8.9205297 0 0 1 8.91992,-8.92188 z m -164.44922,23.79492 -27.498048,18.5625 a 30.323761,30.837722 0 0 0 -19.69336,-7.39843 30.323761,30.837722 0 0 0 -30.324218,30.83789 30.323761,30.837722 0 0 0 30.324218,30.83789 30.323761,30.837722 0 0 0 30.324219,-30.83789 30.323761,30.837722 0 0 0 -1.05664,-8.0332 l 29.386719,-19.8379 a 69.517914,70.696183 0 0 1 -11.46289,-14.13086 z m 117.44531,0.63672 a 69.517914,70.696183 0 0 1 -11.5293,14.00977 l 30.43946,22.85742 a 24.773422,24.773422 0 0 0 -0.38867,4.28711 24.773422,24.773422 0 0 0 24.77343,24.77344 24.773422,24.773422 0 0 0 24.77344,-24.77344 24.773422,24.773422 0 0 0 -24.77344,-24.77344 24.773422,24.773422 0 0 0 -14.85937,4.97071 z m -98.78125,19.47657 -11.2539,17.81836 a 18.364806,18.364806 0 0 0 -0.14063,-0.002 18.364806,18.364806 0 0 0 -18.365234,18.36524 18.364806,18.364806 0 0 0 18.365234,18.36523 18.364806,18.364806 0 0 0 18.36523,-18.36523 A 18.364806,18.364806 0 0 0 128.5,240.6543 l 11.41211,-18.06836 a 69.517914,70.696183 0 0 1 -15.86133,-8.83203 z m 78.33008,1.58398 a 69.517914,70.696183 0 0 1 -16.25586,8.0918 l 9.97656,17.34765 a 18.364806,18.364806 0 0 0 -2.54492,9.31836 18.364806,18.364806 0 0 0 18.36524,18.36328 18.364806,18.364806 0 0 0 18.36328,-18.36328 18.364806,18.364806 0 0 0 -18.36328,-18.36523 18.364806,18.364806 0 0 0 -0.11133,0.004 z M 57.818359,221.9375 A 14.071735,14.310239 0 0 1 71.890625,236.24805 14.071735,14.310239 0 0 1 57.818359,250.55859 14.071735,14.310239 0 0 1 43.748047,236.24805 14.071735,14.310239 0 0 1 57.818359,221.9375 Z m 96.550781,4.33008 0.0957,44.32617 a 23.424392,23.424392 0 0 0 -14.97461,21.8418 23.424392,23.424392 0 0 0 23.42383,23.42383 23.424392,23.424392 0 0 0 23.42383,-23.42383 23.424392,23.424392 0 0 0 -13.74609,-21.32813 l -0.0957,-44.67969 a 69.517914,70.696183 0 0 1 -8.16601,0.72657 69.517914,70.696183 0 0 1 -9.96094,-0.88672 z m 57.88867,14.90625 a 8.9205297,8.9205297 0 0 1 8.92188,8.92187 8.9205297,8.9205297 0 0 1 -8.92188,8.91992 8.9205297,8.9205297 0 0 1 -8.91992,-8.91992 8.9205297,8.9205297 0 0 1 8.91992,-8.92187 z m -48.91406,39.88281 a 11.378175,11.378175 0 0 1 11.37891,11.37891 11.378175,11.378175 0 0 1 -11.37891,11.3789 11.378175,11.378175 0 0 1 -11.37695,-11.3789 11.378175,11.378175 0 0 1 11.37695,-11.37891 z"
       transform="scale(0.26458333)" />
  </g>
</svg>
