<?xml version="1.0" encoding="UTF-8" standalone="no"?>
<!-- Created with Inkscape (http://www.inkscape.org/) -->

<svg
   version="1.1"
   id="svg2"
   width="307"
   height="352"
   viewBox="0 0 307 352"
   sodipodi:docname="node_motion.svg"
   inkscape:version="1.1 (c68e22c387, 2021-05-23)"
   xmlns:inkscape="http://www.inkscape.org/namespaces/inkscape"
   xmlns:sodipodi="http://sodipodi.sourceforge.net/DTD/sodipodi-0.dtd"
   xmlns="http://www.w3.org/2000/svg"
   xmlns:svg="http://www.w3.org/2000/svg">
  <defs
     id="defs6" />
  <sodipodi:namedview
     id="namedview4"
     pagecolor="#505050"
     bordercolor="#ffffff"
     borderopacity="1"
     inkscape:pageshadow="0"
     inkscape:pageopacity="0"
     inkscape:pagecheckerboard="1"
     showgrid="false"
     inkscape:zoom="0.83567165"
     inkscape:cx="52.053938"
     inkscape:cy="248.30327"
     inkscape:window-width="1920"
     inkscape:window-height="1017"
     inkscape:window-x="1912"
     inkscape:window-y="-8"
     inkscape:window-maximized="1"
     inkscape:current-layer="g8" />
  <g
     inkscape:groupmode="layer"
     inkscape:label="Image"
     id="g8">
    <path
       id="path845"
       style="display:inline;fill:#f8d800;fill-opacity:1"
       d="m 50.732504,42.589435 c -12.465728,0 -14.142578,2.406014 -14.142578,20.300781 0,13.90702 1.006186,18.092458 4.855469,20.183594 5.864088,3.185686 17.650604,1.175515 20.115234,-3.429687 0.57172,-1.068269 1.029297,-8.435925 1.029297,-16.566407 V 48.435138 l -2.923828,-2.921875 c -2.582474,-2.582474 -3.622281,-2.923828 -8.933594,-2.923828 z m 22.837891,27.183594 c -0.40863,0.006 -0.849228,0.06829 -1.324219,0.1875 -2.12608,0.533612 -2.65625,1.256591 -2.65625,3.626953 0,1.628391 -0.745931,4.82743 -1.658203,7.107422 -1.391963,3.478857 -2.517556,4.525463 -7,6.507812 -5.553231,2.455902 -6.045958,3.201843 -4.287109,6.488281 0.870933,1.627356 1.695988,1.855271 4.75,1.3125 8.352274,-1.484397 14.902284,-8.663398 15.74414,-17.253906 0.519427,-5.300359 -0.707953,-8.018722 -3.568359,-7.976562 z m 18.27148,3.816406 c -2.98634,0 -4.25195,2.088627 -4.25195,7.021484 0,10.559928 -5.839814,19.046298 -15.499999,22.523441 -8.072205,2.90555 -8.909038,4.04604 -5.484375,7.4707 1.495098,1.4951 2.721074,1.84104 4.75,1.3418 12.839285,-3.15925 22.076394,-13.355476 24.212894,-26.726566 0.97747,-6.117401 -0.78898,-11.630859 -3.72657,-11.630859 z m -36.347652,0.814453 a 2.0193338,1.9071486 0 0 1 2.019531,1.908203 2.0193338,1.9071486 0 0 1 -2.019531,1.90625 2.0193338,1.9071486 0 0 1 -2.019531,-1.90625 2.0193338,1.9071486 0 0 1 2.019531,-1.908203 z m 56.068367,4.326172 c -2.92994,-0.189711 -3.77794,2.236384 -3.80664,9.541016 -0.0251,6.40335 -0.50765,8.568235 -3.06055,13.753904 -1.66638,3.3849 -4.732905,7.86782 -6.816415,9.96094 -3.91508,3.93317 -13.883124,9.57887 -17.009762,9.63477 -3.265148,0.0584 -5.580791,2.62923 -4.880859,5.41797 0.552962,2.20318 1.1864,2.55078 4.642578,2.55078 5.216576,0 15.233943,-4.8976 21.843758,-10.67969 7.52748,-6.58486 12.41116,-17.30691 13.58203,-29.820315 0.58618,-6.264623 -0.38987,-9.44294 -3.10742,-10.125 -0.50721,-0.127301 -0.96816,-0.207273 -1.38672,-0.234375 z m 78.15234,52.85938 c -3.98653,0 -5.43556,0.5574 -8.625,3.31445 -3.69237,3.1918 -3.83398,3.54545 -3.83398,9.64844 0,6.14558 0.12645,6.45277 4.16796,10.22266 4.56971,4.26257 4.87902,4.81445 2.69727,4.81445 -2.32804,0 -8.32397,3.70784 -15.07422,9.32227 -3.42394,2.84783 -8.91141,7.30507 -12.19336,9.90429 -5.90129,4.67367 -5.99001,4.82275 -8.16797,13.5 -1.21126,4.82578 -2.62795,10.1547 -3.14843,11.84375 -0.52049,1.68905 -0.94727,5.1511 -0.94727,7.69336 0,3.64294 0.47105,4.95281 2.22266,6.17969 5.07095,3.55183 9.13539,0.087 11.17187,-9.52539 3.10468,-14.65445 4.99031,-18.91797 8.37305,-18.91797 1.16572,0 1.32667,0.95368 0.80078,4.75 -0.3619,2.6125 -1.03918,5.875 -1.50586,7.25 -0.46668,1.375 -1.40302,5.2 -2.08203,8.5 -0.67901,3.3 -2.82832,12.75 -4.77539,21 -3.35868,14.23121 -3.91104,15.62089 -10.7832,27.12695 -3.98387,6.6702 -7.95431,13.50126 -8.82227,15.17969 -1.86965,3.61551 -1.24027,8.12916 1.55078,11.125 2.2055,2.36733 9.33851,2.83383 11.84961,0.77539 1.56858,-1.28582 6,-7.27364 6,-8.10742 0,-0.26506 3.43874,-6.22294 7.64258,-13.24023 7.48552,-12.49533 10.0984,-18.82911 11.07617,-26.85938 0.75143,-6.17135 1.802,-6.3274 6.50391,-0.96875 2.35275,2.68136 5.48889,5.96015 6.9707,7.28711 3.85489,3.45205 6.57545,9.88449 7.30469,17.27734 0.34741,3.52191 1.23309,8.2043 1.96875,10.4043 0.73566,2.2 1.61391,5.55261 1.95117,7.45117 0.33726,1.89855 1.58407,4.48605 2.77148,5.75 2.91512,3.103 9.25797,3.16706 12.4961,0.125 2.0144,-1.89244 2.31445,-3.13319 2.31445,-9.5664 0,-4.06528 -0.4522,-8.23698 -1.00586,-9.27149 -0.55366,-1.03452 -1.43653,-4.49373 -1.96094,-7.68555 -2.17305,-13.22648 -2.75523,-15.07687 -6.08984,-19.38085 -2.95889,-3.81904 -11.9111,-14.41737 -18.29688,-21.66016 -1.71408,-1.94412 -1.83078,-2.7338 -0.88281,-6 0.60041,-2.06868 1.71461,-6.65846 2.47656,-10.19922 0.76196,-3.54076 1.85815,-6.59464 2.43555,-6.78711 0.5774,-0.19247 1.62663,1.0431 2.33203,2.74609 0.87015,2.10071 4.37258,5.26184 10.88867,9.83399 13.35335,9.36967 14.4012,9.8359 17.54297,7.77734 2.64485,-1.73298 4.17475,-5.58914 3.21289,-8.0957 -0.30977,-0.80726 -4.77152,-4.2673 -9.91406,-7.68945 l -9.34961,-6.22266 -7.2207,-14.0625 c -5.49024,-10.69272 -8.04908,-14.63034 -10.67969,-16.43164 -3.73441,-2.55711 -3.75085,-4.13086 -0.0449,-4.13086 1.44338,0 3.69402,-1.51653 5.93945,-4.00195 3.16921,-3.50794 3.61719,-4.64131 3.61719,-9.15625 0,-4.7187 -0.34078,-5.47429 -4.04297,-8.9961 -3.535,-3.36277 -4.64183,-3.8457 -8.83203,-3.8457 z m -29.24414,35.54883 c -0.3099,-0.3099 -4.34765,3.15169 -8.97266,7.69336 -6.69876,6.57806 -8.84773,9.42681 -10.5664,14.00586 -1.1866,3.16149 -1.74911,6.00013 -1.25,6.30859 0.49912,0.30847 0.9082,-0.14059 0.9082,-0.99805 0,-0.85746 0.45,-1.55859 1,-1.55859 0.55,0 1,-1.125 1,-2.5 0,-1.375 0.45,-2.5 1,-2.5 0.55,0 1,1.09887 1,2.44141 0,1.34254 -0.45,2.71867 -1,3.05859 -0.55,0.33992 -1,1.26605 -1,2.05859 0,3.30947 1.84979,1.04807 3.52344,-4.30859 1.8391,-5.88623 3.75888,-8.19462 14.0625,-16.90625 2.70322,-2.28556 4.57253,-4.50143 4.15429,-4.92578 -0.41824,-0.42434 -1.99324,0.36149 -3.5,1.74805 -3.81987,3.51513 -10.24023,8.19581 -10.24023,7.46484 0,-0.33403 2.35027,-2.83893 5.22266,-5.56445 2.8724,-2.72551 4.9681,-5.20769 4.6582,-5.51758 z m -15.60156,16.83008 c 0.10514,-0.10514 0.24468,0.0347 0.40429,0.43359 0.28891,0.72187 0.25222,1.58372 -0.0801,1.91602 -0.3323,0.33229 -0.56879,-0.25834 -0.5254,-1.3125 0.024,-0.58248 0.096,-0.93197 0.20118,-1.03711 z m 63.33203,41.80468 c -0.40506,-0.10484 -0.33159,0.3826 0.0312,1.32813 0.41499,1.08145 0.12175,1.33503 -1.03125,0.89258 -3.3293,-1.27757 -0.79795,3.45156 4.91406,9.17968 2.88152,2.88965 3.88443,5.72237 6.08008,17.16602 0.23743,1.2375 0.79956,2.25 1.24805,2.25 0.98497,0 -0.35991,-10.5684 -1.83985,-14.46094 -0.5812,-1.52867 -2.85179,-4.8207 -5.04687,-7.31445 -2.19509,-2.49374 -3.77299,-4.7524 -3.50586,-5.01953 0.94165,-0.94165 9.06017,7.17549 10.71484,10.71289 0.92171,1.97048 1.72486,5.38203 1.78516,7.58203 0.0603,2.2 0.74207,5.125 1.51367,6.5 1.29134,2.3012 1.35619,2.02288 0.83594,-3.5 -0.31087,-3.3 -0.95728,-6.42672 -1.4375,-6.94922 -0.48018,-0.5225 -0.873,-2.10113 -0.873,-3.50781 0,-1.83858 -1.8236,-4.31327 -6.48438,-8.80078 -4.22389,-4.06687 -6.2292,-5.88386 -6.90429,-6.0586 z M 52.505942,278.71249 c -0.347396,-0.0143 -0.742579,0.0489 -1.103516,0.19336 -0.797733,0.31922 -0.561427,0.55746 0.603516,0.60547 1.054166,0.0434 1.644791,-0.19311 1.3125,-0.5254 -0.166146,-0.16612 -0.465105,-0.25913 -0.8125,-0.27343 z m 28.363281,28.25586 c -0.105141,0.10514 -0.177182,0.45463 -0.201172,1.03711 -0.04342,1.05416 0.193099,1.64479 0.525391,1.3125 0.332294,-0.33229 0.368949,-1.19415 0.08008,-1.91602 -0.159613,-0.39887 -0.299156,-0.53873 -0.404297,-0.43359 z" />
  </g>
</svg>
