<?xml version="1.0" encoding="UTF-8"?>
<svg width="309" height="348" version="1.1" viewBox="0 0 81.756 92.075" xmlns="http://www.w3.org/2000/svg">
 <g transform="matrix(.007683 0 0 -.007683 .21821 46.883)" fill="#f8d800">
  <path d="m2542.4 4485.9v-407.1h407v814.2h-407z"/>
  <path d="m881.1 4109.4-145-145 274.8-274.8c150.1-150.1 284.9-272.2 300.2-272.2 33.1 0 264.6 234.1 264.6 269.7 0 12.7-122.1 147.6-274.8 297.7l-272.2 272.2z"/>
  <path d="m4175.7 3969.5-284.9-285 134.8-134.8c73.8-71.2 145-132.3 157.7-132.3 15.3 0 150.1 122.1 300.2 274.8l272.2 272.2-292.6 292.6z"/>
  <path d="m2593.2 3646.3c-786.1-124.7-1363.7-834.5-1315.3-1615.5 30.5-460.5 264.6-890.4 631-1157.6 129.8-91.6 132.3-89 160.3 183.2l17.8 170.4-101.8 106.9c-58.5 58.5-147.6 193.4-201 297.7-91.6 190.8-94.1 198.4-94.1 488.5 0 277.3 5.1 302.8 81.4 465.6 96.7 203.5 310.4 440.1 485.9 534.3 346 188.3 783.6 188.3 1129.6 0 175.5-94.1 389.2-330.7 485.9-534.3 76.3-165.4 81.4-188.3 81.4-470.7v-300.2h386.8l17.8 96.7c114.5 702.2-376.5 1465.4-1078.7 1679.1-201 61-498.7 86.5-687 55.9z"/>
  <path d="m100 2247.1v-203.5h814.2v407h-814.2z"/>
  <path d="m4577.7 2247.1v-203.5h814.2v407h-814.2z"/>
  <path d="m2354.1 1542.3c-7.6-53.4-152.6-1200.8-320.6-2551.8-167.9-1350.9-312.9-2498.3-320.6-2549.2l-15.3-96.7h3312.4v-610.6h-1094v-407h3816.2v407h-1094v610.6h3261.8l-15.3 96.7c-7.6 50.9-152.7 1198.3-320.5 2549.2-167.9 1350.9-312.9 2498.3-320.6 2551.8l-15.3 94.1h-6858.9zm2223.6-368.9c0-68.7-68.7-796.3-91.6-954l-12.7-109.4h-1880.2v58.5c0 30.5 28 279.9 63.6 552.1s63.6 498.7 63.6 503.7c0 2.5 417.2 5.1 928.6 5.1h928.6v-56zm2238.8 12.8c0-25.4 22.9-274.8 50.9-554.6s50.9-511.4 50.9-513.9c0-5.1-457.9-7.6-1020.2-7.6h-1020.2l15.3 122.1c17.8 134.8 91.6 915.9 91.6 966.8 0 22.9 201 30.5 915.9 30.5 854.7-0.1 915.8-2.6 915.8-43.3zm2060.7 38.1c0-5.1 28-231.5 63.6-503.7s63.6-521.6 63.6-552.1v-58.5h-1676.6l-12.7 84c-17.8 101.8-91.6 910.8-91.6 982 0 53.4 7.6 53.4 826.8 53.4 455.5 0 826.9-2.5 826.9-5.1zm-4452.2-1602.8c0-104.3-99.2-1208.5-117-1284.8l-10.2-58.5h-1933.6v53.4c0 71.3 152.6 1297.5 165.4 1340.8 7.6 22.9 221.3 30.5 954.1 30.5h941.3zm2587.4-516.4c30.5-320.6 61-638.6 68.7-704.7l12.7-122.1h-2391.5l12.7 84c7.6 43.3 38.2 351.1 68.7 679.3 28 328.2 56 613.1 61.1 630.9 10.2 25.4 234.1 30.5 1060.9 25.4l1050.7-7.6zm2137.1-38.2c43.3-343.5 81.4-661.5 81.4-704.7l2.5-84h-1730l-10.2 58.5c-7.6 30.5-38.2 325.6-66.1 653.8s-58.5 623.4-66.1 656.5l-10.2 56 857.4-5.1 859.9-7.6zm-4887.3-1264.4c-7.6-40.7-33.1-292.6-56-559.7l-43.2-491h-2007.3l12.7 71.2c7.6 38.2 38.2 290 71.2 559.7l58.5 488.5h1979.4zm2869.8 12.7c15.3-73.8 91.6-905.7 91.6-994.8v-68.7h-2646v66.1c0 91.6 76.3 928.6 91.6 997.3l10.2 56h2442.4zm2221-389.3c30.5-236.6 61.1-485.9 68.7-552.1l17.8-122.1h-1801.2l-43.3 478.3c-22.9 262-50.9 513.9-58.5 559.7l-12.7 81.4 885.4-5.1 887.9-7.6zm-3121.6-1386.5v-305.3h-814.2v610.6h814.2z"/>
  <path d="m1003.2 796.9-279.9-279.8 147.6-145 145-147.6 279.9 279.9c152.6 152.7 279.9 290 279.9 305.3 0 33.1-234.1 267.1-269.7 267.1-12.8 0-150.2-127.2-302.8-279.9z"/>
 </g>
</svg>
