<?xml version="1.0" encoding="UTF-8" standalone="no"?>
<!-- Created with Inkscape (http://www.inkscape.org/) -->

<svg
   width="309"
   height="348"
   viewBox="0 0 81.756248 92.075003"
   version="1.1"
   id="svg5"
   inkscape:version="1.1 (c68e22c387, 2021-05-23)"
   sodipodi:docname="logo_zwave.svg"
   inkscape:export-filename="C:\Users\jfridisch\ownCloud\Git\jmqtt-crash-doc-logs\nouveau logo jmqtt\logo_eq.png"
   inkscape:export-xdpi="96"
   inkscape:export-ydpi="96"
   xmlns:inkscape="http://www.inkscape.org/namespaces/inkscape"
   xmlns:sodipodi="http://sodipodi.sourceforge.net/DTD/sodipodi-0.dtd"
   xmlns="http://www.w3.org/2000/svg"
   xmlns:svg="http://www.w3.org/2000/svg">
  <sodipodi:namedview
     id="namedview7"
     pagecolor="#505050"
     bordercolor="#ffffff"
     borderopacity="1"
     inkscape:pageshadow="0"
     inkscape:pageopacity="0"
     inkscape:pagecheckerboard="1"
     inkscape:document-units="px"
     showgrid="false"
     units="px"
     inkscape:zoom="2"
     inkscape:cx="88.75"
     inkscape:cy="173.75"
     inkscape:window-width="1920"
     inkscape:window-height="1017"
     inkscape:window-x="1912"
     inkscape:window-y="-8"
     inkscape:window-maximized="1"
     inkscape:current-layer="layer1" />
  <defs
     id="defs2">
    <linearGradient
       id="linearGradient4161"
       inkscape:swatch="solid">
      <stop
         style="stop-color:#ffff00;stop-opacity:1;"
         offset="0"
         id="stop4159" />
    </linearGradient>
    <filter
       style="color-interpolation-filters:sRGB;"
       inkscape:label="Drop Shadow"
       id="filter32959"
       x="-0.040000031"
       y="-0.14000011"
       width="1.1800001"
       height="1.1800001">
      <feFlood
         flood-opacity="0.498039"
         flood-color="rgb(0,0,0)"
         result="flood"
         id="feFlood32949" />
      <feComposite
         in="flood"
         in2="SourceGraphic"
         operator="in"
         result="composite1"
         id="feComposite32951" />
      <feGaussianBlur
         in="composite1"
         stdDeviation="1"
         result="blur"
         id="feGaussianBlur32953" />
      <feOffset
         dx="6"
         dy="-6"
         result="offset"
         id="feOffset32955" />
      <feComposite
         in="offset"
         in2="offset"
         operator="atop"
         result="composite2"
         id="feComposite32957" />
    </filter>
  </defs>
  <g
     inkscape:label="jmqtt"
     inkscape:groupmode="layer"
     id="layer1"
     style="display:inline">
    <path
       d="m 37.025178,48.229867 h 3.905653 L 42.072265,55.255 43.33916,48.229867 h 2.719773 l 1.364614,7.025133 1.242621,-7.025133 h 3.652213 l -2.971008,10.626594 h -3.440379 l -1.095727,-5.554287 -1.297156,5.554287 h -3.322486 z m 24.499669,0.02534 h 4.159411 l 1.673852,6.441964 1.876857,-6.517934 h 3.956404 l -3.960187,10.677344 h -3.732279 z m 12.630109,3.1e-5 v 10.60106 h 7.072101 V 56.142831 H 77.8327 v -1.268154 h 3.068728 V 52.135359 H 77.8327 V 50.94349 h 3.347703 v -2.68825 z m -17.892716,6.758924 1.027006,-3.728181 0.780185,3.728181 z m 3.182839,-6.7843 h -4.305045 l -3.869088,10.626593 h 4.083126 l 0.362826,-1.470844 h 2.999063 l 0.315226,1.470846 h 4.189042 z M 31.0651,55.534096 29.036304,58.831048 h -8.826021 l 4.894834,-7.583083 h -4.522236 l 1.884423,-3.017977 H 31.0651 l -4.59064,7.304108 z M 26.021795,43.563385 c -5.630886,0 -10.195679,4.564475 -10.195679,10.195362 0,5.630887 4.564793,10.195678 10.195679,10.195678 5.630572,0 10.195363,-4.564791 10.195363,-10.195678 0,-5.630887 -4.564791,-10.195362 -10.195363,-10.195362 z M 25.789851,31.475213 V 28.120575 C 11.828479,28.182361 0.52919348,39.516636 0.52919348,53.492507 c 0,0.06368 0.004408,0.126406 0.005004,0.190082 H 3.8790637 C 3.9197264,41.533138 13.679134,31.67885 25.789812,31.475213 Z m 0,6.997014 v -3.352431 c -0.02553,-3.15e-4 -0.05043,-0.0023 -0.07596,-0.0023 -10.211125,0 -18.4889669,8.277843 -18.4889669,18.488967 0,0.02553 0.00191,0.05075 0.00191,0.07598 h 3.3524239 c 0.141221,-8.338681 6.871618,-15.069078 15.210614,-15.210299 z"
       fill="#00396f"
       id="path854"
       style="fill:#f8d800;fill-opacity:1;stroke-width:0.315226" />
  </g>
</svg>
