<?xml version="1.0" encoding="UTF-8" standalone="no"?>
<!-- Created with Inkscape (http://www.inkscape.org/) -->

<svg
   width="302"
   height="357"
   viewBox="0 0 79.904164 94.456247"
   version="1.1"
   id="svg5"
   inkscape:version="1.1 (c68e22c387, 2021-05-23)"
   sodipodi:docname="node-stove.svg"
   xmlns:inkscape="http://www.inkscape.org/namespaces/inkscape"
   xmlns:sodipodi="http://sodipodi.sourceforge.net/DTD/sodipodi-0.dtd"
   xmlns="http://www.w3.org/2000/svg"
   xmlns:svg="http://www.w3.org/2000/svg">
  <sodipodi:namedview
     id="namedview7"
     pagecolor="#505050"
     bordercolor="#ffffff"
     borderopacity="1"
     inkscape:pageshadow="0"
     inkscape:pageopacity="0"
     inkscape:pagecheckerboard="1"
     inkscape:document-units="mm"
     showgrid="false"
     width="302mm"
     units="px"
     inkscape:zoom="1.4823793"
     inkscape:cx="52.280816"
     inkscape:cy="172.35805"
     inkscape:window-width="1920"
     inkscape:window-height="1017"
     inkscape:window-x="-8"
     inkscape:window-y="-8"
     inkscape:window-maximized="1"
     inkscape:current-layer="layer1" />
  <defs
     id="defs2" />
  <g
     inkscape:label="Calque 1"
     inkscape:groupmode="layer"
     id="layer1">
    <path
       style="fill:#f8d800;fill-opacity:1;stroke-width:0.236189"
       d="m 17.218886,83.690843 c -0.390555,-0.227476 -0.413331,-2.0748 -0.413331,-33.523351 0,-32.663808 0.0085,-33.287152 0.456851,-33.527105 0.291663,-0.156093 3.665023,-0.244499 9.329466,-0.244499 h 8.872616 v -2.552935 c 0,-2.826576 0.225265,-3.451937 1.194179,-3.315174 0.572095,0.08075 0.577829,0.107257 0.643556,2.974794 l 0.06632,2.893315 h 2.58354 2.583539 l 0.06632,-2.893315 c 0.06573,-2.867537 0.07146,-2.894042 0.643556,-2.974794 0.968914,-0.136763 1.194179,0.488598 1.194179,3.315174 v 2.552935 h 8.872616 c 5.664444,0 9.037804,0.08841 9.329467,0.244499 0.448353,0.239951 0.456851,0.862895 0.456851,33.491604 0,25.543942 -0.06567,33.312774 -0.283427,33.530533 -0.192917,0.192917 -1.31891,0.283427 -3.525965,0.283427 -3.823978,0 -3.984846,-0.07934 -3.984846,-1.965431 V 80.757399 H 39.95208 24.599793 v 1.223121 c 0,1.877925 -0.174841,1.966739 -3.854943,1.958248 -1.711948,-0.0039 -3.298632,-0.115515 -3.525964,-0.247925 z m 5.491395,-2.283925 v -0.649519 h -2.007607 -2.007607 v 0.649519 0.64952 h 2.007607 2.007607 z m 38.498811,0 v -0.649519 h -2.007606 -2.007607 v 0.649519 0.64952 h 2.007607 2.007606 z m 0,-32.771227 V 18.2854 H 39.95208 18.695067 v 30.350291 30.35029 H 39.95208 61.209092 Z M 24.928103,77.232048 c -0.07264,-0.189296 -0.09506,-0.536383 -0.04981,-0.771303 0.07706,-0.400121 0.507639,-0.427127 6.810411,-0.427127 h 6.728152 v 0.708567 0.708567 l -6.678337,0.06274 c -5.671602,0.05328 -6.698248,0.01084 -6.810411,-0.281441 z m 16.533232,0 c -0.07264,-0.189296 -0.09506,-0.536383 -0.04981,-0.771303 0.07706,-0.400121 0.507639,-0.427127 6.810412,-0.427127 h 6.728151 v 0.708567 0.708567 l -6.678337,0.06274 c -5.671602,0.05328 -6.698247,0.01084 -6.810411,-0.281441 z M 25.123112,73.982477 c -0.488491,-0.488491 -0.347706,-1.34979 0.244295,-1.494538 0.292284,-0.07147 3.283318,-0.100064 6.646742,-0.06355 5.524095,0.05997 6.140511,0.106351 6.375897,0.479721 0.189979,0.301347 0.189976,0.525316 -1.4e-5,0.826662 -0.235991,0.37431 -0.86099,0.419254 -6.620192,0.476082 -4.748233,0.04685 -6.432349,-0.01 -6.646728,-0.22438 z m 16.529529,-0.0037 c -0.378203,-0.378202 -0.35901,-1.013139 0.04065,-1.344827 0.2292,-0.190219 2.217187,-0.250547 6.790435,-0.206061 l 6.466357,0.0629 0.07718,0.544425 c 0.169428,1.195168 -0.0067,1.226992 -6.790245,1.226992 -4.585818,0 -6.378096,-0.07715 -6.584374,-0.283427 z m -14.44646,-5.369582 c -0.134474,-0.251268 -0.244498,-0.935387 -0.244498,-1.520264 0,-1.019635 -0.03062,-1.06646 -0.743795,-1.137425 -0.409086,-0.04071 -0.860254,-0.260011 -1.002596,-0.487343 -0.377043,-0.602176 0.09736,-1.223927 1.002596,-1.314005 0.672787,-0.06694 0.743795,-0.15014 0.743795,-0.87145 0,-0.750996 -0.05159,-0.80171 -0.885709,-0.870744 -0.810371,-0.06707 -0.885709,-0.133576 -0.885709,-0.781873 0,-0.648296 0.07534,-0.714802 0.885709,-0.781873 l 0.885709,-0.0733 v -1.838649 c 0,-1.481295 0.08395,-1.91462 0.431928,-2.229537 0.390168,-0.353098 1.610269,-0.390891 12.619243,-0.390891 13.886249,0 12.929622,-0.149786 12.929622,2.024478 v 1.282168 h 1.251802 c 0.688491,0 1.379344,0.127543 1.535229,0.283427 0.384506,0.384507 0.384506,4.480988 0,4.865494 -0.155885,0.155885 -0.846738,0.283427 -1.535229,0.283427 h -1.251802 v 1.72418 c 0,1.026109 -0.11475,1.83893 -0.283426,2.007607 -0.213282,0.213281 -3.367784,0.283427 -12.745899,0.283427 -12.07955,0 -12.469982,-0.01403 -12.70697,-0.456851 z M 51.052964,62.807032 V 58.201346 H 39.95208 28.851195 v 1.29904 1.29904 h 0.797743 c 1.667228,0 1.725647,1.467194 0.06405,1.608534 -0.810353,0.06893 -0.861788,0.121791 -0.861788,0.885709 0,0.740807 0.06096,0.812403 0.691696,0.812403 0.711931,0 1.434006,0.519895 1.434006,1.032484 0,0.51048 -0.544381,0.857028 -1.346278,0.857028 -0.708567,0 -0.779424,0.06442 -0.779424,0.708567 v 0.708567 h 11.100885 11.100884 z m 3.070458,-0.472378 c 0,-0.724313 -0.07311,-0.826661 -0.590473,-0.826661 -0.517367,0 -0.590473,0.102348 -0.590473,0.826661 0,0.724314 0.07311,0.826662 0.590473,0.826662 0.517367,0 0.590473,-0.102348 0.590473,-0.826662 z M 27.206181,49.005501 c -0.134474,-0.251267 -0.244498,-1.207833 -0.244498,-2.125701 0,-1.529095 -0.04086,-1.66885 -0.487905,-1.66885 -0.729031,0 -1.401607,-0.434673 -1.401607,-0.905828 0,-0.605619 0.472033,-0.983685 1.228183,-0.983685 h 0.661329 v -7.203765 -7.203765 h -0.661329 c -0.75615,0 -1.228183,-0.378065 -1.228183,-0.983684 0,-0.471156 0.672576,-0.905829 1.401607,-0.905829 0.447047,0 0.487905,-0.139756 0.487905,-1.66885 0,-2.86088 -1.395809,-2.582552 12.951468,-2.582552 9.378115,0 12.532617,0.07015 12.745899,0.283427 0.199213,0.199212 0.283426,1.532604 0.283426,4.487591 v 4.204165 h 1.251802 c 0.688491,0 1.379344,0.127542 1.535229,0.283427 0.399533,0.399532 0.399533,8.953553 0,9.353085 -0.155885,0.155885 -0.846738,0.283427 -1.535229,0.283427 h -1.251802 v 3.613692 c 0,2.495732 -0.08768,3.701375 -0.283426,3.897119 -0.213282,0.213281 -3.367784,0.283427 -12.745899,0.283427 -12.07955,0 -12.469982,-0.01403 -12.70697,-0.456851 z M 51.052964,36.117672 V 24.54441 H 39.95208 28.851195 v 1.239992 c 0,1.213589 0.01474,1.239992 0.691696,1.239992 0.711931,0 1.434006,0.519895 1.434006,1.032484 0,0.51048 -0.544381,0.857029 -1.346278,0.857029 h -0.779424 v 7.203765 7.203765 h 0.779424 c 0.801897,0 1.346278,0.346549 1.346278,0.857029 0,0.512589 -0.722075,1.032484 -1.434006,1.032484 -0.676967,0 -0.691696,0.0264 -0.691696,1.239992 v 1.239992 H 39.95208 51.052964 Z M 37.006751,46.501876 c -2.648553,-1.009623 -3.606158,-3.485777 -2.486901,-6.430572 0.60817,-1.600105 0.608128,-2.890538 -1.18e-4,-3.663797 -0.540204,-0.68676 -0.595192,-1.135396 -0.188951,-1.541637 0.594601,-0.594601 2.041915,-0.05601 3.536217,1.315927 l 0.63109,0.579415 0.253301,-0.912243 c 0.139316,-0.501734 0.253894,-1.56351 0.254617,-2.359505 9.44e-4,-0.975706 0.113054,-1.539995 0.344255,-1.731872 0.66602,-0.552749 1.134515,-0.157933 1.810559,1.525812 0.55121,1.372839 0.945478,1.913771 2.324034,3.188552 0.943282,0.872276 1.813879,1.914425 2.016078,2.413351 0.446686,1.102204 0.458299,3.025215 0.02454,4.063349 -0.465318,1.113662 -1.941152,2.678693 -3.077297,3.263284 -1.254825,0.645656 -4.109276,0.79775 -5.441424,0.289936 z m 4.28804,-1.778331 c 0.814528,-0.307749 1.891926,-1.301642 2.339306,-2.157993 0.183256,-0.350785 0.333196,-1.197164 0.333196,-1.880842 0,-1.230653 -0.0159,-1.257841 -1.594276,-2.726516 -0.876851,-0.815908 -1.662468,-1.484091 -1.745812,-1.484854 -0.08335,-7.09e-4 -0.222438,0.290899 -0.309094,0.648135 -0.08666,0.357236 -0.376216,1.107103 -0.643464,1.666368 -0.406604,0.850902 -0.583547,1.005084 -1.084216,0.944756 -0.329073,-0.03965 -0.676429,-0.231519 -0.771906,-0.426375 -0.09548,-0.194856 -0.318765,-0.662765 -0.4962,-1.039799 l -0.322608,-0.685515 -0.149201,1.039799 c -0.08206,0.571889 -0.321203,1.451348 -0.531425,1.954351 -1.09941,2.630579 0.08072,4.377074 2.968093,4.392518 0.738492,0.0039 1.641915,-0.105865 2.007607,-0.244033 z m 12.828631,-8.0154 v -3.070458 h -0.590473 -0.590473 v 3.070458 3.070457 h 0.590473 0.590473 z"
       id="path2278"
       sodipodi:nodetypes="sssscssscccssscsssssscccscscccccccccccccccccccccccccccssscccsssssscccsssssssssssssscssssssssssssscsssscsssscsssssccccccsssssssccccsssssssssscccssssssscsssscssssccccsssscccssssccccssssscscssssssssssscssssscsscsccccccccc" />
  </g>
</svg>
