<?xml version="1.0" encoding="UTF-8" standalone="no"?>
<!-- Created with Inkscape (http://www.inkscape.org/) -->

<svg
   width="309"
   height="348"
   viewBox="0 0 81.756248 92.075003"
   version="1.1"
   id="svg5"
   inkscape:version="1.1 (c68e22c387, 2021-05-23)"
   sodipodi:docname="node_openevse.svg"
   inkscape:export-filename="C:\Users\jfridisch\ownCloud\Git\jmqtt-crash-doc-logs\nouveau logo jmqtt\logo_eq.png"
   inkscape:export-xdpi="96"
   inkscape:export-ydpi="96"
   xmlns:inkscape="http://www.inkscape.org/namespaces/inkscape"
   xmlns:sodipodi="http://sodipodi.sourceforge.net/DTD/sodipodi-0.dtd"
   xmlns="http://www.w3.org/2000/svg"
   xmlns:svg="http://www.w3.org/2000/svg">
  <sodipodi:namedview
     id="namedview7"
     pagecolor="#505050"
     bordercolor="#ffffff"
     borderopacity="1"
     inkscape:pageshadow="0"
     inkscape:pageopacity="0"
     inkscape:pagecheckerboard="1"
     inkscape:document-units="px"
     showgrid="false"
     units="px"
     inkscape:zoom="1.4142136"
     inkscape:cx="96.520076"
     inkscape:cy="160.15969"
     inkscape:window-width="1920"
     inkscape:window-height="1017"
     inkscape:window-x="1912"
     inkscape:window-y="-8"
     inkscape:window-maximized="1"
     inkscape:current-layer="svg5" />
  <defs
     id="defs5035" />
  <path
     style="fill:#f8d800;fill-opacity:1;stroke-width:0.239729"
     d="m 15.578736,74.407886 c -2.404614,-2.409223 -3.2856,-3.442468 -3.176842,-3.725887 0.08277,-0.215693 0.888924,-1.439438 1.791454,-2.719433 0.90253,-1.279992 1.844394,-2.677861 2.093031,-3.106376 0.248636,-0.428515 0.536685,-0.779118 0.640108,-0.779118 0.260684,0 0.237572,-1.858919 -0.02513,-2.021278 -0.117244,-0.07246 -0.284104,-0.414366 -0.3708,-0.759788 -0.08669,-0.345423 -0.379091,-1.128556 -0.649769,-1.740298 -0.270678,-0.611742 -0.587042,-1.328012 -0.703032,-1.591713 -0.11599,-0.263702 -0.316258,-0.770689 -0.445042,-1.126636 -0.26508,-0.732666 -0.650267,-0.863039 -4.450449,-1.506346 -4.0874971,-0.691946 -4.7706581,-0.850442 -4.9617411,-1.151146 -0.235999,-0.371387 -0.244272,-9.074089 -0.009,-9.420461 0.177292,-0.260961 0.855635,-0.417049 5.6898821,-1.30923 1.450358,-0.267671 2.883555,-0.539696 3.184882,-0.604504 0.309032,-0.06647 0.653831,-0.396533 0.790937,-0.757149 0.133687,-0.351624 0.561383,-1.327039 0.950435,-2.167587 0.389052,-0.840548 0.707367,-1.575858 0.707367,-1.634021 0,-0.05816 0.223168,-0.580522 0.495929,-1.160794 l 0.49593,-1.055046 -0.914776,-1.399561 C 16.208985,33.901757 15.737507,33.218015 15.664384,33.15209 15.536,33.036344 14.786025,31.944378 13.116091,29.441764 c -0.437897,-0.656246 -0.796177,-1.304959 -0.796177,-1.441583 0,-0.373043 6.547877,-6.834518 6.925908,-6.834518 0.179943,0 1.041569,0.523859 1.914726,1.164131 2.787637,2.044131 5.992191,4.109897 6.375546,4.109897 0.20427,0 0.855675,-0.215756 1.447567,-0.479457 2.503272,-1.115267 3.161449,-1.387931 4.028859,-1.669047 1.087226,-0.352353 1.18686,-0.569048 1.712678,-3.724846 0.387559,-2.326025 0.715208,-4.031867 1.059051,-5.513756 l 0.16687,-0.719185 h 5.008447 5.008445 l 0.320301,1.797963 c 0.176167,0.988881 0.419219,2.283415 0.540118,2.876743 0.120898,0.593328 0.34795,1.81104 0.504555,2.706026 0.156607,0.894986 0.460542,1.824719 0.675409,2.066073 0.214866,0.241354 1.733338,0.954954 3.374383,1.585778 l 2.983714,1.146953 0.795067,-0.456148 c 0.437286,-0.250881 2.249962,-1.454017 4.028168,-2.673636 1.778206,-1.219619 3.346232,-2.217489 3.484502,-2.217489 0.198174,0 5.638505,5.366376 6.734999,6.643446 0.182143,0.21214 -0.468597,1.308134 -2.409339,4.057869 -1.462383,2.071975 -2.65888,3.97081 -2.65888,4.219632 0,0.248821 0.280761,1.065787 0.623913,1.815481 0.343152,0.749691 0.896088,2.064283 1.228748,2.921313 0.703716,1.81299 1.264915,2.396245 2.309214,2.39997 0.413908,0.0014 1.939217,0.220574 3.389574,0.486886 1.450358,0.266312 3.044186,0.549355 3.541841,0.628986 0.497655,0.07963 0.96928,0.24907 1.048055,0.376532 0.284423,0.460207 0.07497,9.159634 -0.227088,9.431959 -0.158082,0.142518 -1.90559,0.559644 -3.88335,0.926941 -4.115123,0.764236 -5.154164,1.036848 -5.154164,1.352285 0,0.123062 -0.209475,0.681054 -0.465498,1.239984 -0.811359,1.771287 -2.171516,5.292312 -2.171516,5.62138 0,0.174201 1.132717,1.93659 2.51715,3.916419 1.384432,1.979832 2.517149,3.678678 2.517149,3.775216 0,0.309289 -6.586906,6.761638 -6.902645,6.761638 -0.324784,0 -6.669483,-4.211393 -6.895394,-4.576924 -0.265612,-0.429771 -1.209047,-0.201912 -2.57544,0.622019 -1.631779,0.983958 -1.91748,1.021747 -2.260947,0.299044 -0.559375,-1.177002 -1.263043,-2.818961 -1.263043,-2.947215 0,-0.07459 -0.20569,-0.588191 -0.45709,-1.141322 -0.251399,-0.553132 -1.124284,-2.623862 -1.939742,-4.601623 -0.815459,-1.97776 -1.742484,-4.165484 -2.06006,-4.861608 -0.317573,-0.696122 -0.577407,-1.357715 -0.577407,-1.470203 0,-0.112487 0.70296,-0.720619 1.562133,-1.351402 3.043129,-2.234184 4.43108,-4.770766 4.43108,-8.098124 0,-3.048194 -0.906059,-5.141822 -3.122414,-7.214964 -6.196707,-5.796293 -16.546565,-1.394136 -16.532733,7.031951 0.0057,3.447672 1.383584,5.954128 4.612181,8.389602 0.758141,0.571899 1.378439,1.185973 1.378439,1.364604 0,0.178634 -0.323633,1.031397 -0.719186,1.895031 -0.395552,0.863634 -0.719185,1.632146 -0.719185,1.707804 0,0.07566 -0.149265,0.477501 -0.331698,0.892979 -1.046655,2.383672 -1.411591,3.250679 -2.790138,6.628766 -0.833999,2.043685 -1.648638,3.862971 -1.810311,4.042856 -0.245002,0.272605 -0.561077,0.182791 -1.898206,-0.539389 -0.88234,-0.476549 -1.756944,-0.866453 -1.943566,-0.866453 -0.186619,0 -1.896671,1.078778 -3.800114,2.397285 -1.903442,1.318507 -3.603167,2.397286 -3.777164,2.397286 -0.173999,0 -1.81366,-1.500171 -3.643693,-3.333714 z"
     id="path1298" />
</svg>
