<?xml version="1.0" encoding="UTF-8"?>
<svg width="309" height="348" version="1.1" viewBox="0 0 81.756 92.075" xmlns="http://www.w3.org/2000/svg">
 <g>
  <g transform="matrix(.12093 0 0 .12093 -12.848 -30.002)" fill="#f8d800">
   <g transform="matrix(.80924 0 0 .80924 146.56 302.7)">
    <path d="m368.73 387.5c-71.528 0-135.24 33.634-176.19 85.936h-38.344c-60.166-2e-5 -109.12 48.927-109.12 109.09v65.783c0 60.166 48.957 109.12 109.12 109.12h45.374c41.02 47.387 101.61 77.377 169.16 77.377 67.55 0 128.13-29.989 169.15-77.377h43.69c60.19-2e-5 109.15-48.956 109.15-109.12v-65.783c0-60.166-48.963-109.09-109.15-109.09h-36.656c-40.949-52.302-104.66-85.936-176.19-85.936zm102.18 106.93h110.66c48.581 0 88.141 39.539 88.141 88.12v65.762c0 48.581-39.56 88.115-88.141 88.115h-243.65c27.181-19.861 44.878-51.96 44.878-88.115v-65.762c0-48.581 39.535-88.12 88.115-88.12zm-162.46 38.071c12.565 0 21.285 7.2966 21.285 17.67 0 11.12-8.7205 18.042-21.285 18.042-11.982 0-20.909-6.9223-20.909-18.042 0-10.373 8.9272-17.67 20.909-17.67zm-208.05 7.9013h40.562l3.846 23.755c3.2636 20.094 7.1351 44.85 8.5338 61.681 1.6318-16.644 6.0836-41.214 10.559-61.518l4.8502-23.918h36.131l4.8716 23.918c4.4526 20.304 8.9043 44.874 10.559 61.518 1.3986-16.831 5.2722-41.586 8.5124-61.681l3.846-23.755h40.186l-33.892 142.04h-36.319l-6.504-30.84c-4.639-21.889-8.9058-48.487-9.7218-58.813-0.83923 10.327-5.0828 36.924-9.7217 58.813l-6.5253 30.84h-35.9zm189.78 38.861h36.532v103.17h-36.532z" fill-rule="evenodd"/>
    <path d="m477.34 573.87v31.75h75.575v33.312h-75.575v43.499h-39.163v-142.04h122.78v33.475z"/>
    <path d="m601.97 568.21c-11.959 0-20.91-6.9235-20.91-18.043 0-10.373 8.9516-17.67 20.91-17.67 12.565 0 21.283 7.2964 21.283 17.67 0 11.12-8.7183 18.043-21.283 18.043zm-18.253 114.23v-103.18h36.505v103.18z"/>
   </g>
   <g transform="matrix(.057007 0 0 -.057007 76.422 640.3)">
    <path d="m6169 6226c-2-2-51-7-109-10-439-29-987-166-1450-363-519-221-1027-554-1389-911-82-81-102-107-120-157-60-160 18-347 181-436 59-32 69-34 158-34 86 0 100 3 147 29 29 16 92 65 140 110 395 364 836 637 1336 825 152 57 374 124 497 151 372 81 500 94 900 95 309 0 362-2 510-23 303-43 520-95 805-193 512-175 1010-472 1409-841 137-126 188-152 301-153 71 0 88 4 147 33 71 35 141 103 174 169 15 31 19 60 19 153 0 144-7 159-128 278-328 322-794 638-1252 849-504 232-1051 376-1610 423-113 9-657 14-666 6z"/>
    <path d="m6195 4939c-787-66-1561-412-2102-941-111-108-128-145-128-273 0-89 3-105 27-150 36-67 107-139 171-172 40-20 71-27 132-31 121-6 169 16 297 134 123 114 297 247 428 329 224 139 526 268 760 325 47 11 101 25 120 30s100 19 180 32c207 32 550 32 762 0 561-86 1063-325 1473-702 131-120 182-145 295-145 72 0 93 4 141 28 63 30 146 112 178 174 46 91 43 224-6 315-50 92-339 338-576 492-467 302-966 482-1522 546-126 15-499 20-630 9z"/>
    <path d="m6230 3653c-103-11-321-60-439-99-316-106-596-274-819-493-118-116-137-154-136-271 1-69 6-96 26-140 53-115 155-197 273-220 51-10 71-9 124 5 78 20 127 50 211 130 271 257 616 395 989 395 387 0 722-136 1017-412 100-93 146-113 264-113 105 0 160 24 239 103 77 78 106 145 106 252 0 118-27 171-145 283-330 315-769 520-1230 577-78 9-399 12-480 3z"/>
    <path d="m6270 2447c-135-37-242-101-342-204-226-234-276-555-132-852 40-82 60-108 138-186 103-102 185-154 301-191 97-31 258-43 358-25 241 42 470 233 565 471 107 270 39 583-172 790-78 77-183 143-285 181-77 29-99 32-216 36-112 3-142 0-215-20z"/>
   </g>
  </g>
 </g>
</svg>
