<?xml version="1.0" encoding="UTF-8" standalone="no"?>
<!-- Svg Vector Icons : http://www.onlinewebfonts.com/icon -->

<svg
   xmlns:dc="http://purl.org/dc/elements/1.1/"
   xmlns:cc="http://creativecommons.org/ns#"
   xmlns:rdf="http://www.w3.org/1999/02/22-rdf-syntax-ns#"
   xmlns:svg="http://www.w3.org/2000/svg"
   xmlns="http://www.w3.org/2000/svg"
   xmlns:sodipodi="http://sodipodi.sourceforge.net/DTD/sodipodi-0.dtd"
   xmlns:inkscape="http://www.inkscape.org/namespaces/inkscape"
   version="1.1"
   x="0px"
   y="0px"
   viewBox="0 0 309 309"
   enable-background="new 0 0 1000 1000"
   xml:space="preserve"
   id="svg16"
   sodipodi:docname="ecb8a9b9dd75ddefc7895100cd444efa.svg"
   width="309"
   height="309"
   inkscape:version="0.92.3 (2405546, 2018-03-11)"><defs
   id="defs20" /><sodipodi:namedview
   pagecolor="#ffffff"
   bordercolor="#666666"
   borderopacity="1"
   objecttolerance="10"
   gridtolerance="10"
   guidetolerance="10"
   inkscape:pageopacity="0"
   inkscape:pageshadow="2"
   inkscape:window-width="1853"
   inkscape:window-height="1025"
   id="namedview18"
   showgrid="false"
   inkscape:zoom="0.944"
   inkscape:cx="254.88052"
   inkscape:cy="182.04212"
   inkscape:window-x="67"
   inkscape:window-y="27"
   inkscape:window-maximized="1"
   inkscape:current-layer="svg16" />
<metadata
   id="metadata2"> Svg Vector Icons : http://www.onlinewebfonts.com/icon <rdf:RDF><cc:Work
     rdf:about=""><dc:format>image/svg+xml</dc:format><dc:type
       rdf:resource="http://purl.org/dc/dcmitype/StillImage" /><dc:title></dc:title></cc:Work></rdf:RDF></metadata>
<g
   id="g14"
   transform="matrix(0.31530739,0,0,0.31530739,-3.1473889,-3.1536113)"
   style="fill:#f8d800;fill-opacity:1"><g
     transform="matrix(0.1,0,0,-0.1,0,511)"
     id="g12"
     style="fill:#f8d800;fill-opacity:1"><path
       d="m 3632.5,4929.9 c -365.9,-245.3 -525.3,-678.6 -361.8,-991.4 65.4,-126.7 124.7,-192.1 337.3,-376.1 198.3,-173.8 247.3,-245.3 247.3,-357.7 -2,-177.8 -108.3,-343.4 -294.3,-468.1 -114.5,-75.6 -134.9,-104.3 -134.9,-188.1 0,-65.4 85.9,-151.3 149.2,-151.3 65.4,0 271.9,134.9 363.8,239.2 233,259.6 300.5,592.8 171.7,840.1 -63.4,122.6 -124.7,190.1 -335.2,372 -198.3,173.7 -247.3,245.3 -247.3,357.7 0,165.6 81.8,282.1 365.9,523.3 79.7,69.5 85.8,161.5 12.3,233 -69.6,71.6 -128.8,63.4 -274,-32.6 z"
       id="path4"
       inkscape:connector-curvature="0"
       style="fill:#f8d800;fill-opacity:1" /><path
       d="m 5098.1,4925.8 c -71.5,-49.1 -171.7,-143.1 -226.9,-208.5 -132.9,-165.6 -184,-306.6 -186,-511 -2,-247.3 67.5,-361.8 394.5,-643.9 198.3,-173.8 247.3,-245.3 247.3,-357.7 -2,-177.8 -108.3,-343.4 -294.4,-468.1 -114.5,-75.6 -134.9,-104.3 -134.9,-188.1 0,-65.4 85.9,-151.3 149.2,-151.3 69.5,0 275.9,139 380.2,257.6 220.8,251.4 284.1,576.4 157.4,817.6 -65.4,126.7 -124.7,192.1 -337.3,376.1 -198.3,173.7 -247.3,245.3 -247.3,357.7 0,165.6 81.8,282.1 365.9,523.3 79.7,69.5 85.8,161.5 12.3,233 -69.4,71.6 -132.8,63.4 -280,-36.7 z"
       id="path6"
       inkscape:connector-curvature="0"
       style="fill:#f8d800;fill-opacity:1" /><path
       d="m 6569.8,4925.8 c -71.5,-49.1 -171.7,-143.1 -226.9,-208.5 -132.9,-165.6 -184,-306.6 -186,-511 -2,-247.3 67.5,-361.8 394.5,-643.9 198.3,-173.8 247.3,-245.3 247.3,-357.7 -2,-177.8 -108.3,-343.4 -294.4,-468.1 -114.5,-75.6 -134.9,-104.3 -134.9,-188.1 0,-61.3 83.8,-151.3 143.1,-151.3 120.6,0 419,249.4 509,425.2 116.5,226.9 128.8,470.1 34.7,650 -65.4,126.7 -124.7,192.1 -337.3,376.1 -198.3,173.7 -247.3,245.3 -247.3,357.7 0,165.6 81.8,282.1 365.9,523.3 79.7,69.5 85.8,161.5 12.2,233 -69.3,71.6 -132.7,63.4 -279.9,-36.7 z"
       id="path8"
       inkscape:connector-curvature="0"
       style="fill:#f8d800;fill-opacity:1" /><path
       d="M 625.7,2051.8 C 482.6,2004.8 378.4,1916.9 306.8,1784 270,1714.5 268,1606.2 268,-1036.8 V -3786 l 45,-81.8 c 75.6,-143.1 204.4,-237.1 359.7,-265.7 l 75.6,-14.3 v -251.4 c 0,-139 8.2,-275.9 18.4,-302.5 26.6,-69.5 128.8,-108.3 204.4,-77.7 87.9,36.8 104.2,100.1 104.2,378.2 v 253.4 l 75.6,14.3 c 245.3,45 392.5,224.8 410.8,494.7 l 10.2,149.2 h 157.4 157.4 l 10.2,-149.2 c 14.3,-220.8 100.2,-359.8 282.1,-455.8 106.3,-57.2 629.6,-57.2 735.9,0 181.9,96.1 267.8,235.1 282.1,457.9 l 10.2,147.2 h 157.4 157.4 l 10.2,-147.2 c 14.3,-222.8 100.2,-361.8 282.1,-457.9 106.3,-57.2 629.6,-57.2 735.9,0 181.9,96.1 267.8,235.1 282.1,457.9 l 10.2,147.2 h 157.5 157.4 l 10.2,-149.2 c 14.3,-220.8 100.1,-359.8 282.1,-455.8 61.3,-32.7 118.5,-38.8 367.9,-38.8 265.7,0 304.6,4.1 378.1,45 173.8,92 257.6,233 271.9,449.7 l 10.2,149.2 h 157.4 157.4 l 10.2,-149.2 c 14.3,-220.8 100.1,-359.8 282.1,-455.8 61.3,-32.7 118.5,-38.8 367.9,-38.8 265.7,0 304.6,4.1 378.1,45 173.7,92 257.5,233 271.8,449.7 l 10.2,149.2 h 157.4 157.4 l 10.2,-149.2 c 18.4,-269.8 165.6,-449.7 410.8,-494.7 l 75.6,-14.3 v -251.4 c 0,-139 8.2,-275.9 18.4,-302.5 26.6,-69.5 128.8,-108.3 204.4,-77.7 87.9,36.8 104.2,100.1 104.2,378.2 v 253.4 l 75.6,14.3 c 157.4,28.6 286.2,126.7 365.9,276 36.8,69.5 38.8,177.8 38.8,2820.8 0,2643 -2,2751.3 -38.8,2820.8 -53.1,100.2 -130.8,179.9 -226.9,231 -73.6,40.9 -112.4,45 -378.1,45 -265.7,0 -304.6,-4.1 -378.2,-45 -173.7,-92 -257.5,-233 -271.9,-449.7 l -10.2,-149.2 h -157.4 -157.4 l -10.2,149.2 c -14.3,216.7 -98.1,357.7 -271.8,449.7 -73.6,40.9 -112.4,45 -378.1,45 -265.7,0 -304.6,-4.1 -378.2,-45 -173.7,-92 -257.5,-233 -271.8,-449.7 l -10.2,-149.2 H 6635 6477.6 l -10.2,149.2 c -14.3,216.7 -98.1,357.7 -271.9,449.7 -73.6,40.9 -112.4,45 -378.1,45 -249.4,0 -306.6,-6.1 -367.9,-38.8 -181.9,-96.1 -267.8,-235.1 -282.1,-455.8 l -10.2,-149.2 H 5000 4842.6 l -10.2,149.2 c -14.3,220.8 -100.2,359.8 -282.1,455.8 -61.3,32.7 -118.5,38.8 -367.9,38.8 -265.7,0 -304.6,-4.1 -378.2,-45 -173.7,-92 -257.6,-233 -271.9,-449.7 l -10.2,-149.2 h -157.4 -157.4 l -10.2,149.2 c -14.3,216.7 -98.1,357.7 -271.9,449.7 -73.6,40.9 -112.4,45 -378.1,45 -249.4,0 -306.6,-6.1 -367.9,-38.8 -181.9,-96.1 -267.8,-235.1 -282.1,-455.8 l -10.2,-149.2 h -157.4 -157.4 l -10.2,149.2 c -14.3,220.8 -102.2,361.8 -282.1,455.8 -57.2,30.7 -124.7,38.8 -337.3,42.9 -147.1,1.6 -288.2,-2.4 -316.8,-12.7 z m 562.1,-359.7 51.1,-49.1 v -2679.8 -2679.7 l -51.1,-49.1 c -47,-49.1 -63.4,-51.1 -275.9,-51.1 -212.5,0 -228.9,2 -275.9,51.1 l -51.1,49.1 V -1036.8 1643 l 51.1,49.1 c 47,49.1 63.4,51.1 275.9,51.1 212.5,0 228.9,-2.1 275.9,-51.1 z m 1635.3,0 51.1,-49.1 v -2679.8 -2679.7 l -51.1,-49.1 c -47,-49.1 -63.4,-51.1 -275.9,-51.1 -212.5,0 -228.9,2 -275.9,51.1 l -51.1,49.1 V -1036.8 1643 l 51.1,49.1 c 47,49.1 63.4,51.1 275.9,51.1 212.5,0 228.9,-2.1 275.9,-51.1 z m 1635.2,0 51.1,-49.1 v -2679.8 -2679.7 l -51.1,-49.1 c -47,-49.1 -63.4,-51.1 -275.9,-51.1 -212.5,0 -228.9,2 -276,51.1 l -51.1,49.1 V -1036.8 1643 l 51.1,49.1 c 47,49.1 63.4,51.1 276,51.1 212.6,0 228.9,-2.1 275.9,-51.1 z m 1635.3,0 51.1,-49.1 v -2679.8 -2679.7 l -51.1,-49.1 c -47,-49.1 -63.4,-51.1 -276,-51.1 -212.6,0 -228.9,2 -275.9,51.1 l -51.1,49.1 V -1036.8 1643 l 51.1,49.1 c 47,49.1 63.3,51.1 275.9,51.1 212.6,0 229,-2.1 276,-51.1 z m 1635.2,0 51.1,-49.1 v -2679.8 -2679.7 l -51.1,-49.1 c -47,-49.1 -63.3,-51.1 -275.9,-51.1 -212.6,0 -228.9,2 -275.9,51.1 l -51.1,49.1 V -1036.8 1643 l 51.1,49.1 c 47,49.1 63.3,51.1 275.9,51.1 212.6,0 228.9,-2.1 275.9,-51.1 z m 1635.3,0 51.1,-49.1 v -2679.8 -2679.7 l -51.1,-49.1 c -47,-49.1 -63.4,-51.1 -275.9,-51.1 -212.5,0 -228.9,2 -275.9,51.1 l -51.1,49.1 V -1036.8 1643 l 51.1,49.1 c 47,49.1 63.4,51.1 275.9,51.1 212.5,0 228.8,-2.1 275.9,-51.1 z M 1893,925.6 V 762 H 1729.5 1566 V 925.5 1089 h 163.5 163.5 z m 1635.3,0 V 762 H 3364.8 3201.3 V 925.5 1089 h 163.5 163.5 z m 1635.2,0 V 762 H 5000 4836.5 V 925.5 1089 h 163.5 163.5 z m 1635.3,0 V 762 H 6635.3 6471.8 V 925.5 1089 h 163.5 163.5 z m 1635.2,0 V 762 H 8270.5 8107 V 925.5 1089 H 8270.5 8434 Z M 1893,-1036.7 V -2508.4 H 1729.5 1566 V -1036.7 435 h 163.5 163.5 z m 1635.3,0 V -2508.4 H 3364.8 3201.3 V -1036.7 435 h 163.5 163.5 z m 1635.2,0 V -2508.4 H 5000 4836.5 V -1036.7 435 h 163.5 163.5 z m 1635.3,0 V -2508.4 H 6635.3 6471.8 V -1036.7 435 h 163.5 163.5 z m 1635.2,0 V -2508.4 H 8270.5 8107 V -1036.7 435 H 8270.5 8434 Z M 1893,-2999 v -163.5 H 1729.5 1566 v 163.5 163.5 h 163.5 163.5 z m 1635.3,0 v -163.5 h -163.5 -163.5 v 163.5 163.5 h 163.5 163.5 z m 1635.2,0 v -163.5 H 5000 4836.5 v 163.5 163.5 h 163.5 163.5 z m 1635.3,0 v -163.5 h -163.5 -163.5 v 163.5 163.5 h 163.5 163.5 z m 1635.2,0 v -163.5 H 8270.5 8107 v 163.5 163.5 h 163.5 163.5 z"
       id="path10"
       inkscape:connector-curvature="0"
       style="fill:#f8d800;fill-opacity:1" /></g></g>
</svg>