<?xml version="1.0" encoding="UTF-8"?>
<svg width="309" height="348" version="1.1" viewBox="0 0 81.756 92.075" xmlns="http://www.w3.org/2000/svg">
 <path transform="scale(.26458)" d="m113.12 33.605-8.4062 0.38672c-19.964 0.9198-41.96 10.526-57.646 25.176-19.245 17.972-29.738 38.945-32.34 64.629l-0.88477 8.7285h5.8711 5.8691l0.85937-8.082c2.9418-27.658 16.728-50.06 40.416-65.672 11.049-7.2818 21.299-10.985 36.164-13.064l10.873-1.5195-0.38867-5.291-0.38672-5.291zm0.64648 31.307-8.4082 0.78516c-29.483 2.7532-55.678 29.047-58.443 58.662l-0.76172 8.166h6.0059c5.9722 0 6.0039-0.02455 6.0039-4.4102 0-11.553 9.5838-30.488 19.342-38.217 7.4567-5.9058 20.401-11.514 28.756-12.459l7.5059-0.84961v-5.8398-5.8379zm-0.64648 32.055-4.5254 0.43164c-10.016 0.95657-21.716 9.049-26.523 18.346-2.2968 4.4415-4.5875 14.32-3.666 15.811 0.37662 0.6093 3.0826 0.93227 6.0117 0.71679 5.0406-0.37084 5.3798-0.6582 6.3535-5.375 1.8926-9.1686 8.5774-15.535 18.471-17.592 3.6097-0.75045 3.8789-1.2071 3.8789-6.5723v-5.7656zm78.498 8.4277c-28.882-0.05396-54.431 10.503-75.016 31-12.057 12.006-19.58 24.567-25.564 42.682-3.3083 10.014-3.6375 12.714-3.7051 30.387-0.085357 22.312 1.8986 30.911 11.328 49.096 15.385 29.668 44.966 50.324 78.715 54.965 31.626 4.3487 66.208-7.8459 88.4-31.174 20.245-21.281 29.346-43.865 29.375-72.887 0.02228-22.712-5.6221-40.791-18.594-59.555-19.194-27.764-51.035-44.45-84.939-44.514zm0.19922 11.725c13.371 0.12665 26.745 3.0967 38.926 8.9707 54.661 26.36 70.25 95.966 31.867 142.29-12.915 15.587-32.272 27.833-49.746 31.469-34.156 7.1065-63.766-1.2229-86.814-24.42-18.282-18.399-26.339-36.434-27.463-61.471-0.55452-12.354-0.20963-16.716 2.0117-25.5 6.2731-24.807 20.57-44.413 42.193-57.857 14.646-9.1064 31.834-13.643 49.025-13.48zm9.2617 51.701c-0.9407 0.01438-1.9891 0.06957-3.1875 0.15625-14.675 1.0615-23.312 12.365-24.389 31.916-1.0694 19.417 4.358 32.519 15.664 37.812 11.381 5.328 25.539-0.01227 31.443-11.857 9.5374-19.135 4.7652-46.758-9.5254-55.133-3.8423-2.2517-5.9295-2.9568-10.006-2.8945zm-45.676 0.07422c-12.307 0.05077-20.623 5.9541-26.305 18.586-4.3776 9.7321-4.1877 27.046 0.4043 36.992 3.6105 7.8204 9.2933 13.035 16.59 15.223 4.8899 1.4662 17.009 0.83082 20.576-1.0781 1.5964-0.85439 2.0592-2.3895 1.6855-5.5898l-0.51562-4.4102-9.3574 0.59961c-8.9879 0.57681-9.5368 0.44285-13.883-3.373-5.4183-4.7573-7.5566-11.117-7.5566-22.469 0-18.439 11.222-27.497 28.311-22.85 2.3816 0.64768 4.7754-7.6718 2.7812-9.666-0.76966-0.76966-5.3677-1.6244-10.217-1.8984-0.85635-0.04839-1.6932-0.06979-2.5137-0.06641zm43.484 9.9648c3.0898-0.0071 6.2568 1.5049 9.0684 4.707 2.1684 2.4697 4.5528 6.6886 5.2988 9.375 3.1136 11.212 0.35512 28.251-5.457 33.711-3.4854 3.2744-9.4515 4.5777-13.379 2.9219-8.9787-3.7855-13.361-22.099-8.8906-37.152 2.586-8.7079 7.8514-13.55 13.359-13.562zm42.268 35.287c-5.8975-0.0212-11.436 2.9064-10.271 6.6992 1.1571 3.7672 0.82658 3.6475 5.3828 1.9277 4.8785-1.8414 8.0996 0.16066 8.0996 5.0352 0 4.2016-1.8794 7.5301-8.6094 15.252-3.0885 3.5437-5.6152 7.7626-5.6152 9.375 0 2.8255 0.41509 2.9316 11.424 2.9316 6.2822 0 11.725-0.30542 12.098-0.67774 0.3719-0.37231 0.40117-2.1176 0.06445-3.8789-0.54053-2.8275-1.2745-3.2012-6.2793-3.2012-3.1174 0-5.668-0.47461-5.668-1.0527s1.7176-2.6963 3.8184-4.709c9.4532-9.0567 10.369-22.518 1.7969-26.424-1.9265-0.87779-4.1071-1.2697-6.2402-1.2774z" fill="#f8d800" stroke-width="1.2931"/>
</svg>
