<?xml version="1.0" encoding="UTF-8"?>
<svg width="309" height="348" version="1.1" viewBox="0 0 81.756 92.075" xmlns="http://www.w3.org/2000/svg">
 <path d="m15.579 74.408c-2.4046-2.4092-3.2856-3.4425-3.1768-3.7259 0.08277-0.21569 0.88892-1.4394 1.7915-2.7194 0.90253-1.28 1.8444-2.6779 2.093-3.1064 0.24864-0.42852 0.53668-0.77912 0.64011-0.77912 0.26068 0 0.23757-1.8589-0.02513-2.0213-0.11724-0.07246-0.2841-0.41437-0.3708-0.75979-0.08669-0.34542-0.37909-1.1286-0.64977-1.7403s-0.58704-1.328-0.70303-1.5917c-0.11599-0.2637-0.31626-0.77069-0.44504-1.1266-0.26508-0.73267-0.65027-0.86304-4.4504-1.5063-4.0875-0.69195-4.7707-0.85044-4.9617-1.1511-0.236-0.37139-0.24427-9.0741-9e-3 -9.4205 0.17729-0.26096 0.85564-0.41705 5.6899-1.3092 1.4504-0.26767 2.8836-0.5397 3.1849-0.6045 0.30903-0.06647 0.65383-0.39653 0.79094-0.75715 0.13369-0.35162 0.56138-1.327 0.95044-2.1676s0.70737-1.5759 0.70737-1.634c0-0.05816 0.22317-0.58052 0.49593-1.1608l0.49593-1.055-0.91478-1.3996c-0.50312-0.76976-0.9746-1.4535-1.0477-1.5194-0.12838-0.11575-0.87836-1.2077-2.5483-3.7103-0.4379-0.65625-0.79618-1.305-0.79618-1.4416 0-0.37304 6.5479-6.8345 6.9259-6.8345 0.17994 0 1.0416 0.52386 1.9147 1.1641 2.7876 2.0441 5.9922 4.1099 6.3755 4.1099 0.20427 0 0.85568-0.21576 1.4476-0.47946 2.5033-1.1153 3.1614-1.3879 4.0289-1.669 1.0872-0.35235 1.1869-0.56905 1.7127-3.7248 0.38756-2.326 0.71521-4.0319 1.0591-5.5138l0.16687-0.71918h10.017l0.3203 1.798c0.17617 0.98888 0.41922 2.2834 0.54012 2.8767 0.1209 0.59333 0.34795 1.811 0.50456 2.706 0.15661 0.89499 0.46054 1.8247 0.67541 2.0661 0.21487 0.24135 1.7333 0.95495 3.3744 1.5858l2.9837 1.147 0.79507-0.45615c0.43729-0.25088 2.25-1.454 4.0282-2.6736s3.3462-2.2175 3.4845-2.2175c0.19817 0 5.6385 5.3664 6.735 6.6434 0.18214 0.21214-0.4686 1.3081-2.4093 4.0579-1.4624 2.072-2.6589 3.9708-2.6589 4.2196 0 0.24882 0.28076 1.0658 0.62391 1.8155 0.34315 0.74969 0.89609 2.0643 1.2287 2.9213 0.70372 1.813 1.2649 2.3962 2.3092 2.4 0.41391 0.0014 1.9392 0.22057 3.3896 0.48689 1.4504 0.26631 3.0442 0.54936 3.5418 0.62899 0.49766 0.07963 0.96928 0.24907 1.0481 0.37653 0.28442 0.46021 0.07497 9.1596-0.22709 9.432-0.15808 0.14252-1.9056 0.55964-3.8834 0.92694-4.1151 0.76424-5.1542 1.0368-5.1542 1.3523 0 0.12306-0.20948 0.68105-0.4655 1.24-0.81136 1.7713-2.1715 5.2923-2.1715 5.6214 0 0.1742 1.1327 1.9366 2.5172 3.9164 1.3844 1.9798 2.5171 3.6787 2.5171 3.7752 0 0.30929-6.5869 6.7616-6.9026 6.7616-0.32478 0-6.6695-4.2114-6.8954-4.5769-0.26561-0.42977-1.209-0.20191-2.5754 0.62202-1.6318 0.98396-1.9175 1.0217-2.2609 0.29904-0.55938-1.177-1.263-2.819-1.263-2.9472 0-0.07459-0.20569-0.58819-0.45709-1.1413-0.2514-0.55313-1.1243-2.6239-1.9397-4.6016-0.81546-1.9778-1.7425-4.1655-2.0601-4.8616-0.31757-0.69612-0.57741-1.3577-0.57741-1.4702 0-0.11249 0.70296-0.72062 1.5621-1.3514 3.0431-2.2342 4.4311-4.7708 4.4311-8.0981 0-3.0482-0.90606-5.1418-3.1224-7.215-6.1967-5.7963-16.547-1.3941-16.533 7.032 0.0057 3.4477 1.3836 5.9541 4.6122 8.3896 0.75814 0.5719 1.3784 1.186 1.3784 1.3646 0 0.17863-0.32363 1.0314-0.71919 1.895-0.39555 0.86363-0.71918 1.6321-0.71918 1.7078 0 0.07566-0.14926 0.4775-0.3317 0.89298-1.0467 2.3837-1.4116 3.2507-2.7901 6.6288-0.834 2.0437-1.6486 3.863-1.8103 4.0429-0.245 0.2726-0.56108 0.18279-1.8982-0.53939-0.88234-0.47655-1.7569-0.86645-1.9436-0.86645-0.18662 0-1.8967 1.0788-3.8001 2.3973-1.9034 1.3185-3.6032 2.3973-3.7772 2.3973-0.174 0-1.8137-1.5002-3.6437-3.3337z" fill="#f8d800" stroke-width=".23973"/>
</svg>
