<?xml version="1.0" encoding="UTF-8" standalone="no"?>
<!-- Created with Inkscape (http://www.inkscape.org/) -->

<svg
   version="1.1"
   id="svg2"
   width="307"
   height="352"
   viewBox="0 0 307 352"
   sodipodi:docname="node_phone.svg"
   inkscape:version="1.1 (c68e22c387, 2021-05-23)"
   xmlns:inkscape="http://www.inkscape.org/namespaces/inkscape"
   xmlns:sodipodi="http://sodipodi.sourceforge.net/DTD/sodipodi-0.dtd"
   xmlns="http://www.w3.org/2000/svg"
   xmlns:svg="http://www.w3.org/2000/svg">
  <defs
     id="defs6" />
  <sodipodi:namedview
     id="namedview4"
     pagecolor="#505050"
     bordercolor="#ffffff"
     borderopacity="1"
     inkscape:pageshadow="0"
     inkscape:pageopacity="0"
     inkscape:pagecheckerboard="1"
     showgrid="false"
     inkscape:zoom="2.3636364"
     inkscape:cx="153.36538"
     inkscape:cy="175.78846"
     inkscape:window-width="1920"
     inkscape:window-height="1017"
     inkscape:window-x="1912"
     inkscape:window-y="-8"
     inkscape:window-maximized="1"
     inkscape:current-layer="g8" />
  <g
     inkscape:groupmode="layer"
     inkscape:label="Image"
     id="g8">
    <path
       style="color:#000000;fill:#f8d800;fill-opacity:1;-inkscape-stroke:none"
       d="M 197.8334,292.5785 C 180.57269,287.39734 166.33472,275.7147 151.33875,266.19377 106.98662,234.16707 69.163125,192.61391 42.964036,144.49421 32.556819,127.82489 33.661998,105.14628 43.663415,88.508134 53.440147,77.679485 62.365362,64.432681 76.330177,58.793162 c 17.27158,-4.819097 29.550593,10.960361 40.490233,21.471323 10.18239,10.380074 24.86276,22.551135 19.4324,38.995265 -2.30313,12.33343 -19.40364,24.43505 -3.86508,34.9081 8.51663,6.65248 15.71417,14.546 23.09719,22.35934 9.08275,9.1093 18.27287,18.1196 27.83722,26.72538 14.59012,1.42189 25.20778,-16.90563 40.31886,-10.24403 16.60392,5.56022 25.29842,22.17678 38.58809,32.44989 9.75133,9.49714 13.08181,26.63981 3.00985,37.11531 -13.20233,17.54507 -32.98999,33.23667 -56.20032,31.37494 -3.76544,-0.12941 -7.51973,-0.58724 -11.20522,-1.37018 z m 25.05787,-20.0265 c 10.95654,-6.90513 25.3793,-14.47718 27.03665,-28.74412 -8.46921,-11.55774 -19.29086,-21.08469 -30.13722,-30.33728 -14.99202,-2.48705 -24.83487,18.15119 -40.40021,11.13176 -13.49989,-5.52889 -21.09499,-19.02418 -32.10344,-27.93824 -14.51532,-14.63601 -30.6235,-28.21267 -42.34069,-45.24552 -5.208042,-13.89769 7.44606,-25.22189 11.84533,-37.31496 C 112.48952,99.649226 97.932743,92.350457 88.668745,81.530423 76.788341,74.096443 68.508686,89.385143 62.663152,97.509308 50.22018,111.32511 55.838306,132.69775 66.922058,145.5027 c 10.772164,19.17744 24.595246,36.54773 38.980522,53.11761 26.4197,29.0874 57.30699,54.575 92.0907,72.98834 7.88121,3.12532 16.79104,3.31118 24.89799,0.94335 z"
       id="path971" />
  </g>
</svg>
