<?xml version="1.0" encoding="UTF-8" standalone="no"?>
<svg
   xmlns:dc="http://purl.org/dc/elements/1.1/"
   xmlns:cc="http://creativecommons.org/ns#"
   xmlns:rdf="http://www.w3.org/1999/02/22-rdf-syntax-ns#"
   xmlns:svg="http://www.w3.org/2000/svg"
   xmlns="http://www.w3.org/2000/svg"
   xmlns:sodipodi="http://sodipodi.sourceforge.net/DTD/sodipodi-0.dtd"
   xmlns:inkscape="http://www.inkscape.org/namespaces/inkscape"
   version="1.1"
   width="24"
   height="24"
   viewBox="0 0 24 24"
   id="svg4"
   sodipodi:docname="node_fan.svg"
   inkscape:version="1.0.1 (0767f8302a, 2020-10-17)">
  <metadata
     id="metadata10">
    <rdf:RDF>
      <cc:Work
         rdf:about="">
        <dc:format>image/svg+xml</dc:format>
        <dc:type
           rdf:resource="http://purl.org/dc/dcmitype/StillImage" />
      </cc:Work>
    </rdf:RDF>
  </metadata>
  <defs
     id="defs8" />
  <sodipodi:namedview
     pagecolor="#ffffff"
     bordercolor="#666666"
     borderopacity="1"
     objecttolerance="10"
     gridtolerance="10"
     guidetolerance="10"
     inkscape:pageopacity="0"
     inkscape:pageshadow="2"
     inkscape:window-width="3768"
     inkscape:window-height="2089"
     id="namedview6"
     showgrid="false"
     inkscape:zoom="42"
     inkscape:cx="12"
     inkscape:cy="12"
     inkscape:window-x="1920"
     inkscape:window-y="34"
     inkscape:window-maximized="1"
     inkscape:current-layer="svg4" />
  <path
     d="M12,11A1,1 0 0,0 11,12A1,1 0 0,0 12,13A1,1 0 0,0 13,12A1,1 0 0,0 12,11M12.5,2C17,2 17.11,5.57 14.75,6.75C13.76,7.24 13.32,8.29 13.13,9.22C13.61,9.42 14.03,9.73 14.35,10.13C18.05,8.13 22.03,8.92 22.03,12.5C22.03,17 18.46,17.1 17.28,14.73C16.78,13.74 15.72,13.3 14.79,13.11C14.59,13.59 14.28,14 13.88,14.34C15.87,18.03 15.08,22 11.5,22C7,22 6.91,18.42 9.27,17.24C10.25,16.75 10.69,15.71 10.89,14.79C10.4,14.59 9.97,14.27 9.65,13.87C5.96,15.85 2,15.07 2,11.5C2,7 5.56,6.89 6.74,9.26C7.24,10.25 8.29,10.68 9.22,10.87C9.41,10.39 9.73,9.97 10.14,9.65C8.15,5.96 8.94,2 12.5,2Z"
     id="path2"
     style="fill:#f6d000;fill-opacity:1" />
</svg>
