<svg width="309" height="348" version="1.1" viewBox="0 0 81.756 92.075" xml:space="preserve" xmlns="http://www.w3.org/2000/svg"><path d="m33.344 84.152c-2.1018-0.24845-3.1656-0.59868-4.4335-1.0398l-2.5959-1.2614-0.0036-8.7231c-0.0017-4.1758 0.07661-7.846 0.10886-8.1563 0.07395-0.71149 0.33075-0.69433 2.2664 0.15142 2.7795 1.2145 6.3781 1.6575 11.727 1.4437 4.2207-0.16868 5.7279-0.42232 7.8382-1.319l2.6127-1.1102-0.13631 4.9272-0.13631 4.9272 1.2249-0.29744c2.086-0.50651 5.0372-2.5201 7.5738-5.1674 3.0478-3.1809 4.567-5.6848 5.9379-9.7861 2.1461-6.4207 2.301-19.29 2.301-30.13 0-10.841-0.08629-16.513 0.15232-19.234 0.17074-1.947 3.7442-2.7932 4.0367 0.22848 0.32675 3.3754 0.03068 10.146 0.06138 20.298s-0.21974 21.715-1.1014 25.042c-2.0313 7.6648-4.5011 12.524-8.5351 16.792-2.956 3.1275-5.403 4.7419-8.8958 5.869l-2.4831 0.80127-0.185 1.7235c-0.0602 2.2107-0.06015 1.9635-0.58669 2.3163-2.5002 0.56624-4.6218 1.6011-7.9846 1.9644-3.6427 0.12689-6.8769-0.03976-8.7638-0.25896zm-21.363-6.3121c-2.7185-2.3921-2.9072-5.7583-0.61058-10.891 1.3814-3.0871 3.2363-4.8238 5.1558-4.8273 0.726-0.0014 1.4677-0.98931 3.3345-4.4416 1.3228-2.4463 2.6125-5.514 2.8722-6.832 0.25931-1.3157 0.67213-6.6091 0.91738-11.763 0.24525-5.154 0.64949-10.321 0.89831-11.482 0.59283-2.7663 1.9193-4.9532 3.534-5.8264 2.5008-1.3524 6.6234-0.24374 8.5327 2.2946 0.59063 0.78521 1.3688 1.0752 3.4021 1.2681 3.2006 0.3035 5.7953 1.6169 6.819 3.4517 0.94606 1.6957 1.0019 4.1176 0.10331 4.4782-0.84096 0.33747-1.954-0.61626-1.954-1.6743 0-1.4125-2.4644-3.1723-4.4424-3.1723-1.7421 0-1.7596 0.01671-1.4907 1.423 0.14969 0.78267 0.27216 1.7792 0.27216 2.2145 0 0.64513 0.51671 0.83485 2.7945 1.0261 1.537 0.12902 3.5455 0.61814 4.4634 1.0869l1.6689 0.85236v29.14l-1.7418 0.63928c-2.4113 0.885-10.139 1.1859-13.372 0.52074-4.6404-0.9547-4.2636 0.46057-4.2636-16.016v-14.413l1.633-0.67122c0.89813-0.36917 2.3692-0.81082 3.2691-0.98145 1.5062-0.2856 1.6154-0.40798 1.3748-1.5412-0.652-3.0705-0.59245-3.0066-1.7457-1.8736-0.57611 0.56598-1.0475 1.3781-1.0475 1.8047 0 1.025-1.1262 1.9676-1.954 1.6354-1.4716-0.59052-0.3294-5.1785 1.5512-6.231 0.71528-0.40031 0.79094-0.63114 0.37763-1.1519-0.70094-0.88321-1.8738-0.81983-2.6945 0.1456-1.1764 1.384-1.62 4.1934-2.0672 13.092-0.71643 14.256-0.82929 14.814-4.2215 20.865l-2.013 3.5908 0.7801 1.381c1.0925 1.9341 0.97345 4.3405-0.41129 8.3109-1.5521 4.4501-2.8903 5.6975-6.1124 5.6975-1.843 0-2.5956-0.23531-3.6115-1.1292z" fill="#f8d800" stroke-width=".4453"/></svg>
