<?xml version="1.0" encoding="UTF-8" standalone="no"?>
<!-- Created with Inkscape (http://www.inkscape.org/) -->

<svg
   width="309"
   height="348"
   viewBox="0 0 81.756248 92.075003"
   version="1.1"
   id="svg5"
   inkscape:version="1.1 (c68e22c387, 2021-05-23)"
   sodipodi:docname="logo_wifi.svg"
   inkscape:export-filename="C:\Users\jfridisch\ownCloud\Git\jmqtt-crash-doc-logs\nouveau logo jmqtt\logo_eq.png"
   inkscape:export-xdpi="96"
   inkscape:export-ydpi="96"
   xmlns:inkscape="http://www.inkscape.org/namespaces/inkscape"
   xmlns:sodipodi="http://sodipodi.sourceforge.net/DTD/sodipodi-0.dtd"
   xmlns="http://www.w3.org/2000/svg"
   xmlns:svg="http://www.w3.org/2000/svg">
  <sodipodi:namedview
     id="namedview7"
     pagecolor="#505050"
     bordercolor="#ffffff"
     borderopacity="1"
     inkscape:pageshadow="0"
     inkscape:pageopacity="0"
     inkscape:pagecheckerboard="1"
     inkscape:document-units="px"
     showgrid="false"
     units="px"
     inkscape:zoom="2"
     inkscape:cx="89.25"
     inkscape:cy="174.75"
     inkscape:window-width="1920"
     inkscape:window-height="1017"
     inkscape:window-x="1912"
     inkscape:window-y="-8"
     inkscape:window-maximized="1"
     inkscape:current-layer="layer1-5" />
  <defs
     id="defs2">
    <linearGradient
       id="linearGradient4161"
       inkscape:swatch="solid">
      <stop
         style="stop-color:#ffff00;stop-opacity:1;"
         offset="0"
         id="stop4159" />
    </linearGradient>
    <filter
       style="color-interpolation-filters:sRGB;"
       inkscape:label="Drop Shadow"
       id="filter32959"
       x="-0.040000031"
       y="-0.14000011"
       width="1.1800001"
       height="1.1800001">
      <feFlood
         flood-opacity="0.498039"
         flood-color="rgb(0,0,0)"
         result="flood"
         id="feFlood32949" />
      <feComposite
         in="flood"
         in2="SourceGraphic"
         operator="in"
         result="composite1"
         id="feComposite32951" />
      <feGaussianBlur
         in="composite1"
         stdDeviation="1"
         result="blur"
         id="feGaussianBlur32953" />
      <feOffset
         dx="6"
         dy="-6"
         result="offset"
         id="feOffset32955" />
      <feComposite
         in="offset"
         in2="offset"
         operator="atop"
         result="composite2"
         id="feComposite32957" />
    </filter>
  </defs>
  <g
     inkscape:label="jmqtt"
     inkscape:groupmode="layer"
     id="layer1"
     style="display:inline">
    <g
       transform="matrix(0.12092879,0,0,0.12092879,-12.848361,-30.002427)"
       id="layer1-5">
      <g
         transform="matrix(0.80923994,0,0,0.80923994,146.56273,302.69751)"
         id="g3250">
        <path
           id="path112"
           style="fill:#f8d800;fill-opacity:1;fill-rule:evenodd;stroke:none;stroke-width:1"
           d="m 368.72891,387.50056 c -71.52816,0 -135.23853,33.63419 -176.18793,85.93595 h -38.34427 c -60.166218,-2e-5 -109.122846,48.92657 -109.122846,109.09294 v 65.78308 c 0,60.16638 48.95663,109.12284 109.122846,109.12284 h 45.37384 c 41.02005,47.38749 101.60866,77.37657 169.15836,77.37655 67.54968,0 128.13403,-29.98906 169.15408,-77.37655 h 43.69017 c 60.18953,-2e-5 109.15275,-48.95648 109.15275,-109.12284 v -65.78308 c 0,-60.16632 -48.96322,-109.09294 -109.15275,-109.09294 H 544.91683 C 503.96744,421.13475 440.25705,387.50056 368.72891,387.50056 Z m 102.18301,106.92637 h 110.65695 c 48.58061,0 88.14098,39.53901 88.14098,88.1196 v 65.76173 c 0,48.58066 -39.56037,88.11533 -88.14098,88.11533 H 337.91846 c 27.1809,-19.86118 44.87812,-51.95958 44.87812,-88.11533 v -65.76173 c 0,-48.58059 39.53472,-88.1196 88.11534,-88.1196 z m -162.45783,38.07078 c 12.56474,0 21.28527,7.29661 21.28527,17.67007 0,11.11952 -8.72053,18.04184 -21.28527,18.04184 -11.98207,0 -20.90923,-6.92232 -20.90923,-18.04184 0,-10.37346 8.92716,-17.67007 20.90923,-17.67007 z m -208.05388,7.90133 h 40.56211 l 3.84596,23.75524 c 3.26359,20.09433 7.13512,44.84991 8.53377,61.68071 1.63179,-16.6443 6.08357,-41.21424 10.55931,-61.51833 l 4.85019,-23.91762 h 36.1307 l 4.87156,23.91762 c 4.45256,20.30409 8.90426,44.87403 10.55931,61.51833 1.39865,-16.8308 5.2722,-41.58638 8.5124,-61.68071 l 3.84596,-23.75524 h 40.18607 l -33.8915,142.03573 h -36.31873 l -6.50395,-30.84035 c -4.63898,-21.88929 -8.90585,-48.48663 -9.72175,-58.81336 -0.83923,10.32673 -5.08276,36.92407 -9.72174,58.81336 l -6.52532,30.84035 h -35.89995 z m 189.77699,38.86134 h 36.5324 v 103.17439 h -36.5324 z" />
        <path
           d="m 477.34353,573.87361 v 31.74994 h 75.57505 v 33.31174 h -75.57505 v 43.49879 h -39.1628 V 540.3987 h 122.78026 v 33.47491 z"
           style="fill:#f8d800;fill-opacity:1;fill-rule:nonzero;stroke:none;stroke-width:4.968;stroke-linecap:butt;stroke-linejoin:miter;stroke-miterlimit:3.864;stroke-dasharray:none"
           id="path124" />
        <path
           d="m 601.96542,568.20905 c -11.95868,0 -20.91024,-6.92351 -20.91024,-18.04303 0,-10.37346 8.95156,-17.66982 20.91024,-17.66982 12.56482,0 21.28315,7.29636 21.28315,17.66982 0,11.11952 -8.71833,18.04303 -21.28315,18.04303 z M 583.71278,682.43408 V 579.25851 h 36.50535 v 103.17557 z"
           style="fill:#f8d800;fill-opacity:1;fill-rule:nonzero;stroke:none;stroke-width:4.968;stroke-linecap:butt;stroke-linejoin:miter;stroke-miterlimit:3.864;stroke-dasharray:none"
           id="path126" />
      </g>
      <g
         transform="matrix(0.0570067,0,0,-0.0570067,76.421967,640.29887)"
         fill="#000000"
         stroke="none"
         id="g25933"
         style="fill:#f8d800;fill-opacity:1">
        <path
           d="m 6169,6226 c -2,-2 -51,-7 -109,-10 -439,-29 -987,-166 -1450,-363 -519,-221 -1027,-554 -1389,-911 -82,-81 -102,-107 -120,-157 -60,-160 18,-347 181,-436 59,-32 69,-34 158,-34 86,0 100,3 147,29 29,16 92,65 140,110 395,364 836,637 1336,825 152,57 374,124 497,151 372,81 500,94 900,95 309,0 362,-2 510,-23 303,-43 520,-95 805,-193 512,-175 1010,-472 1409,-841 137,-126 188,-152 301,-153 71,0 88,4 147,33 71,35 141,103 174,169 15,31 19,60 19,153 0,144 -7,159 -128,278 -328,322 -794,638 -1252,849 -504,232 -1051,376 -1610,423 -113,9 -657,14 -666,6 z"
           id="path25925"
           style="fill:#f8d800;fill-opacity:1" />
        <path
           d="m 6195,4939 c -787,-66 -1561,-412 -2102,-941 -111,-108 -128,-145 -128,-273 0,-89 3,-105 27,-150 36,-67 107,-139 171,-172 40,-20 71,-27 132,-31 121,-6 169,16 297,134 123,114 297,247 428,329 224,139 526,268 760,325 47,11 101,25 120,30 19,5 100,19 180,32 207,32 550,32 762,0 561,-86 1063,-325 1473,-702 131,-120 182,-145 295,-145 72,0 93,4 141,28 63,30 146,112 178,174 46,91 43,224 -6,315 -50,92 -339,338 -576,492 -467,302 -966,482 -1522,546 -126,15 -499,20 -630,9 z"
           id="path25927"
           style="fill:#f8d800;fill-opacity:1" />
        <path
           d="m 6230,3653 c -103,-11 -321,-60 -439,-99 -316,-106 -596,-274 -819,-493 -118,-116 -137,-154 -136,-271 1,-69 6,-96 26,-140 53,-115 155,-197 273,-220 51,-10 71,-9 124,5 78,20 127,50 211,130 271,257 616,395 989,395 387,0 722,-136 1017,-412 100,-93 146,-113 264,-113 105,0 160,24 239,103 77,78 106,145 106,252 0,118 -27,171 -145,283 -330,315 -769,520 -1230,577 -78,9 -399,12 -480,3 z"
           id="path25929"
           style="fill:#f8d800;fill-opacity:1" />
        <path
           d="m 6270,2447 c -135,-37 -242,-101 -342,-204 -226,-234 -276,-555 -132,-852 40,-82 60,-108 138,-186 103,-102 185,-154 301,-191 97,-31 258,-43 358,-25 241,42 470,233 565,471 107,270 39,583 -172,790 -78,77 -183,143 -285,181 -77,29 -99,32 -216,36 -112,3 -142,0 -215,-20 z"
           id="path25931"
           style="fill:#f8d800;fill-opacity:1" />
      </g>
    </g>
  </g>
</svg>
