<?xml version="1.0" encoding="UTF-8" standalone="no"?>
<!-- Created with Inkscape (http://www.inkscape.org/) -->

<svg
   width="302"
   height="357"
   viewBox="0 0 79.904164 94.456247"
   version="1.1"
   id="svg5"
   inkscape:version="1.1 (c68e22c387, 2021-05-23)"
   sodipodi:docname="node-mcz-remote.svg"
   xmlns:inkscape="http://www.inkscape.org/namespaces/inkscape"
   xmlns:sodipodi="http://sodipodi.sourceforge.net/DTD/sodipodi-0.dtd"
   xmlns="http://www.w3.org/2000/svg"
   xmlns:svg="http://www.w3.org/2000/svg">
  <sodipodi:namedview
     id="namedview7"
     pagecolor="#505050"
     bordercolor="#ffffff"
     borderopacity="1"
     inkscape:pageshadow="0"
     inkscape:pageopacity="0"
     inkscape:pagecheckerboard="1"
     inkscape:document-units="mm"
     showgrid="false"
     width="302mm"
     units="px"
     inkscape:zoom="1.4823793"
     inkscape:cx="202.04005"
     inkscape:cy="180.45313"
     inkscape:window-width="1920"
     inkscape:window-height="1017"
     inkscape:window-x="1912"
     inkscape:window-y="-8"
     inkscape:window-maximized="1"
     inkscape:current-layer="layer1" />
  <defs
     id="defs2" />
  <g
     inkscape:label="Calque 1"
     inkscape:groupmode="layer"
     id="layer1">
    <path
       id="path1070"
       style="fill:#f8d800;stroke-width:0.235902;fill-opacity:1"
       d="m 43.972188,26.675912 c -1.718169,-0.0065 -3.503885,0.393411 -5.188917,1.244014 -3.538605,1.78628 -5.356571,5.257457 -5.34926,10.215193 0.0056,3.819663 1.025854,6.935933 2.9778,9.096503 0.947887,1.049195 3.203559,2.254771 4.803735,2.567275 5.044359,0.985131 9.256478,-0.897899 11.232521,-5.021208 1.062856,-2.217807 1.042856,-2.389011 -0.322062,-2.723467 -0.616294,-0.151018 -1.291572,-0.325132 -1.500187,-0.387026 -0.285977,-0.08485 -0.509414,0.244489 -0.90813,1.338005 -2.184123,5.990162 -10.596938,5.531803 -12.516158,-0.681903 -0.560033,-1.813176 -0.665217,-5.410462 -0.211943,-7.261352 0.570863,-2.331052 1.871211,-4.07188 3.711766,-4.969605 1.250969,-0.610153 4.257639,-0.723856 5.598061,-0.211943 1.195994,0.456755 2.777522,2.11334 3.179147,3.330271 0.298142,0.903378 0.490792,0.94526 2.234615,0.486087 1.337314,-0.352135 1.372409,-0.507194 0.512351,-2.249362 -1.501279,-3.041057 -4.735179,-4.758224 -8.253339,-4.771482 z m -30.284816,0.263547 c -1.077748,0 -1.959552,0.05091 -1.959552,0.113343 0,0.206822 -4.4901307,21.699458 -4.6212798,22.120403 -0.1139425,0.365716 0.057306,0.412828 1.4997273,0.412828 h 1.6278155 l 1.484983,-7.128658 c 0.81653,-3.920754 1.612483,-7.928136 1.768803,-8.905293 l 0.28428,-1.776635 0.175083,1.533361 c 0.197956,1.731173 2.198072,14.923283 2.388967,15.757043 0.116215,0.507592 0.222614,0.537049 1.707524,0.471804 l 1.584043,-0.06957 3.491531,-6.133447 c 1.920383,-3.373396 4.029462,-7.121057 4.687168,-8.32798 0.657706,-1.206926 1.227911,-2.162328 1.26659,-2.123116 0.03867,0.03921 -0.185655,1.026817 -0.498067,2.194533 -0.56853,2.125022 -3.164863,13.852034 -3.164863,14.294635 0,0.139442 0.640149,0.206353 1.575751,0.164948 l 1.576211,-0.06957 2.304649,-10.969434 c 1.267487,-6.033189 2.309661,-11.102129 2.316169,-11.264312 0.0085,-0.213037 -0.528439,-0.294877 -1.934671,-0.294877 h -1.94665 l -4.354047,7.707354 c -2.394708,4.239134 -4.835994,8.656112 -5.425281,9.815265 l -1.071234,2.107453 -0.156193,-1.735629 c -0.08577,-0.954487 -0.716692,-5.371005 -1.402049,-9.814805 l -1.245857,-8.079638 z m 42.62589,0 v 1.533362 1.533362 h 6.034847 6.03531 l -0.432642,0.554277 c -0.237879,0.304837 -3.271847,4.085709 -6.742553,8.402158 l -6.310373,7.848344 v 1.387303 1.387768 h 8.964269 8.964269 v -1.412186 -1.411726 l -6.931459,-0.06266 -6.930998,-0.0622 6.803833,-8.374515 6.803831,-8.374514 0.0092,-1.474387 0.0097,-1.474386 H 64.451879 Z M 16.209954,57.134891 v 5.150216 c 1e-6,2.832789 0.07062,5.221297 0.157115,5.30779 0.0865,0.08649 0.458043,0.157576 0.825656,0.157576 h 0.668542 v -2.359018 -2.359019 h 1.147718 c 1.477676,0 2.048725,0.450875 3.610864,2.849251 1.171036,1.797914 1.251759,1.868786 2.121734,1.868786 0.497382,0 0.904444,-0.08987 0.904444,-0.199505 0,-0.332352 -1.888027,-3.17258 -2.621182,-3.943061 l -0.686972,-0.721527 0.816902,-0.38933 c 1.484656,-0.707986 2.009894,-2.261345 1.324183,-3.9168 -0.513869,-1.240591 -1.215781,-1.445359 -4.954859,-1.445359 z m 40.232318,0.235902 c -0.05877,0 -0.377236,0.123108 -0.707706,0.273682 -0.509503,0.232143 -0.600813,0.429402 -0.600813,1.297459 0,0.866423 -0.07248,1.023779 -0.471804,1.023779 -0.34599,0 -0.471804,0.157269 -0.471804,0.589754 0,0.432484 0.125814,0.589755 0.471804,0.589755 0.446527,0 0.471804,0.157283 0.471804,2.935411 0,2.765932 0.0303,2.956595 0.524329,3.302625 0.28836,0.201975 0.925294,0.367215 1.415411,0.367215 0.828374,0 0.891081,-0.04873 0.891081,-0.692042 0,-0.579585 -0.105415,-0.704162 -0.64873,-0.766681 l -0.64873,-0.07464 -0.06727,-2.535945 -0.06681,-2.535944 h 0.71554 c 0.606131,0 0.715997,-0.09028 0.715997,-0.589755 0,-0.498014 -0.110088,-0.589754 -0.707705,-0.589754 -0.700572,0 -0.707705,-0.01312 -0.707705,-1.29746 0,-0.713603 -0.04813,-1.29746 -0.106892,-1.29746 z m -38.581005,0.87818 2.064141,0.125785 c 2.478235,0.151246 2.79539,0.263083 3.06442,1.079065 0.299763,0.909205 0.117795,1.414045 -0.652877,1.812575 C 21.901728,61.49146 20.97883,61.617026 19.76,61.617026 H 17.861267 V 59.933 Z m 11.909356,1.480838 c -1.20664,0 -2.604108,0.840481 -3.104505,1.866941 -0.548407,1.124931 -0.546574,3.421664 0.0037,4.453569 0.227917,0.42741 0.754458,0.984754 1.169833,1.238022 0.882608,0.538161 3.040374,0.617157 3.895145,0.142832 0.574022,-0.318534 1.455583,-1.499828 1.45826,-1.953562 9.44e-4,-0.147059 -0.281409,-0.321322 -0.627536,-0.387488 -0.495446,-0.09471 -0.790163,0.04984 -1.384541,0.680063 -0.831981,0.882157 -1.228303,0.965994 -2.198218,0.464432 -0.589927,-0.305064 -1.213604,-1.228955 -1.213604,-1.797832 0,-0.130097 1.203809,-0.224842 2.857545,-0.224842 h 2.857547 l -0.16541,-1.120534 c -0.314884,-2.132656 -1.612087,-3.361601 -3.548201,-3.361601 z m 12.897656,0.0019 c -0.601993,0.0034 -1.182307,0.193584 -1.604319,0.55658 -0.642096,0.55231 -0.653188,0.553244 -1.024698,0.09445 -0.240615,-0.297152 -0.780984,-0.509298 -1.502952,-0.590675 -0.91508,-0.103143 -1.257576,-0.03083 -1.819025,0.384261 -0.555256,0.410521 -0.691579,0.439947 -0.691579,0.150203 0,-0.24375 -0.229747,-0.360762 -0.707705,-0.360762 h -0.707706 v 3.89238 3.89238 h 0.825657 0.825656 V 64.99383 c 0,-2.505636 0.04659,-2.806356 0.51281,-3.302625 0.638506,-0.679657 1.732749,-0.727134 2.073818,-0.08985 0.134308,0.250962 0.244194,1.737144 0.244194,3.302626 v 2.846488 h 0.825656 0.825656 v -2.830822 c 0,-2.516287 0.05242,-2.883246 0.471804,-3.302625 0.524108,-0.524111 1.638904,-0.625664 2.07566,-0.188906 0.190833,0.190833 0.283358,1.272207 0.283358,3.317829 v 3.034471 l 0.766681,-0.07418 0.766681,-0.07372 V 64.5423 c 0,-3.345078 -0.198585,-4.086843 -1.216829,-4.550786 -0.389047,-0.177262 -0.810929,-0.262182 -1.222818,-0.25986 z m 19.337956,0.01014 c -0.521317,0.0021 -1.060017,0.117868 -1.584503,0.366754 -1.240907,0.588849 -1.864148,1.801887 -1.866021,3.631598 -0.0019,1.811813 0.3926,2.720245 1.507562,3.470797 1.488587,1.002062 3.844994,0.628782 4.957162,-0.785112 0.657194,-0.835486 0.621127,-1.190891 -0.136382,-1.335702 -0.49545,-0.09471 -0.790162,0.04984 -1.38454,0.680063 -0.415237,0.44028 -0.934823,0.800776 -1.155089,0.800776 -0.937266,0 -2.24126,-1.127 -2.251664,-1.94619 -0.0047,-0.369543 0.279384,-0.412829 2.707802,-0.412829 h 2.71287 l -9.43e-4,-1.002582 c -0.0019,-2.030865 -1.644415,-3.475301 -3.506277,-3.467573 z m -12.062322,0.0175 c -1.145778,0 -2.291652,0.532374 -3.003141,1.597404 -0.422012,0.631717 -0.535386,1.132376 -0.535386,2.362706 0,1.880066 0.508314,2.979147 1.665596,3.599805 1.71946,0.922156 4.146083,0.320503 4.980201,-1.234798 0.648832,-1.209815 0.594065,-3.681891 -0.104589,-4.727713 -0.711489,-1.06503 -1.856901,-1.597404 -3.002681,-1.597404 z M 29.764171,61.06556 c 0.790262,7.08e-4 1.596841,0.489339 1.885373,1.436145 0.158936,0.52155 0.126717,0.530779 -1.847131,0.530779 h -2.00885 l 0.255253,-0.732586 c 0.289716,-0.831082 0.995867,-1.234916 1.715355,-1.234338 z m 32.313021,0.0387 c 0.733978,-0.0058 1.463872,0.401538 1.740696,1.195636 l 0.255253,0.732586 h -1.992724 c -1.096092,0 -1.992726,-0.05861 -1.992726,-0.12993 0,-0.07132 0.155803,-0.43113 0.346481,-0.799856 0.344574,-0.666335 0.995392,-0.9933 1.64302,-0.998436 z m -11.860978,0.07188 c 0.53914,-0.0046 0.762999,0.129341 1.109937,0.570404 0.93893,1.193654 0.862219,3.287188 -0.152968,4.17804 -1.461879,1.282839 -3.200869,0.171142 -3.222456,-2.059993 -0.01661,-1.716802 0.602462,-2.573408 1.930986,-2.672787 0.124256,-0.0093 0.234661,-0.01481 0.334501,-0.01566 z" />
  </g>
</svg>
