<?xml version="1.0" encoding="UTF-8" standalone="no"?>
<!-- Created with Inkscape (http://www.inkscape.org/) -->

<svg
   version="1.1"
   id="svg2"
   width="307"
   height="352"
   viewBox="0 0 307 352"
   sodipodi:docname="node_ir2.svg"
   inkscape:version="1.1 (c68e22c387, 2021-05-23)"
   xmlns:inkscape="http://www.inkscape.org/namespaces/inkscape"
   xmlns:sodipodi="http://sodipodi.sourceforge.net/DTD/sodipodi-0.dtd"
   xmlns="http://www.w3.org/2000/svg"
   xmlns:svg="http://www.w3.org/2000/svg">
  <defs
     id="defs6" />
  <sodipodi:namedview
     id="namedview4"
     pagecolor="#505050"
     bordercolor="#ffffff"
     borderopacity="1"
     inkscape:pageshadow="0"
     inkscape:pageopacity="0"
     inkscape:pagecheckerboard="1"
     showgrid="false"
     inkscape:zoom="1.8811075"
     inkscape:cx="135.82424"
     inkscape:cy="139.54545"
     inkscape:window-width="1920"
     inkscape:window-height="1017"
     inkscape:window-x="-8"
     inkscape:window-y="-8"
     inkscape:window-maximized="1"
     inkscape:current-layer="g8" />
  <g
     inkscape:groupmode="layer"
     inkscape:label="Image"
     id="g8">
    <path
       id="path927"
       style="fill:#f8d800;fill-opacity:1"
       d="m 37,73 v 95.5 95.5 l 7.25,-0.0762 c 11.480533,-0.12047 17.146919,-3.18003 20.802734,-11.23242 1.700634,-3.74586 1.906152,-6.76824 1.925782,-28.44141 L 67,200 H 63.548828 60.099609 L 59.798828,224.57812 59.5,249.15625 l -3.798828,3.48047 c -3.140478,2.87664 -4.438998,3.42418 -7.5,3.16992 L 44.5,255.5 v -87 -87 l 3.701172,-0.306641 c 3.061002,-0.254261 4.359522,0.293277 7.5,3.169922 L 59.5,87.84375 l 0.298828,24.47461 c 0.296358,24.25621 0.318677,24.47957 2.5,25.06445 C 67.150024,138.68359 67,139.45712 67,113.19727 67,88.590268 66.978858,88.351779 64.439453,83.255859 60.902425,76.157968 54.701656,73 44.302734,73 Z m 14,69 v 26.5 26.5 l 7.75,-0.01 c 6.757889,-0.008 8.414365,-0.39025 12.9375,-2.98437 C 84.244134,184.80435 88.922732,169.539 82.560547,156.53516 77.823705,146.85341 69.22764,142 56.818359,142 Z M 168.76367,161.93359 158.63086,162.2168 148.5,162.5 l -0.30273,5.25 -0.30274,5.25 h 10.49414 c 5.9373,0 10.76255,-0.43642 11.11328,-1.00391 0.34089,-0.55161 0.31314,-3.0413 -0.0605,-5.5332 z m -66.2539,0.14844 c -0.33763,-0.002 -0.75192,0.0431 -1.25977,0.10156 -2.564932,0.29513 -2.770815,0.66972 -3.052734,5.56641 L 97.894531,173 h 3.052739 c 3.03746,0 3.05273,-0.027 3.05273,-5.56641 0,-4.45453 -0.0272,-5.34252 -1.49023,-5.35156 z m 16,0 c -0.33763,-0.002 -0.75192,0.0431 -1.25977,0.10156 -2.56493,0.29513 -2.77081,0.66972 -3.05273,5.56641 l -0.30274,5.25 h 3.05274 c 3.03746,0 3.05273,-0.027 3.05273,-5.56641 0,-4.45453 -0.0272,-5.34252 -1.49023,-5.35156 z m 17,0 c -0.33763,-0.002 -0.75192,0.0431 -1.25977,0.10156 -2.56493,0.29513 -2.77081,0.66972 -3.05273,5.56641 l -0.30274,5.25 h 3.05274 c 3.03746,0 3.05273,-0.027 3.05273,-5.56641 0,-4.45453 -0.0272,-5.34252 -1.49023,-5.35156 z m 128.98046,0 C 263.02718,162.09103 263,162.97906 263,167.43359 263,172.97301 263.0153,173 266.05273,173 h 3.05274 l -0.30274,-5.25 c -0.28192,-4.89669 -0.4878,-5.27128 -3.05273,-5.56641 -0.50784,-0.0584 -0.92214,-0.10364 -1.25977,-0.10156 z m -14.87304,0.0391 c -1.16446,-0.0282 -2.33029,0.39735 -2.73828,1.04102 -1.00884,1.5916 -1.16305,8.22171 -0.21289,9.17187 0.36666,0.36667 1.96565,0.66602 3.55273,0.66602 2.85274,0 2.8828,-0.0598 2.58398,-5.25 -0.26883,-4.66935 -0.56653,-5.28773 -2.68945,-5.58789 -0.1641,-0.0232 -0.32974,-0.037 -0.49609,-0.041 z m -52.98047,0.002 c -1.40522,-0.0152 -3.12124,0.0269 -5.21875,0.0879 L 181.5,162.5 l -0.30273,5.25 -0.30274,5.25 H 191.94727 203 l -0.0156,-4.25 c -0.0195,-5.4127 -0.2584,-6.56115 -6.34766,-6.62695 z m 33,0 c -1.40522,-0.0152 -3.12124,0.0269 -5.21875,0.0879 L 214.5,162.5 l -0.30273,5.25 -0.30274,5.25 H 224.94727 236 l -0.0156,-4.25 c -0.0195,-5.4127 -0.2584,-6.56115 -6.34766,-6.62695 z M 283,162.5 c -2.31082,0 -2.52334,0.39727 -2.80273,5.25 L 279.89453,173 H 283 h 3.10547 l -0.30274,-5.25 C 285.52334,162.89727 285.31082,162.5 283,162.5 Z" />
  </g>
</svg>
