<?xml version="1.0" encoding="UTF-8" standalone="no"?>
<!-- Created with Inkscape (http://www.inkscape.org/) -->

<svg
   width="302"
   height="357"
   viewBox="0 0 79.904164 94.456247"
   version="1.1"
   id="svg5"
   inkscape:version="1.1 (c68e22c387, 2021-05-23)"
   sodipodi:docname="node-intex.svg"
   xmlns:inkscape="http://www.inkscape.org/namespaces/inkscape"
   xmlns:sodipodi="http://sodipodi.sourceforge.net/DTD/sodipodi-0.dtd"
   xmlns="http://www.w3.org/2000/svg"
   xmlns:svg="http://www.w3.org/2000/svg">
  <sodipodi:namedview
     id="namedview7"
     pagecolor="#505050"
     bordercolor="#ffffff"
     borderopacity="1"
     inkscape:pageshadow="0"
     inkscape:pageopacity="0"
     inkscape:pagecheckerboard="1"
     inkscape:document-units="mm"
     showgrid="false"
     width="302mm"
     units="px"
     inkscape:zoom="1.4823793"
     inkscape:cx="202.04005"
     inkscape:cy="180.45313"
     inkscape:window-width="1920"
     inkscape:window-height="1017"
     inkscape:window-x="1912"
     inkscape:window-y="-8"
     inkscape:window-maximized="1"
     inkscape:current-layer="layer1" />
  <defs
     id="defs2" />
  <g
     inkscape:label="Calque 1"
     inkscape:groupmode="layer"
     id="layer1">
    <path
       id="rect1660"
       style="fill:#f8d800;fill-opacity:1;stroke-width:0.245429;paint-order:fill markers stroke"
       d="m 35.478309,40.448619 c -4.455108,0.01205 -4.173798,0.264003 -4.182986,3.516847 -0.0061,2.184651 0.598215,2.208859 1.33897,0.05414 0.579775,-1.686455 1.499098,-2.518646 2.607369,-2.359776 0.703953,0.100911 0.763707,0.432477 0.865069,4.816276 0.132425,5.727286 9.35e-4,6.402229 -1.245892,6.402229 -0.579459,0 -0.934419,0.214808 -0.934419,0.565156 0,0.464484 0.669701,0.564544 3.766267,0.564544 3.096565,0 3.765662,-0.100063 3.765662,-0.564544 0,-0.351504 -0.355272,-0.565156 -0.941113,-0.565156 H 39.57552 V 47.22924 c 0,-5.199099 0.05438,-5.649097 0.681347,-5.649097 1.086994,0 1.943454,0.837399 2.494217,2.439467 0.740755,2.154708 1.344529,2.130504 1.338359,-0.05414 -0.01048,-3.717533 0.358527,-3.515023 -6.396756,-3.515023 -0.844411,0 -1.577936,-0.0035 -2.214378,-0.0019 z M 11.518,40.450502 c -2.9291839,0 -3.577682,0.102042 -3.577682,0.564545 0,0.353095 0.3566673,0.565155 0.9514535,0.565155 h 0.9514524 l -0.104031,5.554761 c -0.102018,5.437871 -0.1219471,5.557449 -0.9514524,5.675258 -0.4660547,0.0662 -0.8474261,0.363153 -0.8474261,0.659448 0,0.429414 0.7258133,0.538386 3.5776816,0.538386 2.85187,0 3.577682,-0.108975 3.577682,-0.538386 0,-0.296295 -0.381371,-0.593257 -0.847426,-0.659448 -0.829505,-0.117809 -0.84943,-0.237387 -0.951452,-5.675258 l -0.104031,-5.554804 h 0.951452 c 0.594786,0 0.951452,-0.21206 0.951452,-0.565156 0,-0.462503 -0.648498,-0.564544 -3.577681,-0.564544 z m 16.75932,0 c -2.000999,0 -2.636573,0.125991 -2.636573,0.523786 0,0.288249 0.423883,0.630465 0.941721,0.760433 0.920034,0.230914 0.941386,0.315616 0.933204,3.712735 -0.0081,3.357829 -0.03034,3.448545 -0.658841,2.661512 -0.357879,-0.448175 -1.921965,-2.352702 -3.475479,-4.232277 l -2.824549,-3.417078 -2.353691,-0.0048 c -2.483867,-0.0048 -3.165042,0.591416 -1.506872,1.318895 0.798072,0.35013 0.85399,0.623482 0.956927,4.702514 0.126515,5.013281 -0.02153,5.88725 -1.051829,6.214252 -0.413789,0.13133 -0.752525,0.481329 -0.752525,0.778073 0,0.416925 0.599411,0.539605 2.636572,0.539605 2.0772,0 2.635963,-0.117784 2.635963,-0.557247 0,-0.306755 -0.403319,-0.659109 -0.896703,-0.782941 -0.678216,-0.17022 -0.953199,-0.562538 -1.126048,-1.607857 -0.324868,-1.964676 -0.291487,-7.224858 0.04563,-7.194296 0.155352,0.01408 2.13883,2.301705 4.407465,5.083943 2.517857,3.087892 4.38843,5.058398 4.801674,5.058398 0.623327,0 0.67709,-0.476794 0.67709,-6.018366 v -6.018367 l 0.941717,-0.236645 c 0.517839,-0.129968 0.941113,-0.472184 0.941113,-0.760433 0,-0.397795 -0.634966,-0.523786 -2.635963,-0.523786 z m 22.784983,0 c -5.138247,0 -6.214252,0.09294 -6.214252,0.538388 0,0.296295 0.381371,0.593256 0.847425,0.659447 0.834261,0.118482 0.847428,0.204607 0.847428,5.580962 0,5.376359 -0.01314,5.462481 -0.847428,5.580966 -0.466054,0.0662 -0.847425,0.363152 -0.847425,0.659447 0,0.445453 1.076005,0.538387 6.214252,0.538387 h 6.213645 l 0.06266,-1.882832 c 0.03454,-1.035673 0.07703,-2.165417 0.0943,-2.510642 0.06137,-1.227438 -0.796623,-0.87709 -1.461248,0.596785 -0.779343,1.728284 -2.576792,2.776812 -4.45005,2.595814 L 50.308568,52.69042 50.19845,49.965638 c -0.109422,-2.696954 -0.101924,-2.721118 0.753132,-2.41878 0.475059,0.16797 1.117694,0.839528 1.428398,1.49227 1.019466,2.141751 1.506872,1.502975 1.506872,-1.975907 0,-3.234623 -0.471337,-4.391727 -1.10719,-2.719306 -0.332688,0.87503 -1.727876,2.132253 -2.366464,2.132253 -0.161046,0 -0.292616,-1.101605 -0.292616,-2.447984 v -2.447983 h 1.525124 c 2.127239,0 3.602376,0.863912 4.173861,2.444332 0.791191,2.187995 1.45638,1.673738 1.45638,-1.126047 v -2.447985 z m 10.356479,0 c -2.761801,0 -3.389702,0.104243 -3.389702,0.564545 0,0.310704 0.250113,0.565155 0.555418,0.565155 0.479479,0 4.077333,4.626491 4.600922,5.916163 0.270446,0.666151 -2.877493,4.529822 -4.105118,5.03832 -1.065163,0.441205 -1.265644,0.756497 -0.785376,1.236766 0.431483,0.43148 5.872272,0.09539 6.026882,-0.372306 0.07649,-0.231409 -0.375487,-0.523818 -1.004987,-0.649714 -1.403796,-0.280759 -1.429598,-0.737566 -0.144785,-2.591554 l 1.000121,-1.442995 1.24954,1.757509 c 1.247596,1.75477 1.33056,2.406008 0.306001,2.406008 -0.298479,0 -0.542646,0.254451 -0.542646,0.565155 0,0.460298 0.627294,0.564545 3.389095,0.564545 2.690941,0 3.389702,-0.111259 3.389702,-0.539605 0,-0.296744 -0.296351,-0.636006 -0.658837,-0.754347 -0.575225,-0.187796 -2.167207,-2.205388 -4.315606,-5.470246 -0.635822,-0.966242 -0.623192,-1.002352 1.067039,-3.13298 0.940433,-1.185473 2.119346,-2.258416 2.620145,-2.384108 0.500793,-0.125691 0.910694,-0.464276 0.910694,-0.752525 0,-0.404034 -0.690414,-0.523786 -3.013137,-0.523786 -3.063334,0 -3.875921,0.443398 -2.07081,1.1297 0.517836,0.19688 0.941109,0.593596 0.941109,0.881492 0,0.574521 -1.407874,2.512553 -1.815909,2.499692 -0.27585,-0.0087 -2.326926,-2.793256 -2.326926,-3.159137 0,-0.12226 0.339472,-0.222047 0.753744,-0.222047 0.418452,0 0.75313,-0.251312 0.75313,-0.565155 0,-0.460301 -0.627903,-0.564545 -3.389703,-0.564545 z" />
  </g>
</svg>
