<?xml version="1.0" encoding="UTF-8" standalone="no"?>
<!-- Created with Inkscape (http://www.inkscape.org/) -->

<svg
   version="1.1"
   id="svg2"
   width="307"
   height="352"
   viewBox="0 0 307 352"
   sodipodi:docname="node_temp.svg"
   inkscape:version="1.1 (c68e22c387, 2021-05-23)"
   xmlns:inkscape="http://www.inkscape.org/namespaces/inkscape"
   xmlns:sodipodi="http://sodipodi.sourceforge.net/DTD/sodipodi-0.dtd"
   xmlns="http://www.w3.org/2000/svg"
   xmlns:svg="http://www.w3.org/2000/svg">
  <defs
     id="defs6" />
  <sodipodi:namedview
     id="namedview4"
     pagecolor="#505050"
     bordercolor="#ffffff"
     borderopacity="1"
     inkscape:pageshadow="0"
     inkscape:pageopacity="0"
     inkscape:pagecheckerboard="1"
     showgrid="false"
     inkscape:zoom="2.3636364"
     inkscape:cx="153.36538"
     inkscape:cy="180.01923"
     inkscape:window-width="1920"
     inkscape:window-height="1017"
     inkscape:window-x="-8"
     inkscape:window-y="-8"
     inkscape:window-maximized="1"
     inkscape:current-layer="g8" />
  <g
     inkscape:groupmode="layer"
     inkscape:label="Image"
     id="g8">
    <path
       id="path845"
       style="fill:#f8d800;fill-opacity:1"
       d="m 152.45591,65.392605 c -8.12369,0.09986 -16.08956,3.470203 -21.50586,10.080079 -6.45327,7.875369 -6.42578,7.578739 -6.42578,70.927726 v 57.13282 l -5.82422,5.99023 c -13.85759,14.24988 -16.85283,33.8809 -7.98047,52.30469 2.81646,5.84848 11.96764,14.98098 19.02539,18.98633 10.96441,6.22244 27.46763,7.60094 39.7793,3.32226 17.32135,-6.01969 28.90293,-20.43149 31.5293,-39.23047 1.54652,-11.06958 -4.06727,-26.32301 -13.08789,-35.5625 l -5.44141,-5.57421 v -56.72852 c 0,-64.736307 0.0913,-63.874597 -7.61133,-72.109372 -6.05091,-6.468913 -14.33334,-9.638924 -22.45703,-9.539063 z m 1.48438,11.748047 c 4.75224,0.216346 9.81982,2.939861 13.02539,7.142581 l 2.55859,3.35351 v 61.060547 61.0625 l 4.97852,3.57617 c 5.90851,4.24484 11.45127,12.24782 13.09765,18.91016 1.64822,6.66972 0.70292,17.46184 -2.02344,23.09375 -3.0803,6.36304 -9.56404,12.73266 -16.33007,16.04297 -6.92273,3.38698 -19.57543,4.43015 -26.4375,2.17968 -14.30916,-4.69281 -23.89211,-16.56507 -25.00782,-30.97656 -0.81331,-10.50535 5.05704,-22.392 14.26563,-28.88281 l 4.45703,-3.14063 0.0215,-60.05859 c 0.0206,-56.388637 0.13649,-60.307067 1.88282,-64.152337 2.22187,-4.89237 7.50427,-8.470461 13.50195,-9.146488 0.65967,-0.07435 1.33087,-0.09536 2.00977,-0.06445 z m -3.41602,50.806638 v 3 3 h 7.5 7.5 v -3 -3 h -7.5 z m 7.5,22 c -7.33333,0 -7.5,0.0556 -7.5,2.5 0,2.4444 0.16667,2.5 7.5,2.5 7.33333,0 7.5,-0.0556 7.5,-2.5 0,-2.4444 -0.16667,-2.5 -7.5,-2.5 z m -7.5,22 v 3 3 h 7.5 7.5 v -3 -3 h -7.5 z m 0.22656,22 -0.43945,3 -0.44141,3 h 7.82813 7.82617 v -3 -3 h -7.38672 z" />
  </g>
</svg>
