<?xml version="1.0" encoding="UTF-8"?>
<!-- Created with Inkscape (http://www.inkscape.org/) -->
<svg width="309" height="348" version="1.1" viewBox="0 0 81.756 92.075" xmlns="http://www.w3.org/2000/svg">
 <path d="m3.7299 53.694v-20.571h74.297v41.142h-74.297zm30.528 12.822c2.6453-2.5127 10.524-10.114 11.341-10.943l0.77424-0.78461-2.4923-1.419c-2.7584-1.5705-3.7461-2.1808-3.7461-2.3147 0-0.09294 2.3357-2.6937 5.7538-6.4068 2.2077-2.3982 2.6046-2.8442 2.6046-2.9265 0-0.03059-2.4936-0.04484-5.5413-0.03168l-5.5413 0.02394-0.82519 1.5788c-1.5308 2.9289-4.5842 9.0019-4.9728 9.8907-0.30039 0.68702-0.3609 0.90642-0.27343 0.99137 0.06178 0.06 1.1571 0.59781 2.4341 1.1951 1.277 0.59731 2.583 1.2081 2.9022 1.3574 0.31924 0.14926 0.58044 0.31063 0.58044 0.35859 0 0.19156-0.8519 2.2036-2.7124 6.4061-1.0741 2.4262-1.9747 4.4481-2.0014 4.4931-0.15608 0.26296 0.33264-0.15556 1.7157-1.4693zm-30.528-39.424v-3.5237l6.8956-0.02862c8.0395-0.03337 7.6228 0.01277 7.5739-0.83857-0.02689-0.46796-0.04468-0.4983-0.39143-0.66758-0.31432-0.15344-0.6428-0.18332-2.4379-0.22171l-2.0746-0.04437 5.56e-4 -1.45c6.5e-4 -1.7144 0.0689-2.0361 0.48566-2.2882 0.29528-0.17857 0.52895-0.18405 8.9298-0.20936 8.1572-0.02458 8.6365-0.01701 8.809 0.13909 0.44306 0.40097 0.4733 0.58607 0.517 3.1645l0.04138 2.4417 22.282-0.05415 0.17751-0.21925c0.30577-0.37766 0.14899-1.1947-0.26019-1.356-0.09128-0.03599-1.164-0.08931-2.3839-0.11849l-2.218-0.05306 0.08874-3.2264 0.55993-0.69183 8.1624-0.02762c4.4893-0.01519 8.4221-0.0016 8.7395 0.03026 0.36413 0.03651 0.68977 0.13375 0.88227 0.26344l0.30512 0.20557 0.02467 2.6199 0.02466 2.6199h9.5628v7.0582h-74.297v-3.5237z" fill="#f8d800" stroke-width=".092871"/>
</svg>
