<?xml version="1.0" encoding="UTF-8" standalone="no"?>
<!-- Created with Inkscape (http://www.inkscape.org/) -->

<svg
   width="302"
   height="357"
   viewBox="0 0 79.904165 94.456253"
   version="1.1"
   id="svg5"
   inkscape:version="1.1 (c68e22c387, 2021-05-23)"
   sodipodi:docname="node_tasmota.svg"
   xmlns:inkscape="http://www.inkscape.org/namespaces/inkscape"
   xmlns:sodipodi="http://sodipodi.sourceforge.net/DTD/sodipodi-0.dtd"
   xmlns="http://www.w3.org/2000/svg"
   xmlns:svg="http://www.w3.org/2000/svg">
  <sodipodi:namedview
     id="namedview7"
     pagecolor="#505050"
     bordercolor="#ffffff"
     borderopacity="1"
     inkscape:pageshadow="0"
     inkscape:pageopacity="0"
     inkscape:pagecheckerboard="1"
     inkscape:document-units="mm"
     showgrid="false"
     units="px"
     inkscape:zoom="1.4823793"
     inkscape:cx="166.28672"
     inkscape:cy="156.84244"
     inkscape:window-width="1920"
     inkscape:window-height="1017"
     inkscape:window-x="1912"
     inkscape:window-y="-8"
     inkscape:window-maximized="1"
     inkscape:current-layer="layer1" />
  <defs
     id="defs2" />
  <g
     inkscape:label="Calque 1"
     inkscape:groupmode="layer"
     id="layer1">
    <path
       style="fill:#f8d800;fill-opacity:1;stroke-width:0.375474"
       d="M 37.318314,61.36104 V 42.922085 L 36.28576,43.16792 c -2.090876,0.497805 -5.037435,2.197953 -6.822208,3.936376 -4.478686,4.362376 -5.713595,11.198218 -3.043084,16.84501 1.197547,2.532215 3.204944,4.930746 5.114275,6.110776 1.267708,0.783487 1.277877,0.811937 1.277877,3.575208 0,1.531988 -0.10615,2.785435 -0.2359,2.785435 -0.129746,0 -1.185768,-0.541873 -2.346716,-1.204161 C 23.74504,71.517077 19.939258,65.0194 19.939258,57.647 c 0,-9.196433 6.016868,-17.00614 14.938472,-19.38967 2.410679,-0.644046 7.724109,-0.64457 10.137811,-0.001 4.655404,1.241282 9.321009,4.595958 11.830188,8.506175 5.188499,8.085576 3.804594,19.034736 -3.228615,25.544127 -1.609062,1.489242 -5.628937,4.114106 -6.300564,4.114106 -0.129745,0 -0.235899,-1.253447 -0.235899,-2.785435 0,-2.763271 0.01021,-2.791721 1.277875,-3.575208 1.909333,-1.18003 3.916728,-3.578561 5.114278,-6.110776 2.67051,-5.646792 1.435601,-12.482634 -3.043085,-16.84501 -1.784774,-1.738423 -4.731332,-3.438571 -6.822207,-3.936376 L 42.574957,42.922085 V 61.36104 79.799995 H 39.946636 37.318314 Z M 9.1502234,48.815703 7.4844679,47.118422 23.715552,30.887339 39.946636,14.656255 56.183167,30.892785 72.419698,47.129316 70.637377,48.911635 68.855059,50.693952 54.400849,36.243398 39.946636,21.792842 25.58293,36.152913 c -7.900037,7.898039 -14.454435,14.360072 -14.565328,14.360072 -0.110887,0 -0.951213,-0.763777 -1.8673786,-1.697282 z"
       id="path854" />
  </g>
</svg>
