<?xml version="1.0" encoding="UTF-8" standalone="no"?>
<!-- Created with Inkscape (http://www.inkscape.org/) -->

<svg
   version="1.1"
   id="svg2"
   width="307"
   height="352"
   viewBox="0 0 307 352"
   sodipodi:docname="node_humidity.svg"
   inkscape:version="1.1 (c68e22c387, 2021-05-23)"
   xmlns:inkscape="http://www.inkscape.org/namespaces/inkscape"
   xmlns:sodipodi="http://sodipodi.sourceforge.net/DTD/sodipodi-0.dtd"
   xmlns="http://www.w3.org/2000/svg"
   xmlns:svg="http://www.w3.org/2000/svg">
  <defs
     id="defs6" />
  <sodipodi:namedview
     id="namedview4"
     pagecolor="#505050"
     bordercolor="#ffffff"
     borderopacity="1"
     inkscape:pageshadow="0"
     inkscape:pageopacity="0"
     inkscape:pagecheckerboard="1"
     showgrid="false"
     inkscape:zoom="1.1818182"
     inkscape:cx="24.961538"
     inkscape:cy="137.5"
     inkscape:window-width="1920"
     inkscape:window-height="1017"
     inkscape:window-x="1912"
     inkscape:window-y="-8"
     inkscape:window-maximized="1"
     inkscape:current-layer="g8" />
  <g
     inkscape:groupmode="layer"
     inkscape:label="all"
     id="g8">
    <path
       id="path903"
       style="fill:#f8d800;fill-opacity:1"
       inkscape:label="goutte"
       d="m 189.14086,49.863732 c -1.85458,-0.0436 -3.64676,2.51046 -6.74218,7.63086 -5.44945,9.01442 -6.92463,16.251603 -4.50391,22.095703 2.56839,6.20067 10.56589,8.587813 17.5957,5.251953 4.80893,-2.28199 6.67089,-6.34384 6.15821,-13.43164 -0.34655,-4.79101 -1.24086,-7.049284 -5.39063,-13.589844 -3.34478,-5.27179 -5.26261,-7.913431 -7.11719,-7.957032 z M 62.218984,58.326623 c -1.85458,-0.0436 -3.646768,2.510459 -6.742188,7.630859 -5.44945,9.014421 -6.924626,16.251604 -4.503906,22.095704 2.56839,6.20067 10.565893,8.587813 17.595703,5.251953 4.80893,-2.28199 6.670883,-6.343841 6.158203,-13.431641 -0.34655,-4.79101 -1.240855,-7.049284 -5.390625,-13.589844 -3.34478,-5.27179 -5.262607,-7.913431 -7.117187,-7.957031 z m 121.314456,5.34375 c 0.18739,-0.0232 0.3026,0.226361 0.31445,0.806641 0.0272,1.33333 0.14115,1.33333 1.0293,0 0.70279,-1.05508 0.92042,0.573794 0.73438,5.490234 -0.21285,5.62487 -0.59132,7.052497 -1.94532,7.310547 -2.67327,0.50949 -4.06721,-3.178297 -2.85546,-7.554687 0.95622,-3.453511 2.16045,-5.982975 2.72265,-6.052735 z M 56.611562,72.133264 c 0.18739,-0.0232 0.302603,0.22636 0.314453,0.80664 0.0272,1.33333 0.141147,1.33333 1.029297,0 0.70279,-1.05508 0.920415,0.573795 0.734375,5.490235 -0.21285,5.62487 -0.591313,7.052497 -1.945313,7.310547 -2.67327,0.50949 -4.067218,-3.178298 -2.855468,-7.554688 0.95622,-3.45351 2.160456,-5.982974 2.722656,-6.052734 z m 65.578128,4.490234 c -1.85458,-0.0436 -3.64677,2.510459 -6.74219,7.63086 -5.44945,9.01442 -6.92462,16.251602 -4.5039,22.095702 2.56839,6.20067 10.56589,8.58781 17.5957,5.25195 4.80893,-2.28199 6.67088,-6.34384 6.1582,-13.431637 -0.34655,-4.79101 -1.24085,-7.049284 -5.39062,-13.589844 -3.34478,-5.27179 -5.26261,-7.913431 -7.11719,-7.957031 z m -5.60742,13.806641 c 0.18739,-0.0232 0.3026,0.22636 0.31445,0.80664 0.0272,1.33333 0.14115,1.33333 1.0293,0 0.70279,-1.05508 0.92041,0.573795 0.73437,5.490235 -0.21285,5.624866 -0.59131,7.052496 -1.94531,7.310546 -2.67327,0.50949 -4.06722,-3.1783 -2.85547,-7.554687 0.95622,-3.45351 2.16046,-5.982974 2.72266,-6.052734 z m 135.80859,5.761719 c -1.85458,-0.0436 -3.64676,2.510459 -6.74218,7.630862 -5.44945,9.01442 -6.92463,16.2516 -4.50391,22.0957 2.56839,6.20067 10.56589,8.58781 17.5957,5.25195 4.80893,-2.28199 6.67089,-6.34384 6.15821,-13.43164 -0.34655,-4.79101 -1.24086,-7.04928 -5.39063,-13.58984 -3.34478,-5.271791 -5.26261,-7.913433 -7.11719,-7.957032 z m -57.96093,9.519532 c -1.85458,-0.0436 -3.64677,2.51046 -6.74219,7.63086 -5.44945,9.01442 -6.92463,16.2516 -4.50391,22.0957 2.56839,6.20067 10.5659,8.58781 17.59571,5.25195 4.80893,-2.28199 6.67088,-6.34384 6.1582,-13.43164 -0.34655,-4.791 -1.24086,-7.04928 -5.39063,-13.58984 -3.34478,-5.27179 -5.2626,-7.91343 -7.11718,-7.95703 z m 52.35351,4.28711 c 0.18739,-0.0232 0.3026,0.22636 0.31445,0.80664 0.0272,1.33333 0.14115,1.33333 1.0293,0 0.70279,-1.05508 0.92042,0.57379 0.73438,5.49023 -0.21285,5.62487 -0.59132,7.0525 -1.94532,7.31055 -2.67327,0.50949 -4.06721,-3.1783 -2.85546,-7.55469 0.95622,-3.45351 2.16045,-5.98297 2.72265,-6.05273 z m -57.96094,9.51953 c 0.18739,-0.0232 0.30261,0.22636 0.31446,0.80664 0.0272,1.33333 0.14114,1.33333 1.02929,0 0.70279,-1.05508 0.92042,0.5738 0.73438,5.49023 -0.21285,5.62487 -0.59131,7.0525 -1.94531,7.31055 -2.67327,0.50949 -4.06722,-3.1783 -2.85547,-7.55469 0.95622,-3.4535 2.16045,-5.98297 2.72265,-6.05273 z M 54.390859,136.59615 c -1.85458,-0.0436 -3.646768,2.51046 -6.742188,7.63086 -5.44945,9.01442 -6.924626,16.25161 -4.503906,22.09571 2.56839,6.20067 10.565893,8.58781 17.595703,5.25195 4.80893,-2.28199 6.670883,-6.34384 6.158203,-13.43164 -0.34655,-4.79101 -1.240855,-7.04928 -5.390625,-13.58984 -3.34478,-5.27179 -5.262607,-7.91344 -7.117187,-7.95704 z m -5.607422,13.80664 c 0.18739,-0.0232 0.302603,0.22637 0.314453,0.80665 0.0272,1.33333 0.141147,1.33333 1.029297,0 0.70279,-1.05508 0.920415,0.57379 0.734375,5.49023 -0.21285,5.62487 -0.591303,7.0525 -1.945313,7.31055 -2.67327,0.50949 -4.067218,-3.1783 -2.855468,-7.55469 0.95622,-3.45351 2.160456,-5.98297 2.722656,-6.05274 z m 88.320313,25.32813 c -1.85458,-0.0436 -3.64676,2.51046 -6.74218,7.63086 -5.44945,9.01442 -6.92463,16.2516 -4.50391,22.0957 2.56839,6.20067 10.56589,8.58782 17.5957,5.25196 4.80893,-2.28199 6.67089,-6.34385 6.15821,-13.43165 -0.34655,-4.791 -1.24086,-7.04928 -5.39063,-13.58984 -3.34478,-5.27179 -5.26261,-7.91343 -7.11719,-7.95703 z m -5.60742,13.80664 c 0.18739,-0.0232 0.30261,0.22636 0.31446,0.80664 0.0272,1.33333 0.14114,1.33333 1.02929,0 0.70279,-1.05508 0.92042,0.5738 0.73438,5.49024 -0.21285,5.62487 -0.59131,7.05249 -1.94531,7.31054 -2.67328,0.50949 -4.06722,-3.17829 -2.85547,-7.55469 0.95622,-3.4535 2.16045,-5.98297 2.72265,-6.05273 z m 85.56836,0.57617 c -1.85458,-0.0436 -3.64677,2.51046 -6.74219,7.63086 -5.44945,9.01441 -6.92462,16.25161 -4.5039,22.0957 2.56839,6.20068 10.56589,8.58781 17.5957,5.25196 4.80893,-2.28199 6.67088,-6.34383 6.1582,-13.43164 -0.34655,-4.79101 -1.24085,-7.0493 -5.39062,-13.58985 -3.34478,-5.27179 -5.26261,-7.91342 -7.11719,-7.95703 z m -5.60742,13.80664 c 0.18739,-0.0232 0.3026,0.22636 0.31445,0.80664 0.0272,1.33333 0.14115,1.33333 1.0293,0 0.70279,-1.05508 0.92041,0.5738 0.73437,5.49024 -0.21285,5.62487 -0.5913,7.05249 -1.94531,7.31054 -2.67327,0.50949 -4.06722,-3.17829 -2.85547,-7.55468 0.95622,-3.45351 2.16046,-5.98298 2.72266,-6.05274 z M 84.640859,225.86373 c -1.85458,-0.0436 -3.646768,2.51046 -6.742188,7.63086 -5.44945,9.01442 -6.924626,16.25161 -4.503906,22.0957 2.56839,6.20068 10.565893,8.58782 17.595703,5.25196 4.80893,-2.28199 6.670883,-6.34384 6.158203,-13.43164 -0.34655,-4.79101 -1.240855,-7.04929 -5.390625,-13.58985 -3.34478,-5.27179 -5.262607,-7.91343 -7.117187,-7.95703 z m -5.607422,13.80664 c 0.18739,-0.0232 0.302603,0.22636 0.314453,0.80664 0.0272,1.33333 0.141147,1.33333 1.029297,0 0.70279,-1.05508 0.920415,0.5738 0.734375,5.49024 -0.21285,5.62487 -0.591313,7.05249 -1.945313,7.31054 -2.67327,0.50949 -4.067218,-3.17829 -2.855468,-7.55468 0.95622,-3.45351 2.160456,-5.98298 2.722656,-6.05274 z m 81.203133,23.86328 c -1.85458,-0.0436 -3.64677,2.51046 -6.74219,7.63086 -5.44945,9.01442 -6.92463,16.25161 -4.50391,22.09571 2.56839,6.20067 10.5659,8.58781 17.59571,5.25195 4.80893,-2.28199 6.67088,-6.34384 6.1582,-13.43164 -0.34655,-4.79101 -1.24086,-7.04928 -5.39063,-13.58984 -3.34478,-5.27179 -5.2626,-7.91344 -7.11718,-7.95704 z m 71.07617,2.11524 c -1.85458,-0.0436 -3.64677,2.51046 -6.74219,7.63086 -5.44945,9.01442 -6.92463,16.2516 -4.5039,22.0957 2.56838,6.20067 10.56589,8.58781 17.5957,5.25195 4.80893,-2.28199 6.67088,-6.34384 6.1582,-13.43164 -0.34655,-4.79101 -1.24085,-7.04928 -5.39062,-13.58984 -3.34478,-5.27179 -5.26261,-7.91343 -7.11719,-7.95703 z m -76.68359,11.6914 c 0.18738,-0.0232 0.3026,0.22637 0.31445,0.80665 0.0272,1.33333 0.14114,1.33333 1.02929,0 0.70279,-1.05508 0.92042,0.57379 0.73438,5.49023 -0.21285,5.62487 -0.59131,7.0525 -1.94531,7.31055 -2.67327,0.50949 -4.06722,-3.1783 -2.85547,-7.55469 0.95622,-3.45351 2.16045,-5.98297 2.72266,-6.05274 z m 71.07617,2.11524 c 0.18739,-0.0232 0.3026,0.22636 0.31445,0.80664 0.0272,1.33333 0.14115,1.33333 1.0293,0 0.70279,-1.05508 0.92041,0.57379 0.73437,5.49023 -0.21285,5.62487 -0.59131,7.0525 -1.94531,7.31055 -2.67327,0.50949 -4.06722,-3.1783 -2.85547,-7.55469 0.95622,-3.45351 2.16046,-5.98297 2.72266,-6.05273 z" />
  </g>
</svg>
