<?xml version="1.0" encoding="UTF-8" standalone="no"?>
<!-- Created with Inkscape (http://www.inkscape.org/) -->

<svg
   version="1.1"
   id="svg2"
   width="307"
   height="352"
   viewBox="0 0 307 352"
   sodipodi:docname="node_multisensor.svg"
   inkscape:version="1.1 (c68e22c387, 2021-05-23)"
   xmlns:inkscape="http://www.inkscape.org/namespaces/inkscape"
   xmlns:sodipodi="http://sodipodi.sourceforge.net/DTD/sodipodi-0.dtd"
   xmlns="http://www.w3.org/2000/svg"
   xmlns:svg="http://www.w3.org/2000/svg">
  <defs
     id="defs6" />
  <sodipodi:namedview
     id="namedview4"
     pagecolor="#505050"
     bordercolor="#ffffff"
     borderopacity="1"
     inkscape:pageshadow="0"
     inkscape:pageopacity="0"
     inkscape:pagecheckerboard="1"
     showgrid="false"
     inkscape:zoom="2.3636364"
     inkscape:cx="153.36538"
     inkscape:cy="175.78846"
     inkscape:window-width="1920"
     inkscape:window-height="1017"
     inkscape:window-x="1912"
     inkscape:window-y="-8"
     inkscape:window-maximized="1"
     inkscape:current-layer="g8" />
  <g
     inkscape:groupmode="layer"
     inkscape:label="Image"
     id="g8">
    <path
       style="fill:#f8d800;fill-opacity:1"
       d="m 77.32814,294.5 c 0.0044,-3.85 0.185183,-5.30246 0.401658,-3.2277 0.216476,2.07477 0.212846,5.22477 -0.0081,7 C 77.50082,300.04754 77.323704,298.35 77.32814,294.5 Z M 92.946167,286.25 89.5,282.5 l 3.75,3.44617 C 96.740419,289.15378 97.459787,290 96.696167,290 c -0.167108,0 -1.854608,-1.6875 -3.75,-3.75 z M 61,285.5 c 1.865783,-1.925 3.617334,-3.5 3.892334,-3.5 0.275,0 -1.026551,1.575 -2.892334,3.5 -1.865783,1.925 -3.617334,3.5 -3.892334,3.5 -0.275,0 1.026551,-1.575 2.892334,-3.5 z m 13,-1.67928 c -13.907479,-3.88689 -13.59076,-22.80246 0.446699,-26.67839 7.274884,-2.00869 15.905157,2.99679 17.512185,10.15691 C 93.897707,275.93769 89.077137,282.3283 79,284.4788 c -0.825,0.17606 -3.075,-0.12008 -5,-0.65808 z M 194,275 c -1.1,-1.1 -2,-2.45 -2,-3 0,-0.6087 -4.5,-1 -11.5,-1 -9.55556,0 -11.5,-0.25362 -11.5,-1.5 0,-1.24586 1.93696,-1.5 11.43261,-1.5 10.55638,0 11.48129,-0.15337 12.06773,-2.00106 0.96379,-3.03663 4.23417,-4.30718 9.29958,-3.61289 4.26065,0.58399 5.57908,0.0578 24.76706,-9.88461 C 237.71375,246.72565 247.12922,242 247.49024,242 c 0.36103,0 0.51091,0.69728 0.33308,1.54951 -0.17968,0.8611 -9.20882,6.15462 -20.32332,11.91496 l -20,10.36545 -0.58633,4.22877 c -0.33665,2.42807 -1.37614,4.80631 -2.44113,5.58504 C 201.71746,277.6583 196.32696,277.32696 194,275 Z m 8.8,-2.2 c 2.805,-2.805 0.69173,-7.8 -3.3,-7.8 -2.68046,0 -4.5,1.81954 -4.5,4.5 0,2.68046 1.81954,4.5 4.5,4.5 1.155,0 2.64,-0.54 3.3,-1.2 z m 40.85499,1.37126 c -2.2366,-2.47142 -2.13825,-8.42394 0.17375,-10.51627 C 247.51331,260.3205 256,262.53347 256,266.82874 256,267.66798 259.96863,268 270,268 c 11.77778,0 14,0.2381 14,1.5 0,1.25984 -2.17845,1.5 -13.60608,1.5 -13.32208,0 -13.64713,0.0522 -15.57258,2.5 -2.4547,3.12065 -8.61457,3.49095 -11.16635,0.67126 z M 252.5,269 c 0,-3.33333 -0.16667,-3.5 -3.5,-3.5 -2.90098,0 -3.55632,0.39753 -3.82908,2.32273 -0.56628,3.9969 0.52391,5.3331 4.0722,4.99114 C 252.23882,272.52517 252.5,272.21932 252.5,269 Z m -202.25,1.27153 c 2.0625,-0.21574 5.4375,-0.21574 7.5,0 2.0625,0.21575 0.375,0.39226 -3.75,0.39226 -4.125,0 -5.8125,-0.17651 -3.75,-0.39226 z m 48,0 c 2.0625,-0.21574 5.4375,-0.21574 7.5,0 2.0625,0.21575 0.375,0.39226 -3.75,0.39226 -4.125,0 -5.8125,-0.17651 -3.75,-0.39226 z M 110.08519,261.75 c -0.4677,-1.2375 -0.65164,-2.5875 -0.40876,-3 0.24288,-0.4125 18.86505,-0.75 41.38259,-0.75 22.51754,0 40.93791,0.3375 40.93415,0.75 -0.004,0.4125 -1.49411,1.7625 -3.31188,3 -3.2813,2.23383 -3.57246,2.25 -40.52539,2.25 H 110.93555 Z M 61.946167,255.25 58.5,251.5 l 3.75,3.44617 C 65.740419,258.15378 66.459787,259 65.696167,259 c -0.167108,0 -1.854608,-1.6875 -3.75,-3.75 z M 92.5,254 c 2.148243,-2.2 4.130896,-4 4.405896,-4 0.275,0 -1.257653,1.8 -3.405896,4 -2.148243,2.2 -4.130896,4 -4.405896,4 -0.275,0 1.257653,-1.8 3.405896,-4 z m -14.179926,-7 c 0,-3.575 0.181495,-5.0375 0.403322,-3.25 0.221826,1.7875 0.221826,4.7125 0,6.5 -0.221827,1.7875 -0.403322,0.325 -0.403322,-3.25 z M 231.61462,241.28129 C 230.7055,240.37217 230.86675,150 231.77749,150 c 0.42763,0 1.77763,0.70052 3,1.5567 L 237,153.11341 v 42.82828 42.82829 l -2.38538,1.56296 c -1.31196,0.85963 -2.66196,1.28639 -3,0.94835 z M 80.75,236.91807 C 79.132511,235.97766 79,233.05984 79,198.38389 v -37.51673 l 2.75,0.31642 2.75,0.31642 v 37.91667 c 0,24.41038 -0.35621,38.02392 -1,38.21776 -0.55,0.1656 -1.7875,-0.15676 -2.75,-0.71636 z m 2.513634,-81.85412 C 75.803413,153.20654 69,144.84276 69,137.52894 69,133.20465 72.557992,125.30692 75.125046,123.93308 76.879162,122.9943 77,121.36725 77,98.687322 c 0,-27.285564 0.04179,-27.460678 7.333155,-30.725117 3.667926,-1.64218 4.417341,-1.679185 7.6175,-0.376146 1.95214,0.794872 4.561845,2.588277 5.799345,3.985345 2.202569,2.486577 2.25,3.054931 2.25,26.961307 v 24.421179 l 2.44827,1.60417 c 5.54473,3.63305 7.16299,16.44504 2.81745,22.30618 -4.91507,6.6293 -14.284659,10.12115 -22.002086,8.19971 z M 97,148.15765 c 1.375,-0.98269 3.33391,-3.46475 4.35313,-5.51567 2.51481,-5.0604 1.51603,-9.97282 -2.931999,-14.42085 L 95,124.8 V 99.97258 75.14516 L 92.342872,73.055063 C 89.324047,70.680455 86.462198,71.061003 83.75,74.19768 82.186044,76.006407 82,78.825682 82,100.71686 v 24.4953 l -2.51998,1.98222 C 76.259331,129.72777 74,134.10044 74,137.8003 c 0,4.07273 5.203253,10.90348 9.232224,12.11993 4.277213,1.29139 10.633159,0.47769 13.767776,-1.76258 z m -13.621698,-1.5469 C 76.144934,143.35216 74.802611,135.80856 80.5,130.43523 L 84,127.1343 V 116.06715 105 h 4.5 4.5 v 11.27732 c 0,11.23321 0.01152,11.28742 2.946525,13.86284 5.270275,4.62459 5.296795,11.12627 0.06059,14.85478 -3.875199,2.75938 -8.715586,3.37869 -12.628811,1.61581 z m 119.146158,-0.9692 c -2.95991,-2.16435 -2.14734,-6.48775 2.86034,-15.21879 4.12631,-7.19433 5.01475,-9.9175 8.12785,-24.91277 1.92233,-9.259535 3.25768,-17.072992 2.96744,-17.363232 -1.25674,-1.256741 -3.31104,2.840293 -4.43912,8.853242 -1.43088,7.62698 -3.36681,10.43117 -6.16684,8.93264 -2.30538,-1.23381 -2.3473,-3.72243 -0.22534,-13.379386 1.53555,-6.988258 1.99322,-7.797175 6.66397,-11.778421 2.75835,-2.351158 6.39168,-5.512333 8.07407,-7.024833 3.57754,-3.216271 8.48707,-3.651805 10.91557,-0.968341 0.88681,0.979913 3.17968,5.220862 5.09526,9.42433 2.931,6.431656 4.36384,8.293477 9.04261,11.749885 C 248.49812,96.214842 251,98.528477 251,99.097286 251,101.03367 248.93388,104 247.58514,104 c -1.89958,0 -12.90165,-8.684356 -13.98795,-11.04123 -1.39369,-3.023785 -2.27916,-2.351368 -3.0172,2.29123 -0.37159,2.3375 -0.90514,5.17185 -1.18566,6.29856 -0.36381,1.46125 1.27759,4.28802 5.72518,9.85979 5.30981,6.65192 6.44142,8.79673 7.62464,14.45144 2.4508,11.71262 2.68885,17.56435 0.79169,19.46152 -4.42463,4.42462 -7.74267,0.84417 -9.56485,-10.32131 -0.6732,-4.125 -1.63588,-8.59129 -2.13931,-9.92508 -0.84989,-2.25176 -7.36059,-10.21264 -8.88389,-10.86268 -0.37088,-0.15826 -0.9319,1.64174 -1.24672,4 -0.51931,3.89003 -6.67,17.33217 -11.68527,25.53776 -2.12542,3.47745 -4.50187,4.0775 -7.49134,1.89155 z m 41.1336,-21.11966 c -0.36154,-2.63766 -1.86448,-6.20462 -3.65692,-8.67901 -4.09565,-5.65388 -2.35607,-7.28733 2.33252,-2.19022 2.64489,2.87535 3.78241,5.23685 4.50255,9.34734 0.98726,5.63518 0.71974,8.53706 -0.31049,3.368 -1.21703,-6.10632 -3.08914,-10.74246 -4.52572,-11.20758 -1.29105,-0.41801 -1.30711,-0.252 -0.11528,1.19175 1.62448,1.96785 4.29367,12.64783 3.161,12.64783 -0.42563,0 -1.05008,-2.01515 -1.38766,-4.47811 z m -4.0844,-12.2957 c -1.72775,-1.65022 -1.75457,-1.6234 -0.60945,0.60946 0.6588,1.2846 1.47209,2.06139 1.80729,1.72619 0.3352,-0.3352 -0.20383,-1.38624 -1.19784,-2.33565 z M 106.80983,111.4765 c -0.28792,-0.28793 -0.31047,-1.63793 -0.0501,-3 L 107.23314,106 h 44.86765 44.86765 l 3.26577,2.97069 3.26578,2.97068 -48.08333,0.0293 c -26.44584,0.0161 -48.31891,-0.20627 -48.60684,-0.49419 z M 203.35327,91.25 c 1.56935,-5.627345 1.4696,-6.403898 -0.35327,-2.75 -1.12738,2.259813 -1.72387,2.912383 -1.37108,1.5 1.0829,-4.335419 3.0727,-7.376316 7.52497,-11.5 2.3753,-2.2 3.23395,-2.7625 1.90811,-1.25 -2.89827,3.306298 -1.7093,3.635854 1.87355,0.519304 1.41045,-1.226883 0.47852,0.01062 -2.07095,2.75 -2.54947,2.739383 -5.17187,6.668196 -5.82755,8.730696 -1.17086,3.683024 -2.63971,5.427725 -1.68378,2 z m 4.77429,-10 c 1.24387,-1.586056 1.2085,-1.621426 -0.37756,-0.377555 C 206.08425,82.178814 205.55452,83 206.37756,83 c 0.20765,0 0.99515,-0.7875 1.75,-1.75 z M 54.634859,81.92742 c -3.700328,-2.910679 -3.595206,-8.72042 0.280034,-15.476555 4.626938,-8.066651 5.342404,-8.287599 8.992459,-2.777023 4.133742,6.240813 5.609311,11.27244 4.386487,14.957736 -1.74898,5.271 -8.941591,7.006541 -13.65898,3.295842 z M 57,74 c 0,-1.65 -0.239501,-3 -0.532224,-3 -0.800838,0 -2.298368,4.388897 -1.791346,5.25 C 55.71549,78.014693 57,76.770854 57,74 Z m 167.17431,-6.314451 c -3.05076,-3.247386 -3.02402,-9.976983 0.0482,-12.128845 3.40976,-2.388289 7.3199,-1.953898 9.70491,1.078155 2.8168,3.580983 2.60629,7.198629 -0.61451,10.560422 -3.26728,3.410306 -6.24527,3.570069 -9.1386,0.490268 z"
       id="path845" />
  </g>
</svg>
