<?xml version="1.0" encoding="UTF-8"?>
<svg width="309" height="348" version="1.1" viewBox="0 0 81.756 92.075" xmlns="http://www.w3.org/2000/svg">
 <path d="m42.08 87.479c-0.42194-0.16487-0.82983-0.55515-1.0217-0.97757-0.198-0.43598-0.20925-0.91536-0.21159-9.0136l-0.0024-8.5531 0.3651-0.54402c0.26552-0.39564 0.49229-0.59075 0.83145-0.71537l0.46634-0.17135-0.27591-0.33646c-1.2019-1.4656-1.1387-3.5446 0.14566-4.7894l0.37475-0.36322-1.2717-0.25639c-4.2184-0.85049-8.0343-3.1457-10.871-6.5387-1.6247-1.9434-2.6533-3.8322-3.4539-6.3419-0.69802-2.1883-0.85897-3.2766-0.85872-5.8064 2.26e-4 -2.4212 0.09481-3.1368 0.6889-5.2124 0.21043-0.73522 0.35142-1.435 0.31331-1.5551-0.0381-0.12006-0.63311-0.7875-1.3222-1.4832-1.0486-1.0586-1.3985-1.3363-2.1456-1.7028-0.88755-0.43533-0.90054-0.43786-2.2468-0.43786-0.74474 2e-6 -1.6424 0.06629-1.9949 0.14732l-0.64081 0.14732 0.38528 0.53629c1.7504 2.4364 2.0134 5.9178 0.66288 8.774-1.175 2.485-3.3646 4.239-6.2822 5.0323-0.93616 0.25457-3.3207 0.24619-4.3812-0.01539-2.9806-0.73522-5.6379-3.1684-6.6444-6.0841-0.28541-0.82682-0.31064-1.038-0.31542-2.64-0.00453-1.5216 0.027979-1.8469 0.25786-2.579 0.53978-1.7189 1.7698-3.5991 2.8727-4.3911 0.28341-0.20353 0.5153-0.38924 0.5153-0.41269 0-0.02344-0.46068-0.48102-1.0237-1.0168-1.13-1.0754-1.714-1.8639-2.31-3.1187-0.48055-1.0119-0.52779-1.5657-0.15902-1.8643 0.57742-0.46757 1.0392-0.16054 1.4578 0.96919 0.48826 1.3178 1.8326 2.9556 3.1316 3.8152l0.41988 0.27784 0.95488-0.32808c2.8918-0.99358 5.9322-0.56326 8.5153 1.2052l0.73277 0.50168 1.5827-0.29269c1.782-0.32955 2.6014-0.35908 3.6609-0.13192 1.534 0.32887 2.5255 0.93449 4.0685 2.4851l1.0661 1.0713 0.40262-0.76312c0.56397-1.0689 1.4432-2.3084 2.4949-3.5172 2.6902-3.092 6.44-5.2597 10.534-6.0896 1.0934-0.22163 1.5992-0.25554 3.7894-0.25403 2.2178 0.0015 2.6791 0.03392 3.7633 0.26434 3.3497 0.71184 6.418 2.2796 9.0641 4.6313l0.79697 0.70831 0.74902-0.78548c0.41196-0.43201 0.91239-1.071 1.1121-1.42 0.7998-1.3979 1.2174-3.2785 1.0946-4.9289-0.10963-1.4727-0.13984-1.4526 2.237-1.4923 2.1677-0.03627 3.1269-0.22994 4.4932-0.90728 4.4281-2.1952 5.6936-8.2198 3.0751-14.64-0.27533-0.67508 0.22421-1.1756 0.98315-0.98517 0.31484 0.079019 0.66728 0.79364 1.1145 2.2598 0.90664 2.9724 1.0185 5.9772 0.32291 8.6756-0.87806 3.4064-3.3364 5.9121-6.629 6.7568-0.95552 0.24513-2.556 0.45458-3.485 0.45607l-0.57411 8.98e-4 -0.06322 1.2638c-0.07403 1.4801-0.34458 2.5293-0.976 3.7851-0.45386 0.90267-1.5429 2.3533-2.1507 2.8647l-0.34336 0.28892 0.44445 0.5327c1.1409 1.3675 2.2881 3.5173 2.946 5.5208 1.7684 5.3855 1.1444 11.221-1.7043 15.937-2.7175 4.499-7.4081 7.7952-12.576 8.8373l-1.221 0.24623 0.37474 0.36321c0.69087 0.66961 0.91483 1.2787 0.91448 2.487-3.38e-4 1.1432-0.14573 1.5776-0.78048 2.332l-0.286 0.33989 0.30186 0.07577c0.48784 0.12244 0.89773 0.47784 1.1485 0.99579 0.23118 0.47757 0.23432 0.59753 0.23432 8.9509s-0.0031 8.4733-0.23432 8.9508c-0.12888 0.26622-0.39428 0.59814-0.58978 0.73758-0.34666 0.24727-0.4333 0.25408-3.5009 0.27529-1.73 0.01195-3.2213-0.0079-3.314-0.0441zm5.9315-1.5167c0.10243-0.10243 0.13481-2.1368 0.13481-8.4696 0-7.4966-0.01787-8.3416-0.1777-8.4029-0.35537-0.13637-5.2743-0.07587-5.4168 0.06662-0.1951 0.1951-0.1951 16.611 0 16.806 0.09707 0.09707 0.86126 0.13481 2.7298 0.13481 1.8686 0 2.6328-0.03774 2.7298-0.13481zm-1.3934-19.343c0.70558-0.4135 1.1423-1.2765 1.0289-2.033-0.1624-1.0829-1.1978-1.8976-2.3771-1.8705-1.0629 0.0245-1.803 0.46594-2.1911 1.3069-0.37076 0.80334-0.24603 1.5096 0.38434 2.1762 0.82577 0.87328 2.0938 1.0422 3.155 0.42034zm2.1461-6.3371c6.2084-1.3492 11.127-5.7029 13.096-11.592 0.70334-2.1036 0.92638-3.6981 0.85667-6.1242-0.06323-2.2008-0.24554-3.2798-0.86812-5.1381-1.2702-3.7913-3.8047-6.9806-7.3282-9.2215-4.9975-3.1783-11.699-3.4914-17.064-0.7971-0.92634 0.46518-2.4583 1.4454-3.1838 2.0371-0.63344 0.51664-2.0959 1.9972-2.6959 2.7294-1.7898 2.1837-3.0723 5.0899-3.5937 8.1435-0.24674 1.4451-0.25112 3.9959-0.0094 5.5046 0.7375 4.6042 3.4031 8.9096 7.1416 11.535 2.2015 1.546 4.892 2.6505 7.4705 3.0667 1.4373 0.232 4.8116 0.15369 6.1786-0.14338zm-5.1676-2.4579c-5.7416-0.72055-10.553-4.6369-12.348-10.051-0.59366-1.7905-0.77918-3.1608-0.71057-5.248 0.04872-1.482 0.11139-1.9593 0.40035-3.0489 0.76702-2.8924 1.9738-4.9872 4.0231-6.9834 2.1125-2.0577 4.5428-3.3361 7.568-3.9808 1.436-0.30602 4.2818-0.27502 5.7854 0.06304 4.4889 1.0092 8.2394 3.9164 10.223 7.9241 1.0175 2.056 1.5153 4.2192 1.5161 6.5887 0.0015 4.481-1.8918 8.5026-5.3933 11.456-1.8421 1.5537-4.6797 2.8155-7.1787 3.1922-0.97781 0.1474-3.0386 0.1939-3.8851 0.08767zm4.2689-1.7115c1.9542-0.40936 4.0219-1.3532 5.5608-2.5383 0.93712-0.72168 2.2324-2.133 2.9565-3.2213 2.4451-3.6751 2.8336-8.5879 1.0059-12.721-0.42109-0.95222-0.85652-1.6598-1.6677-2.7101-0.9063-1.1735-1.8074-1.9988-3.1799-2.9125-2.1626-1.4397-4.1071-2.0615-6.7539-2.1598-2.6329-0.09779-4.6965 0.38442-6.8732 1.6061-3.905 2.1917-6.2864 5.7626-6.8489 10.27-0.33846 2.712 0.46662 6.0901 2.0234 8.49 1.9646 3.0286 5.0174 5.1311 8.5532 5.8908 1.3434 0.28861 3.8613 0.29161 5.2238 0.0062zm-3.1612-2.2734c-0.87551-0.10069-1.6635-0.49918-2.2541-1.14-0.81567-0.88489-0.99846-1.4276-1.1495-3.4131-0.15682-2.0616-0.71384-3.1773-1.7585-3.522-0.5395-0.17805-1.9397-0.09065-2.7623 0.17241-0.59886 0.19153-0.65577 0.19252-0.92501 0.01611-0.66444-0.43536-0.43093-1.1719 0.46358-1.4622 3.7766-1.2257 6.2749 0.50758 6.5051 4.5133 0.11742 2.0429 0.55424 2.8977 1.6466 3.2221 0.31433 0.09335 0.75671 0.16972 0.98306 0.16972 0.70435 0 1.0737 0.72874 0.6222 1.2276-0.2439 0.26951-0.52344 0.31357-1.3711 0.21608zm5.9056-6.4208c-1.1226-0.31829-1.9776-1.0487-2.5901-2.2126-0.37428-0.71131-0.38572-2.3817-0.02172-3.1699 0.32288-0.69914 1.1941-1.6176 1.8494-1.9496 1.9619-0.99415 4.4194-0.14141 5.3653 1.8617 0.25029 0.53004 0.29176 0.76956 0.29176 1.6851 0 1.0006-0.02382 1.1111-0.38185 1.7714-0.45407 0.83736-1.0571 1.4119-1.875 1.7863-0.72994 0.33418-1.9046 0.43555-2.6378 0.22766zm2.2008-1.7208c0.24589-0.12705 0.5972-0.44352 0.78069-0.70328 0.45252-0.6406 0.53819-1.7667 0.18681-2.4555-0.39915-0.7824-1.3356-1.3786-2.1624-1.3766-1.4686 0.0034-2.6535 1.4853-2.3345 2.9195 0.15881 0.71391 0.51711 1.2009 1.168 1.5876 0.48707 0.28934 0.65154 0.32873 1.238 0.29652 0.39696-0.02179 0.86098-0.13256 1.1234-0.26814zm-15.151-8.6733c-0.25614-0.28302-0.23383-1.0819 0.04758-1.7043 0.2542-0.56223 0.76244-1.1367 1.3015-1.471 1.3406-0.83148 3.8853-0.76281 5.0275 0.13567 0.35633 0.28029 0.38637 0.78977 0.0655 1.1106-0.28723 0.28723-0.5933 0.2838-1.2075-0.01351-1.0192-0.49339-2.6884-0.35728-3.3848 0.27602-0.31043 0.2823-0.5753 0.85-0.5753 1.2331 0 0.57004-0.88002 0.86933-1.2745 0.43344zm-24.184 8.7467c2.5707-0.65749 4.6685-2.5976 5.5305-5.115 0.26428-0.77172 0.30822-1.0813 0.31097-2.1906 0.0028-1.1118-0.03821-1.4109-0.29377-2.1453-0.43196-1.2413-1.0254-2.1866-1.9327-3.0785-2.4906-2.4484-6.0948-2.9882-9.2027-1.3783-1.3436 0.69599-2.6928 2.0588-3.3107 3.3442-0.65568 1.3638-0.84468 2.268-0.76372 3.6539 0.071544 1.2247 0.29258 2.0097 0.87202 3.0969 0.68128 1.2782 2.3061 2.7828 3.6444 3.3748 1.5131 0.6693 3.5597 0.84341 5.1457 0.43777zm59.827 1.2251c-1.2658-0.18619-2.3348-0.76204-3.2685-1.7606-2.1501-2.2994-1.6037-5.9075 1.1636-7.6832 1.1836-0.75951 3.1673-0.99625 4.5996-0.54893 3.198 0.99879 4.6427 4.6123 2.9789 7.4513-0.34237 0.58421-1.494 1.6795-2.0805 1.9787-0.95625 0.48784-2.341 0.71751-3.3931 0.56275zm2.3857-1.8153c0.81222-0.37184 1.5004-1.0018 1.8517-1.695 0.94972-1.8742 0.16591-3.9442-1.8516-4.8899-0.53644-0.25148-0.78896-0.29835-1.5924-0.29562-0.79049 0.0027-1.0646 0.05414-1.5924 0.29887-0.82629 0.38314-1.5816 1.0865-1.9409 1.8075-0.42031 0.84346-0.40705 2.0162 0.03332 2.9456 0.88154 1.8604 3.2024 2.6938 5.0923 1.8286zm-48.74-17.416c-0.21592-0.23858-0.22587-0.35996-0.17719-2.1625 0.04336-1.6055 0.0162-2.0807-0.17044-2.9825-0.41877-2.0236-1.0901-3.3055-2.4398-4.6591-1.0732-1.0763-2.0324-1.6139-4.211-2.3601-3.2465-1.112-5.2991-2.5352-6.7624-4.6888-0.86617-1.2748-1.4809-2.9915-1.6197-4.5231-0.07063-0.77938-0.05998-0.83406 0.21609-1.1101 0.364-0.364 0.68203-0.36849 1.0359-0.014629 0.21751 0.21751 0.27574 0.39165 0.27574 0.82457 0 1.5683 0.90923 3.5805 2.2696 5.0227 1.4229 1.5085 2.7996 2.2979 5.6565 3.2435 4.0573 1.3429 6.4863 4.2312 7.186 8.5451 0.17534 1.0811 0.20632 3.0891 0.0632 4.097-0.1334 0.93946-0.81123 1.3331-1.3226 0.76812zm19.416-5.0094c-0.38256-0.40953-1.3703-2.3106-1.7398-3.3487-0.62952-1.7683-0.81763-4.1926-0.46321-5.9699 0.50254-2.52 2.1942-4.251 5.1409-5.2606 1.1104-0.38042 3.1557-0.71675 4.3587-0.71675 1.0961 0 1.4492 0.17271 1.4492 0.70873 0 0.57794-0.1998 0.66779-1.8204 0.81862-4.1049 0.38204-6.623 1.7081-7.3906 3.8919-0.70773 2.0136-0.5181 4.4679 0.5329 6.897 0.237 0.54774 0.64358 1.3219 0.90351 1.7204 0.25993 0.39845 0.4726 0.78341 0.4726 0.85548 0 0.07206-0.10477 0.26422-0.23283 0.42702-0.32116 0.40828-0.81674 0.39877-1.211-0.02323z" fill="#f8d800" stroke-width=".11234"/>
</svg>
