<?xml version="1.0" encoding="UTF-8" standalone="no"?>
<!-- Svg Vector Icons : http://www.onlinewebfonts.com/icon -->

<svg
   xmlns:dc="http://purl.org/dc/elements/1.1/"
   xmlns:cc="http://creativecommons.org/ns#"
   xmlns:rdf="http://www.w3.org/1999/02/22-rdf-syntax-ns#"
   xmlns:svg="http://www.w3.org/2000/svg"
   xmlns="http://www.w3.org/2000/svg"
   xmlns:sodipodi="http://sodipodi.sourceforge.net/DTD/sodipodi-0.dtd"
   xmlns:inkscape="http://www.inkscape.org/namespaces/inkscape"
   version="1.1"
   x="0px"
   y="0px"
   viewBox="0 0 309 309"
   enable-background="new 0 0 1000 1000"
   xml:space="preserve"
   id="svg8"
   sodipodi:docname="node_feuille.svg"
   width="309"
   height="309"
   inkscape:version="0.92.3 (2405546, 2018-03-11)"><defs
   id="defs12" /><sodipodi:namedview
   pagecolor="#ffffff"
   bordercolor="#666666"
   borderopacity="1"
   objecttolerance="10"
   gridtolerance="10"
   guidetolerance="10"
   inkscape:pageopacity="0"
   inkscape:pageshadow="2"
   inkscape:window-width="2493"
   inkscape:window-height="1385"
   id="namedview10"
   showgrid="false"
   inkscape:zoom="0.236"
   inkscape:cx="500"
   inkscape:cy="500"
   inkscape:window-x="67"
   inkscape:window-y="27"
   inkscape:window-maximized="1"
   inkscape:current-layer="svg8" />
<metadata
   id="metadata2"> Svg Vector Icons : http://www.onlinewebfonts.com/icon <rdf:RDF><cc:Work
     rdf:about=""><dc:format>image/svg+xml</dc:format><dc:type
       rdf:resource="http://purl.org/dc/dcmitype/StillImage" /><dc:title></dc:title></cc:Work></rdf:RDF></metadata>
<g
   id="g6"
   style="fill:#f8d800;fill-opacity:1"
   transform="matrix(0.31530612,0,0,0.31530612,-3.1530612,-3.1849793)"><path
     d="m 414.3,399.3 c -21.1,38.5 -35.2,80 -43.6,123 -33,-62.1 -84,-121.5 -132.6,-146.4 36,68.8 85.6,147.9 124.6,200.8 -0.8,8.2 -1.4,16.5 -1.9,24.8 v 0.3 1 0.4 0.2 1.5 0.3 l -0.1,1.1 -0.1,1.3 -0.1,2.1 c -0.1,2.4 -0.3,4.6 -0.3,6.8 l -0.1,3.3 v 0.1 l -0.1,3.2 v 0.4 1 0.5 0.9 0.9 0.3 1 0.3 0.2 1.6 0.3 2.1 0.2 0.8 0.5 l -0.1,1.1 v 0.1 1 0.6 0.6 1.1 1.9 c 0,2.1 0,4.1 0,6.1 v 0.5 c 0.1,20 1.1,40.2 2.6,60 C 301.8,647.7 192,596.7 117.6,599.9 c 81.1,52.7 189,108.8 247,130.3 1.4,14.7 3.2,29.4 5.3,44 C 144.2,865.9 117,681.7 10,548.2 c 70.4,-25.4 129.9,-36.3 179.9,-35.1 -15.6,-67.7 -6.4,-151.9 -20,-234.7 126,21.1 203.4,63.6 244.4,120.9 z M 990,201.5 C 882,503.6 958.8,849.4 427.9,771.1 378.9,434.4 501,194.9 990,201.5 Z M 841.7,348 C 695.6,392 511.3,586 471.6,731.7 541.6,688 720.3,503.8 841.7,348 Z"
     id="path4"
     style="fill:#f8d800;fill-opacity:1"
     inkscape:connector-curvature="0" /></g>
</svg>