<?xml version="1.0" encoding="UTF-8" standalone="no"?>
<!-- Created with Inkscape (http://www.inkscape.org/) -->

<svg
   version="1.1"
   id="svg2"
   width="307"
   height="352"
   viewBox="0 0 307 352"
   sodipodi:docname="node_thermostat.svg"
   inkscape:version="1.1 (c68e22c387, 2021-05-23)"
   xmlns:inkscape="http://www.inkscape.org/namespaces/inkscape"
   xmlns:sodipodi="http://sodipodi.sourceforge.net/DTD/sodipodi-0.dtd"
   xmlns="http://www.w3.org/2000/svg"
   xmlns:svg="http://www.w3.org/2000/svg">
  <defs
     id="defs6" />
  <sodipodi:namedview
     id="namedview4"
     pagecolor="#505050"
     bordercolor="#ffffff"
     borderopacity="1"
     inkscape:pageshadow="0"
     inkscape:pageopacity="0"
     inkscape:pagecheckerboard="1"
     showgrid="false"
     inkscape:zoom="1.1818182"
     inkscape:cx="74.884614"
     inkscape:cy="270.34615"
     inkscape:window-width="1920"
     inkscape:window-height="1017"
     inkscape:window-x="1912"
     inkscape:window-y="-8"
     inkscape:window-maximized="1"
     inkscape:current-layer="g8" />
  <g
     inkscape:groupmode="layer"
     inkscape:label="Image"
     id="g8">
    <path
       style="fill:#f8d800;fill-opacity:1"
       d="m 141.3334,284.3428 c -14.3131,-3.11182 -26.19243,-13.41746 -32.26312,-27.98914 -3.35277,-8.04774 -3.48245,-22.05912 -0.28481,-30.77196 2.26059,-6.15959 9.81791,-16.77802 13.79663,-19.38497 L 125,204.61246 v -57.70349 c 0,-65.50323 -0.0837,-64.671141 7.21741,-71.721716 6.71348,-6.483075 12.03657,-8.786742 20.28259,-8.777663 11.82055,0.01302 20.30329,5.114317 25.66272,15.432894 l 2.33728,4.5 0.28022,58.999995 0.28022,59 5.3726,5.5 c 9.9835,10.22023 15.0521,24.9123 12.79029,37.07454 -5.05331,27.17281 -30.21822,43.4419 -57.88993,37.42578 z m 27.26902,-14.47612 c 22.45685,-11.05548 24.808,-40.95624 4.37476,-55.63606 L 168,210.65487 l -0.004,-61.1562 c -0.004,-58.303255 -0.0923,-61.301425 -1.90228,-64.269676 -2.11114,-3.462551 -9.25598,-7.386509 -13.44928,-7.386509 -3.97981,0 -10.1303,3.470028 -12.81023,7.227361 L 137.5,88.342485 137.22787,150.03212 c -0.25846,58.58883 -0.36339,61.7186 -2.08765,62.26586 -3.35652,1.06531 -10.80942,9.16902 -13.51095,14.69076 -5.14374,10.51343 -4.52832,20.31977 1.94388,30.97416 8.88599,14.62792 28.80145,19.8927 45.02927,11.90378 z m -25.09739,-5.71275 c -4.00891,-1.11016 -10.52236,-6.48488 -13.01655,-10.7409 -4.96108,-8.46544 -4.25118,-20.29454 1.66631,-27.76598 4.48311,-5.6604 10.42031,-8.74676 18.22871,-9.47592 7.57645,-0.7075 7.76031,-0.44617 4.59454,6.53055 -3.58315,7.89656 -2.30262,12.57193 3.12182,11.39816 1.49489,-0.32347 5.01306,-6.90768 6.41595,-12.00736 0.86197,-3.13334 1.66222,-2.8654 6.22454,2.08414 5.09042,5.52245 6.57484,10.08194 6.08791,18.69938 -0.32282,5.71322 -0.90133,7.56625 -3.4837,11.15869 -1.70312,2.36928 -5.25457,5.65779 -7.89209,7.30779 -4.11927,2.57695 -5.86419,3.02566 -12.37399,3.18195 -4.16816,0.10008 -8.47621,-0.0666 -9.57345,-0.3705 z m 11.0153,-32.27855 c -1.29589,-2.0968 5.46646,-19.43012 7.95258,-20.38413 2.44962,-0.94001 3.37193,2.2164 1.98969,6.80925 -3.17275,10.54223 -7.86067,16.94298 -9.94227,13.57488 z m -6.09062,-34.7829 0.3341,-3.75 8.61809,-0.28893 8.6181,-0.28894 v 4.03894 4.03893 h -8.95219 -8.95219 z m 0.43419,-18.71943 c -0.25819,-0.25819 -0.28396,-2.05819 -0.0573,-4 l 0.41221,-3.53057 h 8.3906 H 166 v 4 4 h -8.33333 c -4.58334,0 -8.54458,-0.21125 -8.80277,-0.46943 z m -0.47089,-24.11236 c 0.33385,-0.86998 0.60699,-2.44498 0.60699,-3.5 0,-1.7405 0.78747,-1.91821 8.5,-1.91821 h 8.5 v 3.5 3.5 h -9.10699 c -7.89354,0 -9.02611,-0.21076 -8.5,-1.58179 z m -0.20338,-23.16821 0.31037,-3.75 8.75,-0.28893 8.75,-0.28894 v 4.03894 4.03893 h -9.06037 -9.06036 z M 246,259.84248 v -10 H 235.5 225 v -6.5 -6.5 h 10 10 v -10 -10 h 6 6 v 10 10 h 10.5 10.5 v 6.5 6.5 h -10 -10 v 10 10 h -6 -6 z m -217,-16.5 v -6.5 H 55.5 82 v 6.5 6.5 H 55.5 29 Z"
       id="path845" />
  </g>
</svg>
