<?xml version="1.0" encoding="UTF-8" standalone="no"?>
<!-- Created with Inkscape (http://www.inkscape.org/) -->

<svg
   version="1.1"
   id="svg2"
   width="307"
   height="352"
   viewBox="0 0 307 352"
   sodipodi:docname="node_repeter.svg"
   inkscape:version="1.1 (c68e22c387, 2021-05-23)"
   xmlns:inkscape="http://www.inkscape.org/namespaces/inkscape"
   xmlns:sodipodi="http://sodipodi.sourceforge.net/DTD/sodipodi-0.dtd"
   xmlns="http://www.w3.org/2000/svg"
   xmlns:svg="http://www.w3.org/2000/svg">
  <defs
     id="defs6" />
  <sodipodi:namedview
     id="namedview4"
     pagecolor="#505050"
     bordercolor="#ffffff"
     borderopacity="1"
     inkscape:pageshadow="0"
     inkscape:pageopacity="0"
     inkscape:pagecheckerboard="1"
     showgrid="false"
     inkscape:zoom="2.3636364"
     inkscape:cx="144.90384"
     inkscape:cy="162.25"
     inkscape:window-width="1920"
     inkscape:window-height="1017"
     inkscape:window-x="1912"
     inkscape:window-y="-8"
     inkscape:window-maximized="1"
     inkscape:current-layer="g8" />
  <g
     inkscape:groupmode="layer"
     inkscape:label="Image"
     id="g8">
    <path
       id="path1427"
       style="fill:#f8d800;fill-opacity:1"
       d="m 59.682319,23.5 c -7.277425,0 -19.729425,3.18375 -26.177734,6.693359 -5.845217,3.181366 -13.822266,9.9284 -13.822266,11.691407 0,3.715721 5.624418,4.793645 8.490234,1.626953 8.939211,-9.877716 29.820311,-14.756329 44.578125,-10.414063 5.925523,1.743497 15.449178,7.105412 18.388672,10.353516 2.40527,2.657793 6.157826,2.636432 7.591797,-0.04297 0.978059,-1.827521 0.568939,-2.615131 -3.246094,-6.25 C 93.08424,34.870768 88.804633,31.753034 85.975288,30.228515 79.387956,26.679105 66.965931,23.5 59.682319,23.5 Z M 181.9206,23.759766 c -4.52777,-0.03312 -9.04166,2.235242 -11.97461,6.638672 l -2.26367,3.396484 V 95.648438 157.5 h -14 -14 V 95.734375 c 0,-70.480357 0.40479,-67.011052 -8.24023,-70.619141 -2.21471,-0.924329 -4.27912,-1.377234 -6.25,-1.347656 -3.28481,0.0493 -6.30946,1.438032 -9.33985,4.214844 l -3.66992,3.363281 -0.27148,63.076172 -0.27149,63.078125 -4.72851,0.006 c -6.32886,0.007 -12.032441,1.66505 -15.980474,4.64453 -5.534943,4.17584 -6.69213,7.50746 -7.248047,20.84947 l -0.5,12 h -4.5 -4.5 l -0.5,-51.5 C 73.30903,105.05128 72.86668,91.450025 71.938178,89.828125 69.391206,85.379096 65.753012,83.5 59.682319,83.5 c -6.635421,0 -10.376323,2.264225 -12.621094,7.636719 -1.788682,4.280919 -1.930075,26.413671 -0.179687,28.164061 1.629757,1.62976 3.349502,1.50597 5.228515,-0.37305 1.247945,-1.24794 1.572266,-3.95795 1.572266,-13.16992 0,-9.390425 0.31453,-11.94926 1.654297,-13.429685 2.060668,-2.277014 6.102412,-2.359524 8.517578,-0.173828 1.736648,1.571644 1.828125,4.996005 1.828125,68.000003 0,62.90999 -0.09188,66.3457 -1.777344,66.3457 -2.802638,0 -6.07651,-2.7918 -8.236328,-7.02539 -1.880235,-3.68557 -1.986328,-5.95473 -1.986328,-42.36328 0,-33.63795 -0.198161,-38.66496 -1.572266,-40.03906 C 51.245768,136.20798 49.95147,135.5 49.2331,135.5 c -3.493755,0 -3.66123,2.15776 -3.353515,43.16602 L 46.182319,219 l 2.701172,4.59375 c 3.221813,5.48036 8.010186,9.34675 13.765625,11.11328 2.317968,0.71147 4.660664,2.11789 5.205078,3.12695 1.331985,2.46881 6.869713,4.66602 11.761719,4.66602 h 3.996094 l 0.285156,36.9082 0.285156,36.90821 3.058594,3.84179 c 1.681881,2.11283 5.038779,4.8543 7.460937,6.0918 l 4.404297,2.25 h 54.138673 c 38.79847,0 55.10301,-0.33173 57.53906,-1.17188 4.95266,-1.70809 8.33904,-4.49057 10.79883,-8.86718 1.90335,-3.38655 2.13525,-5.12429 1.88477,-14.16016 -0.27726,-10.00186 -0.3542,-10.31097 -2.67188,-10.63867 -3.41198,-0.48243 -4.08037,1.26398 -4.09766,10.70508 -0.0153,8.3412 -0.0275,8.38097 -3.79882,12.15234 -3.14567,3.14566 -4.70471,3.89333 -9.25,4.44141 -3.00668,0.36254 -27.53681,0.52019 -54.51172,0.34961 -54.450647,-0.34433 -52.198999,-0.0614 -56.500003,-7.11524 -1.880677,-3.0844 -1.947564,-5.55513 -1.951172,-70.99414 -0.0041,-73.77192 -0.206958,-71.03662 5.611328,-75.61328 C 98.916558,165.52778 99.693624,165.5 153.83271,165.5 h 54.87891 l 3.73632,3.42188 3.73438,3.42187 0.53125,51.82813 c 0.29206,28.50522 0.62956,51.9705 0.75,52.14453 0.12044,0.17403 1.45625,0.17403 2.96875,0 l 2.75,-0.31641 0.5,-16.5 0.5,-16.5 2.5,-0.26953 c 7.06654,-0.76232 9.56825,-1.62322 11.92188,-4.09961 1.41838,-1.49238 4.54671,-3.29223 6.95312,-4 5.98811,-1.76121 13.32549,-9.18058 14.9668,-15.13477 0.93984,-3.40946 1.16949,-19.56614 0.94922,-66.82421 l -0.29102,-62.326177 -3.73438,-3.423828 C 254.12332,83.875459 253.09569,83.5 248.10224,83.5 c -6.00947,0 -10.27123,2.125878 -12.67187,6.320312 -0.93406,1.631986 -1.37382,15.133988 -1.74805,53.679688 l -0.5,51.5 h -4.5 -4.5 l -0.50781,-12.5 c -0.5319,-13.09754 -1.03694,-14.81003 -5.65625,-19.18555 -3.76494,-3.56624 -7.50447,-4.95713 -15.33594,-5.69922 l -6.5,-0.61523 -0.5,-62.695312 -0.5,-62.695313 -3.41016,-3.517578 c -2.79972,-2.888199 -6.32996,-4.306274 -9.85156,-4.332031 z m 67.23242,0.0078 c -8.64278,-0.09297 -17.58917,1.652257 -24.9707,5.101563 -7.50093,3.505097 -15.5,10.208773 -15.5,12.988281 0,5.231616 3.26875,4.871768 11.35156,-1.246094 9.16012,-6.933266 14.68631,-8.61685 28.14844,-8.582031 13.0333,0.03371 19.01675,1.953771 28.12109,9.023437 6.30438,4.89546 9.8598,5.657355 10.91211,2.341797 1.36478,-4.300036 -11.1852,-13.720826 -23.23632,-17.443359 -4.5643,-1.409888 -9.64051,-2.127813 -14.82618,-2.183594 z m -67.41601,7.767578 c 1.7894,0.05085 3.56473,0.936183 4.88086,2.609375 2.06144,2.620696 2.07767,3.190474 1.82226,62.75 L 188.18232,157 l -6.25,0.29688 -6.25,0.29882 V 96.203125 c 0,-58.206287 0.0943,-61.479739 1.82812,-63.048828 1.0351,-0.936748 2.2372,-1.460534 3.46094,-1.589844 0.25495,-0.02694 0.51,-0.03656 0.76563,-0.0293 z m -55.82813,0.02539 c 1.60521,-0.0156 3.17713,0.487676 4.20117,1.511719 1.39446,1.394462 1.57227,8.489177 1.57227,63 V 157.5 h -6 -6 V 96.154297 c 0,-58.160059 0.0943,-61.430938 1.82812,-63 1.15495,-1.045215 2.79323,-1.578152 4.39844,-1.59375 z M 58.938178,42.525391 c -6.765673,0.117556 -13.512115,2.103482 -19.521484,5.921875 -5.948208,3.77953 -8.039566,7.625185 -5.253906,9.662109 2.62235,1.91751 3.117633,1.808941 7.410156,-1.640625 C 46.092415,52.836804 54.441997,49.5 59.012397,49.5 c 5.462311,0 13.077419,2.767682 18.03711,6.554688 4.864986,3.714692 7.842834,3.946505 9.085937,0.707031 1.030855,-2.686365 -2.6287,-6.50504 -9.736328,-10.158203 C 70.892962,43.773475 64.90789,42.421664 58.938178,42.525391 Z m 187.957032,0.09766 c -7.37369,0.07209 -13.88724,2.116414 -19.84375,6.210937 -5.07269,3.486979 -7.01215,8.009725 -4.19922,9.792969 2.02731,1.285196 2.45817,1.136831 7.73242,-2.652344 5.9519,-4.276014 14.09137,-6.848415 19.67774,-6.21875 4.60255,0.518774 13.43752,4.47853 17.70508,7.933594 2.18079,1.765587 3.15839,2.020638 4.5,1.175781 7.33131,-4.616758 -7.29852,-15.185795 -22.35938,-16.152343 -1.08939,-0.06991 -2.15951,-0.100142 -3.21289,-0.08984 z m 0.60547,17.460937 c -1.05008,0.0014 -2.07117,0.105584 -3.03125,0.328125 -8.6267,1.999613 -13.4832,7.642514 -9.24414,10.742188 1.45192,1.061674 2.41512,0.868597 5.93359,-1.193359 C 243.46874,68.607265 246.6434,67.5 248.21552,67.5 c 1.57211,0 4.50126,1.136796 6.50782,2.527344 3.96003,2.744301 6.49621,2.506804 7.51562,-0.705078 1.34929,-4.25124 -7.38773,-9.248204 -14.73828,-9.238282 z M 59.9206,60.310547 c -5.050628,-0.07365 -10.059397,1.555494 -12.953125,4.449219 -4.865699,4.8657 0.858508,9.634383 5.990235,4.990234 2.836181,-2.566709 10.517007,-2.346596 14.011718,0.402344 3.121513,2.455383 6.281731,2.103418 7.03711,-0.785156 0.817561,-3.126357 -3.249533,-6.881455 -9.097657,-8.398438 -1.615994,-0.419184 -3.304738,-0.633654 -4.988281,-0.658203 z m 187.91016,30.273437 c 1.7722,-0.05148 3.40483,0.803423 4.77929,2.550782 2.04363,2.59805 2.07227,3.459084 2.07227,61.683594 0,57.82904 -0.0437,59.13861 -2.08789,63.36133 -2.30516,4.76182 -6.17359,8.32031 -9.04688,8.32031 -1.80147,0 -1.86523,-2.26812 -1.86523,-66.44336 V 93.613281 l 2.22266,-1.55664 c 1.22452,-0.857693 2.42445,-1.340754 3.57031,-1.451172 0.11936,-0.0115 0.23732,-0.01806 0.35547,-0.02148 z M 74.182319,203 h 4.5 4.5 v 15.5 15.5 l -4.259766,0.30859 c -2.888253,0.20883 -4.42502,-0.12873 -4.777343,-1.04687 -0.285754,-0.74466 -0.395474,-7.85887 -0.242188,-15.8086 z m 150.000001,0 h 4.5 4.5 v 15.5 15.5 l -4.25977,0.30859 c -2.88825,0.20883 -4.42502,-0.12873 -4.77734,-1.04687 -0.28575,-0.74466 -0.39548,-7.85888 -0.24219,-15.8086 z m -70.03906,61.84961 c -5.06376,-0.10862 -10.15114,1.69468 -14.50782,5.42383 -7.12684,6.10032 -9.4593,14.17998 -6.84765,23.72656 1.24776,4.56103 9.30757,13.06972 13.05664,13.7832 4.6402,0.88307 13.76801,0.69387 16.52344,-0.34179 4.22088,-1.58647 11.21253,-8.91255 12.32422,-12.91407 1.3901,-5.00372 1.22307,-12.53863 -0.36133,-16.30859 -0.74381,-1.76983 -3.36509,-5.06682 -5.82422,-7.32617 -4.26005,-3.91398 -9.29952,-5.93435 -14.36328,-6.04297 z M 153.23505,274.5 c 4.24252,0 8.7434,2.1568 10.88672,5.2168 1.87864,2.68214 1.99539,10.371 0.20703,13.59375 -1.94651,3.50776 -6.69831,6.17624 -11.01367,6.18359 -3.16391,0.005 -4.57405,-0.70101 -7.75,-3.87695 -3.47477,-3.47478 -3.88281,-4.40659 -3.88281,-8.88281 0,-4.56647 0.34708,-5.31523 4.00195,-8.61719 3.01404,-2.723 4.88017,-3.61719 7.55078,-3.61719 z" />
  </g>
</svg>
