<?xml version="1.0" encoding="UTF-8" standalone="no"?>
<!-- Created with Inkscape (http://www.inkscape.org/) -->

<svg
   version="1.1"
   id="svg2"
   width="196.16"
   height="224.96001"
   viewBox="0 0 196.16 224.96001"
   sodipodi:docname="node_sms.svg"
   inkscape:version="1.1 (c68e22c387, 2021-05-23)"
   xmlns:inkscape="http://www.inkscape.org/namespaces/inkscape"
   xmlns:sodipodi="http://sodipodi.sourceforge.net/DTD/sodipodi-0.dtd"
   xmlns="http://www.w3.org/2000/svg"
   xmlns:svg="http://www.w3.org/2000/svg">
  <defs
     id="defs6" />
  <sodipodi:namedview
     id="namedview4"
     pagecolor="#505050"
     bordercolor="#ffffff"
     borderopacity="1"
     inkscape:pageshadow="0"
     inkscape:pageopacity="0"
     inkscape:pagecheckerboard="1"
     showgrid="false"
     inkscape:zoom="3.6984352"
     inkscape:cx="98.014426"
     inkscape:cy="112.34481"
     inkscape:window-width="1920"
     inkscape:window-height="1017"
     inkscape:window-x="1912"
     inkscape:window-y="-8"
     inkscape:window-maximized="1"
     inkscape:current-layer="g8" />
  <g
     inkscape:groupmode="layer"
     inkscape:label="Image"
     id="g8">
    <path
       style="fill:#f8d800;stroke-width:0.32;fill-opacity:1"
       d="m 52.32,205.22715 c -1.410982,-0.74553 -2.07593,-1.40573 -2.754051,-2.73439 C 48.975818,201.3365 48.96,199.07028 48.96,115.68001 c 0,-83.390284 0.01581,-85.656498 0.605949,-86.812757 0.693145,-1.358098 1.363779,-2.012193 2.81816,-2.748663 0.929638,-0.47075 5.144662,-0.518589 45.692749,-0.518589 43.200602,0 44.707662,0.01992 45.855892,0.605949 2.82845,1.443584 3.26725,2.66531 3.26725,9.096845 v 5.25458 l -1.39804,-0.261181 c -3.76835,-0.704007 -12.32319,-1.011075 -17.6771,-0.634506 -9.28693,0.653197 -14.49322,1.744346 -23.02536,4.825719 l -5.295871,1.912595 H 77.901814 56 v 68.800008 68.8 h 41.92 41.92 v -32.59873 -32.59872 l 2.96,-0.22364 c 1.628,-0.12299 3.284,-0.30118 3.68,-0.39596 l 0.72,-0.17234 v 41.65059 c 0,37.76556 -0.0484,41.74611 -0.51859,42.67469 -0.73647,1.45438 -1.39057,2.12501 -2.74866,2.81816 -1.14862,0.58623 -2.64279,0.60553 -45.920001,0.59314 C 57.815693,205.7357 53.182659,205.683 52.32,205.22715 Z m 49.28,-4.54897 c 1.58385,-0.72731 2.18448,-1.3896 3.06452,-3.37909 1.32954,-3.00563 0.0358,-6.49395 -2.96271,-7.98815 -0.91711,-0.45701 -2.114924,-0.83093 -2.66181,-0.83093 -0.546886,0 -1.744701,0.37392 -2.661811,0.83093 -2.998467,1.4942 -4.292247,4.98252 -2.962714,7.98815 0.880045,1.98949 1.480679,2.65178 3.064525,3.37909 1.629603,0.74831 3.490397,0.74831 5.12,0 z M 113.54563,36.034725 c 0.06,-0.525546 -0.0783,-1.041847 -0.32,-1.195101 -0.48056,-0.304643 -30.014712,-0.386522 -30.799457,-0.08539 -0.504698,0.193671 -0.711751,1.73352 -0.289831,2.15544 0.118992,0.118989 7.210992,0.178989 15.76,0.133335 L 113.44,36.960002 Z M 96.764198,152.98089 c -0.371692,-0.15816 -0.983692,-0.67898 -1.36,-1.15738 -1.364092,-1.73416 -0.655942,-6.6356 1.60705,-11.12314 0.972989,-1.92944 11.403722,-25.5523 11.547332,-26.15165 0.0448,-0.18689 -1.62703,-0.97664 -3.71515,-1.755 C 92.111126,108.04768 82.288819,99.291681 78.397283,89.218574 70.95791,69.962013 86.627491,49.882514 114.4,43.083544 c 12.08612,-2.958797 26.135,-3.026537 38.24,-0.184387 11.56517,2.715402 21.74783,8.034884 28.71256,14.999617 4.70943,4.709427 7.77599,9.967968 9.06442,15.54368 0.98874,4.278772 0.78845,9.990782 -0.488,13.91755 -3.17223,9.758775 -10.69987,17.636786 -22.40898,23.452016 -7.69753,3.82291 -19.49318,6.94799 -26.22529,6.94799 h -1.82315 l -13.31096,12.24 c -20.25817,18.62824 -22.80954,20.91052 -24.5506,21.9613 -1.742019,1.05135 -3.768883,1.47781 -4.845802,1.01958 z m 6.732112,-57.46151 c 7.00905,-1.484825 10.31505,-7.563072 7.44083,-13.680327 -1.24617,-2.652246 -3.01119,-4.177469 -7.41714,-6.40944 -6.055798,-3.067751 -8.039613,-5.759226 -6.616419,-8.976592 0.486128,-1.098973 0.975699,-1.62249 2.011414,-2.150871 1.868085,-0.953024 5.134535,-0.765888 7.781175,0.445782 1.02364,0.46864 1.90255,0.852071 1.95312,0.852071 0.12069,0 1.43071,-3.882439 1.43071,-4.240128 0,-0.551181 -2.78426,-1.485252 -5.50261,-1.846029 -4.582187,-0.608147 -8.013326,0.202419 -10.554734,2.49343 -2.971229,2.678487 -3.724211,7.12633 -1.843558,10.889854 1.147926,2.297203 2.358182,3.339267 6.271395,5.399843 6.113047,3.218941 7.829617,4.940653 8.028897,8.052941 0.21413,3.34426 -1.5744,4.863255 -5.75173,4.884922 -2.400258,0.01245 -4.680537,-0.563395 -6.584377,-1.662771 l -1.056717,-0.610202 -0.463283,1.119069 C 92.368477,90.696423 91.944,91.721591 91.68,92.359083 c -0.264,0.637494 -0.48,1.209798 -0.48,1.271782 0,0.297194 2.201261,1.191382 4.263696,1.73199 2.793629,0.732269 5.102464,0.777258 8.032614,0.156525 z m 34.41948,-8.559376 c 4.76234,-13.11321 4.5378,-12.54913 4.79553,-12.047428 0.12642,0.246083 1.08009,4.946916 2.11927,10.446289 l 1.88941,9.998861 2.48,0.0013 c 1.8397,9.6e-4 2.48,-0.107773 2.48,-0.420695 0,-0.232009 -1.584,-8.165139 -3.52,-17.629178 -1.936,-9.464039 -3.52,-17.266212 -3.52,-17.338167 0,-0.07209 -0.56426,-0.130963 -1.25391,-0.130963 h -1.25391 l -0.64993,2 c -0.35746,1.1 -2.11329,6.68 -3.90185,12.4 -1.78855,5.720001 -3.36522,10.60801 -3.50371,10.862247 -0.16173,0.296899 -1.24375,-2.621981 -3.02489,-8.16 -1.5252,-4.742237 -3.38699,-10.494247 -4.13732,-12.782247 l -1.36422,-4.16 -1.25513,-0.09387 -1.25513,-0.09387 -3.46313,17.213872 c -1.90472,9.46763 -3.53442,17.465873 -3.62156,17.773873 -0.14151,0.500151 0.11747,0.56 2.42313,0.56 1.41986,0 2.58156,-0.0428 2.58156,-0.0951 0,-0.169331 3.82229,-19.238746 4.02183,-20.064897 l 0.19322,-0.8 0.39815,0.8 c 0.21898,0.44 2.02928,5.300001 4.02289,10.800001 3.26323,9.002653 3.69515,10 4.33069,10 0.63379,0 1.04151,-0.923987 3.98901,-9.04 z m 30.22052,8.559376 c 7.00905,-1.484825 10.31505,-7.563072 7.44083,-13.680327 -1.24617,-2.652246 -3.01119,-4.177469 -7.41714,-6.40944 -6.0558,-3.067751 -8.03961,-5.759226 -6.61642,-8.976592 0.48613,-1.098973 0.9757,-1.62249 2.01142,-2.150871 1.86808,-0.953024 5.13453,-0.765888 7.78117,0.445782 1.02364,0.46864 1.90255,0.852071 1.95312,0.852071 0.12069,0 1.43071,-3.882439 1.43071,-4.240128 0,-0.551181 -2.78426,-1.485252 -5.50261,-1.846029 -4.58219,-0.608147 -8.01333,0.202419 -10.55473,2.49343 -2.97123,2.678487 -3.72422,7.12633 -1.84356,10.889854 1.14792,2.297203 2.35818,3.339267 6.27139,5.399843 6.11305,3.218941 7.82962,4.940653 8.0289,8.052941 0.21413,3.34426 -1.5744,4.863255 -5.75173,4.884922 -2.40026,0.01245 -4.68054,-0.563395 -6.58438,-1.662771 l -1.05671,-0.610202 -0.46329,1.119069 c -0.2548,0.615491 -0.67928,1.640659 -0.94328,2.278151 -0.264,0.637494 -0.48,1.209798 -0.48,1.271782 0,0.297194 2.20126,1.191382 4.2637,1.73199 2.79362,0.732269 5.10246,0.777258 8.03261,0.156525 z"
       id="path863" />
  </g>
</svg>
