<?xml version="1.0" encoding="UTF-8" standalone="no"?>
<!-- Created with Inkscape (http://www.inkscape.org/) -->

<svg
   version="1.1"
   id="svg2"
   width="307"
   height="352"
   viewBox="0 0 307 352"
   sodipodi:docname="node_hydro.svg"
   inkscape:version="1.1 (c68e22c387, 2021-05-23)"
   xmlns:inkscape="http://www.inkscape.org/namespaces/inkscape"
   xmlns:sodipodi="http://sodipodi.sourceforge.net/DTD/sodipodi-0.dtd"
   xmlns="http://www.w3.org/2000/svg"
   xmlns:svg="http://www.w3.org/2000/svg">
  <defs
     id="defs6" />
  <sodipodi:namedview
     id="namedview4"
     pagecolor="#505050"
     bordercolor="#ffffff"
     borderopacity="1"
     inkscape:pageshadow="0"
     inkscape:pageopacity="0"
     inkscape:pagecheckerboard="1"
     showgrid="false"
     inkscape:zoom="1.6713433"
     inkscape:cx="15.257189"
     inkscape:cy="185.77871"
     inkscape:window-width="1920"
     inkscape:window-height="1017"
     inkscape:window-x="1912"
     inkscape:window-y="-8"
     inkscape:window-maximized="1"
     inkscape:current-layer="layer3" />
  <g
     inkscape:groupmode="layer"
     id="layer3"
     inkscape:label="all">
    <path
       id="path3066"
       style="fill:#f8d800;fill-opacity:1;stroke-width:1.17473"
       d="m 214.7535,36.207001 -1.8447,1.846989 -1.84698,1.844694 v 2.060369 2.060368 l 5.22663,6.729465 5.22434,6.729464 2.62249,6.692754 2.6225,6.69046 0.0436,11.159944 0.0459,11.159944 -2.66609,6.692754 -2.66839,6.690454 -5.22433,6.72947 -5.22664,6.72947 v 1.6336 1.63361 l 1.21602,2.27375 1.21604,2.27145 h 3.25345 3.25116 l 3.63892,-3.81788 3.63891,-3.81786 3.68939,-5.87366 3.68938,-5.87366 2.52844,-8.22311 2.53071,-8.223119 v -9.985213 -9.985213 l -2.53071,-8.223117 -2.52844,-8.223117 -3.68938,-5.873654 -3.68939,-5.873655 -3.63891,-3.817876 -3.63892,-3.817875 h -2.62249 z m -153.586898,7.048385 -1.40876,1.40876 -1.411053,1.411054 v 35.946308 35.946312 l 1.411053,1.41105 1.40876,1.40876 h 22.085859 22.083569 v 52.86288 52.8629 l -1.46841,-0.0161 -1.46841,-0.0183 -7.635759,-1.75063 -7.635751,-1.75062 -16.446236,-8.25983 -16.446233,-8.25983 -8.223117,-1.70015 -8.223116,-1.69785 -7.105747,-0.0207 -7.10804,-0.0207 -1.408759,1.40876 -1.411053,1.41105 v 3.14563 3.14561 l 1.468414,1.20456 1.468413,1.20456 10.744658,1.29633 10.744658,1.29863 4.526844,1.61755 4.526845,1.61755 14.096771,7.17458 14.096771,7.17458 7.002504,1.77127 7.000201,1.77127 h 4.453432 4.45112 v 13.47958 13.47958 l -3.81787,-0.62866 -3.817878,-0.62867 -5.286293,-1.16556 -5.286289,-1.16784 -14.034826,-7.12869 -14.034823,-7.12869 -6.522968,-2.28293 -6.522969,-2.28291 -10.83414,-0.68144 -10.83414,-0.68144 -1.794218,1.48907 -1.794217,1.48906 v 3.23738 3.2374 l 1.468414,1.16785 1.468413,1.16785 8.555804,0.81221 8.558098,0.81222 6.126039,1.81716 6.128333,1.81717 14.684137,7.47972 14.684136,7.47974 7.635754,1.77127 7.635755,1.77128 3.817878,0.0183 3.81787,0.0161 v 5.05227 5.04996 l 1.41105,1.41106 1.40876,1.40875 h 3.05385 3.05613 l 1.40876,-1.40875 1.40876,-1.41106 v -5.04996 -5.05227 h 3.58614 3.58615 l 8.15887,-1.85616 8.15887,-1.85388 14.4547,-7.44302 14.4547,-7.44301 6.98643,-2.07643 6.98644,-2.07873 h 12.33467 12.33468 l 7.04838,2.08331 7.04839,2.08331 12.33468,6.34172 12.33467,6.34171 7.04839,2.47565 7.04838,2.47565 10.8479,0.63325 10.84791,0.63556 1.78045,-1.47759 1.78046,-1.4776 v -3.23739 -3.23739 l -1.46842,-1.15638 -1.46841,-1.15867 -8.81048,-0.78238 -8.81048,-0.7824 -4.69893,-1.19767 -4.69892,-1.19767 -16.44624,-8.21166 -16.44623,-8.21164 -8.22312,-1.69555 -8.22311,-1.69556 h -11.15995 -11.15994 l -8.22312,1.70932 -8.22311,1.70933 -16.48066,8.26212 -16.47835,8.26212 -8.191,1.73457 -8.18869,1.73456 -0.88105,0.0207 -0.88105,0.0207 v -13.50941 -13.5094 h 4.45342 4.45114 l 7.00248,-1.74833 7.00021,-1.74604 14.9021,-7.64492 14.90211,-7.64722 6.83041,-1.82634 6.83043,-1.82864 11.74731,-0.0436 11.74731,-0.0436 5.87365,1.32157 5.87366,1.32157 16.44623,8.11758 16.44623,8.11757 7.21817,1.82634 7.21817,1.82404 h 8.70035 8.70036 l 1.40876,-1.40875 1.40876,-1.41106 v -3.05384 -3.05385 l -1.40876,-1.41105 -1.40876,-1.40876 -5.34595,-0.0207 -5.34594,-0.0207 -8.191,-1.73456 -8.191,-1.73457 -16.47835,-8.15199 -16.47835,-8.15199 -4.69892,-1.3101 -4.69893,-1.3101 -13.5094,-0.68373 -13.50941,-0.68143 -9.39785,1.89746 -9.39784,1.89976 -16.44624,8.24377 -16.44623,8.24606 -7.63575,1.73915 -7.63575,1.73916 -1.46842,0.0161 -1.46841,0.0183 v -15.2715 -15.2715 h 7.98909 7.98908 l 1.40877,-1.40875 1.40876,-1.41106 v -3.05384 -3.05385 l -1.40876,-1.41105 -1.40877,-1.40876 h -7.98908 -7.98909 V 171.30094 158.3789 h 7.98909 7.98908 l 1.40877,-1.40875 1.40876,-1.41106 v -3.05384 -3.05385 l -1.40876,-1.41105 -1.40877,-1.40876 h -7.98908 -7.98909 v -12.92194 -12.92203 h 22.08586 22.08586 l 1.40876,-1.40876 1.40876,-1.41105 V 82.021508 46.0752 l -1.40876,-1.411054 -1.40876,-1.40876 h -50.04537 z m 141.518368,5.873655 -2.27145,1.216031 -2.27374,1.21603 v 3.393412 3.393413 l 2.77162,3.31999 2.77164,3.319992 2.19803,4.111558 2.19803,4.111558 v 8.810483 8.810482 l -2.19803,4.111558 -2.19803,4.111558 -2.77164,3.319994 -2.77162,3.32228 v 2.76246 2.76245 l 1.84698,1.84699 1.8447,1.84469 h 2.38158 2.38158 l 3.50354,-3.74904 3.50355,-3.74904 2.73721,-5.40331 2.73722,-5.401006 1.27339,-6.887777 1.27339,-6.890072 -1.21144,-7.576097 -1.20915,-7.576097 -2.80605,-5.458369 -2.80833,-5.45837 -3.54485,-3.817875 -3.54713,-3.817876 h -1.90436 z M 67.744637,52.653234 h 43.465053 43.46504 V 82.021508 111.38978 H 111.20969 67.744637 V 82.021508 Z m 123.665673,9.335899 -2.99648,1.138021 -2.99419,1.13802 -0.75715,2.383878 -0.75715,2.383878 3.00565,5.13027 3.00567,5.127977 v 2.730331 2.730332 l -2.93913,5.01555 -2.93683,5.013256 1.09902,2.895528 1.10131,2.895526 1.54413,0.6172 1.54413,0.61719 1.20685,0.0941 1.20685,0.0918 2.62709,-1.84011 2.62708,-1.840103 2.51925,-4.914598 2.51924,-4.914597 v -6.46102 -6.46102 l -2.54907,-4.974252 -2.55136,-4.976545 -2.76246,-1.810278 z M 23.575211,280.55103 l -1.408759,1.41106 -1.411053,1.40875 v 3.14563 3.14561 l 1.468414,1.17473 1.468413,1.17703 8.223117,0.79615 8.223117,0.79386 6.366948,1.78734 6.366951,1.78733 13.603475,6.79142 13.603478,6.79141 5.873654,1.86305 5.873657,1.86535 2.936828,0.56213 2.936831,0.56212 16.446228,-0.33499 16.44624,-0.33497 5.87365,-2.03972 5.87366,-2.03972 13.5484,-6.82582 13.54612,-6.82584 7.01167,-2.08102 7.00939,-2.08101 12.33467,-0.0321 12.33468,-0.0344 7.04838,2.12231 7.04839,2.12461 4.11156,2.03514 4.11156,2.03742 10.57258,5.35282 10.57257,5.35512 8.45485,1.89059 8.45485,1.89058 h 7.46367 7.46368 l 1.40876,-1.40875 1.40876,-1.41107 v -3.14561 -3.14561 l -1.46842,-1.17473 -1.46841,-1.17704 -8.22312,-0.79386 -8.22311,-0.79615 -6.42891,-1.80569 -6.4289,-1.80569 -13.54152,-6.86254 -13.54153,-6.86024 -6.46102,-2.13379 -6.46102,-2.1338 h -18.20833 -18.20833 l -6.46102,2.22327 -6.46102,2.22099 -13.60347,6.79141 -13.60348,6.79141 -6.95432,2.06725 -6.95431,2.06954 -12.33467,-0.0229 -12.334677,-0.0207 -5.286293,-1.42711 -5.286289,-1.42712 -17.279103,-8.30112 -17.281393,-8.29883 -7.387956,-1.58543 -7.39025,-1.58542 -7.693112,-0.0414 z" />
  </g>
</svg>
