<?xml version="1.0" encoding="UTF-8" standalone="no"?>
<!-- Created with Inkscape (http://www.inkscape.org/) -->

<svg
   version="1.1"
   id="svg2"
   width="307"
   height="352"
   viewBox="0 0 307 352"
   sodipodi:docname="node_rfid.svg"
   inkscape:version="1.1 (c68e22c387, 2021-05-23)"
   xmlns:inkscape="http://www.inkscape.org/namespaces/inkscape"
   xmlns:sodipodi="http://sodipodi.sourceforge.net/DTD/sodipodi-0.dtd"
   xmlns="http://www.w3.org/2000/svg"
   xmlns:svg="http://www.w3.org/2000/svg">
  <defs
     id="defs6" />
  <sodipodi:namedview
     id="namedview4"
     pagecolor="#505050"
     bordercolor="#ffffff"
     borderopacity="1"
     inkscape:pageshadow="0"
     inkscape:pageopacity="0"
     inkscape:pagecheckerboard="1"
     showgrid="false"
     inkscape:zoom="2.3636364"
     inkscape:cx="153.36538"
     inkscape:cy="175.78846"
     inkscape:window-width="1920"
     inkscape:window-height="1017"
     inkscape:window-x="1912"
     inkscape:window-y="-8"
     inkscape:window-maximized="1"
     inkscape:current-layer="g8" />
  <g
     inkscape:groupmode="layer"
     inkscape:label="Image"
     id="g8">
    <path
       style="fill:#f8d800;fill-opacity:1"
       d="m 60.029883,273.88741 c -4.72988,-1.88768 -8.8619,-5.88084 -10.472134,-10.12021 -1.453477,-3.82666 -1.591742,-12.37143 -1.339278,-82.7672 0.273244,-76.1898 0.33977,-78.59631 2.260554,-81.772713 1.088463,-1.799992 3.749148,-4.499992 5.912633,-6 L 60.325268,90.5 98.162634,90.194819 C 127.55361,89.957763 136,90.163543 136,91.116651 c 0,0.674856 -2.81071,4.074688 -6.24602,7.55518 L 123.50795,105 94.503975,105.0153 C 77.971983,105.0243 64.854986,105.43841 64,105.97894 c -1.311508,0.82916 -1.5,10.34607 -1.5,75.73469 0,41.1325 0.323377,75.57386 0.718615,76.53636 0.675304,1.64453 5.19863,1.75 75.050005,1.75 56.47996,0 74.61957,-0.28819 75.53138,-1.2 0.82357,-0.82357 1.2,-5.77263 1.2,-15.77682 v -14.57682 l 7,-6.94636 7,-6.94636 v 23.77284 c 0,25.35113 -0.23337,26.76775 -5.16863,31.37579 -5.82597,5.43968 -3.59036,5.3029 -85.54925,5.23434 -47.301902,-0.0396 -76.710432,-0.43387 -78.252237,-1.0492 z M 71,219 v -23 h 13.54966 c 15.08997,0 18.32441,0.92201 20.93341,5.96727 0.83431,1.61337 1.51693,4.80076 1.51693,7.08307 0,3.38589 -0.62579,4.77545 -3.4,7.54966 -1.87,1.87 -4.345,3.4 -5.5,3.4 -2.365243,0 -2.828764,1.50637 -0.71331,2.31815 1.58723,0.60907 12.61331,16.8189 12.61331,18.54327 0,0.62622 -1.4625,1.13782 -3.25,1.13689 -2.99523,-0.002 -3.74193,-0.74372 -9.525268,-9.46743 -5.495107,-8.28893 -6.776052,-9.61578 -10.303362,-10.67258 -2.715715,-0.81365 -4.906676,-0.89862 -6.724732,-0.26078 -2.649844,0.92965 -2.701605,1.11488 -2.98285,10.67427 L 76.927576,242 H 73.963788 71 Z m 25.396703,-4.39239 c 3.784567,-1.5813 5.158767,-5.01641 3.622867,-9.05614 C 98.681417,202.03186 95.374926,201 85.4349,201 H 77 v 6.83333 c 0,3.75834 0.3,7.13334 0.666667,7.5 1.229786,1.22979 15.360202,0.68228 18.730036,-0.72572 z m 20.565877,27.02337 c -0.25442,-0.25346 -0.33365,-10.62412 -0.17607,-23.04591 L 117.07302,196 H 132.03651 147 v 2.5 c 0,2.41889 -0.21898,2.50028 -6.75,2.50869 -3.7125,0.005 -9.1125,0.29246 -12,0.63929 l -5.25,0.6306 v 6.32573 6.32572 l 10.25,0.28499 10.25,0.28498 0.31642,2.75 0.31642,2.75 h -10.53143 -10.53144 l -0.28499,10.25 c -0.282,10.14293 -0.31148,10.25309 -2.8224,10.54591 -1.39559,0.16275 -2.74559,0.0885 -3,-0.16493 z m 38.48549,-0.90571 c -0.26904,-0.7011 -0.36741,-10.9386 -0.21861,-22.75 L 155.5,196.5 l 2.75,-0.31642 2.75,-0.31642 V 218.93358 242 h -2.53138 c -1.39227,0 -2.75151,-0.57363 -3.02055,-1.27473 z M 172,218.92053 v -23.07947 l 12.83187,0.32947 c 12.14503,0.31183 13.02067,0.47364 16.35927,3.02302 4.65585,3.55524 7.00167,8.76905 7.5796,16.84632 0.92926,12.98756 -4.11477,22.29553 -13.49341,24.9 -2.07753,0.57694 -8.16483,1.05149 -13.52733,1.05455 L 172,242 Z m 23.5216,15.5022 c 4.69437,-2.22763 6.87289,-7.27851 6.86771,-15.92273 -0.005,-7.65094 -1.83486,-12.46789 -5.66012,-14.89638 -1.22605,-0.77838 -5.94169,-1.72945 -10.47919,-2.1135 L 178,200.79184 V 218.39592 236 h 7.09887 c 4.39312,0 8.36577,-0.60118 10.42273,-1.57727 z M 230.22251,200.4433 C 228.57757,199.29114 228,197.88198 228,195.02084 c 0,-3.3934 0.61614,-4.40473 5.04258,-8.27687 18.32287,-16.0284 25.22675,-40.63573 17.96329,-64.02608 -4.22339,-13.60049 -16.8739,-28.190294 -29.7162,-34.271645 -18.70926,-8.859594 -43.3935,-6.870082 -58.17453,4.68878 -3.05889,2.392075 -8.31168,2.410271 -10.46015,0.03623 C 151.74474,92.165452 151,89.693275 151,87.677532 c 0,-3.153686 0.59292,-4.102023 4.25,-6.797641 10.59635,-7.810514 26.62238,-12.884334 40.65996,-12.872885 33.20224,0.02708 61.18794,21.812305 70.19478,54.642504 2.61518,9.53242 2.82644,27.56905 0.43162,36.85049 -2.79789,10.84361 -9.81217,23.52194 -17.66657,31.93235 -9.70533,10.39237 -13.82963,12.38536 -18.64728,9.01095 z m -15.73419,-21.45621 c -3.37603,-3.73047 -2.36231,-7.38998 3.85176,-13.90478 7.67693,-8.04846 9.97582,-13.43016 10.07362,-23.58231 0.0652,-6.77353 -0.33833,-8.8432 -2.6325,-13.5 -4.05614,-8.23332 -8.15471,-12.56949 -15.0668,-15.94025 -11.17827,-5.45123 -20.9726,-4.97309 -32.30226,1.57693 -2.24832,1.29983 -5.01097,2.36332 -6.13921,2.36332 -2.83021,0 -6.05805,-2.95266 -6.84055,-6.25739 C 163.5798,101.91867 185.46415,91.682118 200,93.573381 c 6.21999,0.809284 15.74253,3.977015 20.36007,6.772899 26.23419,15.8846 30.36234,54.54825 8.07475,75.62692 -6.03311,5.70586 -10.61434,6.69589 -13.9465,3.01389 z M 187.5,159.3348 c -1.65,-0.87181 -3.85128,-2.3163 -4.89173,-3.20996 -2.80252,-2.40712 -6.5905,-11.11879 -6.57654,-15.12484 0.0357,-10.24749 10.27093,-20.00259 20.96827,-19.98465 4.76301,0.008 12.70442,4.58087 15.62836,8.99925 3.74619,5.66088 4.41798,14.02671 1.57101,19.56395 -2.42583,4.71815 -6.6802,8.90914 -10.51447,10.35783 -4.10125,1.54956 -12.71995,1.22921 -16.1849,-0.60158 z"
       id="path845" />
  </g>
</svg>
