<?xml version="1.0" encoding="UTF-8" standalone="no"?>
<!-- Created with Inkscape (http://www.inkscape.org/) -->

<svg
   version="1.1"
   id="svg2"
   width="307"
   height="352"
   viewBox="0 0 307 352"
   sodipodi:docname="node_meteo.svg"
   inkscape:version="1.1 (c68e22c387, 2021-05-23)"
   xmlns:inkscape="http://www.inkscape.org/namespaces/inkscape"
   xmlns:sodipodi="http://sodipodi.sourceforge.net/DTD/sodipodi-0.dtd"
   xmlns="http://www.w3.org/2000/svg"
   xmlns:svg="http://www.w3.org/2000/svg">
  <defs
     id="defs6" />
  <sodipodi:namedview
     id="namedview4"
     pagecolor="#505050"
     bordercolor="#ffffff"
     borderopacity="1"
     inkscape:pageshadow="0"
     inkscape:pageopacity="0"
     inkscape:pagecheckerboard="1"
     showgrid="false"
     inkscape:zoom="2.3636364"
     inkscape:cx="153.36538"
     inkscape:cy="175.78846"
     inkscape:window-width="1920"
     inkscape:window-height="1017"
     inkscape:window-x="1912"
     inkscape:window-y="-8"
     inkscape:window-maximized="1"
     inkscape:current-layer="g8" />
  <g
     inkscape:groupmode="layer"
     inkscape:label="Image"
     id="g8">
    <path
       style="fill:#f8d800;fill-opacity:1"
       d="m 96.060165,313.57249 c -1.049295,-1.26432 1.515843,-6.63626 15.591965,-32.65288 9.26633,-17.12678 17.44526,-31.37663 18.17541,-31.66635 0.73015,-0.28971 2.03505,0.18075 2.89977,1.04548 1.42964,1.42963 0.0331,4.41225 -15.39863,32.88674 -9.33934,17.2329 -17.654763,31.44622 -18.491726,31.6074 -0.836482,0.16109 -2.086037,-0.38808 -2.776789,-1.22039 z m 73.055175,-8.93351 c -0.97189,-1.17106 1.23732,-6.53948 11.59196,-28.16866 7.03599,-14.69702 13.39009,-26.9518 14.12024,-27.23283 0.73015,-0.28104 2.01829,0.17977 2.86255,1.02402 1.38,1.38001 0.2319,4.24584 -11.37002,28.38123 -7.72534,16.07096 -13.52694,26.966 -14.45451,27.14463 -0.85221,0.16413 -2.08981,-0.35265 -2.75022,-1.14839 z m -39.05107,-11.06154 c -1.03813,-1.25086 -0.0836,-3.75218 5.59196,-14.65332 3.76407,-7.22975 7.44116,-13.38183 8.17131,-13.6713 0.73015,-0.28947 2.02255,0.1687 2.87201,1.01816 1.39262,1.39262 0.86456,2.85569 -5.37118,14.88145 -3.80361,7.33534 -7.61239,13.47117 -8.46397,13.63517 -0.85158,0.164 -2.11164,-0.38057 -2.80013,-1.21016 z m 72.07263,-6.91248 c -0.93872,-1.1311 0.40173,-5.03872 6.57364,-19.16318 4.26405,-9.75829 8.35845,-17.97476 9.09868,-18.25881 0.74022,-0.28405 2.03117,0.16885 2.86877,1.00645 1.36388,1.36388 0.70123,3.38728 -6.34561,19.37653 -7.78105,17.65514 -9.58842,20.18032 -12.19548,17.03901 z M 88.023972,283.52888 c -1.001752,-1.20703 0.457214,-4.36706 8.127555,-17.60376 5.141663,-8.87295 9.945863,-16.37248 10.676013,-16.66562 0.73015,-0.29315 2.01158,0.15105 2.84762,0.98709 1.80603,1.80603 2.31059,0.70149 -9.36614,20.50341 -4.621587,7.8375 -9.001668,14.25 -9.73351,14.25 -0.731841,0 -1.880033,-0.662 -2.551538,-1.47112 z m 68.048218,-3.94189 c -0.93251,-1.12362 0.27264,-4.29819 5.88423,-15.5 C 165.88068,256.25342 169.62191,250 170.38423,250 c 0.75399,0 1.89859,0.63586 2.54358,1.41301 0.93251,1.12362 -0.27264,4.29819 -5.88423,15.5 C 163.11932,274.74658 159.37809,281 158.61577,281 c -0.75399,0 -1.89859,-0.63586 -2.54358,-1.41301 z M 165.5,245.37763 c -8.51459,-1.1061 -15.3646,-2.78522 -20.34155,-4.98626 l -5.53432,-2.44754 -5.19544,2.45992 c -10.75363,5.0916 -27.35628,5.05447 -38.221243,-0.0855 C 83.726807,234.41399 73.387791,220.74925 70.998172,207 c -3.727233,-21.44553 12.47777,-43.66067 35.737998,-48.99257 4.85945,-1.11392 5.48457,-1.60919 8.68882,-6.88395 16.19621,-26.66184 48.1309,-37.11558 79.57501,-26.04869 5.95771,2.09685 16.58209,9.50796 22.86751,15.9514 6.35121,6.51089 13.44461,18.70626 14.65062,25.18818 0.86481,4.64809 1.77154,5.35865 7.98187,6.25501 11.60932,1.6756 23.32571,11.10337 27.4294,22.07147 6.33271,16.92569 -2.12814,36.30838 -19.2178,44.0254 -10.98729,4.96144 -25.93962,3.39201 -36.01155,-3.77984 -2.38845,-1.70072 -3.27733,-1.87857 -4.5817,-0.91674 -3.57918,2.63923 -17.92438,8.96073 -22.61835,9.96723 -6.10827,1.30975 -15.94482,2.06753 -20,1.54073 z m 11.5,-14.41 c 13.20736,-2.06696 21.82996,-6.5708 31.06664,-16.22698 4.47273,-4.67587 5.93336,-5.10028 5.93336,-1.72402 0,2.88063 5.78315,9.8321 9.94676,11.95621 2.84962,1.45377 5.91633,2.02716 10.84196,2.02716 5.93558,0 7.47445,-0.40144 11.33086,-2.95582 6.25591,-4.14374 9.33593,-9.94042 9.36077,-17.61721 0.0161,-4.97562 -0.47882,-6.82627 -2.73889,-10.24146 -5.84354,-8.83019 -16.61289,-12.41585 -26.24364,-8.73783 -2.44774,0.9348 -4.9111,1.41493 -5.47413,1.06696 C 220.46066,188.16667 220,185.03092 220,181.54632 220,168.60718 212.58788,153.45279 202.53548,145.83933 190.79821,136.94981 175.9496,132.82404 163.5,134.99309 c -9.56364,1.66623 -16.25652,4.51098 -23.54341,10.00691 -6.5208,4.91813 -10.43791,9.71343 -13.97826,17.11206 -1.6812,3.51337 -3.42365,7.06294 -3.87211,7.88794 -0.57128,1.05094 -3.20708,1.68036 -8.80439,2.10246 -13.60022,1.0256 -22.471792,7.79018 -26.656627,20.32568 -3.228302,9.67025 -0.996892,19.73991 6.131156,27.66801 10.624471,11.81697 28.896851,13.47925 41.415001,3.76762 2.03025,-1.57507 4.00548,-2.86377 4.3894,-2.86377 0.38392,0 2.77281,1.27118 5.30864,2.82485 5.6619,3.46897 9.82711,5.05514 17.6106,6.70635 7.71243,1.63614 7.81563,1.63905 15.5,0.43643 z M 34.597042,203.15702 c -0.286546,-0.46364 2.949396,-3.24703 7.190983,-6.18531 16.03788,-11.10993 22.03276,-17.56531 20.815659,-22.41462 -0.857544,-3.41673 -6.841533,-7.25474 -13.542444,-8.68586 -3.058682,-0.65325 -5.969668,-1.54744 -6.468858,-1.98709 C 41.290859,162.73784 43.848808,160 46.221316,160 c 1.087034,0 3.394434,-0.61176 5.127555,-1.35947 1.733121,-0.74771 4.364828,-1.85221 5.848239,-2.45446 3.75565,-1.52475 6.185949,-5.5237 5.359093,-8.81816 C 61.661115,143.80159 53.140238,135.67516 43.448114,129.14436 31.485079,121.08337 32.223381,120.52992 51,123.4833 c 16.477328,2.59173 24,0.96358 24,-5.19438 0,-2.65402 -4.391936,-12.02855 -8.395857,-17.92085 -1.417977,-2.086739 -2.217168,-4.155045 -1.77598,-4.596233 0.441188,-0.441188 4.557163,1.454663 9.146611,4.213001 10.154272,6.102892 15.824225,6.903682 19.366387,2.735162 1.572077,-1.85006 1.770124,-3.412882 1.355104,-10.693363 C 94.428933,87.336987 93.488441,80.125 92.606282,76 90.769242,67.409951 90.596613,64.632659 91.951779,65.470198 c 0.523478,0.323527 4.138128,4.827559 8.032556,10.008961 C 109.23238,87.783362 114.12852,92 119.16745,92 c 3.3609,0 4.10662,-0.473906 6.35819,-4.040615 1.4029,-2.222338 3.26752,-7.059838 4.1436,-10.75 2.75727,-11.613984 3.94113,-12.246114 6.66135,-3.556872 1.00683,3.216118 2.46933,7.265495 3.25,8.998616 C 140.36127,84.38425 141,86.218309 141,86.726815 141,88.796514 145.76089,92 148.83679,92 c 2.37566,0 4.38438,-1.084449 7.74273,-4.180067 C 161.61016,83.182856 171,71.750849 171,70.263195 c 0,-0.524271 0.89062,-1.759218 1.97915,-2.744327 1.81424,-1.641863 2.03196,-1.653486 2.61294,-0.139491 0.34858,0.908389 -0.092,5.253781 -0.97915,9.656427 -2.03034,10.076319 -2.1437,23.856086 -0.21792,26.489746 2.19801,3.00595 8.44003,2.22324 16.36964,-2.05264 3.70444,-1.997542 7.44577,-4.271121 8.31408,-5.052401 C 200.8582,94.8194 203,94.537955 203,95.905233 c 0,0.497878 -2.00078,4.150407 -4.44618,8.116727 -2.4454,3.96632 -4.73002,8.5038 -5.07694,10.0833 -0.34691,1.57949 -0.98562,3.09112 -1.41934,3.35918 -0.43373,0.26806 -3.8866,-0.16897 -7.67307,-0.97117 -3.78646,-0.8022 -9.07969,-1.46636 -11.76274,-1.47591 -3.51965,-0.0125 -6.3047,-0.82626 -10,-2.92181 -14.92625,-8.46444 -34.52946,-9.52507 -52.12173,-2.82005 -11.011885,4.19701 -24.734635,16.60493 -29.718995,26.87149 -4.840094,9.96942 -5.949848,14.60316 -6.167088,25.7505 -0.189771,9.73782 -0.446019,11.00893 -3.142031,15.58584 -1.614475,2.74083 -3.866347,8.81583 -5.00416,13.5 l -2.06875,8.51667 -8.449488,1.19986 c -4.647218,0.65992 -10.336257,1.67242 -12.642308,2.25 -5.066735,1.26902 -8.010597,1.33904 -8.710138,0.20716 z"
       id="path845" />
  </g>
</svg>
