<?xml version="1.0" encoding="UTF-8"?>
<svg width="309" height="348" version="1.1" viewBox="0 0 81.756 92.075" xmlns="http://www.w3.org/2000/svg">
 <g>
  <path d="m37.025 48.23h3.9057l1.1414 7.0251 1.2669-7.0251h2.7198l1.3646 7.0251 1.2426-7.0251h3.6522l-2.971 10.627h-3.4404l-1.0957-5.5543-1.2972 5.5543h-3.3225zm24.5 0.02534h4.1594l1.6739 6.442 1.8769-6.5179h3.9564l-3.9602 10.677h-3.7323zm12.63 3.1e-5v10.601h7.0721v-2.7135h-3.3944v-1.2682h3.0687v-2.7393h-3.0687v-1.1919h3.3477v-2.6882zm-17.893 6.7589 1.027-3.7282 0.78018 3.7282zm3.1828-6.7843h-4.305l-3.8691 10.627h4.0831l0.36283-1.4708h2.9991l0.31523 1.4708h4.189zm-28.38 7.3042-2.0288 3.297h-8.826l4.8948-7.5831h-4.5222l1.8844-3.018h8.5978l-4.5906 7.3041zm-5.0433-11.971c-5.6309 0-10.196 4.5645-10.196 10.195s4.5648 10.196 10.196 10.196c5.6306 0 10.195-4.5648 10.195-10.196s-4.5648-10.195-10.195-10.195zm-0.23194-12.088v-3.3546c-13.961 0.061786-25.261 11.396-25.261 25.372 0 0.06368 0.004408 0.12641 0.005004 0.19008h3.3449c0.040663-12.149 9.8001-22.004 21.911-22.207zm0 6.997v-3.3524c-0.02553-3.15e-4 -0.05043-0.0023-0.07596-0.0023-10.211 0-18.489 8.2778-18.489 18.489 0 0.02553 0.00191 0.05075 0.00191 0.07598h3.3524c0.14122-8.3387 6.8716-15.069 15.211-15.21z" fill="#f8d800" stroke-width=".31523"/>
 </g>
</svg>
