<?xml version="1.0" encoding="UTF-8" standalone="no"?>
<!-- Created with Inkscape (http://www.inkscape.org/) -->

<svg
   version="1.1"
   id="svg832"
   width="302"
   height="357"
   viewBox="0 0 302 357"
   sodipodi:docname="node_smartphone.svg"
   inkscape:version="1.1 (c68e22c387, 2021-05-23)"
   xmlns:inkscape="http://www.inkscape.org/namespaces/inkscape"
   xmlns:sodipodi="http://sodipodi.sourceforge.net/DTD/sodipodi-0.dtd"
   xmlns="http://www.w3.org/2000/svg"
   xmlns:svg="http://www.w3.org/2000/svg">
  <defs
     id="defs836" />
  <sodipodi:namedview
     id="namedview834"
     pagecolor="#505050"
     bordercolor="#ffffff"
     borderopacity="1"
     inkscape:pageshadow="0"
     inkscape:pageopacity="0"
     inkscape:pagecheckerboard="1"
     showgrid="false"
     width="302px"
     inkscape:zoom="2.0325732"
     inkscape:cx="177.85337"
     inkscape:cy="178.83735"
     inkscape:window-width="1920"
     inkscape:window-height="1017"
     inkscape:window-x="-8"
     inkscape:window-y="-8"
     inkscape:window-maximized="1"
     inkscape:current-layer="g838" />
  <g
     inkscape:groupmode="layer"
     inkscape:label="Image"
     id="g838">
    <path
       style="fill:#f8d800;fill-opacity:1;stroke-width:0.932671"
       d="m 95.306395,320.10625 c -9.36724,-2.92749 -15.85205,-8.70919 -20.10573,-17.92575 l -2.07887,-4.50434 V 178.294 58.911833 l 2.11634,-4.58907 c 3.44467,-7.469387 7.99588,-12.246483 14.91012,-15.650136 l 6.251929,-3.077623 h 55.046926 55.04694 l 5.40062,2.734676 c 6.31053,3.19542 12.03599,9.042547 14.93028,15.247544 l 2.05325,4.401935 V 178.294 298.60883 l -1.96843,4.20404 c -3.94756,8.43096 -10.99675,14.50239 -19.91169,17.14985 -4.37143,1.29817 -11.84952,1.48833 -56.40053,1.43421 -39.72684,-0.0482 -52.251176,-0.34061 -55.291155,-1.29068 z m 61.135765,-19.5525 c 6.7852,-3.50876 6.7852,-14.37118 0,-17.87993 -5.94713,-3.07538 -12.97516,-0.2128 -14.85125,6.04904 -2.71357,9.05708 6.31172,16.24685 14.85125,11.83089 z M 211.62375,174.09697 V 72.435593 H 150.99999 90.376245 V 173.47518 c 0,55.57178 0.27981,101.3194 0.62178,101.66137 0.341981,0.34199 27.622665,0.62179 60.623755,0.62179 h 60.00197 z M 122.08713,57.512823 c 5.57945,-5.579458 -3.61633,-14.028238 -9.48646,-8.715842 -2.12522,1.923299 -2.21083,6.611705 -0.16206,8.875571 2.08838,2.307632 7.26689,2.221902 9.64852,-0.159729 z m 43.62811,0.41345 c 1.44817,-1.014344 2.07287,-2.403784 2.07287,-4.610479 0,-5.268615 -2.16977,-6.062375 -16.5717,-6.062375 -11.94942,0 -12.51375,0.08779 -14.71524,2.289287 -2.79309,2.793078 -2.86073,4.194076 -0.35626,7.378001 1.92031,2.441261 2.01731,2.457462 14.71525,2.457462 10.05939,0 13.22376,-0.309277 14.85508,-1.451896 z"
       id="path937" />
  </g>
</svg>
