<?xml version="1.0" encoding="UTF-8"?>
<svg width="309" height="348" version="1.1" viewBox="0 0 81.756 92.075" xmlns="http://www.w3.org/2000/svg">
 <g id="g" transform="translate(-3.1737 -1.3159)" fill="#f8d800">
  <path id="bt" transform="scale(.26458)" d="m107.75 54.244v102.31l-43.676-44.473-16.053 15.766 52.84 53.805-52.84 53.803 16.053 15.766 43.676-44.473v96.955l21.754-22.148 51.395-52.334-47.508-48.375 49.346-50.248-53.232-54.203zm21.754 54.262 21.697 22.092-21.697 22.094zm0 100.49 19.859 20.221-19.859 20.221z" stroke-width=".55513" style="paint-order:fill markers stroke"/>
  <path id="ond" transform="scale(.26458)" d="m219.65 83.961-4.209 9.373a91.823 93.531 0 0 1 59.281 87.459 91.823 93.531 0 0 1-59.469 87.525l4.2168 9.3926a102.08 103.97 0 0 0 65.506-96.918 102.08 103.97 0 0 0-65.326-96.832zm-13.016 28.994-4.1914 9.334a60.71 61.84 0 0 1 41.168 58.504 60.71 61.84 0 0 1-41.355 58.57l4.1875 9.3281a70.963 72.283 0 0 0 47.42-67.898 70.963 72.283 0 0 0-47.229-67.838zm-12.768 28.439-4.4883 9.9961a29.598 30.148 0 0 1 23.119 29.402 29.598 30.148 0 0 1-23.312 29.455l4.4688 9.9551a40.204 40.952 0 0 0 29.451-39.41 40.204 40.952 0 0 0-29.238-39.398z" stroke-width=".39145" style="paint-order:fill markers stroke"/>
 </g>
</svg>
