<?xml version="1.0" encoding="UTF-8"?>
<svg width="309" height="348" version="1.1" viewBox="0 0 81.756 92.075" xmlns="http://www.w3.org/2000/svg">
 <path d="m59.544 91.464c-0.3972-0.24123-0.94948-1.0219-1.5736-2.2243l-0.96166-1.8526-1.4112-0.48019c-3.235-1.1008-6.9057-3.7385-11.226-8.0667-2.5653-2.5702-6.2743-6.8105-6.7422-7.7081-0.36704-0.704-0.28526-2.3002 0.16285-3.1785 0.45724-0.89626 2.2096-1.9233 3.2814-1.9233 1.1477 0 3.1067 0.63568 4.9025 1.5909 0.97164 0.51681 1.8403 0.86598 1.9303 0.77594 0.09002-0.09004-1.6255-4.0775-3.8124-8.8611-3.8581-8.4394-3.976-8.7378-3.976-10.058 0-2.6327 1.3638-4.2149 3.784-4.3899 0.96201-0.06959 1.4335 0.01049 2.1749 0.36942 1.3742 0.66526 2.1301 1.6545 3.5267 4.6155 1.7423 3.6941 2.5186 5.2561 2.6123 5.2561 0.04433 0 0.47296-0.25965 0.95251-0.577 0.74481-0.49289 1.0882-0.577 2.356-0.577 1.3691 0 1.5728 0.06064 2.6297 0.7831 1.0597 0.72432 1.1778 0.75929 1.5736 0.46589 0.23538-0.17447 0.77814-0.48639 1.2061-0.69316 1.0416-0.50318 2.9341-0.29336 4.2361 0.46964 1.1684 0.68474 1.4 0.68315 2.4577-0.01683 2.153-1.4248 5.5798-0.45396 6.2768 1.7783 0.13394 0.42897 0.55825 1.252 0.9429 1.829 0.94161 1.4125 2.3204 5.5098 2.8548 8.4831 0.5939 3.3049 0.48291 6.9484-0.28275 9.2823l-0.52796 1.6094 0.7016 1.6135c1.5921 3.6613 1.8133 3.4139-6.5445 7.3222-7.4454 3.4816-10.266 4.7365-10.641 4.7349-0.13848-6.3e-4 -0.52717-0.16836-0.86376-0.37278zm7.7022-5.2105c7.5034-3.4978 8.5413-4.0176 8.5413-4.2776 0-0.11239-0.33869-1.0225-0.75265-2.0226-0.81504-1.9689-0.81496-1.9833 0.02395-4.1665 0.55052-1.4327 0.5618-1.5537 0.46002-4.9307-0.07273-2.4129-0.21257-3.8117-0.46151-4.616-1.0787-3.4852-2.6765-7.9359-3.0129-8.3927-0.2125-0.2885-0.76616-0.65881-1.2304-0.82291-0.77432-0.27373-0.90267-0.26413-1.5546 0.11628-1.0741 0.62674-1.2341 1.687-0.52264 3.4653 0.3005 0.75114 0.54637 1.4925 0.54637 1.6474 0 0.50106-0.67856 1.0492-1.2989 1.0492-0.52279 0-0.66054-0.13457-1.0203-0.99664-1.2735-3.0521-1.8501-4.1646-2.5536-4.9273-0.71038-0.7701-0.85119-0.83565-1.5513-0.72204-1.8482 0.29992-2.224 1.7322-1.1294 4.3045 0.7731 1.8168 0.79769 2.4314 0.11518 2.8786-0.95565 0.62616-1.2757 0.2839-3.0523-3.2641-0.91538-1.8281-1.8774-3.473-2.1379-3.6555-0.26048-0.18245-0.83165-0.33172-1.2693-0.33172-0.67252 0-0.86003 0.10555-1.2114 0.68191-0.22867 0.37505-0.41612 0.89509-0.41655 1.1556-4.2e-4 0.26056 0.4801 1.5352 1.0679 2.8326 1.7693 3.9054 1.9056 4.3099 1.629 4.8354-0.53503 1.0164-1.4277 1.0573-2.0419 0.09367-0.23902-0.37505-2.2995-4.6376-4.5789-9.4723-3.9223-8.3195-4.0668-8.5748-4.8587-9.0888-1.0788-0.52192-2.7541 0.34633-2.5483 1.8016 0.0214 0.22668 2.3239 5.4962 5.1642 11.708 2.8403 6.2116 5.3463 11.756 5.5688 12.32l0.40469 1.0264-0.46486 0.49483c-0.25568 0.27215-0.63231 0.49482-0.83695 0.49482-0.20465 0-1.25-0.81961-2.323-1.8214-4.3993-4.1072-9.1039-6.2049-10.031-4.4726-0.3356 0.62708 0.08278 1.2604 2.9216 4.4228 5.2945 5.8979 10.062 9.7315 13.612 10.945 1.004 0.34326 2.0036 0.77888 2.2213 0.96804 0.21774 0.18916 0.67123 0.95402 1.0078 1.6997 0.6568 1.4553 0.94845 1.8965 1.2536 1.8965 0.10613 0 2.9507-1.2856 6.3213-2.8568zm-39.507-24.627c-2.9688-0.24307-4.7963-1.5249-5.5084-3.8635-0.37455-1.2302-0.37879-34.048-0.0046-35.27 0.35197-1.149 1.3604-2.3091 2.6502-3.0489l1.0793-0.61902 13.491-2e-3c11.905-0.0017 13.567 0.03712 14.134 0.33056 0.98056 0.50707 2.466 1.9624 2.9704 2.9102 0.44756 0.84098 0.45234 0.98016 0.52537 15.294l0.0737 14.445-0.4906-0.15705c-0.58736-0.18802-2.6833-0.19097-3.2705-0.0046-0.36571 0.11607-0.60331-0.24788-1.9019-2.9133-1.1471-2.3544-1.7256-3.2876-2.548-4.1099-2.6635-2.6635-6.1436-2.9652-8.8727-0.7691-1.6872 1.3577-2.3331 2.8177-2.4323 5.4981 0.05234 2.5697 1.2095 4.7963 2.1466 7.1395 1.1239 2.8101 2.2248 5.1038 2.2251 5.1903 5.42e-4 0.19327-11.8 0.15152-14.267-0.05047zm14.207-19.376c2.3974-0.62187 5.151-2.8797 6.1714-5.0603 1.0337-2.2089 1.2628-4.3388 0.70155-6.5226-1.3819-5.3775-6.5023-8.4817-11.74-7.1175-3.3383 0.8695-6.2385 3.8668-7.0195 7.2542-0.94902 4.1165 1.195 8.7208 4.9726 10.678 1.9562 1.0137 4.7641 1.3256 6.9139 0.76793zm-4.7077-3.4115c-1.2991-0.47838-2.851-1.9685-3.4146-3.2786-1.3759-3.1984-0.24347-6.5863 2.7571-8.2483 1.0004-0.5541 1.321-0.62257 2.9078-0.62096 1.3358 0.0013 1.9678 0.10008 2.5178 0.39331 1.322 0.70478 2.4141 1.7402 3.0436 2.8856 0.54664 0.9947 0.61897 1.3328 0.62238 2.909 0.0031 1.4525-0.08381 1.9479-0.46851 2.6694-1.2216 2.2911-3.0206 3.4539-5.4974 3.5535-1.054 0.04239-1.8775-0.04531-2.4682-0.26285zm7.7025-24.371c-2.0186-1.5552-2.7854-1.8119-5.4521-1.825-2.2998-0.01136-2.4769 0.01947-3.7767 0.65741-0.7501 0.36813-1.6109 0.83084-1.9128 1.0282-0.54589 0.35688-0.5536 0.35385-1.3638-0.53741-1.2184-1.3403-1.2686-1.4833-0.68813-1.9605 0.27652-0.2273 1.3525-0.82597 2.3911-1.3304 3.3828-1.6429 7.1288-1.677 10.444-0.09493 1.2363 0.59002 3.5093 2.358 3.5093 2.7296 0 0.0827-0.49714 0.57956-1.1048 1.1041l-1.1048 0.95378zm6.6125-5.3406c-1.8945-1.8632-5.1001-3.6295-7.8013-4.2985-1.0202-0.25267-2.364-0.3572-4.683-0.36429-3.1473-0.00962-3.3165 0.012352-5.2455 0.68126-2.22 0.76983-3.939 1.6726-5.6651 2.9751l-1.154 0.87081-2.171-2.4118 0.77076-0.62305c2.6329-2.1283 5.5555-3.5847 8.7844-4.3775 2.1755-0.53412 6.7085-0.63898 8.7719-0.20291 4.1653 0.88029 8.2301 2.9766 11.175 5.7633l0.68428 0.64748-1.0967 1.1105c-0.60321 0.6108-1.1944 1.098-1.3137 1.0828-0.11934-0.015274-0.59466-0.39921-1.0563-0.8532z" fill="#f8d800" stroke-width=".20982"/>
</svg>
