<?xml version="1.0" encoding="UTF-8"?>
<svg width="309" height="348" version="1.1" viewBox="0 0 81.756 92.075" xmlns="http://www.w3.org/2000/svg">
 <g transform="matrix(.12093 0 0 .12093 -12.848 -31.217)">
  <g transform="matrix(2.5702 0 0 2.6684 258.66 309.88)" stroke-width="4.2">
   <path transform="translate(122.43 -107.5)" d="m-60.494 109.94c-15.679 2.4789-30.104 10.054-41.045 21.555 27.168-4.1116 54.725-5.0143 82.104-2.6895 10.653 1.1097 18.805 9.9906 19 20.699 0 0-16.198 17.1-35.398 35.9-19.6 19.3-36 37.701-36 37.701l-1 1.1992c27.832 1.467 55.74 0.20118 83.324-3.7793 7.5128-11.658 11.51-25.233 11.514-39.102 3.91e-4 -43.976-38.97-77.744-82.498-71.484zm12.363 25c-20.204-0.16359-41.593 1.5131-59.924 4.0742-9.1662 12.256-14.202 27.107-14.381 42.41 0.45778 29.846 19.23 56.336 47.239 66.657 28.009 10.321 59.481 2.3475 79.196-20.065-28.589 4.4882-57.629 5.3583-86.436 2.5898-6.1-1.2-17.799-6.6012-17.799-20.201 1.6-2.1 19-19.5 38-38.4 12.07-11.674 23.679-23.816 34.799-36.398-6.8918-0.3938-13.792-0.61588-20.695-0.66602z" fill="#f8d800" stroke-width="1.0111"/>
  </g>
  <path d="m317.45 962.15a72.93 75.716 0 0 1-41.798-23.643c0-1.1971 18.016-20.201 19.025-20.201 0.43239 0 2.8826 1.7956 5.6211 4.0402 5.6211 4.6387 14.701 9.5768 20.611 11.073 2.8826 0.74818 6.1976 1.0475 10.666 0.89781 5.9093-0.29926 7.0624-0.59855 11.53-2.6935 2.5944-1.3467 6.3417-3.8906 8.0713-5.5366a40.5 42.048 0 0 0 10.089-34.117l-4.9004 4.0402a42.374 43.993 0 0 1-27.961 11.372c-28.826 1.4964-49.148-18.555-52.031-50.877-2.4502-26.486 8.2154-49.979 27.096-59.855 6.63-3.4417 12.107-4.938 20.466-5.2373 12.972-0.59855 21.619 2.6935 30.988 11.971 2.8826 2.9928 5.6211 5.0877 5.7652 4.7884 0.28826-0.14963 0.43239-3.7409 0.43239-7.6315v-7.4819l14.99 0.29928 15.134 0.14963v53.869c0 49.38 0 54.318-1.153 60.753-3.7474 21.697-11.819 36.063-25.943 45.639-11.963 8.0804-30.267 11.522-46.698 8.3797zm27.673-84.096c11.53-5.9855 17.728-20.949 15.134-36.063-2.8826-16.011-13.26-25.289-27.817-24.391-14.701 0.74818-24.646 13.467-24.646 31.125 0 14.964 7.4948 26.935 19.169 30.975 1.7296 0.59856 4.9004 0.89783 8.3595 0.7482a18.737 19.453 0 0 0 9.8008-2.3942zm117.03 28.431c-6.4858-1.1971-13.404-4.938-18.449-9.7264-2.3061-2.2446-4.3239-4.0402-4.7563-4.0402-0.57648 0-0.72061 2.0949-0.72061 6.4344v6.2848h-15.134l-14.99-0.29927-0.14412-74.22c-0.28827-69.282-0.14412-74.37 0.86478-75.118 0.86478-0.59855 4.7563-0.89782 14.269-0.89782 7.2065 0 13.548 0.14963 13.981 0.44891 1.0089 0.29927 1.1531 2.9927 1.1531 24.092 0 13.617 0.14413 23.942 0.57647 24.092 0.28827 0.29926 2.162-0.89784 4.0356-2.5438a40.356 41.898 0 0 1 29.835-9.5768c6.7741 0.29928 8.6478 0.59855 13.26 2.3942a52.896 54.917 0 0 1 33.438 54.169 55.49 57.61 0 0 1-16.719 44.442 45.113 46.836 0 0 1-40.356 14.066zm6.9183-26.635c7.9271-1.7956 13.836-6.8833 17.728-14.964 11.53-24.241-4.9005-52.373-27.673-47.435-13.26 2.8431-21.619 14.515-21.619 30.376 0 7.4818 0.86481 11.821 3.4591 17.208a25.223 26.187 0 0 0 28.105 14.964zm109.83 26.935a62.697 65.092 0 0 1-23.349-8.0804 75.38 78.26 0 0 1-19.458-20.8c-8.792-16.46-9.3684-37.409-1.4413-54.767 5.0445-11.073 13.26-19.453 25.367-25.887a50.157 52.074 0 0 1 27.961-5.9855c10.81 0.44891 16.863 1.9453 24.646 5.9855 9.6567 4.938 17.296 12.719 22.34 22.894 4.468 8.9782 7.9272 24.241 5.7653 25.887-0.43246 0.4489-17.296 6.1351-37.33 12.719-22.196 7.4819-36.321 12.42-36.321 12.869 0 1.0475 4.7563 5.0877 8.2154 6.8833a31.709 32.92 0 0 0 7.2065 2.2446c8.3596 1.4964 20.034-2.2446 27.961-8.9782 2.0178-1.7957 4.0357-3.292 4.3239-3.292 0.28835 0 4.324 4.1898 8.7919 9.1278 7.0624 7.7812 8.0713 9.2775 7.4949 10.475a65.579 68.085 0 0 1-52.175 18.705zm0.8648-64.793c30.7-10.325 31.276-10.475 31.276-11.522 0-1.646-6.63-7.7811-10.81-9.8761a25.943 26.935 0 0 0-17.296-2.2446c-13.692 2.8431-23.349 13.018-24.214 25.438-0.28827 3.8906 0 4.4891 0.72067 4.4891 0.57654 0 9.6567-2.8431 20.322-6.2848zm119.05 64.494c-13.836-2.3942-23.493-7.3322-32.429-16.759a53.328 55.366 0 0 1-15.566-43.544 56.211 58.359 0 0 1 6.0534-24.69c2.4503-5.3869 3.8916-7.4818 8.9361-12.42 6.9183-7.3322 13.692-11.672 23.061-14.964l6.63-2.5438h11.386a47.563 49.38 0 0 1 26.952 5.6862 52.175 54.169 0 0 1 27.961 39.355c2.162 10.475 6.1976 7.7811-31.853 20.5l-37.33 12.27c-2.3061 0.74819-4.0357 1.646-4.0357 2.2446 0 1.4964 5.7653 6.1351 9.5126 7.4819 10.377 4.1898 24.214 1.0475 33.726-7.4819 1.8737-1.7956 3.7473-2.9927 4.3239-2.9927 1.0089 0.29928 16.575 17.358 16.575 18.405 0 2.2446-11.242 10.774-19.314 14.515a65.867 68.384 0 0 1-34.735 4.938zm7.6389-66.289c13.548-4.4891 25.079-8.5293 25.655-8.9782 0.72069-0.74819 0.28835-1.4964-2.4502-4.4891-4.1798-4.4891-8.5037-7.033-14.413-8.3797-5.3329-1.1971-9.2244-0.89781-15.278 1.1971-11.242 3.7409-18.737 13.018-20.034 24.69-0.43246 3.7409-0.28835 4.0402 0.72057 4.0402 0.72069 0 12.251-3.5913 25.943-8.0804zm-580.56 64.793c-0.28827-0.14963-0.43239-5.9855-0.43239-12.57v-12.27l1.7296-2.3942 24.934-29.329c12.683-14.964 23.061-27.533 23.061-28.132 0.28825-0.74819-3.4591-0.89783-21.908-0.89783-18.304 0-22.484 0-23.061-0.89782-0.57651-0.59855-0.72064-4.6388-0.57651-12.869l0.14413-11.971 43.239-0.29927c34.303 0 43.527 0 43.96 0.74818 0.57651 0.89783 0.57651 21.847 0 23.343-0.28827 0.59854-11.819 14.515-25.655 30.825-13.981 16.31-25.223 29.927-25.223 30.077 0 0.29928 11.963 0.74819 26.808 0.89782l26.808 0.29928 0.28827 13.018v12.869h-46.698a1324.6 1375.2 0 0 1-47.275-0.44891zm107.38-0.59854c-0.43239-1.4964-0.43239-108.79 0-110.13 0.43238-0.89783 2.3061-1.0475 15.566-1.0475h15.134v112.23h-15.134c-13.26 0-15.134 0-15.566-1.0474zm11.819-120.61c-8.6478-2.2446-14.125-9.1279-14.125-18.106 0-7.6315 2.8826-13.018 9.2243-16.46 2.8826-1.7956 4.0356-2.0949 8.6478-2.0949 4.0356 0 5.7652 0.44891 7.783 1.4964 3.7474 2.0949 6.63 5.387 8.6478 9.5768 1.2972 2.9928 1.4413 4.3395 1.153 8.5293-0.28826 5.2373-2.0178 8.9782-5.477 12.57a19.458 20.201 0 0 1-15.854 4.4891z" fill="#f8d800" stroke-width="1.4686"/>
 </g>
</svg>
