<?xml version="1.0" encoding="UTF-8"?>
<svg width="307" height="352" version="1.1" viewBox="0 0 307 352" xmlns="http://www.w3.org/2000/svg">
 <path d="m59.682 23.5c-7.2774 0-19.729 3.1838-26.178 6.6934-5.8452 3.1814-13.822 9.9284-13.822 11.691 0 3.7157 5.6244 4.7936 8.4902 1.627 8.9392-9.8777 29.82-14.756 44.578-10.414 5.9255 1.7435 15.449 7.1054 18.389 10.354 2.4053 2.6578 6.1578 2.6364 7.5918-0.04297 0.97806-1.8275 0.56894-2.6151-3.2461-6.25-2.4008-2.2874-6.6804-5.4052-9.5098-6.9297-6.5873-3.5494-19.009-6.7285-26.293-6.7285zm122.24 0.25977c-4.5278-0.03312-9.0417 2.2352-11.975 6.6387l-2.2637 3.3965v123.71h-28v-61.766c0-70.48 0.40479-67.011-8.2402-70.619-2.2147-0.92433-4.2791-1.3772-6.25-1.3477-3.2848 0.0493-6.3095 1.438-9.3398 4.2148l-3.6699 3.3633-0.27148 63.076-0.27149 63.078-4.7285 6e-3c-6.3289 7e-3 -12.032 1.665-15.98 4.6445-5.5349 4.1758-6.6921 7.5075-7.248 20.849l-0.5 12h-9l-0.5-51.5c-0.37329-38.449-0.81564-52.05-1.7441-53.672-2.547-4.449-6.1852-6.3281-12.256-6.3281-6.6354 0-10.376 2.2642-12.621 7.6367-1.7887 4.2809-1.9301 26.414-0.17969 28.164 1.6298 1.6298 3.3495 1.506 5.2285-0.37305 1.2479-1.2479 1.5723-3.958 1.5723-13.17 0-9.3904 0.31453-11.949 1.6543-13.43 2.0607-2.277 6.1024-2.3595 8.5176-0.17383 1.7366 1.5716 1.8281 4.996 1.8281 68 0 62.91-0.09188 66.346-1.7773 66.346-2.8026 0-6.0765-2.7918-8.2363-7.0254-1.8802-3.6856-1.9863-5.9547-1.9863-42.363 0-33.638-0.19816-38.665-1.5723-40.039-0.86428-0.86429-2.1586-1.5723-2.877-1.5723-3.4938 0-3.6612 2.1578-3.3535 43.166l0.30273 40.334 2.7012 4.5938c3.2218 5.4804 8.0102 9.3468 13.766 11.113 2.318 0.71147 4.6607 2.1179 5.2051 3.127 1.332 2.4688 6.8697 4.666 11.762 4.666h3.9961l0.28516 36.908 0.28516 36.908 3.0586 3.8418c1.6819 2.1128 5.0388 4.8543 7.4609 6.0918l4.4043 2.25h54.139c38.798 0 55.103-0.33173 57.539-1.1719 4.9527-1.7081 8.339-4.4906 10.799-8.8672 1.9034-3.3866 2.1352-5.1243 1.8848-14.16-0.27726-10.002-0.3542-10.311-2.6719-10.639-3.412-0.48243-4.0804 1.264-4.0977 10.705-0.0153 8.3412-0.0275 8.381-3.7988 12.152-3.1457 3.1457-4.7047 3.8933-9.25 4.4414-3.0067 0.36254-27.537 0.52019-54.512 0.34961-54.451-0.34433-52.199-0.0614-56.5-7.1152-1.8807-3.0844-1.9476-5.5551-1.9512-70.994-0.0041-73.772-0.20696-71.037 5.6113-75.613 2.619-2.0601 3.3961-2.0879 57.535-2.0879h54.879l3.7363 3.4219 3.7344 3.4219 0.53125 51.828c0.29206 28.505 0.62956 51.97 0.75 52.145s1.4562 0.17403 2.9688 0l2.75-0.31641 1-33 2.5-0.26953c7.0665-0.76232 9.5682-1.6232 11.922-4.0996 1.4184-1.4924 4.5467-3.2922 6.9531-4 5.9881-1.7612 13.325-9.1806 14.967-15.135 0.93984-3.4095 1.1695-19.566 0.94922-66.824l-0.29102-62.326-3.7344-3.4238c-3.3246-3.0464-4.3522-3.4219-9.3457-3.4219-6.0095 0-10.271 2.1259-12.672 6.3203-0.93406 1.632-1.3738 15.134-1.748 53.68l-0.5 51.5h-9l-0.50781-12.5c-0.5319-13.098-1.0369-14.81-5.6562-19.186-3.7649-3.5662-7.5045-4.9571-15.336-5.6992l-6.5-0.61523-1-125.39-3.4102-3.5176c-2.7997-2.8882-6.33-4.3063-9.8516-4.332zm67.232 0.0078c-8.6428-0.09297-17.589 1.6523-24.971 5.1016-7.5009 3.5051-15.5 10.209-15.5 12.988 0 5.2316 3.2688 4.8718 11.352-1.2461 9.1601-6.9333 14.686-8.6168 28.148-8.582 13.033 0.03371 19.017 1.9538 28.121 9.0234 6.3044 4.8955 9.8598 5.6574 10.912 2.3418 1.3648-4.3-11.185-13.721-23.236-17.443-4.5643-1.4099-9.6405-2.1278-14.826-2.1836zm-67.416 7.7676c1.7894 0.05085 3.5647 0.93618 4.8809 2.6094 2.0614 2.6207 2.0777 3.1905 1.8223 62.75l-0.25781 60.105-6.25 0.29688-6.25 0.29882v-61.393c0-58.206 0.0943-61.48 1.8281-63.049 1.0351-0.93675 2.2372-1.4605 3.4609-1.5898 0.25495-0.02694 0.51-0.03656 0.76563-0.0293zm-55.828 0.02539c1.6052-0.0156 3.1771 0.48768 4.2012 1.5117 1.3945 1.3945 1.5723 8.4892 1.5723 63v61.428h-12v-61.346c0-58.16 0.0943-61.431 1.8281-63 1.155-1.0452 2.7932-1.5782 4.3984-1.5938zm-66.971 10.965c-6.7657 0.11756-13.512 2.1035-19.521 5.9219-5.9482 3.7795-8.0396 7.6252-5.2539 9.6621 2.6224 1.9175 3.1176 1.8089 7.4102-1.6406 4.5195-3.6319 12.869-6.9688 17.439-6.9688 5.4623 0 13.077 2.7677 18.037 6.5547 4.865 3.7147 7.8428 3.9465 9.0859 0.70703 1.0309-2.6864-2.6287-6.505-9.7363-10.158-5.5062-2.83-11.491-4.1819-17.461-4.0781zm187.96 0.09766c-7.3737 0.07209-13.887 2.1164-19.844 6.2109-5.0727 3.487-7.0122 8.0097-4.1992 9.793 2.0273 1.2852 2.4582 1.1368 7.7324-2.6523 5.9519-4.276 14.091-6.8484 19.678-6.2188 4.6026 0.51877 13.438 4.4785 17.705 7.9336 2.1808 1.7656 3.1584 2.0206 4.5 1.1758 7.3313-4.6168-7.2985-15.186-22.359-16.152-1.0894-0.06991-2.1595-0.10014-3.2129-0.08984zm0.60547 17.461c-1.0501 0.0014-2.0712 0.10558-3.0312 0.32812-8.6267 1.9996-13.483 7.6425-9.2441 10.742 1.4519 1.0617 2.4151 0.8686 5.9336-1.1934 2.3099-1.3537 5.4845-2.4609 7.0566-2.4609 1.5721 0 4.5013 1.1368 6.5078 2.5273 3.96 2.7443 6.4962 2.5068 7.5156-0.70508 1.3493-4.2512-7.3877-9.2482-14.738-9.2383zm-187.58 0.22656c-5.0506-0.07365-10.059 1.5555-12.953 4.4492-4.8657 4.8657 0.85851 9.6344 5.9902 4.9902 2.8362-2.5667 10.517-2.3466 14.012 0.40234 3.1215 2.4554 6.2817 2.1034 7.0371-0.78516 0.81756-3.1264-3.2495-6.8815-9.0977-8.3984-1.616-0.41918-3.3047-0.63365-4.9883-0.6582zm187.91 30.273c1.7722-0.05148 3.4048 0.80342 4.7793 2.5508 2.0436 2.598 2.0723 3.4591 2.0723 61.684 0 57.829-0.0437 59.139-2.0879 63.361-2.3052 4.7618-6.1736 8.3203-9.0469 8.3203-1.8015 0-1.8652-2.2681-1.8652-66.443v-66.443l2.2227-1.5566c1.2245-0.85769 2.4244-1.3408 3.5703-1.4512 0.11936-0.0115 0.23732-0.01806 0.35547-0.02148zm-173.65 112.42h9v31l-4.2598 0.30859c-2.8883 0.20883-4.425-0.12873-4.7773-1.0469-0.28575-0.74466-0.39547-7.8589-0.24219-15.809zm150 0h9v31l-4.2598 0.30859c-2.8882 0.20883-4.425-0.12873-4.7773-1.0469-0.28575-0.74466-0.39548-7.8589-0.24219-15.809zm-70.039 61.85c-5.0638-0.10862-10.151 1.6947-14.508 5.4238-7.1268 6.1003-9.4593 14.18-6.8476 23.727 1.2478 4.561 9.3076 13.07 13.057 13.783 4.6402 0.88307 13.768 0.69387 16.523-0.34179 4.2209-1.5865 11.213-8.9126 12.324-12.914 1.3901-5.0037 1.2231-12.539-0.36133-16.309-0.74381-1.7698-3.3651-5.0668-5.8242-7.3262-4.26-3.914-9.2995-5.9344-14.363-6.043zm-0.90821 9.6504c4.2425 0 8.7434 2.1568 10.887 5.2168 1.8786 2.6821 1.9954 10.371 0.20703 13.594-1.9465 3.5078-6.6983 6.1762-11.014 6.1836-3.1639 5e-3 -4.574-0.70101-7.75-3.877-3.4748-3.4748-3.8828-4.4066-3.8828-8.8828 0-4.5665 0.34708-5.3152 4.002-8.6172 3.014-2.723 4.8802-3.6172 7.5508-3.6172z" fill="#f8d800"/>
</svg>
