<?xml version="1.0" encoding="UTF-8"?>
<!-- Created with Inkscape (http://www.inkscape.org/) -->
<svg width="244.91" height="245.15" version="1.1" viewBox="0 0 64.798 64.863" xml:space="preserve" xmlns="http://www.w3.org/2000/svg" xmlns:xlink="http://www.w3.org/1999/xlink"><defs><linearGradient id="a"><stop stop-color="#ffe120" offset="0"/><stop stop-color="#b09c00" offset="1"/></linearGradient><linearGradient id="e" x1="7.4197" x2="51.847" y1="27.698" y2="27.698" gradientTransform="translate(-7.4197 -13.571)" gradientUnits="userSpaceOnUse" xlink:href="#a"/><linearGradient id="d" x1="7.4197" x2="51.847" y1="27.698" y2="27.698" gradientTransform="rotate(180 36.083 39.196)" gradientUnits="userSpaceOnUse" xlink:href="#a"/><linearGradient id="c" x1="7.4197" x2="51.847" y1="27.698" y2="27.698" gradientTransform="rotate(90 42.826 35.543)" gradientUnits="userSpaceOnUse" xlink:href="#a"/><linearGradient id="b" x1="7.4197" x2="51.847" y1="27.698" y2="27.698" gradientTransform="rotate(-90 29.387 42.895)" gradientUnits="userSpaceOnUse" xlink:href="#a"/></defs><path d="m28.033 18.351v4.1625h4.116v-4.1625zm-4.747 0.02325v4.1625h4.1393v-4.1625zm9.448 0v4.1625h4.1155v-4.1625zm-9.4599 4.7005v4.1631h4.1393v-4.1631zm14.137 0v4.1631h4.1145v-4.1631zm-14.137 4.6772v4.1631h4.1393v-4.1631zm14.137 0.04703v4.1625h4.1145v-4.1625zm-14.137 4.6772v4.6535h4.1393v-4.6535zm14.137 0.02325v4.654h4.1145v-4.654zm-9.4134 0.01189v4.6535h4.1398v-4.6535zm4.7243 0v4.6535h4.1393v-4.6535zm-9.448 5.1914v4.1393h4.1393v-4.1393zm14.137 0.01189v4.1625h4.1145v-4.1625zm-14.137 4.6653v4.1863h4.1393v-4.1863zm14.137 0.05839v4.1631h4.131v-4.1631z" fill="#f8d800" fill-opacity=".98824" stroke-width=".26017"/><path d="m18.609 13.638v4.1625h4.1155v-4.1625zm28.212 0v4.1625h4.116v-4.1625zm-32.889 0.01188v4.1625h4.116v-4.1625zm28.165 0.01137v4.1631h4.116v-4.1631zm-18.812 0.02842v4.1155h4.1393v-4.1155zm4.6964 0v4.1155h4.1393v-4.1155zm9.448 0.0098v4.1155h4.1181v-4.1155zm-4.7361 0.0057v4.1155h4.1935v-4.1155zm4.731 4.5904v4.1631h4.1155v-4.1631zm-18.792 0.04289v4.1631h4.116v-4.1631zm28.212 0v4.1631h4.116v-4.1631zm-4.7785 0.0072v4.1631h4.1155v-4.1631zm-28.111 0.0047v4.1625h4.116v-4.1625zm14.043 4.7005v4.116h4.1398v-4.116zm-9.3891 0.03514v4.1625h4.1155v-4.1625zm28.212 0v4.1625h4.116v-4.1625zm-32.913 0.01189v4.1625h4.116v-4.1625zm18.814 0v4.1155h4.1393v-4.1155zm9.3746 0.01137v4.1631h4.116v-4.1631zm-28.165 4.6421v4.1631h4.116v-4.1631zm4.6772 0.03514v4.1631h4.1155v-4.1631zm28.212 0v4.1631h4.116v-4.1631zm-14.122 0.01189v4.116h4.1393v-4.116zm9.3979 0.01137v4.1631h4.116v-4.1631zm-14.099 0.01188v4.116h4.1398v-4.116zm-14.113 4.6772v4.6302h4.116v-4.6302zm4.7475 0.01189v4.6302h4.116v-4.6302zm23.488 0.02325v4.6302h4.1155v-4.6302zm4.6772 0v4.6302h4.1155v-4.6302zm-18.8 5.18v4.116h4.1398v-4.116zm-9.3891 0.01137v4.116h4.1155v-4.116zm28.212 0v4.116h4.116v-4.116zm-32.936 0.01189v4.116h4.116v-4.116zm18.814 0v4.116h4.1393v-4.116zm9.3979 0.01189v4.116h4.116v-4.116zm-14.099 4.6653v4.116h4.1398v-4.116zm-9.3891 0.01189v4.116h4.1155v-4.116zm28.212 0v4.116h4.116v-4.116zm-32.936 0.01137v4.116h4.116v-4.116zm18.838 0v4.116h4.1393v-4.116zm9.3746 0.01189v4.116h4.116v-4.116zm-4.6974 4.6421v4.116h4.1481v-4.116zm-18.814 0.01188v4.116h4.116v-4.116zm28.213 0v4.116h4.1155v-4.116zm-32.89 0.01137v4.116h4.116v-4.116zm9.4015 0v4.116h4.116v-4.116zm4.7005 0v4.116h4.116v-4.116zm4.7005 0v4.116h4.1393v-4.116zm9.4103 0.01189v4.116h4.1155v-4.116z" fill="#1a1a1a" fill-opacity=".98824" stroke-width=".26017"/><g stroke-width=".27126"><path d="m37.357 1.6644e-7a7.0702 7.0702 0 0 0-0.91209 0.06304h-27.915v0.01912a8.9513 8.9513 0 0 0-8.5297 8.9354 8.9513 8.9513 0 0 0 0.00258 0.06821v19.167h0.00723a7.0234 7.0234 0 0 1 7.0218-7.0006 7.0234 7.0234 0 0 1 7.0228 7.0006h0.02635v-11.904a8.9513 8.9513 0 0 0 2.2066-2.2081h21.381v-0.0124a7.0702 7.0702 0 0 0 6.7588-7.0585 7.0702 7.0702 0 0 0-7.0704-7.0704z" fill="url(#e)"/><path d="m27.39 64.82a7.0702 7.0702 0 0 0 0.91209-0.06304h27.915v-0.01912a8.9513 8.9513 0 0 0 8.5297-8.9354 8.9513 8.9513 0 0 0-0.0026-0.06821v-19.167h-0.0072a7.0234 7.0234 0 0 1-7.0218 7.0006 7.0234 7.0234 0 0 1-7.0228-7.0006h-0.02635v11.904a8.9513 8.9513 0 0 0-2.2066 2.2081h-21.381v0.0124a7.0702 7.0702 0 0 0-6.7588 7.0585 7.0702 7.0702 0 0 0 7.0704 7.0704z" fill="url(#d)"/><path d="m64.798 37.493a7.0702 7.0702 0 0 0-0.06304-0.91209v-27.915h-0.01912a8.9513 8.9513 0 0 0-8.9354-8.5297 8.9513 8.9513 0 0 0-0.06821 0.0026h-19.167v0.0072a7.0234 7.0234 0 0 1 7.0006 7.0218 7.0234 7.0234 0 0 1-7.0006 7.0228v0.02635h11.904a8.9513 8.9513 0 0 0 2.2081 2.2066v21.381h0.0124a7.0702 7.0702 0 0 0 7.0585 6.7588 7.0702 7.0702 0 0 0 7.0704-7.0704z" fill="url(#c)"/><path d="m0.062515 27.506a7.0702 7.0702 0 0 0 0.06304 0.91209v27.915h0.01912a8.9513 8.9513 0 0 0 8.9354 8.5297 8.9513 8.9513 0 0 0 0.06821-0.0026h19.167v-0.0072a7.0234 7.0234 0 0 1-7.0006-7.0218 7.0234 7.0234 0 0 1 7.0006-7.0228v-0.02635h-11.904a8.9513 8.9513 0 0 0-2.2081-2.2066v-21.381h-0.0124a7.0702 7.0702 0 0 0-7.0585-6.7588 7.0702 7.0702 0 0 0-7.0704 7.0704z" fill="url(#b)"/></g></svg>
