<?xml version="1.0" encoding="UTF-8"?>
<svg width="309" height="348" version="1.1" viewBox="0 0 81.756 92.075" xmlns="http://www.w3.org/2000/svg">
 <path d="m3.1153 70.594c-0.4169-0.18609-0.69018-0.61768-0.69018-1.09 0-0.48227 0.21777-0.82561 0.67113-1.0581 0.19988-0.1025 0.38664-0.12507 1.0353-0.12507 0.43527 0 0.7914-0.01015 0.7914-0.02258 0-0.01241-0.066554-0.19729-0.1479-0.41082l-0.1479-0.38824-0.018196-16.466c-0.020355-18.419-0.058498-16.922 0.45731-17.953 0.35535-0.70998 0.95002-1.309 1.6718-1.6842 0.87531-0.45493 1.0375-0.47496 3.8542-0.47607l2.4814-9.71e-4v-4.5787l0.19919-0.30072c0.26559-0.40097 0.54771-0.5106 1.314-0.5106h0.59026l0.0048-1.0353c0.0027-0.5694 7.89e-4 -1.2471-0.0041-1.5059-0.01537-0.81044 0.1682-1.2192 0.66022-1.4703 0.24659-0.1258 0.40848-0.12963 5.485-0.12963 5.0032 0 5.2415 0.0054 5.4748 0.12447 0.61718 0.315 0.67113 0.51088 0.67113 2.437v1.5797h0.62707c0.86715 0 1.1996 0.17293 1.4369 0.74751 0.08919 0.2159 0.10514 0.58749 0.10514 2.4485v2.194h12.555v-2.2704c0-2.5358 0.0065-2.5766 0.46998-2.9224 0.1968-0.14687 0.29485-0.16668 0.92276-0.18647l0.70256-0.02215 0.02049-1.659 0.02049-1.659 0.18084-0.27307c0.09946-0.15019 0.29794-0.33281 0.44107-0.40583 0.25463-0.1299 0.3729-0.13276 5.4911-0.13276 5.0032 0 5.2415 0.0054 5.4748 0.12447 0.27897 0.14238 0.41333 0.28014 0.56461 0.57888 0.0896 0.17695 0.10652 0.46666 0.10652 1.8241v1.6137h0.62017c0.84132 0 1.1346 0.13015 1.4073 0.62445 0.11366 0.20604 0.11955 0.35952 0.13547 3.5331l0.0062 1.2325h2.4544c2.2381 0 2.4997 0.01157 2.9677 0.13128 0.68327 0.17475 1.2705 0.51398 1.8063 1.0435 0.50684 0.50089 0.8506 1.0785 1.0613 1.7832 0.14209 0.47529 0.14832 0.60804 0.17349 3.6974l0.02611 3.2044h5.6369l0.01949-2.3828 0.01949-2.3828 0.1972-0.27456c0.37668-0.52447 0.30902-0.51175 2.8404-0.53385 2.4057-0.02099 2.6303 1e-3 2.9762 0.29215 0.39476 0.33217 0.39498 0.33416 0.39498 3.6714 0 3.3361-6.58e-4 3.3393-0.39403 3.6706-0.31764 0.26727-0.59036 0.30543-2.1859 0.30582l-1.4954 3.66e-4v6.6273l0.27137 0.04585c0.43949 0.07425 1.4922 0.64523 1.9906 1.0797 0.56197 0.48986 0.95026 0.99575 1.2892 1.6796 0.48884 0.98633 0.49135 1.0087 0.49135 4.3762v2.9959l-0.18416 0.24147c-0.24815 0.32538-0.51867 0.45228-1.0443 0.48989l-0.4407 0.03153-0.03988 3.9711-0.1881 0.27128c-0.21382 0.30836-0.6296 0.53954-0.96652 0.53738-0.33315-0.0022-0.74122-0.21358-0.95642-0.49558l-0.18956-0.24841-0.01912-2.0265-0.01913-2.0265h-2.2882l-0.01998 1.9933-0.01999 1.9933-0.18511 0.27956c-0.311 0.46967-0.89122 0.64723-1.4086 0.43106-0.32596-0.13619-0.47254-0.27634-0.61616-0.58908-0.10825-0.23575-0.12088-0.46076-0.12218-2.1769l-0.0014-1.914-0.48484-0.03111c-0.57733-0.03705-0.86604-0.18849-1.0779-0.56539-0.14243-0.25342-0.1445-0.29681-0.14726-3.0762-0.0033-3.3248 0.03164-3.6042 0.57878-4.6268 0.6432-1.2022 1.9176-2.2534 3.1196-2.5734l0.31223-0.08312v-6.6116l-2.2842-0.0047c-2.472-0.0051-3.3235 0.0032-3.3529 0.03262-0.01035 0.01035-0.02568 5.4287-0.03409 12.041l-0.0153 12.022-0.1386 0.42726c-0.07623 0.23499-0.15969 0.47668-0.18546 0.5371-0.04222 0.09895 0.04106 0.11199 0.83969 0.13146 0.88006 0.02146 0.88841 0.02312 1.1389 0.22578 0.34508 0.27918 0.49677 0.5616 0.50241 0.93539 0.0066 0.4371-0.22772 0.83543-0.61056 1.038l-0.29478 0.15602-32.571-0.002588c-27.066-0.002128-32.604-0.017437-32.768-0.090583zm60.583-2.3652c0.37777-0.13492 0.75132-0.471 0.93647-0.84255 0.14358-0.28813 0.1695-0.42861 0.1695-0.91881v-0.57868h-31.112l-0.26941-0.15788c-0.57579-0.33744-0.75244-1.1395-0.36789-1.6704 0.22279-0.30755 0.49009-0.46768 0.84278-0.50487 0.1337-0.0141 7.1424-0.02733 15.575-0.02942l15.332-0.0038v-2.6293h-13.05c-11.241 0-13.079-0.01317-13.261-0.09503-0.47205-0.21208-0.7045-0.57112-0.7045-1.0881 0-0.50105 0.21491-0.8301 0.70335-1.0769 0.19165-0.09683 1.3714-0.10628 13.261-0.10628h13.051l9e-3 -5.9487c5e-3 -3.2718 9e-3 -6.0375 9e-3 -6.1459 0-0.10846-4e-3 -0.89231-9e-3 -1.7419l-9e-3 -1.5447h-1.1174l-0.0014 1.1667c-0.0017 1.335-0.06219 1.5667-0.49568 1.8974l-0.24851 0.18956-10.662 0.03512-0.30681-0.19457c-0.56892-0.3608-0.54151-0.15922-0.5636-4.146-0.01416-2.5554 0.0018-3.5933 0.05815-3.7971 0.10036-0.36256 0.45338-0.70599 0.82084-0.79851 0.36924-0.09298 10.212-0.09905 10.546-0.0065 0.30485 0.08469 0.70309 0.47938 0.78642 0.77941 0.03672 0.13219 0.06693 0.75059 0.06713 1.3742l3.7e-4 1.1339h1.1174l-6.57e-4 -3.073c0-1.9454-0.02572-3.1642-0.06946-3.3217-0.09394-0.33826-0.6746-0.91345-1.0295-1.0198-0.21244-0.06365-6.1828-0.08078-27.852-0.07993-23.928 9.4e-4 -27.612 0.0137-27.81 0.09627-0.36086 0.15078-0.67991 0.42631-0.87201 0.75309l-0.17722 0.30194-0.03425 24.089c6.6756 0.01151 13.351 0.02301 20.027 0.03452l0.24696 0.18838c0.35776 0.27288 0.49816 0.53859 0.49845 0.94326 3.3e-4 0.44566-0.15591 0.7617-0.48801 0.98721l-0.26766 0.18175c-6.6718 0.01137-13.344 0.02275-20.015 0.03412v2.628l1.5283-1.31e-4c5.7636 0.0082 10.237 0.01951 16.208 0.03297l0.27821 0.1972c0.35516 0.25174 0.52187 0.56454 0.52187 0.97917 0 0.41808-0.22522 0.81184-0.57766 1.0099l-0.26189 0.14721h-17.697v0.51414c0 0.29308 0.04403 0.64336 0.1024 0.81467 0.12951 0.38009 0.60098 0.8648 0.96737 0.99453 0.24482 0.08669 3.5451 0.09862 27.852 0.10065 22.596 0.0019 27.618-0.01327 27.816-0.08396zm-35.474-2.3073c-0.51102-0.18069-0.89018-0.80987-0.78558-1.3036 0.02426-0.11447 0.19976-0.50392 0.39002-0.86544 0.19026-0.36152 0.51708-0.98269 0.72628-1.3804 0.20919-0.39768 0.67144-1.2618 1.0272-1.9203s0.64687-1.212 0.64687-1.23c0-0.01802 0.17351-0.35185 0.38558-0.74184s0.54108-1.0049 0.73114-1.3664c0.19006-0.36152 0.45744-0.86437 0.59418-1.1174 0.26666-0.49351 0.65545-1.2385 0.65545-1.2559 0-0.0058-0.59898-0.03196-1.3311-0.05803-2.1773-0.07755-2.5698-0.11925-2.8441-0.30219-0.13083-0.08725-0.295-0.26838-0.36484-0.40251-0.16737-0.32148-0.16888-0.86977-0.0031-1.1416 0.10248-0.16806 0.73647-0.92674 2.7147-3.2486 0.1078-0.12653 0.31927-0.37653 0.46993-0.55556 1.1033-1.3111 1.7393-2.0613 2.3116-2.7272 0.14461-0.16824 0.63267-0.74474 1.0846-1.2811s1.3689-1.6165 2.0377-2.4004c0.66882-0.78385 1.497-1.7599 1.8405-2.169 0.34345-0.40913 0.84062-0.99437 1.1048-1.3005 0.2642-0.30617 0.76607-0.90124 1.1153-1.3224 0.34919-0.42113 0.66751-0.79527 0.70739-0.83142 0.03988-0.03615 0.2627-0.29673 0.49517-0.57907 0.23247-0.28233 0.51141-0.56825 0.61986-0.63536 0.6289-0.38918 1.4538-0.12026 1.713 0.55845 0.15676 0.41047 0.10205 0.68596-0.31587 1.5905-0.1968 0.42596-0.76586 1.6619-1.2646 2.7464-0.49872 1.0846-1.4507 3.1518-2.1156 4.5938-0.66486 1.442-1.2006 2.6299-1.1905 2.6398 0.02094 0.02044 2.9689 0.16126 3.5679 0.17044 0.61546 0.0094 1.0324 0.23307 1.2637 0.67777 0.12284 0.23623 0.12681 0.81734 0.0071 1.0429-0.04819 0.0908-0.88809 1.018-1.8664 2.0605-0.97835 1.0425-2.0112 2.1469-2.2953 2.4541-0.28404 0.3073-0.77027 0.82543-1.0805 1.1514-0.31024 0.32597-1.1703 1.2429-1.9112 2.0377-0.74094 0.79475-1.6007 1.7112-1.9106 2.0366-0.3099 0.32537-1.2118 1.2867-2.0043 2.1363-0.79246 0.84958-1.6357 1.7517-1.8739 2.0048s-0.75026 0.80028-1.138 1.216c-0.69884 0.74941-1.2025 1.1209-1.5112 1.1146-0.07721-0.0016-0.25871-0.04472-0.40332-0.09585zm6.6731-9.5638c0.55576-0.59652 1.2191-1.3058 1.4741-1.5761 1.293-1.3707 1.585-1.6814 2.3722-2.5246 0.46869-0.50199 1.0488-1.1232 1.2892-1.3804 0.24038-0.25721 0.42584-0.48607 0.41213-0.50857-0.01372-0.02251-0.29913-0.04634-0.63426-0.05297-0.33513-0.0066-1.0678-0.03469-1.6282-0.06234-0.91954-0.04539-1.043-0.06585-1.2667-0.20996-0.32828-0.21146-0.60396-0.75413-0.55772-1.0979 0.01813-0.13474 0.37299-0.98447 0.78858-1.8883 0.41559-0.90381 0.82232-1.7912 0.90384-1.9719 0.08153-0.18076 0.20541-0.44698 0.2753-0.59158l0.12707-0.26293-0.21734 0.23128c-0.11954 0.1272-0.35464 0.39342-0.52244 0.59159-1.6423 1.9395-1.9941 2.3543-2.1177 2.4966-0.07848 0.09038-0.3917 0.46012-0.69604 0.82164-0.30434 0.36152-0.96943 1.1456-1.478 1.7423-0.50854 0.59676-1.1405 1.3436-1.4045 1.6597l-0.47985 0.57471 0.38125 0.0028c0.20969 0.0016 0.94584 0.02808 1.6359 0.05894 1.0703 0.04787 1.294 0.0762 1.5227 0.19289 0.39324 0.20062 0.56526 0.47978 0.59634 0.96775 0.02544 0.39952 0.01764 0.42161-0.46526 1.3174-0.62956 1.1679-1.394 2.6298-1.3529 2.5873 0.01747-0.01808 0.48647-0.52092 1.0422-1.1174zm42.066-0.01643c-0.0013-1.9147-7e-3 -2.0045-0.15516-2.424-0.62737-1.7773-2.7247-2.4897-4.2921-1.458-0.6872 0.45232-1.1552 1.1894-1.2732 2.005-0.06876 0.47552-0.08486 3.7555-0.01876 3.8216 0.0241 0.0241 1.3256 0.04382 2.8922 0.04382h2.8484l-0.0013-1.9884zm-15.643-12.736v-0.46012l-1.3968-3.95e-4c-1.4961-3.94e-4 -1.7725-0.04088-2.0873-0.30578-0.28154-0.23688-0.39407-0.48698-0.39407-0.87584 0-0.44268 0.12959-0.73165 0.43143-0.96203l0.24819-0.18943 3.1985-0.0394v-0.97945h-7.5591v4.2726h7.5591zm15.644-4.4369v-1.6104h-1.709v3.2208h1.709zm-49.693-9.7603v-1.511l-2.2842-0.01729c-1.2563-0.0095-3.9184-0.0094-5.9158 2.63e-4l-3.6317 0.01753v3.0215h11.832v-1.511zm29.053-4.4e-5v-1.511l-5.012-0.01724c-2.7566-0.0095-5.404-9e-3 -5.883 0.0011l-0.87094 0.01835v3.0198h11.766v-1.5111zm-31.223-4.7664v-0.88738h-7.5591v1.7748h7.5591zm29.119 0v-0.88738h-7.5591v1.7748h7.5591z" fill="#f8d800" stroke-width=".065732"/>
</svg>
