<?xml version="1.0" encoding="UTF-8" standalone="no"?>
<!-- Created with Inkscape (http://www.inkscape.org/) -->

<svg
   version="1.1"
   id="svg2"
   width="613"
   height="703"
   viewBox="0 0 613 703"
   sodipodi:docname="node_nab.svg"
   inkscape:version="1.1 (c68e22c387, 2021-05-23)"
   xmlns:inkscape="http://www.inkscape.org/namespaces/inkscape"
   xmlns:sodipodi="http://sodipodi.sourceforge.net/DTD/sodipodi-0.dtd"
   xmlns="http://www.w3.org/2000/svg"
   xmlns:svg="http://www.w3.org/2000/svg">
  <defs
     id="defs6" />
  <sodipodi:namedview
     id="namedview4"
     pagecolor="#505050"
     bordercolor="#ffffff"
     borderopacity="1"
     inkscape:pageshadow="0"
     inkscape:pageopacity="0"
     inkscape:pagecheckerboard="1"
     showgrid="false"
     inkscape:zoom="1.1834993"
     inkscape:cx="306.29507"
     inkscape:cy="351.92248"
     inkscape:window-width="1920"
     inkscape:window-height="1017"
     inkscape:window-x="1912"
     inkscape:window-y="-8"
     inkscape:window-maximized="1"
     inkscape:current-layer="g8" />
  <g
     inkscape:groupmode="layer"
     inkscape:label="Image"
     id="g8">
    <path
       style="fill:#f8d800;fill-opacity:1"
       d="m 279.5,655.37673 c -39.09638,-3.10701 -74.26414,-11.29428 -98.01496,-22.81847 -8.81569,-4.27748 -22.16265,-13.21398 -21.18928,-14.18735 0.26957,-0.26958 5.82581,0.63333 12.34719,2.00646 72.90439,15.35058 194.91357,15.33471 266.67914,-0.0347 6.50215,-1.39251 12.04392,-2.31 12.31505,-2.03888 0.8928,0.8928 -10.69198,8.53889 -20.81899,13.74078 -19.03597,9.77811 -48.5562,17.72458 -79.81815,21.48602 -12.88551,1.55038 -59.93504,2.7652 -71.5,1.84613 z m -12,-33.47539 c -22.52333,-0.94014 -50.40829,-3.30059 -70.5,-5.9678 -12.91982,-1.71512 -45.93395,-7.53415 -46.61633,-8.21653 -0.14547,-0.14548 8.7255,-43.22882 19.71328,-95.74076 17.81994,-85.16365 20.78385,-100.72958 27.4405,-144.11273 7.5542,-49.23271 9.43691,-57.81389 15.21833,-69.36352 7.06253,-14.10894 19.46682,-29.01079 32.24422,-38.73648 8.39279,-6.38829 24.21371,-14.05907 35,-16.96978 7.43338,-2.00591 10.75873,-2.2868 26.5,-2.23847 16.676,0.0512 18.662,0.2568 27,2.795 27.71355,8.4364 49.90729,26.52603 63.36781,51.64973 7.68979,14.3528 9.5522,22.1127 17.55394,73.14031 6.34336,40.45196 10.35248,61.35207 27.48671,143.29205 11.03308,52.7628 19.94038,96.05213 19.79401,96.1985 -0.68413,0.68414 -39.59453,7.43112 -50.70247,8.79171 -45.59944,5.58539 -95.39666,7.48663 -143.5,5.47877 z m 44.41667,-242.27702 c 1.71401,-3.45807 2.41666,-6.55535 2.41666,-10.65269 v -5.777 l 5.76909,-1.135 c 7.16021,-1.40868 10.89274,-4.11656 9.30001,-6.74698 -1.75481,-2.89809 -8.09852,-4.5231 -19.79659,-5.07109 -16.86518,-0.79005 -30.73095,2.66287 -28.98317,7.21753 0.64713,1.68639 6.37078,4.05046 12.12733,5.00902 l 4.25,0.70769 0.0439,5.1621 c 0.0846,9.95022 4.10093,16.97958 9.40501,16.46062 2.53886,-0.2484 3.45683,-1.11708 5.46777,-5.1742 z M 271.98745,335 c 3.46155,-6.19967 3.62968,-20.05441 0.33023,-27.21269 -7.84878,-17.02821 -20.13461,8.25796 -12.69874,26.13599 2.13162,5.12505 3.38463,6.21078 6.78333,5.87777 2.46908,-0.24193 3.56616,-1.18499 5.58518,-4.80107 z m 77.86327,2.92985 c 6.3862,-6.85477 5.6593,-29.15031 -1.13316,-34.75661 -4.92139,-4.06198 -10.66481,3.35723 -11.48623,14.83763 -1.12364,15.7044 6.02844,26.99355 12.61939,19.91898 z M 211.03353,277.85808 C 210.95561,271.71842 222.18499,86.910932 223.00648,80.813281 225.54394,61.978658 234.11127,46 241.67243,46 c 7.719,0 14.38732,10.013692 18.93345,28.432038 1.71383,6.943454 3.19796,61.187612 3.42188,125.067962 l 0.1332,38 -13.75679,8 c -11.30487,6.57413 -15.4802,9.69322 -23.42617,17.5 -5.31816,5.225 -11.07374,11.3 -12.79016,13.5 -3.0406,3.89723 -3.12164,3.93212 -3.15431,1.35808 z m 185.69297,-2.67253 c -4.70604,-6.1921 -17.81774,-18.78885 -23.75766,-22.82459 -2.45786,-1.66994 -9.14731,-5.64667 -14.86543,-8.83718 l -10.3966,-5.80093 0.71412,-71.11143 c 0.72574,-72.26769 1.2871,-85.434344 4.09692,-96.091725 C 356.30982,56.137081 363.52421,46 369.96808,46 c 9.29042,0 17.38068,17.25212 19.93008,42.5 1.42221,14.08481 11.28924,185.05668 10.89702,188.81911 -0.29312,2.81177 -0.3215,2.79689 -4.06868,-2.13356 z"
       id="path845" />
  </g>
</svg>
