<?xml version="1.0" encoding="UTF-8" standalone="no"?>
<!-- Created with Inkscape (http://www.inkscape.org/) -->

<svg
   width="309"
   height="348"
   viewBox="0 0 81.756248 92.075003"
   version="1.1"
   id="svg5"
   inkscape:version="1.1 (c68e22c387, 2021-05-23)"
   sodipodi:docname="node_bt.svg"
   inkscape:export-filename="C:\Users\jfridisch\ownCloud\Git\jmqtt-crash-doc-logs\nouveau logo jmqtt\logo_eq.png"
   inkscape:export-xdpi="96"
   inkscape:export-ydpi="96"
   xmlns:inkscape="http://www.inkscape.org/namespaces/inkscape"
   xmlns:sodipodi="http://sodipodi.sourceforge.net/DTD/sodipodi-0.dtd"
   xmlns="http://www.w3.org/2000/svg"
   xmlns:svg="http://www.w3.org/2000/svg">
  <sodipodi:namedview
     id="namedview7"
     pagecolor="#505050"
     bordercolor="#ffffff"
     borderopacity="1"
     inkscape:pageshadow="0"
     inkscape:pageopacity="0"
     inkscape:pagecheckerboard="1"
     inkscape:document-units="px"
     showgrid="false"
     units="px"
     inkscape:zoom="2"
     inkscape:cx="80.75"
     inkscape:cy="160.75"
     inkscape:window-width="1920"
     inkscape:window-height="1017"
     inkscape:window-x="1912"
     inkscape:window-y="-8"
     inkscape:window-maximized="1"
     inkscape:current-layer="svg5" />
  <defs
     id="defs5035" />
  <g
     id="g"
     transform="translate(-3.1737078,-1.315939)">
    <path
       id="bt"
       style="fill:#f8d800;stroke-width:0.555129;paint-order:fill markers stroke"
       d="m 107.74609,54.244141 v 23.152343 8.958985 46.388671 23.81055 l -43.675778,-44.47266 -16.052734,15.76563 52.839842,53.80468 -52.839842,53.80274 16.052734,15.76562 43.675778,-44.47265 v 18.45507 46.39063 12.63477 19.4746 L 129.5,281.55469 180.89453,229.2207 133.38672,180.8457 182.73242,130.59766 129.5,76.394531 Z M 129.5,108.50586 151.19727,130.59766 129.5,152.69141 Z M 129.5,209 149.35938,229.2207 129.5,249.44141 Z"
       transform="scale(0.26458333)" />
    <path
       id="ond"
       style="display:inline;fill:#f8d800;fill-opacity:1;stroke-width:0.391449;paint-order:fill markers stroke"
       d="m 219.64648,83.960938 -4.20898,9.373046 A 91.823034,93.531105 0 0 1 274.71875,180.79297 91.823034,93.531105 0 0 1 215.25,268.31836 l 4.2168,9.39258 a 102.07609,103.97488 0 0 0 65.50586,-96.91797 102.07609,103.97488 0 0 0 -65.32618,-96.832032 z m -13.01562,28.994142 -4.19141,9.33398 a 60.710339,61.83966 0 0 1 41.16797,58.50391 60.710339,61.83966 0 0 1 -41.35547,58.57031 l 4.1875,9.32813 a 70.963387,72.283433 0 0 0 47.41993,-67.89844 70.963387,72.283433 0 0 0 -47.22852,-67.83789 z m -12.76758,28.43945 -4.48828,9.99609 a 29.597647,30.148214 0 0 1 23.11914,29.40235 29.597647,30.148214 0 0 1 -23.3125,29.45508 l 4.46875,9.95507 a 40.204246,40.952116 0 0 0 29.45117,-39.41015 40.204246,40.952116 0 0 0 -29.23828,-39.39844 z"
       transform="scale(0.26458333)" />
  </g>
</svg>
