<?xml version="1.0" encoding="UTF-8" standalone="no"?>
<!-- Created with Inkscape (http://www.inkscape.org/) -->

<svg
   width="309"
   height="348"
   viewBox="0 0 81.756248 92.075003"
   version="1.1"
   id="svg5"
   inkscape:version="1.1 (c68e22c387, 2021-05-23)"
   sodipodi:docname="logo_zigbee.svg"
   inkscape:export-filename="C:\Users\jfridisch\ownCloud\Git\jmqtt-crash-doc-logs\nouveau logo jmqtt\logo_eq.png"
   inkscape:export-xdpi="96"
   inkscape:export-ydpi="96"
   xmlns:inkscape="http://www.inkscape.org/namespaces/inkscape"
   xmlns:sodipodi="http://sodipodi.sourceforge.net/DTD/sodipodi-0.dtd"
   xmlns="http://www.w3.org/2000/svg"
   xmlns:svg="http://www.w3.org/2000/svg">
  <sodipodi:namedview
     id="namedview7"
     pagecolor="#505050"
     bordercolor="#ffffff"
     borderopacity="1"
     inkscape:pageshadow="0"
     inkscape:pageopacity="0"
     inkscape:pagecheckerboard="1"
     inkscape:document-units="px"
     showgrid="false"
     units="px"
     inkscape:zoom="2"
     inkscape:cx="89.25"
     inkscape:cy="174.75"
     inkscape:window-width="1920"
     inkscape:window-height="1017"
     inkscape:window-x="1912"
     inkscape:window-y="-8"
     inkscape:window-maximized="1"
     inkscape:current-layer="svg5" />
  <defs
     id="defs2">
    <linearGradient
       id="linearGradient4161"
       inkscape:swatch="solid">
      <stop
         style="stop-color:#ffff00;stop-opacity:1;"
         offset="0"
         id="stop4159" />
    </linearGradient>
    <filter
       style="color-interpolation-filters:sRGB;"
       inkscape:label="Drop Shadow"
       id="filter32959"
       x="-0.040000031"
       y="-0.14000011"
       width="1.1800001"
       height="1.1800001">
      <feFlood
         flood-opacity="0.498039"
         flood-color="rgb(0,0,0)"
         result="flood"
         id="feFlood32949" />
      <feComposite
         in="flood"
         in2="SourceGraphic"
         operator="in"
         result="composite1"
         id="feComposite32951" />
      <feGaussianBlur
         in="composite1"
         stdDeviation="1"
         result="blur"
         id="feGaussianBlur32953" />
      <feOffset
         dx="6"
         dy="-6"
         result="offset"
         id="feOffset32955" />
      <feComposite
         in="offset"
         in2="offset"
         operator="atop"
         result="composite2"
         id="feComposite32957" />
    </filter>
    <radialGradient
       id="a"
       cx="128"
       cy="128"
       r="128"
       fx="128"
       fy="128"
       gradientTransform="scale(2.34528)"
       gradientUnits="userSpaceOnUse">
      <stop
         offset="0%"
         stop-color="#DC001F"
         id="stop29052" />
      <stop
         offset="64.2%"
         stop-color="#D5001D"
         id="stop29054" />
      <stop
         offset="82.4%"
         stop-color="#AE0017"
         id="stop29056" />
      <stop
         offset="100%"
         stop-color="#590E0A"
         id="stop29058" />
    </radialGradient>
    <linearGradient
       id="b"
       x1="83.400002"
       x2="83.5"
       y1="125.4"
       y2="11"
       gradientTransform="scale(3.58094,1.53596)"
       gradientUnits="userSpaceOnUse">
      <stop
         offset="0%"
         stop-color="#D4001C"
         id="stop29061" />
      <stop
         offset="53.1%"
         stop-color="#EC8A6C"
         id="stop29063" />
      <stop
         offset="88.8%"
         stop-color="#FCEFE7"
         id="stop29065" />
      <stop
         offset="100%"
         stop-color="#FDF7F1"
         id="stop29067" />
    </linearGradient>
  </defs>
  <g
     transform="matrix(0.12092879,0,0,0.12092879,-12.848361,-30.002427)"
     id="layer1-5">
    <g
       stroke-width="4.2"
       id="g29078"
       transform="matrix(2.5702336,0,0,2.6684448,258.66214,309.88336)">
      <path
         id="path29072"
         style="fill:#f8d800;fill-opacity:1;stroke-width:1.01107"
         d="m -60.494141,109.9375 a 72.218998,72.218998 0 0 0 -41.044919,21.55469 350.49999,350.49999 0 0 1 82.103513,-2.68946 21.2,21.2 0 0 1 19.00000012,20.69922 c 0,0 -16.19843812,17.10039 -35.39843712,35.90039 -19.6,19.3 -36,37.70118 -36,37.70118 l -1,1.19921 a 426.29999,426.29999 0 0 0 83.324218,-3.77929 72.218998,72.218998 0 0 0 11.513672,-39.10156 72.218998,72.218998 0 0 0 -82.498047,-71.48438 z m 12.363282,25 a 415.69999,415.69999 0 0 0 -20.703125,0.36523 425.59999,425.59999 0 0 0 -39.220706,3.70899 72.218998,72.218998 0 0 0 -14.38086,42.41016 A 72.218998,72.218998 0 0 0 4,228.01367 a 344.69999,344.69999 0 0 1 -86.435547,2.58985 c -6.1,-1.2 -17.798833,-6.60118 -17.798833,-20.20118 1.600005,-2.1 19.000005,-19.50039 38.000005,-38.40039 a 642.99999,642.99999 0 0 0 34.798828,-36.39843 415.69999,415.69999 0 0 0 -20.695312,-0.66602 z"
         transform="translate(122.43489,-107.5028)" />
    </g>
    <path
       d="M 317.44839,962.14689 A 72.929724,75.716443 0 0 1 275.65073,938.5042 c 0,-1.19709 18.01623,-20.20103 19.02514,-20.20103 0.43239,0 2.8826,1.79565 5.62106,4.04022 5.62107,4.63874 14.70126,9.57677 20.61059,11.07315 2.88259,0.74818 6.19757,1.04746 10.6656,0.89781 5.90932,-0.29926 7.06237,-0.59855 11.53039,-2.69346 2.59435,-1.34674 6.34171,-3.89057 8.07128,-5.53659 a 40.500499,42.048064 0 0 0 10.08909,-34.11727 l -4.90042,4.04019 a 42.374188,43.993348 0 0 1 -27.9612,11.37244 c -28.82597,1.49636 -49.14829,-18.55503 -52.03089,-50.87667 -2.4502,-26.48579 8.2154,-49.97884 27.09642,-59.85488 6.62998,-3.44168 12.10692,-4.93804 20.46645,-5.23732 12.97169,-0.59855 21.61949,2.69347 30.98793,11.97098 2.88259,2.99275 5.62106,5.08767 5.76519,4.78839 0.28826,-0.14963 0.43239,-3.74094 0.43239,-7.6315 v -7.48186 l 14.98951,0.29928 15.13364,0.14963 v 53.86941 c 0,49.38029 0,54.31831 -1.15304,60.75272 -3.74737,21.6974 -11.81866,36.06258 -25.94338,45.63936 -11.96278,8.08041 -30.26727,11.52207 -46.69809,8.37969 z m 27.67295,-84.09614 c 11.53039,-5.98549 17.72797,-20.94921 15.13362,-36.06257 -2.88259,-16.01119 -13.25993,-25.2887 -27.81706,-24.39087 -14.70124,0.74818 -24.64622,13.46736 -24.64622,31.12455 0,14.96372 7.49477,26.93469 19.16929,30.9749 1.72955,0.59856 4.90041,0.89783 8.35953,0.7482 a 18.736886,19.452841 0 0 0 9.80084,-2.39421 z m 117.03343,28.43109 c -6.48579,-1.19711 -13.40406,-4.93804 -18.44858,-9.72643 -2.3061,-2.24455 -4.32391,-4.0402 -4.75631,-4.0402 -0.57648,0 -0.72061,2.09493 -0.72061,6.43439 v 6.28476 h -15.13366 l -14.98953,-0.29927 -0.14412,-74.22006 c -0.28827,-69.28204 -0.14412,-74.36971 0.86478,-75.1179 0.86478,-0.59855 4.75629,-0.89782 14.26887,-0.89782 7.20648,0 13.5482,0.14963 13.98059,0.44891 1.00891,0.29927 1.15307,2.99274 1.15307,24.09159 0,13.61699 0.14413,23.94196 0.57647,24.09161 0.28827,0.29926 2.16196,-0.89784 4.03564,-2.54385 a 40.356369,41.898426 0 0 1 29.8349,-9.57678 c 6.77413,0.29928 8.64781,0.59855 13.25993,2.39421 a 52.89567,54.916867 0 0 1 33.43814,54.16867 55.490008,57.610337 0 0 1 -16.71904,44.44226 45.112656,46.836456 0 0 1 -40.3564,14.06591 z m 6.91828,-26.63545 c 7.92714,-1.79564 13.83646,-6.8833 17.72798,-14.96372 11.53037,-24.24122 -4.90046,-52.37303 -27.67295,-47.43499 -13.25995,2.84311 -21.61949,14.51481 -21.61949,30.37636 0,7.48185 0.86481,11.82133 3.45911,17.20827 a 25.222731,26.186517 0 0 0 28.10535,14.96373 z m 109.827,26.93471 a 62.696502,65.092199 0 0 1 -23.34907,-8.0804 75.379934,78.260278 0 0 1 -19.45753,-20.79958 c -8.79195,-16.4601 -9.36843,-37.4093 -1.44129,-54.76724 5.04452,-11.07316 13.25994,-19.45283 25.36686,-25.88723 a 50.157202,52.07376 0 0 1 27.96115,-5.98549 c 10.80973,0.44891 16.86323,1.94527 24.64621,5.98549 9.65669,4.93802 17.29555,12.71916 22.34014,22.89449 4.468,8.97824 7.92721,24.24124 5.76527,25.88725 -0.43246,0.4489 -17.29569,6.13513 -37.32965,12.71915 -22.19604,7.48188 -36.32079,12.4199 -36.32079,12.86881 0,1.04746 4.75632,5.08767 8.21537,6.88333 a 31.708576,32.920193 0 0 0 7.20653,2.24455 c 8.35956,1.49636 20.03408,-2.24455 27.96118,-8.97823 2.01783,-1.79566 4.03567,-3.29202 4.32389,-3.29202 0.28835,0 4.32401,4.18983 8.79189,9.12785 7.06242,7.78115 8.07133,9.27752 7.49488,10.47462 a 65.579099,68.084943 0 0 1 -52.17504,18.70465 z m 0.8648,-64.79292 c 30.69958,-10.32497 31.27616,-10.4746 31.27616,-11.52207 0,-1.64601 -6.62996,-7.78114 -10.80973,-9.87606 a 25.943379,26.934702 0 0 0 -17.29569,-2.24456 c -13.69228,2.8431 -23.34898,13.01844 -24.21378,25.43835 -0.28827,3.89057 0,4.48911 0.72067,4.48911 0.57654,0 9.6567,-2.84311 20.32237,-6.28477 z m 119.05124,64.49366 c -13.83647,-2.3942 -23.49318,-7.33224 -32.42918,-16.75937 a 53.328059,55.365778 0 0 1 -15.56608,-43.54445 56.210657,58.358523 0 0 1 6.05337,-24.69015 c 2.45029,-5.38693 3.89155,-7.48185 8.93613,-12.41988 6.9183,-7.33223 13.69236,-11.67171 23.06083,-14.96373 l 6.62995,-2.54383 h 11.38631 a 47.562864,49.380289 0 0 1 26.95227,5.68622 52.17502,54.168681 0 0 1 27.96118,39.3546 c 2.16195,10.47459 6.19761,7.78113 -31.85273,20.50029 l -37.32966,12.27025 c -2.30606,0.74819 -4.03567,1.64602 -4.03567,2.24456 0,1.49638 5.76528,6.13513 9.51259,7.48187 10.3774,4.18983 24.21388,1.04746 33.72646,-7.48187 1.87371,-1.79565 3.74731,-2.99274 4.32389,-2.99274 1.00891,0.29928 16.575,17.35792 16.575,18.40537 0,2.24457 -11.2422,10.77388 -19.31353,14.51482 a 65.867359,68.384218 0 0 1 -34.73524,4.93804 z m 7.63887,-66.28931 c 13.54825,-4.48912 25.07867,-8.52932 25.65512,-8.97823 0.72069,-0.74819 0.28835,-1.49637 -2.45017,-4.48912 -4.17977,-4.48911 -8.50366,-7.03295 -14.41292,-8.37969 -5.33293,-1.19709 -9.22438,-0.89781 -15.27787,1.19711 -11.24207,3.74093 -18.73683,13.01843 -20.03397,24.69013 -0.43246,3.74094 -0.28835,4.04022 0.72057,4.04022 0.72069,0 12.25111,-3.59131 25.94334,-8.08042 z m -580.55519,64.79292 c -0.28827,-0.14963 -0.43239,-5.98548 -0.43239,-12.56952 v -12.27025 l 1.72955,-2.3942 24.93448,-29.3289 c 12.68343,-14.96372 23.06079,-27.53325 23.06079,-28.13179 0.28825,-0.74819 -3.45912,-0.89783 -21.90775,-0.89783 -18.3045,0 -22.48427,0 -23.06079,-0.89782 -0.57651,-0.59855 -0.72064,-4.63877 -0.57651,-12.8688 l 0.14413,-11.97099 43.23896,-0.29927 c 34.30292,0 43.52722,0 43.95963,0.74818 0.57651,0.89783 0.57651,21.84703 0,23.34342 -0.28827,0.59854 -11.81866,14.51481 -25.65513,30.82527 -13.9806,16.31046 -25.22272,29.92745 -25.22272,30.07708 0,0.29928 11.96276,0.74819 26.80814,0.89782 l 26.80816,0.29928 0.28827,13.01844 v 12.86879 H 173.3185 a 1324.5537,1375.1663 0 0 1 -47.2746,-0.44891 z m 107.37677,-0.59854 c -0.43239,-1.49638 -0.43239,-108.78628 0,-110.133 0.43238,-0.89783 2.30608,-1.04748 15.56603,-1.04748 h 15.13363 v 112.22793 h -15.13363 c -13.25995,0 -15.13365,0 -15.56603,-1.04745 z M 245.09519,783.7793 c -8.6478,-2.24457 -14.12472,-9.12788 -14.12472,-18.10611 0,-7.6315 2.88258,-13.01844 9.22431,-16.4601 2.8826,-1.79564 4.03563,-2.09491 8.64779,-2.09491 4.03564,0 5.7652,0.44891 7.78301,1.49636 3.74737,2.09492 6.62998,5.38695 8.6478,9.57679 1.29716,2.99275 1.44129,4.33948 1.15304,8.52932 -0.28826,5.2373 -2.01782,8.97823 -5.47695,12.56952 a 19.457535,20.201027 0 0 1 -15.85428,4.48913 z"
       id="path29080"
       style="fill:#f8d800;fill-opacity:1;stroke-width:1.46858" />
  </g>
</svg>
