<?xml version="1.0" encoding="UTF-8" standalone="no"?>
<!-- Svg Vector Icons : http://www.onlinewebfonts.com/icon -->

<svg
   xmlns:dc="http://purl.org/dc/elements/1.1/"
   xmlns:cc="http://creativecommons.org/ns#"
   xmlns:rdf="http://www.w3.org/1999/02/22-rdf-syntax-ns#"
   xmlns:svg="http://www.w3.org/2000/svg"
   xmlns="http://www.w3.org/2000/svg"
   xmlns:sodipodi="http://sodipodi.sourceforge.net/DTD/sodipodi-0.dtd"
   xmlns:inkscape="http://www.inkscape.org/namespaces/inkscape"
   version="1.1"
   x="0px"
   y="0px"
   viewBox="0 0 309 309"
   enable-background="new 0 0 1000 1000"
   xml:space="preserve"
   id="svg32"
   sodipodi:docname="73e5ffc5fa175af8b15ed0a5c124b489(1).svg"
   inkscape:version="0.92.3 (2405546, 2018-03-11)"
   width="309"
   height="309"><defs
   id="defs36" /><sodipodi:namedview
   pagecolor="#ffffff"
   bordercolor="#666666"
   borderopacity="1"
   objecttolerance="10"
   gridtolerance="10"
   guidetolerance="10"
   inkscape:pageopacity="0"
   inkscape:pageshadow="2"
   inkscape:window-width="2493"
   inkscape:window-height="1385"
   id="namedview34"
   showgrid="false"
   inkscape:zoom="1.4142136"
   inkscape:cx="12.680422"
   inkscape:cy="248.80052"
   inkscape:window-x="67"
   inkscape:window-y="27"
   inkscape:window-maximized="1"
   inkscape:current-layer="svg32" />
<metadata
   id="metadata2"> Svg Vector Icons : http://www.onlinewebfonts.com/icon <rdf:RDF><cc:Work
     rdf:about=""><dc:format>image/svg+xml</dc:format><dc:type
       rdf:resource="http://purl.org/dc/dcmitype/StillImage" /><dc:title></dc:title></cc:Work></rdf:RDF></metadata>
<g
   id="g30"
   transform="matrix(0.31530874,0,0,0.31518125,-3.1542226,-3.0903846)"
   style="fill:#f8d800;fill-opacity:1"><g
     transform="matrix(0.1,0,0,-0.1,0,512)"
     id="g28"
     style="fill:#f8d800;fill-opacity:1"><path
       d="M 4526.1,5008.9 C 3048.2,4857.5 1733.3,4065.8 899.5,2821.8 592.8,2361.8 305.3,1677.5 196,1138.8 113.6,724.8 98.2,575.3 100.2,113.3 c 0,-500.3 34.5,-785.9 149.5,-1226.8 90.1,-343.1 178.3,-580.8 356.5,-939.2 983.3,-1987.8 3181.9,-3068.8 5357.5,-2633.7 1623.6,325.8 2997.9,1481.7 3605.5,3036.2 203.3,523.3 306.8,1025.5 327.8,1610.2 46,1326.4 -446.6,2605 -1374.4,3563.4 -772.4,797.3 -1727,1288 -2836.8,1458.6 -239.6,36.5 -914.4,53.7 -1159.7,26.9 z m 1083,-776.3 c 1341.8,-203.2 2516.8,-1061.9 3111,-2275.3 193.6,-392.9 302.9,-739.9 381.5,-1201.9 57.5,-341.2 57.5,-923.9 0,-1265.1 -134.2,-789.7 -439,-1454.9 -939.2,-2051 -531,-634.5 -1303.4,-1123.3 -2104.7,-1332.2 -383.4,-99.7 -636.4,-130.3 -1061.9,-130.3 -425.5,0 -678.5,30.7 -1061.9,130.3 -799.3,208.9 -1569.9,693.9 -2106.6,1332.2 -1259.4,1497 -1316.9,3622.8 -139.9,5194.6 174.4,233.9 563.5,623 797.4,797.4 621,463.9 1353.3,753.3 2118.1,831.9 231.8,23 758.9,7.7 1006.2,-30.6 z"
       id="path4"
       inkscape:connector-curvature="0"
       style="fill:#f8d800;fill-opacity:1" /><path
       d="m 4919,3233.9 c -15.3,-5.7 -47.9,-28.8 -70.9,-49.8 -44.1,-38.3 -44.1,-40.3 -44.1,-676.6 0,-350.8 5.7,-651.7 11.5,-669 15.3,-36.4 105.4,-86.3 161,-86.3 23,0 67.1,24.9 97.8,55.6 l 55.6,55.6 v 615.3 c 0,343.1 -7.7,634.5 -19.2,661.3 -9.6,26.8 -44.1,61.3 -74.8,78.6 -61.3,30.6 -70.9,32.6 -116.9,15.3 z"
       id="path6"
       inkscape:connector-curvature="0"
       style="fill:#f8d800;fill-opacity:1" /><path
       d="m 3347.2,2812.2 c -15.3,-5.8 -47.9,-28.8 -70.9,-49.8 -84.3,-74.8 -65.2,-128.4 235.8,-647.9 153.3,-266.4 293.3,-494.5 310.5,-509.9 53.7,-40.2 153.3,-30.7 205.1,23 86.3,84.3 70.9,128.4 -233.9,655.6 -302.8,523.2 -339.2,567.3 -446.6,529 z"
       id="path8"
       inkscape:connector-curvature="0"
       style="fill:#f8d800;fill-opacity:1" /><path
       d="m 6385.4,2808.4 c -21.1,-9.6 -51.8,-32.6 -69,-51.8 -57.5,-65.2 -573.1,-973.7 -573.1,-1010.2 0,-49.8 51.8,-141.9 86.3,-155.3 57.5,-21.1 139.9,-11.5 178.3,23 32.6,26.8 467.7,762.9 567.4,958.4 46,88.2 24.9,168.7 -51.8,216.6 -67.2,40.4 -80.6,42.3 -138.1,19.3 z"
       id="path10"
       inkscape:connector-curvature="0"
       style="fill:#f8d800;fill-opacity:1" /><path
       d="m 2197.2,1662.1 c -69,-24.9 -115,-90.1 -115,-159.1 0,-47.9 13.4,-82.4 44.1,-109.3 23,-23 199.4,-132.3 392.9,-243.4 387.2,-224.3 442.8,-239.6 521.4,-155.2 49.8,53.7 61.3,159.1 23,207 -42.2,49.8 -807,483 -833.8,471.5 -2,0 -17.3,-5.7 -32.6,-11.5 z"
       id="path12"
       inkscape:connector-curvature="0"
       style="fill:#f8d800;fill-opacity:1" /><path
       d="m 7545.1,1662.1 c -70.9,-26.8 -757.1,-433.2 -780.2,-461.9 -40.2,-53.7 -30.7,-153.3 23,-205.1 82.4,-84.3 136.1,-67.1 546.3,170.6 396.8,230 435.1,266.4 412.1,377.6 -17.2,78.6 -130.3,145.7 -201.2,118.8 z"
       id="path14"
       inkscape:connector-curvature="0"
       style="fill:#f8d800;fill-opacity:1" /><path
       d="M 6456.3,251.3 C 6280,132.5 5925.3,-109.1 5666.6,-283.5 l -469.6,-318.2 -57.5,28.8 c -88.2,47.9 -293.3,55.6 -408.3,17.2 -224.3,-74.7 -377.6,-293.3 -375.7,-538.6 0,-164.9 47.9,-279.9 161,-392.9 113.1,-113.1 228.1,-161 392.9,-161 331.6,-3.8 582.7,262.6 561.6,594.2 l -7.7,122.7 772.5,523.3 C 7085,165.1 7092.6,170.9 7048.5,316.6 7019.7,412.4 6946.9,468 6853,468 6789.9,467.9 6728.5,435.3 6456.3,251.3 Z"
       id="path16"
       inkscape:connector-curvature="0"
       style="fill:#f8d800;fill-opacity:1" /><path
       d="m 1794.6,-270 v -661.3 h 431.3 433.2 l -5.8,120.8 -5.7,118.8 -272.2,5.8 -274.1,5.7 v 151.4 151.4 l 245.3,5.8 243.4,5.8 5.7,120.8 5.8,118.8 H 2350.4 2101.2 V 7.9 142.1 h 258.8 258.8 v 124.6 124.6 h -412.1 -412.1 z"
       id="path18"
       inkscape:connector-curvature="0"
       style="fill:#f8d800;fill-opacity:1" /><path
       d="m 7372.6,-270 v -661.3 h 153.3 153.3 v 268.3 268.3 h 239.6 239.6 v 115 113.1 l -233.9,5.8 -235.8,5.8 -5.7,149.5 -5.8,147.6 h 260.7 258.8 V 266.7 391.3 H 7784.6 7372.5 V -270 Z"
       id="path20"
       inkscape:connector-curvature="0"
       style="fill:#f8d800;fill-opacity:1" /><path
       d="M 3788.1,-2733.2 V -2944 h 210.9 210.9 v 210.8 210.8 H 3999 3788.2 v -210.8 z"
       id="path22"
       inkscape:connector-curvature="0"
       style="fill:#f8d800;fill-opacity:1" /><path
       d="M 4784.9,-2733.2 V -2944 h 210.8 210.9 v 210.8 210.8 h -210.9 -210.8 z"
       id="path24"
       inkscape:connector-curvature="0"
       style="fill:#f8d800;fill-opacity:1" /><path
       d="M 5781.6,-2733.2 V -2944 h 210.8 210.9 v 210.8 210.8 h -210.9 -210.8 z"
       id="path26"
       inkscape:connector-curvature="0"
       style="fill:#f8d800;fill-opacity:1" /></g></g>
</svg>