<?xml version="1.0" encoding="UTF-8" standalone="no"?>
<!-- Created with Inkscape (http://www.inkscape.org/) -->

<svg
   version="1.1"
   id="svg2"
   width="307"
   height="352"
   viewBox="0 0 307 352"
   sodipodi:docname="node_location.svg"
   inkscape:version="1.1 (c68e22c387, 2021-05-23)"
   xmlns:inkscape="http://www.inkscape.org/namespaces/inkscape"
   xmlns:sodipodi="http://sodipodi.sourceforge.net/DTD/sodipodi-0.dtd"
   xmlns="http://www.w3.org/2000/svg"
   xmlns:svg="http://www.w3.org/2000/svg">
  <defs
     id="defs6" />
  <sodipodi:namedview
     id="namedview4"
     pagecolor="#505050"
     bordercolor="#ffffff"
     borderopacity="1"
     inkscape:pageshadow="0"
     inkscape:pageopacity="0"
     inkscape:pagecheckerboard="1"
     showgrid="false"
     inkscape:zoom="2.3636364"
     inkscape:cx="119.94231"
     inkscape:cy="175.78846"
     inkscape:window-width="1920"
     inkscape:window-height="1017"
     inkscape:window-x="1912"
     inkscape:window-y="-8"
     inkscape:window-maximized="1"
     inkscape:current-layer="layer1" />
  <g
     inkscape:groupmode="layer"
     id="layer1"
     inkscape:label="all">
    <path
       id="path1524"
       style="display:inline;fill:#f8d800;fill-opacity:1"
       d="M 153.5,22 C 122.25665,22 97.58277,32.160556 75.939453,53.941406 61.827887,68.142643 52.298595,85.521154 47.267578,106.22656 c -2.676992,11.01729 -2.384822,39.98284 0.529297,52.37305 7.72361,32.83912 22.454862,64.35565 46.619141,99.73633 4.445812,6.50944 8.758984,12.82932 9.583984,14.04492 6.29035,9.26859 22.84898,29.55894 36.20898,44.36914 6.57391,7.2875 12.55488,13.25 13.29102,13.25 2.768,0 39.08759,-42.27684 49.5,-57.61914 0.825,-1.2156 5.13816,-7.53548 9.58398,-14.04492 24.16427,-35.38068 38.89553,-66.89721 46.61914,-99.73633 2.91413,-12.39021 3.20629,-41.35576 0.5293,-52.37305 C 254.70141,85.521155 245.17211,68.142643 231.06055,53.941406 209.41723,32.160556 184.74335,22 153.5,22 Z m 1.75977,32.953125 c 25.7076,0.625907 50.34025,14.124957 63.64257,37.375 18.14911,31.721335 10.61343,73.222665 -17.42578,95.970705 -8.28203,6.71916 -22.12586,13.24784 -31.97656,15.08008 -9.59099,1.78394 -15.78105,2.36054 -20.5,1.91015 -21.88359,-2.08862 -41.70123,-12.21659 -54.160156,-27.68164 -5.768769,-7.16068 -12.18606,-19.91398 -14.367188,-28.55078 -8.85613,-35.0684 7.899201,-71.3556 40.027344,-86.685546 11.16651,-5.3281 23.07449,-7.702472 34.75977,-7.417969 z M 153.5,67.53125 c -8.16996,0 -16.34073,3.241164 -22.62891,9.720703 -11.63968,11.993899 -12.519,29.695447 -2.09961,42.248047 3.38459,4.07754 11.11566,9.48729 13.6543,9.55469 1.14069,0.0303 -1.21055,0.91517 -5.22461,1.96679 -12.8583,3.36867 -25.16022,11.1641 -32.71094,20.72657 -6.4512,8.17001 -6.538598,9.20645 -1.35156,15.93359 8.37117,10.85668 21.01411,19.3469 33.86133,22.73633 7.39932,1.95209 25.00242,1.98466 32.53906,0.0606 13.18257,-3.36552 25.80349,-11.74876 34.32227,-22.79688 5.18704,-6.72714 5.09964,-7.76358 -1.35156,-15.93359 -7.55072,-9.56247 -19.85264,-17.3579 -32.71094,-20.72657 -4.01406,-1.05162 -6.3653,-1.93649 -5.22461,-1.96679 2.53864,-0.0674 10.26971,-5.47715 13.6543,-9.55469 10.41939,-12.5526 9.54007,-30.254148 -2.09961,-42.248047 C 169.84073,70.772414 161.66996,67.53125 153.5,67.53125 Z" />
  </g>
</svg>
