<svg width="309" height="348" version="1.1" viewBox="0 0 81.756 92.075" xmlns="http://www.w3.org/2000/svg" xmlns:xlink="http://www.w3.org/1999/xlink"><defs><linearGradient id="a" x1="-10.98" x2="61.617" y1="16.912" y2="90.174" gradientTransform="translate(15.343 -12.747)" gradientUnits="userSpaceOnUse"><stop stop-color="#feefb4" offset="0"/><stop stop-color="#f9dc1f" offset=".5"/><stop stop-color="#fec400" offset="1"/></linearGradient><filter id="b" x="-.04" y="-.14" width="1.18" height="1.18" color-interpolation-filters="sRGB"><feFlood flood-color="rgb(0,0,0)" flood-opacity=".49804" result="flood"/><feComposite in="flood" in2="SourceGraphic" operator="in" result="composite1"/><feGaussianBlur in="composite1" result="blur" stdDeviation="1"/><feOffset dx="6" dy="-6" result="offset"/><feComposite in="offset" in2="offset" operator="atop" result="composite2"/></filter></defs><g><rect x=".071958" y="1.7764e-15" width="81.684" height="81.718" rx="17" ry="17" fill="url(#a)" style="paint-order:fill markers stroke"/><path transform="matrix(.98931 0 0 1.0606 -2.0309 3.6025)" d="m14 11c-1.662 0-3.0003 1.3383-3.0003 3.0003a57 57 0 0 1 57 57c1.662 0 2.9998-1.3378 2.9998-2.9998v-18.872a64 64 0 0 0-38.128-38.128zm34.889 0a71 71 0 0 1 22.11 22.111v-19.11c0-1.662-1.3378-3.0003-2.9998-3.0003zm-37.89 9.9999v7.5003a42.5 42.5 0 0 1 42.5 42.5h7.4998a50 50 0 0 0-50-50zm0 15v32c0 1.662 1.3383 2.9998 3.0003 2.9998h32a35 35 0 0 0-35-35zm12.148 11.223a2.5 2.5 0 0 1 2.5001 2.5001 2.5 2.5 0 0 1-1.5601 2.3156l0.81649 3.9987-0.75603 0.154-0.81132-3.9755a2.5 2.5 0 0 1-0.18914 0.0067 2.5 2.5 0 0 1-2.5001-2.4996 2.5 2.5 0 0 1 2.5001-2.5001zm8.4057 2.4613a2.0071 2.0071 0 0 1 2.0071 2.0071 2.0071 2.0071 0 0 1-2.0071 2.0071 2.0071 2.0071 0 0 1-0.74879-0.14521l-2.8148 3.5662-0.60513-0.47749 2.7714-3.5114a2.0071 2.0071 0 0 1-0.60978-1.4392 2.0071 2.0071 0 0 1 2.0071-2.0071zm-12.721 5.3154a1.8159 1.8159 0 0 1 1.8159 1.8159 1.8159 1.8159 0 0 1-0.06098 0.46302l1.4981 0.65887-0.20671 0.63459-1.5756-0.69298a1.8159 1.8159 0 0 1-1.4707 0.75241 1.8159 1.8159 0 0 1-1.8159-1.8159 1.8159 1.8159 0 0 1 1.8159-1.8159zm6.6198 1.6981a3.0975 3.0975 0 0 1 3.0975 3.0975 3.0975 3.0975 0 0 1-3.0975 3.0975 3.0975 3.0975 0 0 1-3.0975-3.0975 3.0975 3.0975 0 0 1 3.0975-3.0975zm3.1941 4.9372 2.8996 2.143a1.8598 1.8598 0 0 1 1.2614-0.49351 1.8598 1.8598 0 0 1 1.8598 1.8598 1.8598 1.8598 0 0 1-1.8598 1.8598 1.8598 1.8598 0 0 1-1.8598-1.8598 1.8598 1.8598 0 0 1 0.15296-0.73587l-2.9125-2.1534zm-6.3851 0.09353 0.4718 0.6103-2.989 2.3136a2.4289 2.4289 0 0 1 0.19844 0.9617 2.4289 2.4289 0 0 1-2.4288 2.4288 2.4289 2.4289 0 0 1-2.4288-2.4288 2.4289 2.4289 0 0 1 2.4288-2.4288 2.4289 2.4289 0 0 1 1.8138 0.81391z" fill="#fff" filter="url(#b)" opacity=".7" style="paint-order:fill markers stroke"/><path transform="scale(.26458)" d="m52.914 41.574c-6.2816 0-11.34 5.0583-11.34 11.34a215.43 215.43 0 0 1 215.43 215.43c6.2816 0 11.338-5.0563 11.338-11.338v-71.328a241.89 241.89 0 0 0-144.11-144.11zm131.87 0a268.35 268.35 0 0 1 83.566 83.568v-72.229c0-6.2816-5.0563-11.34-11.338-11.34zm-143.21 37.795v28.348a160.63 160.63 0 0 1 160.63 160.63h28.346a188.98 188.98 0 0 0-188.98-188.98zm0 56.693v120.95c0 6.2816 5.0583 11.338 11.34 11.338h120.94a132.28 132.28 0 0 0-132.28-132.28zm45.912 42.416a9.4488 9.4488 0 0 1 9.4492 9.4492 9.4488 9.4488 0 0 1-5.8965 8.752l3.0859 15.113-2.8574 0.58203-3.0664-15.025a9.4488 9.4488 0 0 1-0.71484 0.0254 9.4488 9.4488 0 0 1-9.4492-9.4473 9.4488 9.4488 0 0 1 9.4492-9.4492zm31.77 9.3027a7.5858 7.5858 0 0 1 7.5859 7.5859 7.5858 7.5858 0 0 1-7.5859 7.5859 7.5858 7.5858 0 0 1-2.8301-0.54882l-10.639 13.479-2.2871-1.8047 10.475-13.271a7.5858 7.5858 0 0 1-2.3047-5.4394 7.5858 7.5858 0 0 1 7.5859-7.5859zm-48.08 20.09a6.8634 6.8634 0 0 1 6.8633 6.8633 6.8634 6.8634 0 0 1-0.23047 1.75l5.6621 2.4902-0.78125 2.3984-5.9551-2.6191a6.8634 6.8634 0 0 1-5.5586 2.8438 6.8634 6.8634 0 0 1-6.8633-6.8633 6.8634 6.8634 0 0 1 6.8633-6.8633zm25.02 6.418a11.707 11.707 0 0 1 11.707 11.707 11.707 11.707 0 0 1-11.707 11.707 11.707 11.707 0 0 1-11.707-11.707 11.707 11.707 0 0 1 11.707-11.707zm12.072 18.66 10.959 8.0996a7.0292 7.0292 0 0 1 4.7676-1.8652 7.0292 7.0292 0 0 1 7.0293 7.0293 7.0292 7.0292 0 0 1-7.0293 7.0293 7.0292 7.0292 0 0 1-7.0293-7.0293 7.0292 7.0292 0 0 1 0.57813-2.7812l-11.008-8.1387zm-24.133 0.35351 1.7832 2.3066-11.297 8.7441a9.18 9.18 0 0 1 0.75 3.6348 9.18 9.18 0 0 1-9.1797 9.1797 9.18 9.18 0 0 1-9.1797-9.1797 9.18 9.18 0 0 1 9.1797-9.1797 9.18 9.18 0 0 1 6.8555 3.0762z" fill="#fff" style="paint-order:fill markers stroke"/></g></svg>
