<?xml version="1.0" encoding="UTF-8" standalone="no"?>
<!-- Created with Inkscape (http://www.inkscape.org/) -->

<svg
   version="1.1"
   id="svg2898"
   width="307"
   height="352"
   viewBox="0 0 307 352"
   sodipodi:docname="node_humiditytemp.svg"
   inkscape:version="1.1 (c68e22c387, 2021-05-23)"
   xmlns:inkscape="http://www.inkscape.org/namespaces/inkscape"
   xmlns:sodipodi="http://sodipodi.sourceforge.net/DTD/sodipodi-0.dtd"
   xmlns="http://www.w3.org/2000/svg"
   xmlns:svg="http://www.w3.org/2000/svg">
  <defs
     id="defs2902" />
  <sodipodi:namedview
     id="namedview2900"
     pagecolor="#505050"
     bordercolor="#ffffff"
     borderopacity="1"
     inkscape:pageshadow="0"
     inkscape:pageopacity="0"
     inkscape:pagecheckerboard="1"
     showgrid="false"
     inkscape:zoom="1.6713433"
     inkscape:cx="89.449008"
     inkscape:cy="176.20557"
     inkscape:window-width="1920"
     inkscape:window-height="1017"
     inkscape:window-x="1912"
     inkscape:window-y="-8"
     inkscape:window-maximized="1"
     inkscape:current-layer="g2904" />
  <g
     inkscape:groupmode="layer"
     inkscape:label="Image"
     id="g2904">
    <path
       id="path845"
       style="fill:#f8d800;fill-opacity:1"
       d="m 121.64477,33.638804 c -1.85458,-0.0436 -3.64677,2.510459 -6.74219,7.630859 -5.44945,9.01442 -6.92462,16.251603 -4.5039,22.095703 2.56839,6.20067 10.56589,8.587813 17.5957,5.251953 4.80893,-2.28199 6.67088,-6.34384 6.1582,-13.43164 -0.34655,-4.79101 -1.24085,-7.049284 -5.39062,-13.589844 -3.34478,-5.27179 -5.26261,-7.913431 -7.11719,-7.957031 z m -65.146485,2.724609 c -1.854584,-0.0436 -3.646767,2.510459 -6.742187,7.630859 -5.44945,9.014421 -6.924627,16.251604 -4.503907,22.095704 2.568391,6.20067 10.565894,8.587813 17.595704,5.251953 4.80893,-2.28199 6.670883,-6.343841 6.158203,-13.431641 -0.34655,-4.79101 -1.240855,-7.049284 -5.390625,-13.589844 -3.34478,-5.27179 -5.262608,-7.913431 -7.117188,-7.957031 z m 193.785155,3.257813 c -1.85458,-0.0436 -3.64676,2.510459 -6.74219,7.630859 -5.44945,9.01442 -6.92462,16.251603 -4.5039,22.095703 2.56839,6.20067 10.56589,8.587813 17.5957,5.251953 4.80893,-2.28199 6.67088,-6.343843 6.1582,-13.431641 -0.34654,-4.791009 -1.24085,-7.049283 -5.39062,-13.589843 -3.34478,-5.27179 -5.26261,-7.91343 -7.11719,-7.957031 z m -134.24609,7.824218 c 0.18739,-0.0232 0.3026,0.226361 0.31445,0.806641 0.0272,1.33333 0.14115,1.33333 1.0293,0 0.70279,-1.05508 0.92041,0.573794 0.73437,5.490234 -0.21285,5.62487 -0.59131,7.052497 -1.94531,7.310547 -2.67327,0.50949 -4.06722,-3.178297 -2.85547,-7.554687 0.95622,-3.45351 2.16046,-5.982975 2.72266,-6.052735 z m 76.20898,1.150391 c -1.85459,-0.0436 -3.64676,2.510459 -6.74218,7.630859 -5.44945,9.01442 -6.92463,16.251603 -4.50391,22.095703 2.56839,6.20067 10.56589,8.587814 17.5957,5.251953 4.80893,-2.281989 6.67089,-6.34384 6.15821,-13.43164 -0.34655,-4.79101 -1.24086,-7.049284 -5.39063,-13.589844 -3.34478,-5.27179 -5.26261,-7.913429 -7.11719,-7.957031 z M 50.890863,50.170054 c 0.18739,-0.0232 0.302604,0.22636 0.314454,0.80664 0.0272,1.33333 0.141146,1.33333 1.029296,0 0.70279,-1.05508 0.920415,0.573795 0.734375,5.490235 -0.21285,5.62487 -0.591312,7.052497 -1.945312,7.310547 -2.67327,0.509489 -4.067219,-3.178298 -2.855469,-7.554688 0.95622,-3.45351 2.160456,-5.982974 2.722656,-6.052734 z m 193.785157,3.257812 c 0.18739,-0.0232 0.3026,0.226361 0.31445,0.806641 0.0272,1.33333 0.14115,1.33333 1.0293,0 0.70279,-1.05508 0.92042,0.573794 0.73438,5.490234 -0.21285,5.624868 -0.59132,7.052497 -1.94532,7.310547 -2.67327,0.50949 -4.06722,-3.1783 -2.85547,-7.554688 0.95622,-3.45351 2.16046,-5.982974 2.72266,-6.052734 z m -58.03711,8.97461 c 0.18739,-0.0232 0.3026,0.22636 0.31445,0.80664 0.0272,1.33333 0.14115,1.33333 1.0293,0 0.70279,-1.05508 0.92042,0.573794 0.73438,5.490234 -0.21285,5.624871 -0.59132,7.052497 -1.94532,7.310547 -2.67327,0.50949 -4.06722,-3.178297 -2.85547,-7.554687 0.95623,-3.45351 2.16046,-5.982974 2.72266,-6.052734 z m -47.58594,34.742187 c -8.12369,0.0999 -16.08956,3.470197 -21.50586,10.080077 -6.45327,7.87537 -6.42578,7.57875 -6.42578,70.92774 v 57.13281 l -5.82422,5.99023 c -13.857583,14.24988 -16.852821,33.8809 -7.980461,52.30469 2.816461,5.84848 11.967641,14.98098 19.025391,18.98633 10.96441,6.22244 27.46762,7.60095 39.77929,3.32227 17.32135,-6.01969 28.90293,-20.43149 31.5293,-39.23047 1.54652,-11.06958 -4.06727,-26.32301 -13.08789,-35.5625 l -5.44141,-5.57422 V 178.7931 c 0,-64.7363 0.0913,-63.87459 -7.61132,-72.10937 -6.05091,-6.46891 -14.33335,-9.638927 -22.45704,-9.539067 z m 1.48438,11.748047 c 4.75224,0.21635 9.81982,2.93986 13.02539,7.14258 l 2.55859,3.35352 v 61.06054 61.0625 l 4.97852,3.57617 c 5.90851,4.24484 11.45128,12.24782 13.09766,18.91016 1.64822,6.66972 0.70292,17.46184 -2.02344,23.09375 -3.0803,6.36304 -9.56405,12.73266 -16.33008,16.04297 -6.92273,3.38698 -19.57543,4.43016 -26.4375,2.17969 -14.30916,-4.69281 -23.8921,-16.56508 -25.00781,-30.97657 -0.81331,-10.50535 5.05703,-22.392 14.26562,-28.88281 l 4.45703,-3.14062 0.0215,-60.0586 c 0.0206,-56.38864 0.13648,-60.30707 1.88281,-64.15234 2.22187,-4.89237 7.50427,-8.47047 13.50195,-9.14649 0.65967,-0.0743 1.33087,-0.0954 2.00977,-0.0645 z m -76.261721,0.4668 c -1.854584,-0.0436 -3.646768,2.51046 -6.742188,7.63086 -5.449449,9.01443 -6.924626,16.2516 -4.503906,22.0957 2.568391,6.20067 10.565893,8.58781 17.595703,5.25195 4.80893,-2.28199 6.670883,-6.34384 6.158203,-13.43164 -0.346549,-4.79101 -1.240855,-7.04927 -5.390624,-13.58984 -3.344781,-5.27179 -5.262608,-7.91343 -7.117188,-7.95703 z m 158.484381,0.26562 c -1.85458,-0.0436 -3.64677,2.51046 -6.74219,7.63086 -5.44945,9.01442 -6.92268,16.25161 -4.50196,22.09571 2.56839,6.20068 10.56394,8.58781 17.59375,5.25195 4.80893,-2.28199 6.67089,-6.34384 6.15821,-13.43164 -0.34655,-4.79101 -1.2389,-7.04928 -5.38867,-13.58984 -3.34478,-5.27179 -5.26456,-7.91344 -7.11914,-7.95704 z M 58.668207,123.16615 c 0.18739,-0.0232 0.302603,0.22636 0.314453,0.80664 0.0272,1.33333 0.141147,1.33333 1.029297,0 0.70279,-1.05508 0.920415,0.57379 0.734375,5.49023 -0.21285,5.62487 -0.591312,7.0525 -1.945312,7.31055 -2.67327,0.50949 -4.067219,-3.1783 -2.855469,-7.55469 0.95622,-3.45351 2.160456,-5.98297 2.722656,-6.05273 z m 158.486333,0.26562 c 0.18739,-0.0232 0.30065,0.22636 0.3125,0.80664 0.0272,1.33334 0.1431,1.33333 1.03125,0 0.70279,-1.05508 0.91846,0.5738 0.73242,5.49024 -0.21285,5.62487 -0.59131,7.0525 -1.94531,7.31055 -2.67327,0.50949 -4.06722,-3.1783 -2.85547,-7.55469 0.95622,-3.45351 2.16241,-5.98298 2.72461,-6.05274 z m -80.03321,36.26758 v 3 3 h 7.5 7.5 v -3 -3 h -7.5 z m 7.5,22 c -7.33333,0 -7.5,0.0556 -7.5,2.5 0,2.4444 0.16667,2.5 7.5,2.5 7.33333,0 7.5,-0.0556 7.5,-2.5 0,-2.4444 -0.16667,-2.5 -7.5,-2.5 z m -7.5,22 v 3 3 h 7.5 7.5 v -3 -3 h -7.5 z m 0.22657,22 -0.43946,3 -0.4414,3 h 7.82812 7.82617 v -3 -3 h -7.38672 z" />
  </g>
</svg>
