<?xml version="1.0" encoding="UTF-8" standalone="no"?>
<!-- Created with Inkscape (http://www.inkscape.org/) -->

<svg
   version="1.1"
   id="svg2"
   width="307"
   height="352"
   viewBox="0 0 307 352"
   sodipodi:docname="node_teleinfo.svg"
   inkscape:version="1.1 (c68e22c387, 2021-05-23)"
   xmlns:inkscape="http://www.inkscape.org/namespaces/inkscape"
   xmlns:sodipodi="http://sodipodi.sourceforge.net/DTD/sodipodi-0.dtd"
   xmlns="http://www.w3.org/2000/svg"
   xmlns:svg="http://www.w3.org/2000/svg">
  <defs
     id="defs6" />
  <sodipodi:namedview
     id="namedview4"
     pagecolor="#505050"
     bordercolor="#ffffff"
     borderopacity="1"
     inkscape:pageshadow="0"
     inkscape:pageopacity="0"
     inkscape:pagecheckerboard="1"
     showgrid="false"
     inkscape:zoom="2.3636364"
     inkscape:cx="153.78846"
     inkscape:cy="176.21154"
     inkscape:window-width="1920"
     inkscape:window-height="1017"
     inkscape:window-x="1912"
     inkscape:window-y="-8"
     inkscape:window-maximized="1"
     inkscape:current-layer="g8" />
  <g
     inkscape:groupmode="layer"
     inkscape:label="Image"
     id="g8">
    <path
       style="fill:#f8d800;fill-opacity:1"
       d="m 17,302 v -4 H 32 47 V 278 258 H 60.5 74 v 20 20 H 79.5 85 V 278 258 H 98.5 112 v 20 20 h 24 24 v -20 -20 h 13.5 13.5 v 20 20 h 5.5 5.5 v -20 -20 h 13.5 13.5 v 20 20 h 5.5 5.5 v -20 -20 h 13.5 13.5 v 20 20 h 13 13 v 4 4 h -17 -17 v -20.55226 -20.55226 l -5.25,0.30226 -5.25,0.30226 -0.27071,20.25 -0.2707,20.25 H 230.47929 217 v -20.55226 -20.55226 l -5.25,0.30226 -5.25,0.30226 -0.27071,20.25 -0.2707,20.25 H 192.47929 179 v -20.55226 -20.55226 l -5.25,0.30226 -5.25,0.30226 -0.27071,20.25 -0.2707,20.25 H 136 104.04141 L 103.77071,285.75 103.5,265.5 98.25,265.19774 93,264.89548 V 285.44774 306 H 79.520705 66.041411 L 65.770705,285.75 65.5,265.5 60.25,265.19774 55,264.89548 V 285.44774 306 H 36 17 Z m 188.95606,-95.54677 c -4.35334,-4.63392 -12.73556,-10.55356 -16.36152,-11.55474 -4.23729,-1.16997 -6.14978,-3.99251 -4.62972,-6.83275 1.48305,-2.77111 1.27768,-12.26661 -0.31562,-14.59323 -0.74295,-1.08488 -1.63932,-3.16138 -1.99193,-4.61444 -0.35262,-1.45306 -4.46976,-6.47056 -9.1492,-11.15 C 168.82863,153.02863 165,148.52 165,147.68889 c 0,-0.8311 1.38453,-2.6761 3.07673,-4.1 3.8777,-3.26287 9.50797,-3.41922 18.20482,-0.50554 22.4774,7.53053 42.54626,28.35937 45.20482,46.91665 0.82247,5.74099 -1.54513,12 -4.53924,12 -1.11432,0 -4.36477,1.575 -7.22323,3.5 -6.34069,4.27007 -10.38854,4.55033 -13.76784,0.95323 z M 101,206 c -0.825,-0.53316 -3.1875,-0.97627 -5.25,-0.98469 C 93.6875,205.00689 92,204.55 92,204 c 0,-0.55 -1.2375,-1.02785 -2.75,-1.0619 -4.043011,-0.091 -9.241651,-7.49422 -9.273857,-13.2066 -0.02289,-4.05999 -0.407054,-6.01652 -3.04683,-15.51741 -0.654952,-2.35725 -0.988785,-4.48795 -0.741853,-4.73488 0.246932,-0.24694 2.218272,0.47901 4.380754,1.61321 3.376335,1.77086 5.203233,1.99595 12.931786,1.59333 13.40633,-0.6984 20.78709,-4.84215 27.92606,-15.67842 C 125.64684,150.60058 131.4957,146 135.42001,146 c 3.43169,0 5.91032,3.72337 7.3821,11.08933 3.09434,15.4864 1.17151,26.50758 -6.52689,37.41067 -2.57726,3.65012 -7.39722,6.96279 -15.9931,10.99175 C 116.64845,207.19488 103.38973,207.54436 101,206 Z M 85.5,132.3813 c -1.1,-0.28569 -3.907596,-1.38836 -6.239102,-2.45037 C 76.929393,128.86892 74.773671,128 74.470406,128 72.741239,128 58,116.18693 58,114.80124 c 0,-0.55689 -1.164497,-2.39645 -2.587771,-4.08792 -2.916379,-3.46592 -2.898962,-6.68733 0.08053,-14.895361 2.107279,-5.805214 4.69943,-8.238547 8.824003,-8.283368 C 67.035715,87.505041 67.546149,87.098905 67.81642,84.75 67.997529,83.176 68.745893,82 69.56642,82 70.54195,82 71,80.86583 71,78.45034 71,74.608253 73.419299,69 75.076707,69 c 0.56394,0 1.706374,1.6875 2.538741,3.75 5.495133,13.616237 12.516918,22.885441 19.432901,25.652669 3.280091,1.312432 6.126211,1.504128 14.757741,0.993986 10.55249,-0.623676 10.7252,-0.59824 13.05973,1.923395 2.48861,2.68805 3.87124,9.60714 2.78479,13.93591 -0.93419,3.72208 -10.07688,12.56643 -15.36273,14.86142 -3.50642,1.5224 -7.46434,2.17307 -14.78788,2.43108 -5.5,0.19376 -10.9,0.11854 -12,-0.16716 z m 141.95,-5.31 c -0.5225,-0.51079 -2.52131,-1.07329 -4.44181,-1.25 -2.56277,-0.23581 -3.58797,-0.85343 -3.85324,-2.3213 -1.50046,-8.30298 -15.5708,-13.02868 -36.7806,-12.35322 -8.14814,0.25949 -10.63293,0.0149 -11.77595,-1.15894 -1.62623,-1.67017 -2.32028,-8.3356 -1.21738,-11.691294 1.03557,-3.15079 9.62753,-9.130375 16.89871,-11.760671 C 189.70088,85.298301 193.4,83.883948 194.5,83.39287 195.6,82.901791 203.475,82.5 212,82.5 c 14.78304,0 15.75441,0.124129 21,2.683555 3.025,1.475955 6.93614,3.950955 8.69143,5.5 C 245.30512,93.87264 250,102.21605 250,105.44894 c 0,1.18308 0.41528,2.57856 0.92284,3.10106 0.56589,0.58254 0.27579,3.00174 -0.75,6.25435 -1.39541,4.42467 -2.13485,5.40018 -4.45872,5.88218 -1.53223,0.3178 -3.35433,1.38941 -4.04912,2.38136 -1.24055,1.77113 -8.66806,4.88895 -11.715,4.91756 -0.8525,0.008 -1.9775,-0.40337 -2.5,-0.91415 z M 140,86.357255 c -3.57731,-1.423692 -12.43471,-11.280705 -17.5,-19.474986 -0.55,-0.889753 -1.79829,-2.739736 -2.77398,-4.111074 -2.85011,-4.005841 -2.8007,-17.00034 0.0866,-22.771195 4.23932,-8.473199 5.21896,-9.828162 10.78128,-14.911804 6.45419,-5.898766 9.11574,-6.834179 14.44297,-5.076035 2.85807,0.94325 4.58585,0.994848 6.6611,0.198926 8.29872,-3.182819 17.43423,-5.394728 19.81408,-4.797424 3.51132,0.881285 2.90165,3.363676 -1.39085,5.663108 -5.53728,2.966243 -8.05336,8.162759 -8.08997,16.708412 -0.022,5.128976 0.45722,8.030619 1.61904,9.803789 1.46045,2.228916 1.50601,3.346308 0.39613,9.714816 -1.25274,7.188263 -4.3768,19.242333 -6.06287,23.393322 -0.49084,1.20841 -1.93436,2.879808 -3.20783,3.714216 -2.49061,1.631908 -12.31399,2.925629 -14.77568,1.945929 z"
       id="path845" />
  </g>
</svg>
