<?xml version="1.0" encoding="UTF-8" standalone="no"?>
<!-- Created with Inkscape (http://www.inkscape.org/) -->

<svg
   version="1.1"
   id="svg2"
   width="307"
   height="352"
   viewBox="0 0 307 352"
   sodipodi:docname="node_prise.svg"
   inkscape:version="1.1 (c68e22c387, 2021-05-23)"
   xmlns:inkscape="http://www.inkscape.org/namespaces/inkscape"
   xmlns:sodipodi="http://sodipodi.sourceforge.net/DTD/sodipodi-0.dtd"
   xmlns="http://www.w3.org/2000/svg"
   xmlns:svg="http://www.w3.org/2000/svg">
  <defs
     id="defs6" />
  <sodipodi:namedview
     id="namedview4"
     pagecolor="#505050"
     bordercolor="#ffffff"
     borderopacity="1"
     inkscape:pageshadow="0"
     inkscape:pageopacity="0"
     inkscape:pagecheckerboard="1"
     showgrid="false"
     inkscape:zoom="2.3636364"
     inkscape:cx="153.36538"
     inkscape:cy="141.94231"
     inkscape:window-width="1920"
     inkscape:window-height="1017"
     inkscape:window-x="1912"
     inkscape:window-y="-8"
     inkscape:window-maximized="1"
     inkscape:current-layer="g8" />
  <g
     inkscape:groupmode="layer"
     inkscape:label="Image"
     id="g8">
    <path
       id="path1091"
       style="fill:#f8d800;fill-opacity:1"
       d="m 238.56055,10.619141 c -5.48453,-0.007 -7.59187,6.756924 -1.74414,7.902343 12.83601,2.514247 17.19723,4.638354 23.8789,11.632813 4.02926,4.217885 7.96369,12.85057 8.81641,19.345703 0.36104,2.75 0.87479,5.7875 1.14062,6.75 0.69505,2.516594 5.01323,2.244077 6.43164,-0.40625 2.46788,-4.611266 -1.07538,-17.887362 -7.37109,-27.615234 -5.14282,-7.946458 -18.25042,-15.595391 -30.01172,-17.513672 -0.3943,-0.06431 -0.77499,-0.09524 -1.14062,-0.0957 z m -8.67383,18.972656 c -0.83179,-0.0086 -1.54473,0.08833 -2.10352,0.300781 -5.78786,2.20054 -3.68378,6.824711 3.73633,8.210938 9.87112,1.844124 16.23783,8.542716 18.48047,19.449218 0.67256,3.270823 1.42354,6.284766 1.66992,6.697266 0.24638,0.4125 1.53033,0.75 2.85352,0.75 9.12255,0 1.44094,-23.30759 -9.94922,-30.1875 -5.24177,-3.166146 -11.0831,-5.183367 -14.6875,-5.220703 z M 222,47 c -6.72986,0 -6.30825,6.094121 0.55469,8.015625 4.28781,1.200513 9.34568,5.614644 9.52148,8.310547 0.12248,1.878153 0.72419,4.708885 1.3418,6.318359 0.36178,0.942784 1.58123,1.372586 3.32617,1.171875 2.20788,-0.25396 2.82216,-0.89475 3.08789,-3.224609 C 240.97502,57.570375 231.82086,47 222,47 Z m -60.5,16.5 c -28.6,0 -53.125,0.323437 -54.5,0.71875 -1.375,0.395313 -3.85,1.951493 -5.5,3.457031 C 83.547564,84.056439 74.986946,92.606091 73.855469,95.287109 72.745874,97.916281 72.5,115.77711 72.5,193.5 v 95 l 2,3.39453 c 2.475125,4.20211 6.201706,7.05288 10.623047,8.125 1.857458,0.45041 26.101953,0.74349 53.876953,0.65039 L 189.5,300.5 193,298.62891 c 1.925,-1.02928 6.875,-5.08862 11,-9.02149 4.125,-3.93287 9.798,-9.17761 12.60742,-11.6543 2.80941,-2.47665 5.95941,-6.06733 7,-7.97851 L 225.5,266.5 l 0.30469,-91 c 0.16754,-50.05 0.0247,-93.339474 -0.31641,-96.199219 -0.73458,-6.157827 -3.6739,-10.915605 -8.49219,-13.746093 L 213.5,63.5 Z m -47.14844,33.683594 c 6.60815,-0.0092 14.48292,0.0098 23.76172,0.05664 L 189.5,97.5 v 95.5 95.5 l -52.07422,0.25977 C 108.78481,288.90212 85.047303,288.71332 84.675781,288.3418 84.304259,287.97028 84,245.27107 84,193.45508 c 0,-78.33111 0.229612,-94.400937 1.363281,-95.341799 0.738614,-0.612995 9.163837,-0.902195 28.988279,-0.929687 z m 21.33008,61.923826 c -1.59948,0.0547 -3.1411,0.71053 -4.125,2.11524 -2.05737,2.93731 -1.96356,4.37042 0.44336,6.77734 1.1,1.1 2.9,2 4,2 2.43033,0 6,-3.37471 6,-5.67188 0,-3.2404 -3.26481,-5.32508 -6.31836,-5.2207 z m 0.48242,35.13477 c -10.98104,0.11239 -22.08568,4.50284 -30.72851,14.0664 -20.926766,23.15609 -11.349525,59.22789 18.41992,69.375 28.33089,9.65676 58.35649,-13.76532 55.85742,-43.57421 -2.07149,-24.70875 -22.58502,-40.08176 -43.54883,-39.86719 z M 137,200.5332 c 7.4394,-0.009 9.31104,0.37285 15,3.07422 7.07285,3.35851 13.91975,9.38242 16.58398,14.58985 l 1.68946,3.30273 -1.96485,-1.75 c -5.95856,-5.30514 -13.9393,2.61929 -8.30859,8.25 3.61854,3.61854 8.36211,1.93608 9.875,-3.50195 l 0.83398,-2.99805 1.64454,5.43164 c 2.07353,6.8431 2.09104,13.21056 0.0527,20.07422 -2.0253,6.8199 -5.68163,10.24601 -13.17187,12.34766 -10.97621,3.07976 -21.20557,1.42799 -30.86915,-4.98633 -6.04826,-4.01461 -9.45101,-8.17912 -13.17773,-16.13086 -2.26071,-4.82369 -2.68573,-7.08757 -2.67773,-14.23633 0.0141,-12.29361 2.39374,-17.13654 10.20117,-20.76562 4.84488,-2.25204 7.17632,-2.69218 14.28906,-2.70118 z M 133.91602,218 c -5.66288,0 -8.23184,7.26448 -3.69336,10.44336 2.91785,2.04374 3.98669,1.96679 7.14257,-0.51563 C 141.9254,224.3407 139.72229,218 133.91602,218 Z" />
  </g>
</svg>
