<?xml version="1.0" encoding="UTF-8" standalone="no"?>
<!-- Svg Vector Icons : http://www.onlinewebfonts.com/icon -->

<svg
   xmlns:dc="http://purl.org/dc/elements/1.1/"
   xmlns:cc="http://creativecommons.org/ns#"
   xmlns:rdf="http://www.w3.org/1999/02/22-rdf-syntax-ns#"
   xmlns:svg="http://www.w3.org/2000/svg"
   xmlns="http://www.w3.org/2000/svg"
   xmlns:sodipodi="http://sodipodi.sourceforge.net/DTD/sodipodi-0.dtd"
   xmlns:inkscape="http://www.inkscape.org/namespaces/inkscape"
   version="1.1"
   x="0px"
   y="0px"
   viewBox="0 0 309 309"
   enable-background="new 0 0 1000 1000"
   xml:space="preserve"
   id="svg18"
   sodipodi:docname="node_garage.svg"
   width="309"
   height="309"
   inkscape:version="0.92.3 (2405546, 2018-03-11)"><defs
   id="defs22" /><sodipodi:namedview
   pagecolor="#ffffff"
   bordercolor="#666666"
   borderopacity="1"
   objecttolerance="10"
   gridtolerance="10"
   guidetolerance="10"
   inkscape:pageopacity="0"
   inkscape:pageshadow="2"
   inkscape:window-width="2493"
   inkscape:window-height="1385"
   id="namedview20"
   showgrid="false"
   inkscape:zoom="0.6675088"
   inkscape:cx="774.97386"
   inkscape:cy="719.12558"
   inkscape:window-x="67"
   inkscape:window-y="27"
   inkscape:window-maximized="1"
   inkscape:current-layer="svg18" />
<metadata
   id="metadata2"> Svg Vector Icons : http://www.onlinewebfonts.com/icon <rdf:RDF><cc:Work
     rdf:about=""><dc:format>image/svg+xml</dc:format><dc:type
       rdf:resource="http://purl.org/dc/dcmitype/StillImage" /><dc:title></dc:title></cc:Work></rdf:RDF></metadata>

<g
   id="g1489"
   transform="matrix(0.26623888,0,0,0.26623888,-2.6623888,45.440518)"><g
     style="fill:#f8d800;fill-opacity:1"
     id="g16"><g
       style="fill:#f8d800;fill-opacity:1"
       id="g14"
       transform="matrix(0.1,0,0,-0.1,0,511)"><path
         style="fill:#f8d800;fill-opacity:1"
         id="path4"
         d="M 100,3469.7 V 3087.2 H 451.5 803 l 4.1,-3353.5 6.2,-3355.6 h 403.2 403.2 l 6.2,3355.6 4.1,3353.5 H 4969 8308 V -272.5 -3632.2 l 409.4,4.1 407.3,6.2 6.2,3355.6 4.1,3353.5 h 382.5 382.5 l -4.1,378.3 -6.2,376.3 -4893.8,6.2 -4895.9,4.2 z"
         inkscape:connector-curvature="0" /><path
         style="fill:#f8d800;fill-opacity:1"
         id="path6"
         d="M 2002.1,2580.7 V 2384.3 H 5000 7997.9 v 196.4 196.4 H 5000 2002.1 Z"
         inkscape:connector-curvature="0" /><path
         style="fill:#f8d800;fill-opacity:1"
         id="path8"
         d="M 2002.1,1888.1 V 1702 H 5000 7997.9 v 186.1 186.1 H 5000 2002.1 Z"
         inkscape:connector-curvature="0" /><path
         style="fill:#f8d800;fill-opacity:1"
         id="path10"
         d="M 2002.1,1185.1 V 999 H 5000 7997.9 v 186.1 186.1 H 5000 2002.1 Z"
         inkscape:connector-curvature="0" /><path
         style="fill:#f8d800;fill-opacity:1"
         id="path12"
         d="m 3813.3,271.3 c -28.9,-26.9 -241.9,-334.9 -473.5,-686.4 l -419.7,-640.9 -134.4,-33.1 c -161.3,-39.3 -223.3,-74.4 -301.9,-179.9 l -57.9,-74.4 -6.2,-773.3 -6.2,-771.2 h 310.1 308.1 l 8.3,-254.3 c 6.2,-244 8.3,-258.4 66.2,-332.9 153,-200.5 485.9,-184 618.2,29 39.3,62 47.6,109.6 53.8,316.3 l 6.2,241.9 H 5002.2 6220 v -221.2 c 0,-181.9 8.3,-235.7 43.4,-310.1 115.8,-237.8 469.3,-266.7 634.7,-51.7 51.7,68.2 55.8,88.9 62,328.8 l 8.3,254.3 h 308 308.1 v 744.3 c 0,698.8 -2.1,750.5 -41.4,824.9 -70.3,138.5 -150.9,190.2 -392.8,246 -66.2,16.5 -101.3,64.1 -490,657.5 -231.6,351.5 -444.5,659.6 -473.4,686.4 l -51.7,45.5 H 5000 3864.9 Z m 2468.6,-814.6 c 175.7,-268.8 324.6,-496.2 326.7,-506.5 4.1,-10.3 -667.8,-18.6 -1608.5,-18.6 -975.9,0 -1612.7,8.3 -1608.5,18.6 4.1,10.3 150.9,237.8 326.7,506.5 l 320.5,487.9 H 5000 5961.4 Z M 3608.6,-1422 c 181.9,-86.8 281.2,-293.6 233.6,-475.5 -35.2,-130.3 -188.1,-272.9 -328.7,-308.1 -345.3,-82.7 -657.5,244 -527.2,554.1 97.1,233.6 388.6,343.2 622.3,229.5 z m 3165.3,10.3 c 101.3,-41.3 186.1,-124.1 233.6,-225.4 144.7,-312.2 -155.1,-643 -512.7,-568.6 -146.8,31 -299.8,171.6 -337,308.1 -47.6,181.9 57.9,399 235.7,479.6 103.4,47.7 277,49.7 380.4,6.3 z"
         inkscape:connector-curvature="0" /></g></g><g
     transform="matrix(0.18694174,0,0,0.18694174,1632.4697,-4.1296576)"
     id="g1944"
     style="display:inline"><g
       transform="translate(-3460.5977,-281.74778)"
       id="g1965"><path
         inkscape:connector-curvature="0"
         d="m 52.36,12.9 c -21.47,7.67 -33.92,20.7 -40.25,42.36 -4.02,13.99 -2.3,28.37 5.18,43.51 6.32,13.22 15.14,21.27 30.09,28.17 9.01,4.22 11.12,4.22 105.99,5.37 93.34,1.15 108.68,2.11 149.5,8.63 209.68,33.35 395.41,169.63 492.39,361.1 35.07,69.19 56.92,139.34 67.47,217.73 3.64,26.64 4.41,42.93 5.37,128.22 l 1.15,97.75 6.52,12.08 c 11.31,20.89 29.9,31.82 53.86,32.01 24.73,0 44.85,-12.65 55.39,-35.27 L 990,943.83 V 849.91 C 990,750.44 988.85,732.23 980.23,678.37 929.44,362.89 691.19,106.24 379.54,31.69 307.28,14.44 274.7,11.18 158.16,10.22 68.65,9.45 61.75,9.65 52.36,12.9 Z"
         id="path1934"
         style="fill:#f8d800;fill-opacity:1;stroke-width:0.1" /><path
         inkscape:connector-curvature="0"
         d="m 52.36,319.76 c -21.27,7.28 -33.92,20.51 -40.25,42.17 -4.02,13.99 -2.3,28.37 5.18,43.51 6.51,13.22 15.14,21.27 30.09,28.17 8.62,3.83 12.84,4.22 68.62,5.37 64.21,1.34 85.29,3.64 122.67,13.22 152.95,39.48 272.93,160.43 310.31,312.8 9.2,37.57 10.93,54.62 12.46,119.41 l 1.15,61.33 6.52,12.08 c 11.31,20.89 29.9,31.82 53.86,32.01 24.73,0 44.85,-12.65 55.39,-35.27 4.79,-10.54 4.98,-11.69 5.56,-56.73 0.96,-67.85 -3.64,-113.47 -16.86,-165.79 C 622,553.21 487.83,407.36 312.46,346.6 248.83,324.37 192.67,316.12 108.33,316.12 c -39.1,0.19 -47.53,0.58 -55.97,3.64 z"
         id="path1936"
         style="fill:#f8d800;fill-opacity:1;stroke-width:0.1" /><path
         inkscape:connector-curvature="0"
         d="m 56.39,624.51 c -9.01,2.3 -25.49,11.88 -30.67,18.02 -10.73,12.65 -14.95,24.34 -14.95,40.63 -0.19,13.61 0.57,16.87 6.13,28.18 11.12,22.62 27.22,31.82 60.95,34.31 11.88,0.96 27.22,2.88 34.12,4.41 68.04,15.91 122.48,70.34 138.19,138.19 1.72,6.9 3.83,22.81 4.79,35.46 1.53,20.32 2.3,24.34 7.86,34.5 18.98,35.65 68.04,42.93 96.6,14.38 9.39,-9.39 16.48,-25.11 17.63,-39.1 0.57,-6.13 0,-21.46 -1.34,-33.92 C 362.48,769.61 271.25,664 144.94,632.37 112.93,624.32 72.49,620.68 56.39,624.51 Z"
         id="path1938"
         style="fill:#f8d800;fill-opacity:1;stroke-width:0.1" /></g></g></g></svg>