<?xml version="1.0" encoding="UTF-8" standalone="no"?>
<!-- Created with Inkscape (http://www.inkscape.org/) -->

<svg
   width="302"
   height="357"
   viewBox="0 0 79.904165 94.456253"
   version="1.1"
   id="svg5"
   inkscape:version="1.1 (c68e22c387, 2021-05-23)"
   sodipodi:docname="node_espeasy.svg"
   xmlns:inkscape="http://www.inkscape.org/namespaces/inkscape"
   xmlns:sodipodi="http://sodipodi.sourceforge.net/DTD/sodipodi-0.dtd"
   xmlns="http://www.w3.org/2000/svg"
   xmlns:svg="http://www.w3.org/2000/svg">
  <sodipodi:namedview
     id="namedview7"
     pagecolor="#505050"
     bordercolor="#ffffff"
     borderopacity="1"
     inkscape:pageshadow="0"
     inkscape:pageopacity="0"
     inkscape:pagecheckerboard="1"
     inkscape:document-units="mm"
     showgrid="false"
     units="px"
     inkscape:zoom="1.4823793"
     inkscape:cx="166.28672"
     inkscape:cy="156.84244"
     inkscape:window-width="1920"
     inkscape:window-height="1017"
     inkscape:window-x="1912"
     inkscape:window-y="-8"
     inkscape:window-maximized="1"
     inkscape:current-layer="layer1" />
  <defs
     id="defs2" />
  <g
     inkscape:label="Calque 1"
     inkscape:groupmode="layer"
     id="layer1">
    <path
       id="path1196"
       style="fill:#f8d800;stroke-width:0.539328;fill-opacity:1"
       d="m 31.212696,18.104394 c -1.393046,0 -19.683103,18.078255 -20.14481,19.911488 -0.24175,0.959875 -0.0063,1.564927 0.891177,2.291678 0.670842,0.543215 1.601574,0.987922 2.0686,0.987922 1.158507,0 19.492841,-18.297598 19.881896,-19.842061 0.376841,-1.495977 -1.115395,-3.349027 -2.696863,-3.349027 z m 35.105317,0 c -1.489183,0 -54.738469,52.981627 -55.245574,54.967861 -0.245809,0.962785 -0.0136,1.56273 0.886624,2.291681 0.670842,0.543212 1.612047,0.987919 2.091363,0.987919 1.005689,0 54.415705,-53.168548 54.880224,-54.632106 0.43471,-1.369648 -1.188217,-3.615355 -2.612637,-3.615355 z m -17.282347,0.193487 c -1.339985,0.0099 -3.778376,2.400484 -19.547278,18.164417 -10.22246,10.219239 -18.586673,18.900997 -18.586673,19.292899 0,0.391902 0.258999,1.195822 0.575338,1.786906 0.413277,0.772216 1.018799,1.028334 2.151117,0.908818 1.257409,-0.132718 5.23316,-3.81639 19.674184,-18.228723 16.500589,-16.46781 18.084327,-18.204911 17.939059,-19.675888 -0.119455,-1.209609 -0.536045,-1.745128 -1.663415,-2.139166 -0.182254,-0.0637 -0.350906,-0.110679 -0.542332,-0.109263 z m 17.142921,17.682407 c -1.593373,0.01002 -3.356748,1.696718 -19.489802,17.824109 -16.089361,16.083714 -17.98914,18.164251 -17.98914,19.69922 0,1.065496 0.35813,1.924204 0.9441,2.265501 0.519105,0.302356 1.309051,0.557204 1.75561,0.566234 0.446557,0.009 9.173247,-8.34714 19.392489,-18.569601 18.015919,-18.021601 18.564189,-18.632145 18.054584,-20.090178 -0.413411,-1.182786 -0.914521,-1.541236 -2.347449,-1.678782 -0.108919,-0.01046 -0.214167,-0.01716 -0.320392,-0.01649 z m -4.310201,26.348904 c -3.287361,0 -6.735302,3.393845 -6.739597,6.633749 -0.0029,2.177304 1.405024,4.579218 3.395125,5.79265 0.94965,0.579039 2.405882,1.053993 3.236349,1.055071 3.440143,0.0046 6.846013,-3.348144 6.846013,-6.739597 0,-3.340228 -3.399658,-6.741873 -6.73789,-6.741873 z" />
  </g>
</svg>
