<?xml version="1.0" encoding="UTF-8" standalone="no"?>
<!-- Created with Inkscape (http://www.inkscape.org/) -->

<svg
   width="309"
   height="348"
   viewBox="0 0 81.756248 92.075003"
   version="1.1"
   id="svg5"
   inkscape:version="1.1 (c68e22c387, 2021-05-23)"
   sodipodi:docname="node_solar-panel.svg"
   inkscape:export-filename="C:\Users\jfridisch\ownCloud\Git\jmqtt-crash-doc-logs\nouveau logo jmqtt\logo_eq.png"
   inkscape:export-xdpi="96"
   inkscape:export-ydpi="96"
   xmlns:inkscape="http://www.inkscape.org/namespaces/inkscape"
   xmlns:sodipodi="http://sodipodi.sourceforge.net/DTD/sodipodi-0.dtd"
   xmlns="http://www.w3.org/2000/svg"
   xmlns:svg="http://www.w3.org/2000/svg">
  <sodipodi:namedview
     id="namedview7"
     pagecolor="#505050"
     bordercolor="#ffffff"
     borderopacity="1"
     inkscape:pageshadow="0"
     inkscape:pageopacity="0"
     inkscape:pagecheckerboard="1"
     inkscape:document-units="px"
     showgrid="false"
     units="mm"
     inkscape:zoom="1.4142136"
     inkscape:cx="63.639609"
     inkscape:cy="148.13887"
     inkscape:window-width="1920"
     inkscape:window-height="1017"
     inkscape:window-x="1912"
     inkscape:window-y="-8"
     inkscape:window-maximized="1"
     inkscape:current-layer="svg5" />
  <defs
     id="defs5035" />
  <g
     transform="matrix(0.00768297,0,0,-0.00768297,0.21821097,46.882627)"
     id="g20"
     style="fill:#f8d800;fill-opacity:1;stroke:none">
    <path
       d="m 2542.4,4485.9 v -407.1 h 203.5 203.5 v 407.1 407.1 h -203.5 -203.5 z"
       id="path4"
       style="fill:#f8d800;fill-opacity:1;stroke:none" />
    <path
       d="m 881.1,4109.4 -145,-145 274.8,-274.8 c 150.1,-150.1 284.9,-272.2 300.2,-272.2 33.1,0 264.6,234.1 264.6,269.7 0,12.7 -122.1,147.6 -274.8,297.7 L 1028.7,4257 Z"
       id="path6"
       style="fill:#f8d800;fill-opacity:1;stroke:none" />
    <path
       d="m 4175.7,3969.5 -284.9,-285 134.8,-134.8 c 73.8,-71.2 145,-132.3 157.7,-132.3 15.3,0 150.1,122.1 300.2,274.8 l 272.2,272.2 -147.6,147.6 -145,145 z"
       id="path8"
       style="fill:#f8d800;fill-opacity:1;stroke:none" />
    <path
       d="M 2593.2,3646.3 C 1807.1,3521.6 1229.5,2811.8 1277.9,2030.8 c 30.5,-460.5 264.6,-890.4 631,-1157.6 129.8,-91.6 132.3,-89 160.3,183.2 l 17.8,170.4 -101.8,106.9 c -58.5,58.5 -147.6,193.4 -201,297.7 -91.6,190.8 -94.1,198.4 -94.1,488.5 0,277.3 5.1,302.8 81.4,465.6 96.7,203.5 310.4,440.1 485.9,534.3 346,188.3 783.6,188.3 1129.6,0 175.5,-94.1 389.2,-330.7 485.9,-534.3 76.3,-165.4 81.4,-188.3 81.4,-470.7 v -300.2 h 193.4 193.4 l 17.8,96.7 c 114.5,702.2 -376.5,1465.4 -1078.7,1679.1 -201,61 -498.7,86.5 -687,55.9 z"
       id="path10"
       style="fill:#f8d800;fill-opacity:1;stroke:none" />
    <path
       d="m 100,2247.1 v -203.5 h 407.1 407.1 v 203.5 203.5 H 507.1 100 Z"
       id="path12"
       style="fill:#f8d800;fill-opacity:1;stroke:none" />
    <path
       d="m 4577.7,2247.1 v -203.5 h 407.1 407.1 v 203.5 203.5 h -407.1 -407.1 z"
       id="path14"
       style="fill:#f8d800;fill-opacity:1;stroke:none" />
    <path
       d="m 2354.1,1542.3 c -7.6,-53.4 -152.6,-1200.8 -320.6,-2551.8 -167.9,-1350.9 -312.9,-2498.3 -320.6,-2549.2 l -15.3,-96.7 H 3353.8 5010 v -305.3 -305.3 h -547 -547 v -203.5 -203.5 h 1908.1 1908.1 v 203.5 203.5 h -547 -547 v 305.3 305.3 H 8269 9900 l -15.3,96.7 c -7.6,50.9 -152.7,1198.3 -320.5,2549.2 -167.9,1350.9 -312.9,2498.3 -320.6,2551.8 l -15.3,94.1 H 5798.8 2369.4 Z m 2223.6,-368.9 c 0,-68.7 -68.7,-796.3 -91.6,-954 L 4473.4,110 H 3532 2593.2 v 58.5 c 0,30.5 28,279.9 63.6,552.1 35.6,272.2 63.6,498.7 63.6,503.7 0,2.5 417.2,5.1 928.6,5.1 h 928.6 v -56 z m 2238.8,12.8 c 0,-25.4 22.9,-274.8 50.9,-554.6 28,-279.8 50.9,-511.4 50.9,-513.9 0,-5.1 -457.9,-7.6 -1020.2,-7.6 H 4877.9 l 15.3,122.1 c 17.8,134.8 91.6,915.9 91.6,966.8 0,22.9 201,30.5 915.9,30.5 854.7,-0.1 915.8,-2.6 915.8,-43.3 z m 2060.7,38.1 c 0,-5.1 28,-231.5 63.6,-503.7 35.6,-272.2 63.6,-521.6 63.6,-552.1 V 110 h -839.6 -837 l -12.7,84 c -17.8,101.8 -91.6,910.8 -91.6,982 0,53.4 7.6,53.4 826.8,53.4 455.5,0 826.9,-2.5 826.9,-5.1 z M 4425,-378.5 c 0,-104.3 -99.2,-1208.5 -117,-1284.8 l -10.2,-58.5 H 3331 2364.2 v 53.4 c 0,71.3 152.6,1297.5 165.4,1340.8 7.6,22.9 221.3,30.5 954.1,30.5 H 4425 Z m 2587.4,-516.4 c 30.5,-320.6 61,-638.6 68.7,-704.7 l 12.7,-122.1 H 5898.1 4702.3 l 12.7,84 c 7.6,43.3 38.2,351.1 68.7,679.3 28,328.2 56,613.1 61.1,630.9 10.2,25.4 234.1,30.5 1060.9,25.4 l 1050.7,-7.6 z m 2137.1,-38.2 c 43.3,-343.5 81.4,-661.5 81.4,-704.7 l 2.5,-84 h -865 -865 l -10.2,58.5 c -7.6,30.5 -38.2,325.6 -66.1,653.8 -27.9,328.2 -58.5,623.4 -66.1,656.5 l -10.2,56 857.4,-5.1 859.9,-7.6 z M 4262.2,-2197.5 c -7.6,-40.7 -33.1,-292.6 -56,-559.7 l -43.2,-491 H 3158.1 2155.7 l 12.7,71.2 c 7.6,38.2 38.2,290 71.2,559.7 l 58.5,488.5 h 989.7 989.7 z m 2869.8,12.7 c 15.3,-73.8 91.6,-905.7 91.6,-994.8 v -68.7 h -1323 -1323 v 66.1 c 0,91.6 76.3,928.6 91.6,997.3 l 10.2,56 h 1221.2 1221.2 z m 2221,-389.3 c 30.5,-236.6 61.1,-485.9 68.7,-552.1 l 17.8,-122.1 H 8538.9 7638.3 L 7595,-2770 c -22.9,262 -50.9,513.9 -58.5,559.7 l -12.7,81.4 885.4,-5.1 887.9,-7.6 z M 6231.4,-3960.6 v -305.3 h -407.1 -407.1 v 305.3 305.3 h 407.1 407.1 z"
       id="path16"
       style="fill:#f8d800;fill-opacity:1;stroke:none" />
    <path
       d="m 1003.2,796.9 -279.9,-279.8 147.6,-145 145,-147.6 279.9,279.9 c 152.6,152.7 279.9,290 279.9,305.3 0,33.1 -234.1,267.1 -269.7,267.1 -12.8,0 -150.2,-127.2 -302.8,-279.9 z"
       id="path18"
       style="fill:#f8d800;fill-opacity:1;stroke:none" />
  </g>
</svg>
