<?xml version="1.0" encoding="UTF-8" standalone="no"?>
<!-- Created with Inkscape (http://www.inkscape.org/) -->

<svg
   version="1.1"
   id="svg2"
   width="307"
   height="352"
   viewBox="0 0 307 352"
   sodipodi:docname="node_relay.svg"
   inkscape:version="1.1 (c68e22c387, 2021-05-23)"
   xmlns:inkscape="http://www.inkscape.org/namespaces/inkscape"
   xmlns:sodipodi="http://sodipodi.sourceforge.net/DTD/sodipodi-0.dtd"
   xmlns="http://www.w3.org/2000/svg"
   xmlns:svg="http://www.w3.org/2000/svg">
  <defs
     id="defs6" />
  <sodipodi:namedview
     id="namedview4"
     pagecolor="#505050"
     bordercolor="#ffffff"
     borderopacity="1"
     inkscape:pageshadow="0"
     inkscape:pageopacity="0"
     inkscape:pagecheckerboard="1"
     showgrid="false"
     inkscape:zoom="2.3636364"
     inkscape:cx="153.36538"
     inkscape:cy="175.78846"
     inkscape:window-width="1920"
     inkscape:window-height="1017"
     inkscape:window-x="-8"
     inkscape:window-y="-8"
     inkscape:window-maximized="1"
     inkscape:current-layer="g8" />
  <g
     inkscape:groupmode="layer"
     inkscape:label="Image"
     id="g8">
    <path
       style="fill:#f8d800;fill-opacity:1"
       d="m 78,268.69113 c 0,-7.54052 0.416526,-11.83364 1.25,-12.8837 0.80556,-1.01489 3.710348,-1.81004 8.169795,-2.23637 27.591255,-2.63779 27.110135,-22.96627 -0.598519,-25.28926 -6.122093,-0.51326 -7.139961,-0.88713 -8.08962,-2.97141 -1.731868,-3.80103 0.946249,-5.58943 9.609307,-6.41692 C 99.905775,217.7888 108,212.4673 108,205.96873 108,200.11213 96.684249,194 85.841552,194 c -4.024633,0 -5.061445,-0.40597 -6.450298,-2.52562 -2.622945,-4.00312 -0.05655,-6.04469 8.500403,-6.76208 15.840513,-1.32801 24.458643,-9.91208 18.085583,-18.01411 -2.58158,-3.28194 -10.6003,-6.28445 -19.260569,-7.21189 -5.1459,-0.55108 -7.017916,-1.18066 -7.787761,-2.61913 -1.962647,-3.66724 0.269395,-5.21507 9.426722,-6.53706 9.214305,-1.3302 15.592348,-3.99005 18.078288,-7.53923 5.37431,-7.6729 -2.87677,-15.60508 -18.054654,-17.35685 -8.038105,-0.92772 -9.216259,-1.34508 -9.902749,-3.50802 C 77.388457,118.49784 80.548461,116 85.973486,116 97.234974,116 108,109.73297 108,103.17692 108,96.868751 99.693344,91.963756 86.5,90.481393 83.2,90.110616 79.9375,89.34552 79.25,88.781181 78.383366,88.069799 78,84.265695 78,76.377555 V 65 h 4.5 4.5 v 8.323495 8.323494 l 6.186827,1.150561 c 22.510923,4.186345 30.798093,21.86713 16.052023,34.2472 l -4.01952,3.37459 4.79583,4.54033 c 6.04795,5.72575 7.903,11.03243 6.03549,17.26562 -1.19339,3.98318 -6.74518,10.67821 -10.05065,12.1203 -1.15703,0.50478 -1.20574,0.7906 -0.21305,1.25006 3.01846,1.39706 7.44129,5.93141 9.2569,9.4903 3.76357,7.37721 1.99417,14.0699 -5.45279,20.62498 l -4.68269,4.12187 3.06853,1.81262 c 1.68769,0.99695 4.27973,3.5604 5.7601,5.69657 5.32647,7.6861 3.00529,17.86987 -5.38316,23.61773 l -3.32652,2.27936 4.89184,4.63046 c 8.32453,7.87976 9.05338,16.53639 2.06265,24.4984 -3.54927,4.04239 -13.107318,8.50428 -19.954682,9.31525 L 87,262.27858 V 271.13929 280 H 82.5 78 Z m 94,-20.58272 v -28.89159 l -2.38858,-0.5995 c -3.23989,-0.81316 -8.26888,-6.74197 -9.66153,-11.39025 -3.20836,-10.70853 8.06478,-23.10974 18.88379,-20.77345 2.52918,0.54616 3.36067,-0.4841 16.16632,-20.03116 7.425,-11.33382 13.95,-21.58207 14.5,-22.77389 2.40517,-5.21187 7.68799,-11.50989 10.95493,-13.06016 L 224,128.90617 V 98.453083 68 h 3.86714 3.86714 l 0.45771,29.498582 0.45772,29.498578 5.61315,5.04856 c 6.9422,6.24393 8.30447,9.75133 6.33242,16.30396 -1.98004,6.57915 -3.98099,9.29628 -8.57007,11.63746 -5.4545,2.78268 -11.35527,2.59552 -16.68735,-0.52929 -2.38582,-1.39819 -4.33786,-2.97319 -4.33786,-3.5 0,-3.35201 -3.79151,1.09175 -13,15.23637 -13.9863,21.48355 -13.46609,20.44549 -11.64159,23.23003 2.02201,3.08598 2.9849,8.73619 2.14245,12.57186 -0.81821,3.72527 -5.63296,9.50372 -9.6493,11.58065 L 180,220.05136 V 248.52568 277 h -4 -4 z m 9.68555,-39.28272 c 3.17108,-2.97908 3.1077,-8.12335 -0.1401,-11.37114 -7.22983,-7.22984 -17.8201,2.8414 -11.47287,10.91059 2.68353,3.41155 8.23732,3.6318 11.61297,0.46055 z M 231.04283,153 C 232.8725,153 236,148.51323 236,145.88836 236,142.91006 230.91823,137 228.35734,137 c -4.30269,0 -8.27922,4.096 -8.32554,8.57569 -0.044,4.25653 5.24222,8.96914 8.79999,7.84508 C 229.56427,153.18935 230.55924,153 231.04283,153 Z m -103.70694,62.25 c 0.36386,-23.5125 0.66214,-62.2125 0.66284,-86 L 128,86 h 6 6 v 86 86 h -6.66283 -6.66283 z M 167.5,159.57407 c -5.37768,-3.23604 -7.91892,-7.79018 -7.92428,-14.20107 -0.005,-6.32504 3.54137,-12.25162 8.83504,-14.76363 L 172,128.90617 V 98.453083 68 h 4 4 v 30.37868 30.37868 l 3.02025,1.25103 c 6.21516,2.5744 10.88249,11.39049 9.60623,18.14515 -2.18985,11.58987 -15.09638,17.45617 -25.12648,11.42053 z M 179.04283,153 c 1.93823,0 4.95717,-4.54687 4.95717,-7.46606 0,-8.19584 -9.64777,-11.22464 -14.7182,-4.6206 -2.00975,2.61763 -1.525,7.51677 0.9682,9.78507 2.67453,2.43326 4.76286,3.29704 6.58179,2.72236 C 177.56427,153.18935 178.55924,153 179.04283,153 Z"
       id="path845" />
  </g>
</svg>
